<svg width="206" height="115" viewBox="0 0 206 115" fill="none" xmlns="http://www.w3.org/2000/svg">
<path d="M170.387 0.175709C170.237 0.270863 170.088 0.37961 170.047 0.420391C170.006 0.474765 169.829 0.556325 169.639 0.610699C169.449 0.665073 169.15 0.814601 168.959 0.950535C168.769 1.07288 168.47 1.2224 168.28 1.26318C167.926 1.35834 166.676 2.473 166.132 3.17986L165.819 3.58766L165.616 3.28861C165.507 3.12549 165.33 2.98955 165.235 2.98955C165.14 2.98955 164.922 2.84002 164.746 2.64972C164.487 2.36425 164.297 2.30988 163.713 2.30988C163.318 2.30988 162.951 2.36425 162.911 2.44581C162.87 2.51378 162.734 2.58175 162.625 2.58175C162.503 2.58175 161.918 2.82643 161.32 3.12549C160.709 3.42454 160.138 3.66922 160.029 3.66922C159.934 3.66922 159.811 3.76438 159.771 3.87313C159.73 3.98187 159.485 4.18578 159.227 4.3353C158.969 4.48483 158.724 4.72951 158.67 4.85185C158.615 4.98779 158.316 5.39559 157.99 5.76261C157.664 6.12964 157.405 6.55103 157.405 6.72775C157.405 6.89087 157.31 7.10837 157.202 7.20352C157.093 7.29867 156.998 7.48898 156.998 7.62492C156.998 7.76085 156.943 7.91038 156.862 7.95116C156.794 7.99194 156.726 8.16865 156.726 8.33178C156.726 8.4949 156.631 8.9027 156.508 9.24254C156.236 10.0174 156.359 12.6681 156.685 12.9264C156.984 13.1846 157.27 13.8099 157.27 14.2313C157.27 14.4352 157.365 14.7887 157.473 15.0062C157.582 15.2101 157.677 15.4411 157.677 15.4955C157.677 15.6722 156.848 16.0393 156.454 16.0393C156.25 16.0393 155.897 16.1344 155.693 16.2432C155.475 16.3519 155.108 16.4471 154.864 16.4471C154.633 16.4471 154.388 16.5014 154.347 16.583C154.306 16.651 154.17 16.7189 154.062 16.7189C153.953 16.7189 153.871 16.651 153.871 16.583C153.871 16.5014 153.953 16.4471 154.048 16.4471C154.13 16.4471 154.361 16.2839 154.537 16.1072C154.714 15.9169 154.932 15.7674 155.013 15.7674C155.367 15.7674 155.774 15.1421 155.774 14.6255C155.774 14.2177 155.693 14.0274 155.407 13.7827C155 13.4429 154.306 13.3478 154.048 13.606C153.939 13.7148 153.871 13.7148 153.817 13.606C153.545 13.1846 152.335 13.606 151.9 14.2721C151.751 14.4896 151.547 14.6799 151.452 14.6799C151.343 14.6799 151.098 14.7615 150.908 14.8702C150.704 14.9654 150.364 15.1285 150.133 15.2237C149.399 15.5363 148.774 15.8354 148.706 15.9169C148.638 15.9849 148.054 16.2568 147.211 16.6102C147.02 16.6917 146.776 16.8005 146.667 16.8685C146.558 16.9364 146.368 17.0316 146.259 17.086C146.151 17.1267 145.892 17.2899 145.688 17.4258C145.498 17.5617 145.172 17.6705 144.982 17.6705C144.628 17.6705 144.506 17.4938 144.764 17.3306C144.846 17.2899 144.9 17.0724 144.9 16.8549C144.9 16.6374 144.846 16.4199 144.764 16.3791C144.696 16.3383 144.628 16.1752 144.628 16.0393C144.628 15.7402 144.125 15.5635 143.636 15.6858C143.296 15.7674 142.82 16.1752 142.603 16.5422C142.494 16.7325 142.44 16.7597 142.304 16.6102C142.209 16.5286 141.896 16.4471 141.611 16.4471C141.176 16.4471 140.999 16.5558 140.346 17.1811C139.64 17.8744 138.933 18.3501 138.606 18.3501C138.525 18.3501 138.362 18.4453 138.226 18.5676C137.75 18.989 137.125 18.4317 137.573 17.9831C137.791 17.7656 137.628 17.3986 137.329 17.3986C136.799 17.385 136.5 16.9364 136.459 16.0936C136.418 15.2916 136.54 14.9382 137.03 14.3809C137.152 14.2449 137.451 13.7148 137.696 13.2118C137.954 12.7089 138.267 12.2195 138.403 12.1243C138.539 12.0292 138.647 11.8661 138.647 11.7709C138.647 11.6894 138.851 11.4039 139.109 11.1592C139.368 10.9145 139.612 10.5475 139.667 10.3572C139.708 10.1669 139.871 9.84065 140.02 9.63675C140.156 9.43285 140.278 9.21535 140.278 9.14738C140.278 9.06582 140.401 8.9027 140.55 8.76677C141.012 8.34537 141.244 7.69288 141.203 6.98602C141.162 6.31995 141.162 6.31995 140.659 6.27917C140.115 6.23839 139.109 6.75494 138.96 7.17633C138.906 7.29867 138.783 7.48898 138.688 7.58414C138.593 7.67929 138.511 7.93757 138.511 8.14147C138.511 8.34537 138.389 8.63083 138.239 8.76677C138.09 8.9027 137.968 9.09301 137.968 9.18816C137.968 9.47363 137.505 10.1941 137.315 10.1941C137.22 10.1941 137.098 10.33 137.03 10.4931C136.962 10.6698 136.649 11.0505 136.336 11.3495C136.037 11.6486 135.657 12.1515 135.494 12.4642C135.181 13.1031 134.855 13.307 134.678 12.9807C134.61 12.872 134.501 12.7768 134.433 12.7768C134.366 12.7768 134.148 12.6273 133.958 12.4506C133.767 12.2739 133.387 12.0156 133.115 11.8933C132.843 11.7573 132.476 11.4855 132.299 11.268C132.123 11.0641 131.851 10.8466 131.701 10.8058C131.429 10.7106 131.429 10.7106 131.688 10.4252C131.824 10.262 132.082 9.88143 132.259 9.58237C132.435 9.28332 132.612 9.01145 132.653 8.97067C132.707 8.92989 132.83 8.71239 132.938 8.4949C133.047 8.26381 133.224 8.03272 133.305 7.97835C133.4 7.92397 133.482 7.76085 133.482 7.63851C133.482 7.51617 133.672 7.18993 133.89 6.93165C134.121 6.67338 134.406 6.25198 134.529 6.0073C134.719 5.62668 134.719 5.50434 134.556 5.19169C134.121 4.30812 133.36 4.10421 132.775 4.71592C132.34 5.1645 131.443 6.74134 131.443 7.02681C131.443 7.13555 131.266 7.4618 131.049 7.73366C130.845 8.00553 130.437 8.57646 130.152 8.99786L129.635 9.78627H127.99C126.971 9.78627 126.278 9.7319 126.183 9.63675C126.087 9.54159 125.72 9.51441 125.177 9.56878C124.701 9.62315 123.899 9.69112 123.396 9.7319C122.88 9.77268 122.472 9.86784 122.472 9.9358C122.472 10.0038 122.336 10.0581 122.173 10.0581C121.996 10.0717 121.615 10.1805 121.316 10.33C120.745 10.5883 120.569 10.5747 120.569 10.2485C120.569 10.0446 120.528 9.9494 120.093 9.1066C119.794 8.54927 118.883 7.61132 118.625 7.61132C118.516 7.61132 118.299 7.4618 118.122 7.27149C117.945 7.08118 117.646 6.93165 117.456 6.91806C117.266 6.91806 116.926 6.79572 116.695 6.65978C115.662 6.0073 115.526 5.98011 113.963 5.98011C113.093 5.98011 112.399 6.03448 112.345 6.11604C112.304 6.18401 112.005 6.25198 111.679 6.25198C111.366 6.25198 111.054 6.30635 110.986 6.37432C110.904 6.44229 110.129 6.52385 109.246 6.56463C108.294 6.59181 107.574 6.68697 107.492 6.76853C107.397 6.86368 107.071 6.93165 106.772 6.93165C106.351 6.93165 106.133 7.01321 105.888 7.27149C105.712 7.4618 105.481 7.61132 105.385 7.61132C105.277 7.61132 105.168 7.69288 105.127 7.80163C105.018 8.10069 103.591 9.1066 103.51 8.95707C103.455 8.88911 103.251 8.83473 103.02 8.83473C102.803 8.83473 102.626 8.78036 102.626 8.72599C102.626 8.65802 102.966 8.291 103.374 7.89679C103.972 7.31227 104.121 7.09477 104.121 6.74134C104.108 5.65387 102.816 5.20528 101.933 5.98011C100.995 6.80931 100.859 6.97243 100.859 7.25789C100.859 7.59773 100.016 8.65802 99.5813 8.84833C99.4182 8.91629 99.1192 9.09301 98.8881 9.22894C98.6706 9.37847 98.3444 9.50081 98.1812 9.50081C98.0181 9.51441 97.8414 9.56878 97.8007 9.65034C97.7599 9.71831 97.556 9.78627 97.3657 9.78627C97.0394 9.78627 96.4142 10.0717 95.9656 10.4252C95.8569 10.5067 95.1772 10.8738 94.4704 11.2408C92.9752 12.002 92.4451 12.3418 91.6567 13.1031C91.1265 13.606 91.0722 13.7148 91.0722 14.3129C91.0722 14.8566 91.0178 14.979 90.7731 15.0741C90.5964 15.1421 90.3518 15.3324 90.2294 15.4819C90.0935 15.645 89.8896 15.7674 89.7809 15.7674C89.6721 15.7674 89.577 15.8218 89.577 15.9033C89.577 15.9713 89.4274 16.0393 89.2371 16.0393C89.0332 16.0393 88.8429 16.148 88.7478 16.3383C88.5575 16.7189 87.9322 17.3986 87.7827 17.3986C87.6332 17.3986 86.2195 18.323 86.1108 18.4861C86.07 18.554 85.8797 18.622 85.7166 18.622C85.5399 18.622 85.3224 18.7172 85.2272 18.8259C85.1321 18.9347 84.969 19.0298 84.8602 19.0298C84.5748 19.0298 83.4602 19.8318 83.4602 20.0357C83.4602 20.2804 82.7397 20.9329 82.4543 20.9329C82.332 20.9329 82.0873 21.0824 81.9242 21.2455C81.5028 21.7077 81.1901 21.8437 80.3066 21.9388C79.8852 21.9932 79.2871 22.1563 78.9881 22.3058C78.6891 22.4418 78.3628 22.5641 78.2677 22.5641C78.1725 22.5641 77.7919 22.7136 77.4249 22.9039C77.0579 23.0943 76.6229 23.2438 76.4598 23.2438C76.188 23.2438 75.6307 23.4477 75.0054 23.8011C74.8695 23.8691 74.6384 23.9235 74.4889 23.9235C74.3393 23.9235 74.1083 23.9778 73.9723 24.0458C73.85 24.1138 73.2519 24.4128 72.6538 24.7119C72.0557 24.9973 71.3489 25.3644 71.077 25.5275C70.8052 25.677 70.2751 25.8537 69.9216 25.9081C69.5546 25.9489 69.1061 26.112 68.9158 26.2343C68.7255 26.3703 68.3585 26.5198 68.1002 26.5742C67.8419 26.6286 67.5429 26.7237 67.4206 26.7917C67.3118 26.8461 67.0128 26.982 66.7817 27.0771C66.537 27.1723 66.3331 27.281 66.3331 27.3218C66.3331 27.4306 65.2185 27.9743 64.8107 28.0559C64.6204 28.1102 64.2806 28.287 64.0631 28.4637C63.832 28.654 63.4107 28.8171 62.9757 28.8851C62.5815 28.9394 62.2281 29.0346 62.1737 29.1026C62.1329 29.1705 61.997 29.2249 61.8611 29.2249C61.7251 29.2249 61.5077 29.3472 61.3581 29.5104C61.0863 29.8094 60.094 30.3124 59.7678 30.3124C59.5095 30.3124 58.7891 30.6794 58.5852 30.9241C58.49 31.0328 58.2861 31.128 58.123 31.128C57.9735 31.1416 57.5929 31.2911 57.2939 31.4678C56.9948 31.6445 56.5327 31.9028 56.2744 32.0252C56.0161 32.1611 55.6219 32.3922 55.3909 32.5417C54.8335 32.9359 54.3714 33.167 54.1675 33.167C54.0588 33.167 53.8685 33.3029 53.7325 33.4797C53.5966 33.6564 53.3111 33.9146 53.0801 34.0506C52.6315 34.336 51.6936 35.0429 51.4081 35.3012C51.313 35.3963 51.1907 35.4779 51.1363 35.4779C51.0819 35.4779 50.7965 35.6954 50.511 35.9537C50.212 36.2119 49.9129 36.4294 49.8314 36.4294C49.7498 36.4294 49.5051 36.579 49.2876 36.7421C48.8527 37.0955 48.907 37.381 49.3964 37.381C49.8586 37.381 50.3615 37.0819 51.2858 36.2799C52.0742 35.573 52.2509 35.4507 53.0801 35.0157C53.3111 34.8934 53.7325 34.5807 54.018 34.3224C54.317 34.0642 54.6568 33.8467 54.7792 33.8467C54.9015 33.8467 55.1326 33.6971 55.2957 33.5068C55.4588 33.3165 55.6899 33.167 55.7986 33.167C55.9074 33.167 56.0025 33.1262 56.0025 33.0583C56.0025 33.0039 56.2064 32.8815 56.4375 32.7728C57.457 32.3514 57.8512 32.1475 58.0143 31.9844C58.1094 31.8892 58.3405 31.8077 58.5036 31.8077C58.6803 31.8077 58.8978 31.7125 58.993 31.6038C59.1833 31.3863 59.9037 30.9921 60.1348 30.9921C60.3251 30.9921 61.7659 30.2444 62.2689 29.891C62.4727 29.755 62.7718 29.6327 62.9213 29.6327C63.0844 29.6327 63.2068 29.5647 63.2068 29.4968C63.2068 29.4152 63.4107 29.3608 63.6689 29.3608C63.9136 29.3608 64.199 29.2657 64.2942 29.1569C64.3893 29.0482 64.5525 28.953 64.6476 28.953C64.7563 28.953 64.8379 28.8851 64.8379 28.8171C64.8379 28.7355 65.0418 28.6812 65.3001 28.6812C65.5447 28.6812 65.8302 28.586 65.9253 28.4773C66.0205 28.3685 66.1836 28.2734 66.2788 28.2734C66.3875 28.2734 66.4691 28.219 66.4691 28.151C66.4691 28.0831 66.605 27.9879 66.7817 27.9335C67.1487 27.8248 67.4206 27.716 68.3857 27.2674C68.807 27.0771 69.242 26.914 69.3643 26.914C69.4867 26.914 69.6226 26.846 69.6634 26.7781C69.7042 26.6965 69.8945 26.6421 70.0848 26.6421C70.2615 26.6421 70.411 26.5742 70.411 26.5062C70.411 26.4247 70.5469 26.3703 70.7236 26.3703C70.8867 26.3703 71.1994 26.2751 71.4169 26.1664C71.6208 26.0576 71.879 25.9625 71.9742 25.9625C72.0557 25.9625 72.246 25.8401 72.3684 25.7042C72.5043 25.5547 72.7897 25.3915 73.0072 25.3508C73.2247 25.2964 73.4014 25.2148 73.4014 25.1741C73.4014 24.9973 74.4889 24.6031 74.9646 24.6031C75.2637 24.6031 75.4811 24.508 75.6035 24.3449C75.7394 24.1545 76.0249 24.0458 76.5414 23.9914C77.3026 23.8963 77.7104 23.7467 78.3085 23.3525C78.4988 23.2302 78.9201 23.0807 79.2328 23.0263C79.5454 22.9719 79.8309 22.8768 79.8716 22.8224C79.9124 22.7544 80.0891 22.7 80.2794 22.7C80.4561 22.7 80.6057 22.6457 80.6057 22.5777C80.6057 22.5097 80.9183 22.4282 81.2989 22.401C81.829 22.3466 82.0737 22.2379 82.4271 21.898C82.6582 21.6669 82.9164 21.4766 82.9844 21.4766C83.1611 21.4766 84.1398 20.4571 84.1398 20.2804C84.1398 20.1989 84.3165 20.1037 84.5476 20.0493C84.7651 19.995 84.9826 19.8998 85.0233 19.8318C85.0777 19.7639 85.2136 19.7095 85.3496 19.7095C85.4855 19.7095 85.703 19.5871 85.8389 19.4376C85.9748 19.2881 86.1787 19.1658 86.3011 19.1658C86.4234 19.1658 86.6817 19.0162 86.8856 18.8259C87.0759 18.6492 87.3885 18.4589 87.5652 18.4181C87.9866 18.3094 89.0332 17.4802 89.2235 17.086C89.3187 16.9228 89.509 16.7733 89.6721 16.7461C89.8216 16.7189 90.0663 16.583 90.2022 16.4335C90.3246 16.2975 90.4877 16.1752 90.5556 16.1752C90.6236 16.1752 90.9227 15.9713 91.2081 15.7266C91.6974 15.3324 91.7518 15.2372 91.7518 14.6255C91.7518 14.041 91.8062 13.9051 92.214 13.5381C92.9208 12.8992 93.4781 12.505 93.682 12.505C93.7772 12.505 93.9811 12.4098 94.117 12.3011C94.2665 12.1923 94.484 12.0972 94.6199 12.0972C94.7423 12.0972 94.919 12.002 95.0141 11.9069C95.0957 11.7981 95.4627 11.567 95.8025 11.4039C96.1559 11.2408 96.5773 10.9825 96.7404 10.8466C96.8899 10.697 97.2841 10.5475 97.5832 10.5067C97.8958 10.4659 98.1813 10.3708 98.222 10.3164C98.2628 10.2485 98.4395 10.1941 98.6298 10.1941C98.9425 10.1941 99.391 10.0038 99.7173 9.71831C99.7988 9.63675 100.139 9.36488 100.451 9.1066C101.335 8.38615 101.539 8.14147 101.539 7.76085C101.539 7.51617 101.743 7.20352 102.164 6.79572C102.667 6.30635 102.816 6.22479 103.007 6.33354C103.455 6.619 103.347 6.94524 102.572 7.67929C101.797 8.38615 101.675 8.72599 101.946 9.24254C102.055 9.43285 102.313 9.51441 103.115 9.58237C104.094 9.67753 104.149 9.66393 104.516 9.3241C104.719 9.13379 104.951 8.97067 105.032 8.97067C105.114 8.97067 105.372 8.75317 105.603 8.4949C105.834 8.23662 106.065 8.01913 106.133 8.01913C106.201 8.01913 106.337 7.92397 106.432 7.81522C106.541 7.69288 106.826 7.61132 107.18 7.61132C107.506 7.61132 107.791 7.54336 107.819 7.47539C107.846 7.39383 108.553 7.29867 109.491 7.25789C110.388 7.21711 111.176 7.12196 111.258 7.05399C111.326 6.98603 111.638 6.93165 111.951 6.93165C112.277 6.93165 112.576 6.86368 112.617 6.79572C112.712 6.6326 115.539 6.60541 115.539 6.76853C115.539 6.87728 115.879 7.06759 117.483 7.81522C118.19 8.15506 118.435 8.33178 119.046 8.94348C119.454 9.35128 119.617 9.63675 119.617 9.92221C119.617 10.1397 119.685 10.3572 119.753 10.398C119.835 10.4388 119.889 10.5883 119.889 10.7242C119.889 11.0641 120.324 11.4175 120.718 11.4175C120.895 11.4175 121.194 11.2951 121.384 11.1456C121.575 10.9961 121.86 10.8738 122.023 10.8738C122.186 10.8738 122.336 10.8058 122.363 10.7242C122.39 10.6291 122.866 10.5339 123.464 10.4931C124.049 10.4659 124.551 10.3708 124.592 10.3164C124.687 10.1533 125.829 10.1669 125.938 10.33C125.992 10.4116 126.808 10.4659 127.922 10.4659C129.445 10.4659 129.893 10.4252 130.152 10.2485C130.342 10.1261 130.492 9.96299 130.492 9.86784C130.492 9.78628 130.6 9.65034 130.75 9.55519C130.886 9.47363 131.049 9.22894 131.09 9.03864C131.144 8.83473 131.389 8.44052 131.647 8.16865C131.905 7.89679 132.123 7.57054 132.123 7.4482C132.123 7.32586 132.177 7.18993 132.245 7.14915C132.313 7.10837 132.408 6.90446 132.463 6.70056C132.517 6.48307 132.775 6.03448 133.047 5.68105C133.496 5.08294 133.55 5.05576 133.713 5.28684C133.849 5.50434 133.849 5.61309 133.686 5.93933C133.577 6.15682 133.36 6.45588 133.21 6.59182C133.061 6.72775 132.938 6.98602 132.938 7.16274C132.938 7.36664 132.857 7.47539 132.707 7.47539C132.449 7.47539 132.123 8.03272 132.123 8.44052C132.123 8.57646 132.041 8.73958 131.946 8.79395C131.837 8.84833 131.647 9.07942 131.497 9.3105C131.361 9.528 131.13 9.84065 131.008 9.97658C130.859 10.1397 130.763 10.4659 130.763 10.765C130.763 11.1864 130.831 11.3087 131.076 11.4039C131.239 11.4719 131.525 11.6894 131.701 11.8797C131.892 12.07 132.109 12.2331 132.191 12.2331C132.286 12.2331 132.463 12.3554 132.598 12.505C132.734 12.6545 132.938 12.7768 133.074 12.7768C133.197 12.7768 133.536 13.0215 133.822 13.3206C134.501 14.0138 135.032 14.0546 135.63 13.4565C135.861 13.239 136.065 12.9807 136.092 12.8992C136.119 12.8176 136.404 12.4642 136.717 12.1243C138.362 10.2892 138.647 9.9494 138.647 9.77268C138.647 9.66393 138.742 9.46003 138.851 9.3241C138.96 9.17457 139.055 8.9027 139.055 8.72599C139.055 8.26381 140.075 6.95884 140.455 6.93165C140.659 6.93165 140.537 7.39383 140.238 7.80163C140.061 8.03272 139.816 8.45412 139.694 8.72599C139.558 8.99786 139.395 9.26972 139.327 9.3105C139.245 9.35128 139.191 9.528 139.191 9.69112C139.191 9.85424 139.069 10.0717 138.919 10.1669C138.77 10.262 138.647 10.398 138.647 10.4795C138.647 10.5747 138.416 10.9009 138.144 11.2136C137.315 12.1515 137.016 12.5593 137.016 12.7904C137.016 12.9128 136.921 13.0895 136.812 13.1846C136.703 13.2798 136.608 13.4157 136.608 13.4837C136.608 13.5653 136.472 13.8099 136.309 14.041C135.67 14.9246 135.453 15.7538 135.793 15.9713C135.874 16.0121 135.929 16.3519 135.929 16.7053C135.929 17.3986 136.309 18.0783 136.69 18.0783C136.812 18.0783 136.88 18.2278 136.88 18.5405C136.88 19.1114 137.329 19.7095 137.777 19.7095C137.954 19.7095 138.104 19.6415 138.104 19.5736C138.104 19.492 138.185 19.4376 138.294 19.4376C138.389 19.4376 138.552 19.3425 138.647 19.2337C138.742 19.125 138.96 19.0298 139.137 19.0298C139.3 19.0298 139.531 18.9211 139.626 18.7851C139.721 18.6356 139.871 18.4997 139.966 18.4725C140.047 18.4453 140.428 18.1191 140.809 17.7656C141.475 17.1403 141.515 17.1131 141.801 17.317C142.181 17.5889 142.997 17.6025 142.997 17.3442C142.997 17.1403 143.649 16.4471 143.826 16.4471C143.894 16.4471 143.948 16.6374 143.948 16.8685C143.948 17.1539 143.84 17.3714 143.595 17.5617C143.337 17.7792 143.269 17.9423 143.296 18.2686C143.337 18.6492 143.391 18.69 143.853 18.7308C144.125 18.7579 144.356 18.7172 144.356 18.6356C144.356 18.5676 144.696 18.4589 145.104 18.4181C145.512 18.3637 145.919 18.2278 146.015 18.1191C146.11 18.0103 146.3 17.8608 146.463 17.7928C146.613 17.7248 146.83 17.6161 146.939 17.5481C147.048 17.4802 147.51 17.2627 147.958 17.0588C148.407 16.8685 148.896 16.6374 149.046 16.5558C149.78 16.148 150.011 16.0393 150.242 16.0393C150.459 16.0393 150.704 15.9441 151.289 15.6179C151.397 15.5499 151.724 15.3732 152.009 15.2237C152.281 15.0741 152.512 14.8566 152.512 14.7615C152.512 14.6527 152.675 14.476 152.865 14.3401C153.164 14.1498 153.273 14.1362 153.545 14.2721C153.722 14.3673 154.062 14.408 154.32 14.3673C154.565 14.3265 154.864 14.3537 154.972 14.4216C155.122 14.5304 155.095 14.6119 154.809 14.8566C154.13 15.4276 153.912 15.5907 153.491 15.849C153.246 15.9849 153.056 16.148 153.056 16.2024C153.056 16.2568 152.974 16.3111 152.865 16.3111C152.594 16.3111 152.471 16.7869 152.648 17.1267C152.77 17.3578 152.933 17.3986 153.735 17.3986C154.252 17.3986 154.714 17.3306 154.755 17.2627C154.796 17.1811 155.04 17.1267 155.299 17.1267C155.543 17.1267 155.774 17.0724 155.801 16.9908C155.829 16.9228 156.209 16.8277 156.658 16.7733C157.745 16.651 158.357 16.216 158.357 15.5499C158.357 15.2916 158.303 14.9654 158.221 14.8159C158.153 14.6663 158.031 14.4216 157.949 14.2721C157.881 14.1226 157.813 13.8371 157.813 13.6196C157.813 13.4157 157.664 13.0351 157.487 12.7768C157.066 12.1379 156.875 10.1941 157.202 9.59597C157.31 9.39207 157.405 9.02504 157.405 8.78036C157.405 8.54927 157.501 8.23662 157.609 8.10069C157.718 7.95116 157.813 7.72007 157.813 7.58414C157.813 7.4482 157.854 7.33945 157.922 7.33945C157.976 7.33945 158.126 7.10837 158.262 6.8229C158.683 5.91214 159.268 5.23247 159.988 4.79748C160.219 4.67514 160.396 4.51202 160.396 4.45764C160.396 4.40327 160.491 4.3489 160.6 4.3489C160.709 4.3489 160.804 4.29452 160.804 4.22656C160.804 4.15859 160.967 4.07703 161.184 4.03625C161.388 3.99547 161.687 3.83235 161.864 3.66922C162.041 3.5061 162.421 3.34298 162.72 3.3022C163.019 3.26142 163.291 3.16627 163.332 3.11189C163.373 3.04393 163.563 2.98955 163.767 2.98955C164.039 2.98955 164.338 3.17986 164.814 3.66922C165.344 4.21296 165.575 4.3489 165.928 4.3489C166.282 4.3489 166.418 4.26734 166.54 4.00906C166.621 3.81875 166.744 3.66922 166.812 3.66922C166.866 3.66922 166.92 3.58766 166.92 3.47892C166.92 3.37017 167.206 3.04393 167.573 2.75846C167.926 2.473 168.307 2.14676 168.416 2.02442C168.524 1.90208 168.851 1.76614 169.123 1.71177C169.408 1.65739 169.707 1.50787 169.816 1.35834C169.911 1.2224 170.156 1.05928 170.359 1.0185C170.563 0.964129 170.767 0.868975 170.808 0.801007C170.93 0.597106 171.651 0.665073 172.059 0.909755C173.228 1.63021 173.717 2.37785 173.717 3.42454C173.717 3.77797 173.785 4.07703 173.853 4.07703C173.934 4.07703 173.989 4.62077 173.989 5.43637C173.989 7.08118 174.233 7.67929 175.076 8.0735C175.416 8.23662 175.661 8.45412 175.701 8.65802C175.756 8.83473 175.837 8.97067 175.892 8.97067C175.946 8.97067 176.028 9.09301 176.068 9.24254C176.15 9.55519 176.816 9.62315 177.088 9.35128C177.319 9.1202 177.632 9.44644 177.686 9.96299C177.727 10.3572 177.768 10.398 178.257 10.4388C178.746 10.4795 179.005 10.4116 179.725 10.0446C179.861 9.97658 180.119 9.92221 180.323 9.92221C180.513 9.92221 180.772 9.82706 180.894 9.70471C181.057 9.528 181.261 9.50081 181.791 9.56878C182.172 9.60956 182.498 9.70471 182.525 9.78627C182.552 9.85424 182.743 9.92221 182.96 9.92221C183.218 9.92221 183.409 10.031 183.558 10.262C183.708 10.4931 183.912 10.6019 184.183 10.6019C184.401 10.6019 184.618 10.6563 184.659 10.7378C184.7 10.8058 184.904 10.8738 185.094 10.8738C185.298 10.8738 185.597 10.9961 185.747 11.1456C185.978 11.3631 186.304 11.4447 187.052 11.499C187.704 11.5534 188.302 11.6894 188.751 11.9069C189.553 12.2875 190.586 12.3418 190.844 12.0292C190.953 11.8933 191.265 11.8253 191.741 11.8253C192.434 11.8253 192.489 11.7981 192.896 11.2408C193.141 10.9281 193.563 10.5611 193.834 10.4252C194.46 10.1397 195.642 10.1125 195.873 10.398C195.968 10.5067 196.132 10.6019 196.227 10.6019C196.335 10.6019 196.417 10.6563 196.417 10.7378C196.417 10.8058 196.662 10.8738 196.974 10.8738C197.613 10.8738 198.157 10.4524 198.605 9.60956C198.755 9.3105 199.054 8.92989 199.272 8.73958C199.503 8.54927 199.679 8.31818 199.679 8.20944C199.679 8.10069 199.938 7.84241 200.25 7.61132C200.699 7.28508 200.943 7.20352 201.528 7.20352C202.14 7.20352 202.289 7.25789 202.629 7.61132C202.833 7.82882 203.064 8.01913 203.118 8.01913C203.186 8.01913 203.309 8.10069 203.404 8.18225C203.716 8.52208 204.709 9.96299 204.709 10.1125C204.709 10.1941 204.831 10.4116 204.981 10.6019C205.13 10.7922 205.252 11.1592 205.252 11.4447C205.252 11.7165 205.32 11.9884 205.388 12.0292C205.47 12.07 205.524 12.4098 205.524 12.7768C205.524 13.1439 205.47 13.4837 205.388 13.5245C205.32 13.5653 205.252 13.9323 205.252 14.3401C205.252 14.7479 205.198 15.1149 205.116 15.1557C205.049 15.1965 204.981 15.346 204.981 15.4819C204.981 15.6179 204.885 15.8082 204.777 15.9033C204.668 15.9985 204.573 16.2024 204.573 16.3519C204.573 16.6374 203.322 18.4725 202.996 18.6628C202.901 18.7172 202.683 19.0434 202.507 19.3832C202.344 19.7231 202.099 20.0765 201.977 20.1717C201.854 20.2532 201.705 20.5931 201.65 20.9193C201.542 21.5854 201.446 21.7077 200.808 22.0883C200.563 22.2379 200.359 22.3874 200.359 22.4418C200.359 22.4961 200.196 22.5777 199.992 22.6321C199.774 22.6729 199.394 22.8904 199.122 23.1079C198.85 23.3253 198.47 23.5428 198.279 23.5836C197.858 23.6924 196.893 24.943 196.757 25.5411C196.648 26.0304 196.132 26.4518 195.438 26.5742C195.166 26.6286 194.84 26.7917 194.704 26.9276C194.582 27.0635 194.392 27.1859 194.283 27.1859C194.188 27.1859 194.106 27.2403 194.106 27.3082C194.106 27.3762 193.875 27.4578 193.603 27.5121C193.318 27.5529 192.665 27.8112 192.162 28.0695C191.646 28.3277 191.089 28.5452 190.898 28.5452C190.531 28.5452 190.083 28.8987 189.838 29.3744C189.757 29.5376 189.566 29.7415 189.417 29.823C189.267 29.9046 188.887 30.1764 188.574 30.4075C188.221 30.693 187.854 30.8561 187.609 30.8561C187.378 30.8561 186.78 31.0736 186.277 31.3319C185.774 31.5902 185.176 31.8077 184.945 31.8077C184.714 31.8077 184.347 31.9028 184.129 32.0116C183.585 32.297 180.894 32.297 180.649 32.0116C180.554 31.9028 180.309 31.8077 180.119 31.8077C179.725 31.8077 179.208 31.3455 178.882 30.693C178.719 30.3532 178.733 30.2716 179.073 29.7686C179.331 29.388 179.426 29.0754 179.399 28.7763C179.331 28.1238 178.841 28.1238 177.863 28.7763C177.428 29.0618 176.966 29.3608 176.816 29.4424C176.68 29.524 176.422 29.7279 176.259 29.891C176.082 30.0541 175.674 30.2172 175.307 30.258C174.818 30.326 174.532 30.4755 174.03 30.9377C173.676 31.2639 173.282 31.5358 173.16 31.5358C172.942 31.5358 172.521 31.7125 171.501 32.2291C171.202 32.3786 170.699 32.4873 170.332 32.4873C169.979 32.4873 169.639 32.5417 169.571 32.6097C169.49 32.6776 169.218 32.7864 168.959 32.8544C168.416 32.9903 168.253 33.4389 168.606 33.8331C168.878 34.1321 168.66 34.3904 168.144 34.3904C167.899 34.3904 167.587 34.6079 167.124 35.0701C166.757 35.4371 166.404 35.7498 166.336 35.7498C166.268 35.7498 165.996 35.9401 165.724 36.1712C165.452 36.4022 165.031 36.6877 164.786 36.7964C164.202 37.0411 164.27 37.2994 164.936 37.3538C165.48 37.3946 165.616 37.313 167.247 35.8449C167.75 35.3963 168.144 35.1652 168.497 35.1109C169.19 35.0021 169.571 34.7438 169.789 34.2273C169.911 33.9146 169.924 33.7515 169.802 33.5612C169.612 33.2622 169.789 33.1942 170.822 33.1942C171.352 33.1806 171.664 33.099 172.045 32.8408C172.33 32.6505 172.657 32.4873 172.793 32.4873C172.915 32.4873 173.064 32.4194 173.105 32.3514C173.146 32.2698 173.282 32.2155 173.404 32.2155C173.513 32.2155 173.962 31.9436 174.383 31.6173C174.927 31.2095 175.362 31.0056 175.783 30.9377C176.136 30.8833 176.49 30.7474 176.585 30.6386C176.775 30.4075 177.863 29.6327 177.985 29.6327C178.026 29.6327 178.067 29.9318 178.067 30.2852C178.067 30.6522 178.162 31.1416 178.271 31.3591C178.515 31.8348 179.412 32.4873 179.861 32.4873C180.038 32.4873 180.296 32.5825 180.432 32.6912C180.581 32.8 180.84 32.8951 181.003 32.8951C181.179 32.8951 181.356 32.9495 181.397 33.0311C181.438 33.099 181.655 33.167 181.873 33.167C182.09 33.167 182.308 33.099 182.348 33.0311C182.389 32.9495 182.783 32.8951 183.218 32.8951C183.667 32.8951 184.197 32.8 184.401 32.6912C184.618 32.5825 184.985 32.4873 185.216 32.4873C185.665 32.4873 186.277 32.2562 186.97 31.8077C187.201 31.6717 187.609 31.5494 187.881 31.5494C188.207 31.5358 188.438 31.4542 188.56 31.2775C188.655 31.1416 188.887 30.9785 189.077 30.9241C189.689 30.7338 190.436 30.1357 190.654 29.6871C190.83 29.3336 190.953 29.2249 191.252 29.2249C191.456 29.2249 192.027 29.0074 192.529 28.7491C193.032 28.4909 193.535 28.2734 193.644 28.2734C193.753 28.2734 193.834 28.2054 193.834 28.1374C193.834 28.0559 193.93 28.0015 194.065 28.0015C194.256 28.0015 194.555 27.8792 196.145 27.1315C196.403 27.0092 196.73 26.8325 196.852 26.7509C197.029 26.615 197.137 26.6286 197.355 26.8325C197.722 27.1587 198.116 27.0635 198.116 26.6421C198.116 26.3839 198.035 26.2887 197.763 26.2615C197.464 26.2207 197.423 26.1664 197.477 25.8537C197.518 25.6498 197.654 25.4051 197.804 25.31C197.939 25.2148 198.048 25.0517 198.048 24.943C198.048 24.7527 198.85 24.0594 199.068 24.0594C199.19 24.0594 201.338 22.7136 201.446 22.5641C201.487 22.5097 201.623 22.4418 201.759 22.3874C201.881 22.333 202.031 22.1155 202.072 21.8844C202.126 21.6534 202.221 21.4359 202.276 21.3951C202.344 21.3543 202.398 21.2184 202.398 21.0824C202.398 20.9465 202.547 20.7018 202.724 20.5251C202.914 20.362 203.186 19.9542 203.336 19.6415C203.485 19.3289 203.703 19.0298 203.812 18.989C203.934 18.9347 204.029 18.8123 204.029 18.7172C204.029 18.6084 204.165 18.4181 204.314 18.2686C204.478 18.1327 204.654 17.888 204.722 17.7384C204.79 17.5889 204.899 17.3714 204.967 17.2627C205.035 17.1539 205.293 16.6374 205.538 16.1208L205.986 15.1829L206 12.804C206 10.5883 205.986 10.4252 205.728 10.2213C205.579 10.0853 205.334 9.77268 205.198 9.51441C204.722 8.56286 204.586 8.38615 203.866 7.6521C202.914 6.67338 202.588 6.52385 201.514 6.52385C200.264 6.52385 199.625 6.85009 198.932 7.81522C198.633 8.23662 198.252 8.73958 198.075 8.94348C197.912 9.14738 197.736 9.41925 197.695 9.54159C197.654 9.67753 197.532 9.78627 197.423 9.78627C197.314 9.78627 197.192 9.88143 197.151 9.99018C197.056 10.2349 196.906 10.2485 196.662 10.0174C196.335 9.71831 195.887 9.51441 195.561 9.51441C195.384 9.51441 195.18 9.44644 195.085 9.35128C194.963 9.22894 194.881 9.22894 194.759 9.35128C194.664 9.44644 194.364 9.51441 194.093 9.51441C193.807 9.51441 193.535 9.58237 193.495 9.65034C193.44 9.7319 193.168 9.9494 192.869 10.1397C192.57 10.33 192.271 10.6291 192.203 10.8058C192.095 11.1048 191.986 11.1456 191.442 11.1456C191.034 11.1456 190.681 11.2408 190.436 11.4175C190.11 11.6486 190.001 11.6622 189.702 11.5398C189.512 11.4447 189.349 11.3223 189.349 11.2544C189.349 11.2 189.213 11.1456 189.036 11.1456C188.859 11.1456 188.655 11.0777 188.574 10.9961C188.479 10.9009 187.962 10.8194 187.432 10.7922C186.63 10.765 186.399 10.7106 186.236 10.4931C186.073 10.3028 185.774 10.1941 185.162 10.1261C184.428 10.0446 184.265 9.97658 184.02 9.63675C183.803 9.35128 183.613 9.24254 183.313 9.24254C183.082 9.24254 182.715 9.14738 182.498 9.03864C182.009 8.78036 180.935 8.78036 180.595 9.03864C180.445 9.14738 180.133 9.24254 179.915 9.24254C179.684 9.24254 179.344 9.36488 179.154 9.51441C178.651 9.90862 178.338 9.86784 178.338 9.40566C178.338 9.01145 178.148 8.79395 177.537 8.45412C177.305 8.31818 177.183 8.30459 177.074 8.41334C176.83 8.65802 176.435 8.59005 176.435 8.31818C176.435 8.00553 176.068 7.6657 175.62 7.54336C175.43 7.50258 175.117 7.23071 174.913 6.94525C174.546 6.42869 174.532 6.36073 174.519 4.47124C174.505 2.29629 174.397 1.88848 173.622 1.11366C173.377 0.882568 173.146 0.678666 173.105 0.678666C173.064 0.678666 172.793 0.529138 172.494 0.33883C171.895 -0.0417863 170.876 -0.109754 170.387 0.175709Z" fill="currentColor"/>
<path d="M4.70314 74.8857C4.5944 75.0625 4.975 75.7421 5.43715 76.1907C5.87213 76.6121 5.95368 76.9112 5.68183 77.183C5.55949 77.3054 5.55949 77.3869 5.68183 77.5093C5.77698 77.6044 5.84494 78.0258 5.84494 78.4472C5.84494 79.2085 5.83135 79.2492 5.27404 79.6978C4.94781 79.9425 4.47206 80.2552 4.21379 80.3775C3.95553 80.4998 3.49337 80.8397 3.19433 81.1387C2.90888 81.4514 2.58265 81.6961 2.50109 81.6961C2.01175 81.6961 1.67192 83.1777 2.06612 83.572C2.31079 83.8166 2.81373 83.7759 3.01762 83.4904C3.18074 83.2729 3.52056 83.069 4.51284 82.5524C4.71673 82.4437 4.92062 82.3078 4.9614 82.2262C5.1517 81.9271 5.30123 82.1446 5.30123 82.702C5.30123 83.0418 5.36919 83.3545 5.43715 83.3952C5.51871 83.436 5.57308 83.8574 5.57308 84.3332C5.57308 84.7954 5.62745 85.2304 5.69542 85.3119C5.91291 85.5566 5.96728 86.4266 5.77698 86.6849C5.39638 87.1742 5.61386 87.8131 6.15758 87.8131C6.29351 87.8131 6.60614 88.017 6.83722 88.2617C7.08189 88.5064 7.4489 88.8326 7.67998 88.9957L8.08777 89.2812L7.76154 89.6346C7.57124 89.8249 7.35375 89.9881 7.27219 89.9881C7.19064 89.9881 6.97315 90.1376 6.79644 90.3279C6.61973 90.5182 6.41584 90.6677 6.34788 90.6677C6.27991 90.6677 5.91291 91.0076 5.51871 91.4154C5.13811 91.8232 4.75751 92.163 4.68955 92.163C4.60799 92.163 4.21379 92.5028 3.80601 92.9106C3.39822 93.3185 2.99043 93.6583 2.90888 93.6583C2.81373 93.6583 2.55546 93.8894 2.32438 94.1612C1.83504 94.773 1.65833 94.9497 0.720423 95.7789C0.163115 96.2682 0 96.4993 0 96.812C0 97.247 0.149522 97.4373 0.720423 97.7227C1.00587 97.8723 1.12821 97.8859 1.25055 97.7635C1.3457 97.6684 1.5224 97.6004 1.64474 97.6004C1.87582 97.6004 2.70498 96.7576 2.99043 96.2546C3.07199 96.0915 3.19433 95.9692 3.26229 95.9692C3.34385 95.9692 3.65649 95.7245 3.95553 95.4254C4.26817 95.1264 4.5944 94.8817 4.67595 94.8817C4.7711 94.8817 5.04296 94.6642 5.30123 94.4059C5.55949 94.1477 5.84494 93.9302 5.9265 93.9302C6.02165 93.9302 6.18476 93.8214 6.27991 93.6855C6.37506 93.5631 6.60614 93.3456 6.79644 93.2233C6.98674 93.101 7.36734 92.7883 7.66639 92.5164C7.95184 92.2446 8.25088 92.0271 8.30525 92.0271C8.37322 92.0271 8.50915 91.8775 8.5907 91.6872C8.67226 91.4969 8.80819 91.3474 8.88975 91.3474C8.95771 91.3474 9.22957 91.1571 9.47424 90.9124C9.89562 90.5046 9.9364 90.491 10.1675 90.7085C10.3034 90.8309 10.6296 90.9668 10.8879 91.0212C11.1462 91.0619 11.4996 91.1571 11.6899 91.2387C11.8802 91.3202 12.152 91.429 12.3016 91.4969C12.4511 91.5513 13.1715 91.6329 13.9191 91.6872C14.6531 91.7416 15.3736 91.8504 15.5095 91.9319C15.6998 92.0543 15.8629 92.0407 16.2163 91.9183C16.8688 91.6872 17.6708 91.7008 17.6708 91.9591C17.6708 92.0679 17.5892 92.163 17.5076 92.163C17.2902 92.1766 16.1755 93.1689 16.1755 93.3456C16.1755 93.4136 16.026 93.5495 15.8357 93.6311C15.6454 93.7127 15.4959 93.8486 15.4959 93.9166C15.4959 94.0797 13.9463 95.2895 13.756 95.2895C13.6744 95.2895 13.457 95.4662 13.2802 95.6973C13.0899 95.9148 12.8589 96.1051 12.7909 96.1051C12.7093 96.1051 11.9481 96.7712 11.1054 97.5868C10.2762 98.4024 9.21598 99.4083 8.76741 99.8161C8.31885 100.238 7.65279 100.849 7.28579 101.189C6.93237 101.529 6.56536 101.814 6.47021 101.814C6.38866 101.814 6.08961 102.005 5.80416 102.236C5.1517 102.779 5.09733 103.473 5.68183 104.03C6.13039 104.465 6.55177 104.492 7.04111 104.152C7.24501 104.016 7.51687 103.853 7.65279 103.813C7.77513 103.758 7.88387 103.649 7.88387 103.541C7.88387 103.446 8.07417 103.187 8.29166 102.97C8.52274 102.752 8.69945 102.508 8.69945 102.426C8.69945 102.345 8.83538 102.195 8.99849 102.086C9.43346 101.787 10.4937 100.849 10.7792 100.482C10.9151 100.319 11.1054 100.183 11.2005 100.183C11.2957 100.183 11.5132 100.02 11.7035 99.8297C12.2064 99.2996 13.2667 98.5519 13.5249 98.5519C13.6473 98.5519 13.7832 98.4432 13.8104 98.3072C13.8783 98.0897 14.2046 97.8451 15.0201 97.3693C15.1833 97.2741 15.6318 96.8663 16.026 96.4449C16.4202 96.0371 16.7872 95.6973 16.8416 95.6973C16.9095 95.6973 17.0455 95.6022 17.1406 95.4662C17.2494 95.3439 17.494 95.14 17.7115 95.0176C17.9154 94.8953 18.3504 94.5283 18.6766 94.2292C19.0164 93.9166 19.3155 93.6583 19.3699 93.6583C19.4106 93.6583 19.6825 93.5088 19.9815 93.3185C20.5117 92.9786 21.2593 92.8699 21.3952 93.101C21.436 93.1689 21.803 93.2641 22.2244 93.3185C22.6322 93.3592 22.9992 93.468 23.0399 93.5359C23.2302 93.8214 23.8691 93.6447 24.2905 93.1961C24.6575 92.8155 24.8478 92.7339 25.5818 92.6524L26.4246 92.5708L27.4576 93.5631C28.0149 94.1069 28.6402 94.637 28.8305 94.7322C29.1703 94.8953 29.1975 94.9769 29.2519 96.1187C29.2791 96.7984 29.3742 97.3965 29.4694 97.4916C29.5645 97.5868 29.6325 97.9946 29.6325 98.4024C29.6325 98.919 29.714 99.2996 29.9043 99.6122C30.0539 99.8569 30.1762 100.129 30.1762 100.21C30.1762 100.428 30.9646 101.678 31.4268 102.168C31.8345 102.603 32.2967 103.337 32.4326 103.758C32.487 103.881 32.7317 104.084 32.9763 104.207C33.4385 104.424 33.6152 104.805 33.2618 104.805C33.0171 104.805 32.7181 105.158 32.3511 105.852C32.188 106.178 31.9705 106.436 31.8753 106.436C31.7802 106.436 31.4403 106.749 31.1141 107.116C30.7879 107.496 30.2306 108.122 29.8772 108.53C29.5102 108.924 29.2247 109.345 29.2247 109.467C29.2247 109.59 29.1703 109.726 29.0888 109.767C29.0208 109.807 28.9528 110.12 28.9528 110.46C28.9528 110.786 28.8849 111.18 28.7897 111.316C28.6674 111.52 28.6946 111.642 28.9393 111.996C29.1024 112.227 29.3063 112.417 29.3742 112.417C29.4422 112.417 29.4966 112.512 29.4966 112.635C29.4966 112.743 29.7276 112.934 30.0131 113.056C30.2849 113.165 30.7743 113.382 31.0869 113.518C31.3996 113.654 31.8481 113.777 32.0792 113.777C32.3511 113.777 32.5278 113.858 32.5821 114.008C32.6229 114.144 32.8132 114.415 33.0035 114.619L33.3569 115H35.3415C36.4289 115 37.3804 114.946 37.462 114.864C37.53 114.796 37.9513 114.701 38.3999 114.66C39.2155 114.565 39.4873 114.483 40.3709 114.048C40.6291 113.913 41.1457 113.777 41.4991 113.722C41.8661 113.681 42.3282 113.532 42.5185 113.382C42.7496 113.233 43.2254 113.111 43.8099 113.056C44.3264 113.029 44.8157 112.92 44.8973 112.839C44.9789 112.757 45.142 112.689 45.2643 112.689C45.5498 112.689 46.4605 112.213 46.7595 111.914C46.8955 111.778 47.3032 111.452 47.6838 111.194C48.4179 110.677 48.8256 110.12 48.9344 109.495C48.9752 109.209 49.0839 109.073 49.3014 109.046C49.6548 108.992 50.1985 108.475 50.484 107.891C50.6063 107.646 50.7558 107.36 50.8238 107.252C51.1772 106.586 51.2452 106.395 51.2452 105.906C51.2452 105.593 51.1364 105.253 50.9733 105.036C50.8238 104.846 50.7015 104.601 50.7015 104.492C50.7015 104.384 50.6063 104.22 50.4976 104.125C50.3888 104.03 50.2937 103.881 50.2937 103.785C50.2937 103.554 49.8451 103.174 49.5733 103.174C49.4373 103.174 49.2334 103.119 49.0975 103.051C48.9752 102.97 48.7169 102.888 48.5266 102.847C47.9829 102.712 47.6295 102.385 47.8198 102.195C47.9149 102.1 47.9829 101.869 47.9829 101.678C47.9829 101.488 48.0644 101.243 48.146 101.162C48.2547 101.053 48.3091 100.605 48.3091 99.9792C48.3091 99.4219 48.3499 98.9597 48.4179 98.9597C48.4722 98.9597 48.5266 99.0141 48.5266 99.0957C48.5266 99.1636 48.7985 99.2316 49.1383 99.2316C49.4781 99.2316 49.75 99.1636 49.75 99.0957C49.75 98.8646 50.1034 98.9461 50.3616 99.2316C50.8646 99.7889 52.3734 99.4355 53.3657 98.5383C53.5152 98.3888 53.7191 98.2801 53.8006 98.2801C53.8958 98.2801 53.9638 98.2257 53.9638 98.1577C53.9638 98.0898 54.1269 97.9946 54.3444 97.9402C54.7793 97.8315 55.4318 97.247 55.6085 96.812C55.6901 96.5809 55.826 96.5129 56.193 96.5129C56.492 96.5129 56.7367 96.4178 56.8454 96.2682C56.9406 96.1459 57.2125 95.942 57.4299 95.8332C57.661 95.7245 58.028 95.507 58.2455 95.3303C58.4766 95.1672 58.8164 95.004 59.0203 94.9497C59.2242 94.8953 59.7 94.5419 60.0806 94.1748L60.7602 93.4816V91.9591C60.7602 90.7493 60.7194 90.3959 60.5563 90.2599C60.2573 90.0017 60.5291 89.8657 61.1544 89.9473C61.5078 90.0017 61.7117 89.9473 61.834 89.8113C61.9292 89.689 62.3506 89.5259 62.7719 89.4307C63.1933 89.3356 63.6011 89.2132 63.6827 89.1453C63.7506 89.0909 64.1176 89.0365 64.4982 89.0365C64.8788 89.0365 65.2866 88.9414 65.4362 88.8326C65.5993 88.7103 66.0071 88.6287 66.4556 88.6287C66.9993 88.6287 67.312 88.5472 67.5566 88.3569C67.7741 88.1801 68.114 88.085 68.5081 88.085C68.8616 88.085 69.2014 88.017 69.2829 87.9355C69.3509 87.8675 69.7723 87.7587 70.1937 87.718C70.615 87.6772 70.9956 87.582 71.0364 87.5277C71.0772 87.4597 71.3491 87.4053 71.6345 87.4053C71.92 87.4053 72.1918 87.3509 72.2462 87.283C72.287 87.215 72.654 87.1063 73.0618 87.0655C73.4831 87.0111 73.8501 86.9159 73.8909 86.848C73.9317 86.78 74.1356 86.7256 74.3395 86.7256C74.5434 86.7256 74.7745 86.6577 74.856 86.5761C74.9376 86.4945 75.3454 86.3858 75.7803 86.3314C76.5959 86.2227 77.126 86.3586 77.4795 86.7936C77.5746 86.9023 77.7921 86.9975 77.9552 86.9975C78.1183 86.9975 78.3358 87.0927 78.4309 87.2014C78.5261 87.3102 78.7028 87.4053 78.8387 87.4053C78.9611 87.4053 79.3553 87.5548 79.7087 87.7451C80.0757 87.9355 80.5786 88.085 80.8777 88.085C81.1631 88.085 81.4486 88.1394 81.4893 88.2209C81.5301 88.3025 82.1962 88.3569 82.9846 88.3569C83.773 88.3569 84.439 88.4112 84.4798 88.4928C84.5206 88.5608 84.738 88.6287 84.9555 88.6287C85.173 88.6287 85.3905 88.5608 85.4313 88.4928C85.4721 88.4112 85.7167 88.3569 85.9614 88.3569C86.2061 88.3569 86.6682 88.2209 87.0081 88.0442C87.5518 87.7723 87.7693 87.7451 89.3868 87.7859L91.1811 87.8267L91.5209 87.4053C91.7112 87.1878 91.9423 86.9975 92.0102 86.9975C92.0918 86.9975 92.2821 86.9159 92.4316 86.8344C92.6491 86.6985 92.7579 86.6985 92.9753 86.8344C93.1249 86.9159 93.3423 86.9975 93.4511 86.9975C93.5598 86.9975 93.655 87.0519 93.655 87.1198C93.655 87.5276 95.8027 87.9083 96.0337 87.5412C96.1561 87.3509 96.7813 87.3781 96.7813 87.5684C96.7678 87.9355 96.4143 88.1801 95.7891 88.2753C95.3677 88.3433 95.0822 88.4656 94.9735 88.6423C94.8919 88.7782 94.7424 88.9006 94.6745 88.9006C94.4434 88.9006 93.655 89.7706 93.655 90.0152C93.655 90.1376 93.2336 90.6541 92.7035 91.1571C92.187 91.6736 91.752 92.1358 91.752 92.2038C91.752 92.2582 91.6025 92.5164 91.4122 92.7611C91.1131 93.1553 91.0723 93.3456 91.0723 94.2564C91.0723 95.0856 91.1267 95.3983 91.3306 95.6837C91.4801 95.8876 91.6432 96.2139 91.684 96.4178C91.7384 96.6217 92.051 97.0838 92.3637 97.4373C92.8666 97.9946 92.921 98.1169 92.7307 98.2257C92.6083 98.3072 92.554 98.4568 92.6083 98.5927C92.7307 98.9054 92.9889 98.8782 93.0705 98.5519C93.152 98.2529 93.6142 98.1849 94.0356 98.4024C94.7424 98.783 95.2861 98.9461 95.7755 98.919C96.1561 98.9054 96.4551 99.0005 96.7949 99.2316C97.2299 99.5442 97.3658 99.5714 98.9834 99.5714C100.18 99.5714 100.764 99.5171 100.886 99.3947C100.968 99.3132 101.308 99.2316 101.62 99.2316C101.933 99.2316 102.368 99.1364 102.572 99.0277C102.789 98.919 103.129 98.8238 103.333 98.8238C103.537 98.8238 103.918 98.7015 104.189 98.5519C104.461 98.4024 104.72 98.2801 104.788 98.2801C104.842 98.2801 105.44 97.913 106.133 97.4645C106.813 97.0159 107.411 96.6488 107.479 96.6488C107.547 96.6488 107.696 96.5401 107.805 96.4042C108.118 96.0643 108.594 95.6973 108.716 95.6973C108.784 95.6973 109.001 95.507 109.219 95.2895C109.436 95.0584 109.681 94.8817 109.749 94.8817C109.831 94.8817 110.17 94.6642 110.497 94.4059C110.823 94.1477 111.176 93.9302 111.271 93.9302C111.611 93.9302 113.052 92.9242 113.337 92.4757C113.555 92.1494 113.637 91.8232 113.637 91.2251C113.637 90.4774 113.84 89.9881 114.167 89.9881C114.289 89.9881 115.947 88.3433 116.301 87.8675C116.464 87.65 116.641 87.3237 116.695 87.147C116.749 86.9703 116.967 86.5217 117.184 86.1547C117.402 85.7877 117.578 85.4614 117.578 85.4207C117.578 85.3799 117.66 85.1488 117.769 84.9177C118.041 84.306 118.136 83.9254 118.272 82.9874C118.584 80.7445 118.666 79.6163 118.584 78.4336C118.516 77.319 118.448 77.0743 118.109 76.5713C117.891 76.2587 117.714 75.946 117.714 75.8917C117.714 75.6606 116.831 74.9129 116.464 74.8314C115.798 74.6682 115.866 75.0761 116.613 75.8237C116.994 76.2043 117.307 76.6257 117.307 76.748C117.307 76.884 117.443 77.1287 117.606 77.3054C117.891 77.618 117.905 77.7404 117.891 79.6842C117.878 80.9348 117.81 81.7912 117.728 81.8728C117.646 81.9543 117.578 82.3078 117.578 82.6612C117.578 83.0146 117.524 83.3409 117.456 83.3816C117.402 83.4224 117.307 83.7759 117.266 84.1565C117.211 84.5507 117.13 84.9041 117.076 84.9449C116.967 85.0265 116.736 85.3935 116.369 86.1139C116.246 86.3314 116.124 86.5489 116.083 86.5897C116.042 86.6305 115.92 86.8344 115.811 87.0655C115.703 87.283 115.444 87.6772 115.24 87.9219C115.023 88.1665 114.86 88.4248 114.86 88.4928C114.86 88.5743 114.778 88.6287 114.683 88.6287C114.588 88.6287 114.275 88.8598 113.976 89.1453C113.677 89.4307 113.324 89.7026 113.202 89.757C112.998 89.8249 112.957 90.0152 112.957 90.8444V91.8504L112.345 92.4213C112.019 92.7203 111.652 92.9786 111.53 92.9786C111.231 92.9786 110.796 93.2369 110.021 93.8622C109.776 94.0525 109.518 94.202 109.436 94.202C109.355 94.202 109.287 94.2428 109.287 94.2972C109.287 94.3651 108.961 94.6234 108.566 94.8817C108.186 95.14 107.696 95.4934 107.493 95.6701C107.098 96.0236 106.636 96.3226 106.256 96.4585C106.133 96.4993 106.025 96.5945 106.025 96.6488C106.025 96.7032 105.916 96.7848 105.793 96.8392C105.658 96.8799 105.372 97.0431 105.141 97.1926C104.923 97.3421 104.638 97.4916 104.529 97.546C104.421 97.5868 104.094 97.7363 103.809 97.8859C103.51 98.0218 103.102 98.1441 102.898 98.1441C102.681 98.1441 102.49 98.2121 102.463 98.3072C102.436 98.3888 102.028 98.484 101.525 98.5247C101.05 98.5519 100.601 98.6335 100.533 98.7015C100.451 98.7694 100.234 98.8238 100.03 98.8238C99.8261 98.8238 99.6087 98.8782 99.5679 98.9597C99.4591 99.1229 98.494 99.1364 98.1678 98.9733C98.0455 98.9054 97.76 98.783 97.529 98.6879C97.3115 98.5927 96.9445 98.4432 96.7134 98.3344C96.4959 98.2257 96.0609 98.1577 95.7619 98.1577C95.4628 98.1713 95.0958 98.1169 94.9463 98.049C94.4434 97.7771 93.9948 97.614 93.5598 97.5324C93.3152 97.4781 93.1113 97.3693 93.1113 97.2877C93.1113 97.1926 92.9753 96.9751 92.7986 96.7848C92.6355 96.5945 92.4044 96.1731 92.2957 95.8468C92.187 95.5206 92.0238 95.2351 91.9287 95.1944C91.7248 95.1128 91.6704 93.3864 91.8879 93.3864C91.9559 93.3864 92.1054 93.2233 92.2141 93.0058C92.3229 92.8019 92.7307 92.3125 93.1249 91.9183C93.7773 91.2658 94.0356 90.9396 94.2803 90.3959C94.6065 89.7026 95.5444 89.0365 96.1833 89.0365C96.3328 89.0365 96.5774 88.9006 96.727 88.7511C96.8629 88.5879 97.1212 88.4112 97.2979 88.3433C97.529 88.2481 97.5969 88.1258 97.5969 87.7044C97.5969 86.7256 96.7406 86.2906 95.7755 86.7936C95.5716 86.9023 95.2861 86.9975 95.1502 86.9975C94.8647 86.9975 94.0628 86.5761 94.0628 86.413C94.0628 86.3586 93.9812 86.3178 93.8997 86.3178C93.8045 86.3178 93.5734 86.1955 93.3831 86.046C92.9482 85.7061 92.5404 85.7061 92.2277 86.046C92.0918 86.1955 91.8199 86.3178 91.6025 86.3178C91.3306 86.3178 91.1675 86.4402 90.95 86.7936C90.7189 87.1878 90.5966 87.2694 90.2024 87.2694C89.9441 87.2694 89.6859 87.2014 89.6451 87.1334C89.5363 86.9567 87.579 86.9567 87.4838 87.1198C87.4294 87.1878 87.144 87.283 86.8178 87.3373C86.5051 87.3917 86.1653 87.5005 86.0837 87.5684C85.8798 87.7316 82.1146 87.718 81.9107 87.5548C81.8292 87.4869 81.3806 87.4053 80.9184 87.3645C80.3204 87.3237 79.9941 87.215 79.7766 87.0111C79.5999 86.848 79.3689 86.7256 79.2329 86.7256C79.1106 86.7256 78.9339 86.6305 78.8387 86.5217C78.7436 86.413 78.5941 86.3178 78.4853 86.3178C78.3902 86.3178 78.0368 86.1683 77.6969 85.978C77.194 85.6925 76.9085 85.6382 76.025 85.6382C75.3454 85.6382 74.8288 85.7197 74.5706 85.8421C74.3667 85.9508 74.0133 86.046 73.7958 86.046C73.5919 86.046 73.3744 86.1003 73.3336 86.1819C73.2928 86.2499 73.1025 86.3178 72.9122 86.3178C72.7355 86.3178 72.586 86.3722 72.586 86.4402C72.586 86.5081 72.151 86.6033 71.6345 86.6577C71.1044 86.712 70.6422 86.8072 70.6014 86.8752C70.5607 86.9431 70.3296 86.9975 70.0849 86.9975C69.8267 86.9975 69.4461 87.0927 69.2422 87.2014C69.0247 87.3102 68.5353 87.4053 68.1547 87.4053C67.6654 87.4053 67.3935 87.4733 67.176 87.6772C66.9586 87.8811 66.7003 87.949 66.1566 87.949C65.7624 87.949 65.3682 88.017 65.2866 88.0986C65.2051 88.1801 64.7701 88.2753 64.3079 88.3161C63.8458 88.3568 63.438 88.452 63.3972 88.5064C63.3564 88.5743 63.1525 88.6287 62.9351 88.6287C62.7176 88.6287 62.5001 88.6831 62.4593 88.7647C62.4185 88.8326 62.2418 88.9006 62.0923 88.9006C61.9292 88.9006 61.6845 89.0093 61.5486 89.1317C61.3583 89.3084 61.2631 89.322 61.1408 89.1996C60.9233 88.9821 60.4747 88.9957 59.9718 89.254C59.6048 89.4307 59.5368 89.5395 59.5368 89.9745C59.5368 90.3143 59.632 90.5726 59.8087 90.7357C60.0262 90.9396 60.0806 91.1571 60.0806 91.8911C60.0806 92.4213 59.999 92.965 59.8767 93.1961C59.6728 93.6311 59.0747 94.202 58.8572 94.202C58.7756 94.202 58.6125 94.2564 58.4766 94.338C58.3543 94.4059 58.0824 94.5283 57.8785 94.6098C57.661 94.6778 57.4979 94.8273 57.4979 94.9361C57.4979 95.0312 57.3348 95.1672 57.1309 95.2215C56.927 95.2623 56.6008 95.4254 56.3969 95.575C56.193 95.7109 55.8804 95.8332 55.7036 95.8332C55.323 95.8332 54.9153 96.2139 54.9153 96.5673C54.9153 96.6896 54.7793 96.8392 54.6026 96.9071C54.4259 96.9751 54.2084 97.1246 54.1133 97.247C54.0181 97.3693 53.8278 97.4645 53.6919 97.4645C53.556 97.4645 53.3793 97.5596 53.2841 97.6684C53.189 97.7771 53.0394 97.8723 52.9579 97.8723C52.8627 97.8723 52.6588 98.0218 52.4957 98.2121C52.3326 98.4024 52.0743 98.5519 51.9384 98.5519C51.7889 98.5519 51.6258 98.6063 51.585 98.6879C51.4627 98.8918 51.0277 98.851 50.851 98.6335C50.7287 98.484 50.2937 98.4432 49.1383 98.4432L47.5751 98.4296V99.5035C47.5751 100.088 47.5207 100.618 47.4392 100.659C47.3712 100.7 47.3032 100.917 47.3032 101.121C47.3032 101.325 47.2081 101.61 47.0993 101.76C46.9906 101.896 46.909 102.195 46.8955 102.426C46.8955 102.739 47.0042 102.902 47.3712 103.147C47.6431 103.31 48.0373 103.486 48.2683 103.541C48.4858 103.582 48.7033 103.677 48.7441 103.731C48.7849 103.799 48.948 103.853 49.1111 103.853C49.4237 103.853 50.1577 104.737 50.1577 105.104C50.1577 105.213 50.2529 105.417 50.3616 105.566C50.5791 105.852 50.6335 106.3 50.4432 106.3C50.3752 106.3 50.2801 106.477 50.2257 106.694C50.1849 106.912 50.0218 107.197 49.8723 107.333C49.7364 107.456 49.614 107.66 49.614 107.768C49.614 108.013 49.2198 108.326 48.8936 108.339C48.513 108.339 48.2547 108.679 48.2547 109.196C48.2547 109.658 48.078 109.862 46.4061 111.303C45.9847 111.67 45.2099 112.009 44.8022 112.009C44.5983 112.009 44.3128 112.132 44.1497 112.281C43.9322 112.485 43.6603 112.553 43.1574 112.553C42.7496 112.553 42.3554 112.635 42.1923 112.757C42.0564 112.866 41.7981 112.961 41.635 112.961C41.4583 112.961 41.3224 113.015 41.3224 113.097C41.3224 113.165 41.1049 113.233 40.833 113.233C40.3981 113.233 39.8136 113.423 39.1203 113.79C38.9844 113.858 38.6446 113.913 38.3455 113.913C38.0465 113.913 37.7882 113.98 37.761 114.062C37.7203 114.171 37.0406 114.239 35.7357 114.293C33.6152 114.361 33.6152 114.361 33.2346 113.586C33.1395 113.382 32.9356 113.287 32.5686 113.26C32.2831 113.233 31.9297 113.097 31.7802 112.975C31.6442 112.839 31.2772 112.689 30.9782 112.635C30.1762 112.512 29.6325 111.928 29.6325 111.207C29.6325 110.269 29.9995 109.386 30.6655 108.733C30.9918 108.407 31.2636 108.081 31.2636 107.999C31.2636 107.809 31.9705 107.116 32.1608 107.116C32.2287 107.116 32.4734 106.898 32.6909 106.626C32.922 106.355 33.3569 105.838 33.6832 105.485C33.9958 105.131 34.2541 104.723 34.2541 104.587C34.2541 104.438 33.9142 103.989 33.5065 103.595C33.0987 103.187 32.6773 102.725 32.5821 102.562C32.5006 102.385 32.1608 101.91 31.8481 101.502C31.5219 101.08 31.2636 100.673 31.2636 100.591C31.2636 100.523 31.2093 100.455 31.1277 100.455C31.0597 100.455 30.9646 100.224 30.9102 99.9385C30.8558 99.6666 30.7063 99.2724 30.5704 99.0685C30.4073 98.8374 30.3121 98.484 30.3121 98.049C30.3121 97.6819 30.2306 97.3013 30.149 97.2062C30.0267 97.0974 29.9723 96.6353 29.9859 95.874C29.9995 94.5962 29.9995 94.5962 29.0208 93.8758C28.7218 93.6447 28.4499 93.4408 28.4091 93.4C28.3684 93.3456 28.2188 93.2505 28.0693 93.1689C27.9198 93.0874 27.6207 92.7747 27.3897 92.4621C26.9955 91.9319 26.9547 91.9047 26.2071 91.9047C25.7857 91.8911 25.3915 91.9455 25.3507 92.0271C25.31 92.095 25.0245 92.163 24.7391 92.163C24.0458 92.163 23.7876 92.2718 23.6516 92.6388C23.5565 92.8835 23.4613 92.9242 23.1895 92.8835C22.9856 92.8427 22.7953 92.7611 22.7545 92.6932C22.7137 92.6252 22.537 92.5708 22.3603 92.5708C22.1836 92.5708 21.9933 92.5028 21.9525 92.4349C21.8438 92.2718 19.9815 92.2582 19.9815 92.4213C19.9815 92.4893 19.8728 92.5708 19.7505 92.6252C19.6145 92.666 19.3427 92.8155 19.1524 92.9378C18.9621 93.0738 18.6223 93.3049 18.4048 93.4408C18.1873 93.5903 17.8339 93.8758 17.6028 94.0933C16.76 94.8681 15.9445 95.5614 15.8493 95.5614C15.7949 95.5614 15.5231 95.7789 15.2512 96.0507C14.9794 96.3226 14.5172 96.6896 14.2453 96.8663C13.9599 97.0567 13.7288 97.2606 13.7288 97.3285C13.7288 97.4101 13.6337 97.4645 13.5249 97.4645C13.4026 97.4645 13.2802 97.5596 13.2395 97.6684C13.1851 97.7771 13.0492 97.8723 12.9268 97.8723C12.8045 97.8723 12.4783 98.0898 12.22 98.3616C11.9753 98.6335 11.5947 98.9597 11.4044 99.0821C11.0918 99.2724 9.61017 100.577 8.37322 101.746C8.14214 101.964 7.77513 102.385 7.55764 102.671C7.34016 102.956 6.98674 103.31 6.76926 103.473C6.40225 103.731 6.34788 103.731 6.14398 103.527C5.94009 103.337 5.95368 103.282 6.32069 102.902C6.53818 102.684 6.81004 102.494 6.93237 102.494C7.17704 102.494 8.0198 101.678 8.0198 101.434C8.0198 101.339 8.10136 101.271 8.19651 101.271C8.30525 101.271 8.84897 100.808 9.40628 100.251C9.97718 99.6938 10.4801 99.2316 10.5481 99.2316C10.616 99.2316 11.2821 98.6199 12.0297 97.8723C12.7637 97.1246 13.457 96.5129 13.5385 96.5129C13.6337 96.5129 13.8512 96.3362 14.0415 96.1187C14.2182 95.9012 14.5988 95.5886 14.8842 95.4526C15.1561 95.3031 16.0124 94.5555 16.8008 93.8078C18.1873 92.4757 18.2145 92.4349 18.2145 91.8232V91.2115H16.3794C15.2512 91.2115 14.5444 91.1571 14.5444 91.0755C14.5444 90.994 14.1366 90.9396 13.6065 90.9396C13.0628 90.9396 12.6414 90.8852 12.6142 90.7901C12.587 90.7221 12.288 90.6134 11.9617 90.5726C11.6219 90.5318 11.2957 90.4502 11.2141 90.3959C10.8199 90.0968 10.018 89.7162 9.77328 89.7162C9.62376 89.7162 9.13442 90.0832 8.65867 90.5454C8.19651 91.0076 7.67998 91.4697 7.51687 91.5921C7.34016 91.7008 7.20423 91.8775 7.20423 91.9727C7.20423 92.0815 7.12267 92.163 7.01393 92.163C6.91878 92.163 6.74207 92.2582 6.64692 92.3805C6.53818 92.5028 6.07602 92.8427 5.61386 93.1417C5.1517 93.4408 4.62158 93.8486 4.43128 94.0661C4.25457 94.2836 3.94194 94.5011 3.73804 94.5555C3.53415 94.6098 3.33026 94.7594 3.30307 94.8953C3.26229 95.0448 3.18074 95.1536 3.11277 95.1536C2.88169 95.1536 2.06612 95.9828 1.98456 96.2818C1.86223 96.7712 0.815573 97.1654 0.815573 96.7304C0.815573 96.4993 1.54959 95.8604 1.99815 95.6837C2.17486 95.6157 2.35157 95.4798 2.39235 95.3575C2.4875 95.1264 3.41181 94.1477 3.71086 93.9845C3.8196 93.9166 4.18661 93.6175 4.51284 93.3049C4.83907 93.0058 5.17889 92.7203 5.26045 92.6932C5.342 92.666 5.81776 92.2582 6.3071 91.7824C6.79644 91.3202 7.2586 90.9396 7.31297 90.9396C7.38094 90.9396 7.72076 90.6677 8.07417 90.3415C8.67226 89.7978 8.71304 89.7162 8.67226 89.1589C8.64508 88.6967 8.56352 88.5336 8.31885 88.4112C8.14214 88.3161 7.76154 88.0306 7.48968 87.7587C7.14986 87.4325 6.86441 87.2694 6.60614 87.2694C6.22554 87.2694 6.22554 87.2558 6.42943 87.0247C6.67411 86.7528 6.74207 85.91 6.53818 85.6925C6.45662 85.6246 6.36147 85.0808 6.32069 84.4827C6.26632 83.8846 6.17117 83.2185 6.10321 83.001C6.02165 82.7428 6.02165 82.5524 6.1168 82.4573C6.33428 82.2398 6.27991 81.6145 6.00806 81.3834C5.69542 81.098 5.11092 81.0844 4.89344 81.3698C4.64877 81.6417 3.67008 82.1175 3.67008 81.9543C3.67008 81.7368 4.32254 81.1931 4.94781 80.9076C5.27404 80.7445 5.7226 80.4591 5.95368 80.2687C6.38866 79.9017 6.38866 79.9017 6.38866 78.5696C6.38866 77.8219 6.44303 77.183 6.52459 77.1423C6.60614 77.1015 6.66051 76.8704 6.66051 76.6393C6.66051 76.3131 6.4974 76.0684 5.89931 75.4974C5.17889 74.7906 4.85266 74.6275 4.70314 74.8857ZM3.0584 82.5117C2.80013 82.7971 2.44672 82.8787 2.44672 82.6612C2.44672 82.566 2.93606 82.3078 3.2487 82.2534C3.27589 82.2398 3.19433 82.3621 3.0584 82.5117Z" fill="currentColor"/>
</svg>
