<svg width="206" height="115" viewBox="0 0 206 115" fill="none" xmlns="http://www.w3.org/2000/svg">
<path d="M15.3554 45.0879C18.7728 45.0922 22.1901 45.0835 25.6074 45.0922C27.5552 45.1466 29.566 45.2705 31.3725 46.0683C32.5268 46.5727 33.5007 47.5206 33.929 48.7184C34.5877 50.4663 34.329 52.3685 34.3833 54.1924C34.3268 56.2229 34.6007 58.3317 33.8855 60.2795C33.4312 61.5796 32.4399 62.6622 31.2051 63.2644C29.4052 64.1557 27.3552 64.3361 25.377 64.3818C22.0357 64.3861 18.6945 64.3818 15.3533 64.384C15.3533 57.9512 15.3533 51.5206 15.3554 45.0879ZM19.9814 48.0793C19.9814 52.6989 19.9793 57.3164 19.9814 61.9383C21.6966 61.91 23.4162 61.9991 25.127 61.86C26.3878 61.7252 27.7335 61.4361 28.6834 60.5339C29.4617 59.8034 29.7552 58.7034 29.753 57.6664C29.7573 55.7881 29.7595 53.9076 29.753 52.0272C29.7486 51.0489 29.4682 50.0054 28.7095 49.3402C27.7465 48.488 26.4139 48.264 25.177 48.1467C23.4466 48.0227 21.7118 48.101 19.9814 48.0793Z" fill="currentColor"/>
<path d="M68.0696 45.3596C69.613 45.3596 71.1543 45.3618 72.6978 45.3596C72.6956 48.6206 72.6956 51.8815 72.6978 55.1425C75.7781 55.1468 78.8585 55.1381 81.9389 55.149C81.9345 55.6881 81.9345 56.2316 81.9345 56.7751C78.8563 56.7751 75.776 56.7729 72.6978 56.7751C72.6956 59.3099 72.6956 61.847 72.6978 64.3818C71.1543 64.384 69.613 64.384 68.0696 64.3818C68.0718 58.0425 68.0718 51.7011 68.0696 45.3596Z" fill="currentColor"/>
<path d="M103.669 45.3596C105.208 45.3618 106.747 45.3596 108.288 45.3618C108.286 51.7011 108.288 58.0425 108.288 64.384C106.747 64.3818 105.208 64.384 103.667 64.384C103.667 58.0425 103.667 51.7011 103.669 45.3596Z" fill="currentColor"/>
<path d="M124.584 45.3596C126.036 45.3618 127.488 45.3596 128.94 45.3618C129.012 46.6053 128.638 48.1119 129.616 49.101C130.579 49.9858 132.003 49.7032 133.17 49.4836C136.918 48.6488 140.503 47.1684 143.883 45.3596C143.883 45.9944 143.883 46.6314 143.885 47.2705C140.672 49.2575 137.327 51.0598 133.801 52.4272C132.21 52.9989 130.555 53.5794 128.84 53.5033C127.355 53.4359 125.977 52.5011 125.336 51.1663C124.405 49.3771 124.603 47.3053 124.584 45.3596Z" fill="currentColor"/>
<path d="M35.7333 48.0771C37.2767 48.0771 38.818 48.0771 40.3615 48.0771C40.3615 48.6206 40.3615 49.1641 40.3593 49.7097C38.818 49.7076 37.2767 49.7097 35.7333 49.7097C35.7333 49.1641 35.7333 48.6206 35.7333 48.0771Z" fill="currentColor"/>
<path d="M62.0915 48.0771C63.6349 48.0771 65.1762 48.0771 66.7196 48.0771C66.7175 48.6206 66.7175 49.1641 66.7196 49.7097C65.1762 49.7097 63.6349 49.7097 62.0915 49.7097C62.0915 49.1641 62.0915 48.6206 62.0915 48.0771Z" fill="currentColor"/>
<path d="M145.235 48.0793C146.775 48.0749 148.316 48.0814 149.857 48.0749C149.861 48.6184 149.861 49.1641 149.861 49.7097C148.32 49.7076 146.779 49.7076 145.238 49.7097C145.235 49.1641 145.235 48.6206 145.235 48.0793Z" fill="currentColor"/>
<path d="M42.3006 51.962C43.0636 50.575 44.7875 50.1815 46.257 50.251C49.7982 50.388 53.0308 52.0424 56.1133 53.6403C56.1133 52.6011 56.1133 51.5619 56.1133 50.525C57.6568 50.5228 59.198 50.5228 60.7415 50.525C60.7306 56.3055 60.7589 62.0883 60.7284 67.8688C60.7458 68.9688 59.7502 69.8754 58.6633 69.8145C54.159 69.821 49.6526 69.821 45.1483 69.8123C44.1983 69.8189 43.3158 69.2015 42.9158 68.3536C42.4506 67.4666 42.5266 66.4362 42.5266 65.4688C44.0657 65.4731 45.6027 65.4623 47.1418 65.4623C47.1678 66.1253 47.0918 66.8862 47.57 67.421C48.3004 68.1753 49.42 68.2819 50.4091 68.3927C51.8873 68.4797 53.4025 68.5406 54.8503 68.1754C55.4916 68.0232 56.0829 67.5058 56.0872 66.8036C56.1524 64.9601 56.0938 63.1122 56.1133 61.2665C53.0938 62.8318 49.9395 64.4405 46.4809 64.6492C44.994 64.7383 43.2245 64.4405 42.3745 63.0687C41.3528 61.3752 41.818 59.3165 41.7114 57.4469C41.8136 55.6207 41.381 53.6424 42.3006 51.962ZM46.407 53.8816C45.87 54.7577 46.1244 55.8251 46.0679 56.7947C46.12 58.0229 45.9527 59.2708 46.1657 60.4861C46.4483 61.66 47.8157 61.9839 48.8635 61.9339C51.4373 61.823 53.8308 60.7295 56.1155 59.6273C56.1133 58.1773 56.1133 56.7273 56.1155 55.2794C53.9568 54.2294 51.7069 53.2185 49.2917 52.9924C48.2852 52.9272 47.0483 52.9815 46.407 53.8816Z" fill="currentColor"/>
<path d="M84.7693 50.9793C85.9627 50.1597 87.5018 50.1793 88.8866 50.3293C92.0278 50.7445 94.9082 52.1728 97.6886 53.6142C97.6886 52.5837 97.6886 51.5532 97.6886 50.5228C99.2298 50.5228 100.769 50.5228 102.31 50.5228C102.31 55.1425 102.31 59.7621 102.31 64.384C100.769 64.3818 99.2298 64.3818 97.6886 64.384C97.6886 63.3513 97.6886 62.323 97.6886 61.2926C94.9104 62.7317 92.03 64.16 88.8909 64.5774C87.5105 64.7253 85.9736 64.7492 84.7801 63.934C83.6802 63.1796 83.2954 61.7774 83.291 60.5078C83.2845 58.473 83.2867 56.4381 83.2889 54.4033C83.2954 53.1359 83.6758 51.7359 84.7693 50.9793ZM87.6714 54.7794C87.6127 56.5642 87.6105 58.3577 87.6714 60.1426C87.7366 61.3926 89.0735 61.9861 90.1779 61.9317C92.8452 61.91 95.3321 60.7621 97.6907 59.6252C97.6886 58.1773 97.6886 56.7294 97.6907 55.2816C95.2712 54.1207 92.7104 52.9228 89.9692 52.9837C88.9127 52.9663 87.7192 53.6142 87.6714 54.7794Z" fill="currentColor"/>
<path d="M157.442 50.4358C159.65 50.1793 161.896 50.1728 164.1 50.4576C165.842 50.7098 167.689 51.2663 168.857 52.6685C170.002 54.049 170.27 55.9294 170.235 57.6686C170.181 59.6034 169.618 61.6752 168.085 62.9687C166.263 64.5101 163.768 64.8362 161.466 64.9188C158.874 64.9514 156.085 64.8427 153.831 63.4079C152.19 62.3709 151.366 60.4295 151.255 58.5469C151.14 56.5816 151.153 54.3968 152.411 52.7641C153.605 51.2337 155.598 50.6815 157.442 50.4358ZM158.97 53.2663C158.048 53.4859 157.118 53.9468 156.624 54.7925C156.031 55.7881 156.092 56.9947 156.127 58.1099C156.17 59.3795 156.657 60.7208 157.748 61.4556C159.144 62.4057 160.909 62.4818 162.544 62.4818C164.111 62.46 165.822 62.3339 167.107 61.3339C168.146 60.523 168.535 59.1643 168.591 57.899C168.655 56.6555 168.565 55.2446 167.659 54.2968C166.668 53.2968 165.183 53.0989 163.846 53.0055C162.22 52.9489 160.566 52.8989 158.97 53.2663Z" fill="currentColor"/>
<path d="M176.222 53.612C178.974 52.1881 181.819 50.7772 184.922 50.3402C186.267 50.1858 187.743 50.1467 188.952 50.8576C190.098 51.5293 190.598 52.9163 190.595 54.1924C190.595 57.5882 190.595 60.9861 190.595 64.384C189.152 64.3818 187.709 64.384 186.267 64.384C186.25 61.1991 186.302 58.0143 186.243 54.8316C186.219 53.6076 184.948 52.9381 183.85 52.9794C181.141 52.9511 178.613 54.1337 176.222 55.2794C176.22 58.3143 176.222 61.3491 176.222 64.384C174.678 64.384 173.135 64.3818 171.594 64.384C171.594 59.7621 171.594 55.1425 171.594 50.5228C173.135 50.5228 174.678 50.5228 176.222 50.5228C176.22 51.5532 176.22 52.5815 176.222 53.612Z" fill="currentColor"/>
<path d="M35.7333 50.5163C37.2767 50.5163 38.818 50.5163 40.3615 50.5163C40.3615 55.1381 40.3615 59.76 40.3615 64.384C38.818 64.3818 37.2767 64.3818 35.7333 64.384C35.7333 59.7621 35.7333 55.1381 35.7333 50.5163Z" fill="currentColor"/>
<path d="M62.0915 50.5163C63.6349 50.5163 65.1762 50.5163 66.7196 50.5163C66.7196 55.1381 66.7196 59.76 66.7196 64.384C65.1762 64.3818 63.6349 64.3818 62.0915 64.384C62.0915 59.76 62.0915 55.1381 62.0915 50.5163Z" fill="currentColor"/>
<path d="M145.235 50.5163C146.777 50.5163 148.32 50.5163 149.864 50.5184C149.861 55.1381 149.861 59.76 149.864 64.3818C148.32 64.384 146.777 64.384 145.235 64.3818C145.235 59.76 145.238 55.1381 145.235 50.5163Z" fill="currentColor"/>
<path d="M134.262 57.4773C135.942 56.8447 137.683 56.2012 139.505 56.2338C141.038 56.2555 142.483 57.2055 143.144 58.586C144.07 60.373 143.866 62.4404 143.883 64.384C142.431 64.3818 140.979 64.384 139.529 64.3818C139.451 63.1492 139.833 61.6687 138.89 60.6752C137.951 59.7599 136.512 60.0317 135.351 60.2491C131.584 61.0817 127.979 62.5709 124.584 64.3883C124.584 63.7513 124.584 63.1144 124.584 62.4796C127.668 60.56 130.886 58.8317 134.262 57.4773Z" fill="currentColor"/>
</svg>
