<?xml version="1.0" encoding="utf-8"?>
<!-- Generator: Adobe Illustrator 22.0.0, SVG Export Plug-In . SVG Version: 6.00 Build 0)  -->
<svg version="1.1" xmlns="http://www.w3.org/2000/svg" xmlns:xlink="http://www.w3.org/1999/xlink" x="0px" y="0px"
	 viewBox="0 0 144 144" style="enable-background:new 0 0 144 144;" xml:space="preserve">
<style type="text/css">
	.st0{display:none;}
	.st1{enable-background:new    ;}
	.st2{fill-rule:evenodd;clip-rule:evenodd;fill:#FFFFFF;}
</style>
<g id="Layer_1_copy_3_xA0_Image_1_" class="st0">
	
		<image style="display:inline;overflow:visible;" width="1523" height="853" id="Layer_1_copy_3_xA0_Image" xlink:href="1AA9A304.png"  transform="matrix(7.200000e-02 0 0 7.200000e-02 17.208 41.328)">
	</image>
</g>
<g id="Digital_Zion_copy_1_" class="st1">
	<g id="Digital_Zion_copy">
		<g>
			<path class="st2" d="M30.6,65.4h-5v10.2h5c3.6,0,5-1.2,5-3.9v-2.9C35.6,66.3,34.2,65.4,30.6,65.4z M33.2,72.1
				c0,1.6-1,2.3-3.3,2.3H28V67h1.9c2.3,0,3.3,0.6,3.3,2.2V72.1z M36.4,75.7h2.4v-7.3h-2.4V75.7z M36.4,67.9h2.4V67h-2.4V67.9z
				 M47.2,70c-1.3-0.7-3.4-1.8-5.3-1.8c-1,0-2.3,0.3-2.3,2.3v3c0,2,1.3,2.3,2.3,2.3c1.9,0,4.1-1.1,5.3-1.8v2.7
				c0,0.7-0.1,1.2-2.2,1.2c-2.6,0-2.6-0.7-2.6-1.4v-0.1H40v0.6c0,1,0.6,1.7,1.4,1.7h7.1c0.7,0,1.2-0.4,1.2-1.2v-9.1h-2.4V70z
				 M47.2,73.2c-2.2,1.1-3.3,1.2-3.9,1.2c-1.4,0-1.4-0.9-1.4-1.3v-2.2c0-0.4,0-1.3,1.4-1.3c0.5,0,1.7,0.1,3.9,1.2V73.2z M50.3,75.7
				h2.4v-7.3h-2.4V75.7z M50.3,67.9h2.4V67h-2.4V67.9z M55.9,65.6h-2.4v10.1h2.4v-4h4.9v-0.9h-4.9V65.6z M69.2,70
				c-1.2-0.6-3.4-1.8-5.3-1.8c-1,0-2.3,0.3-2.3,2.3v3c0,2,1.3,2.3,2.3,2.3c1.9,0,4.1-1.2,5.3-1.8v1.6h2.4v-7.3h-2.4V70z M69.2,73.2
				c-2.2,1.1-3.3,1.2-3.9,1.2c-1.4,0-1.4-0.9-1.4-1.3v-2.2c0-0.4,0-1.3,1.4-1.3c0.5,0,1.7,0.1,3.9,1.2V73.2z M72.4,75.7h2.4V65.6
				h-2.4V75.7z M85.8,66.6v-1h-2.3v1.2c0,2.2,1.1,3.2,2.4,3.2c2.1,0,6.2-2.3,7.8-3.3v-1c-2.3,1.3-5.4,2.3-6.6,2.3
				C86,67.9,85.8,67.1,85.8,66.6z M91.2,71.4c-2.1,0-6.2,2.3-7.8,3.3v1c2.3-1.3,5.4-2.3,6.6-2.3c1.1,0,1.3,0.8,1.3,1.3v1h2.3v-1.2
				C93.7,72.3,92.5,71.4,91.2,71.4z M94.4,67.9h2.4V67h-2.4V67.9z M94.4,75.7h2.4v-7.3h-2.4V75.7z M102.6,68.2c-3.6,0-5.1,1-5,3.7
				c0,2.7,1.4,4,5,4c3.6,0,5-1.3,5-4C107.6,69.2,106.2,68.2,102.6,68.2z M103.5,74.7c-2.4,0-3.4-0.8-3.3-2.7
				c-0.1-1.8,0.9-2.3,3.3-2.3c2.4,0,3.3,0.6,3.3,2.3C106.8,73.8,105.9,74.7,103.5,74.7z M116.1,68.2c-1.9,0-4.1,1.2-5.3,1.8v-1.6
				h-2.4v7.3h2.4v-4.8c2.2-1.1,3.3-1.2,3.9-1.2c1.4,0,1.4,0.9,1.4,1.3v4.8h2.3v-5.2C118.4,68.4,117.1,68.2,116.1,68.2z"/>
		</g>
	</g>
</g>
</svg>
