<?xml version="1.0" encoding="utf-8"?>
<!-- Generator: Adobe Illustrator 22.0.0, SVG Export Plug-In . SVG Version: 6.00 Build 0)  -->
<svg version="1.1" id="Layer_1" xmlns="http://www.w3.org/2000/svg" xmlns:xlink="http://www.w3.org/1999/xlink" x="0px" y="0px"
	 viewBox="0 0 206 115" style="enable-background:new 0 0 206 115;" xml:space="preserve">
<style type="text/css">
	.st0{display:none;}
	.st1{display:inline;}
</style>
<path d="M170.4,0.2c-0.1,0.1-0.3,0.2-0.3,0.2c0,0.1-0.2,0.1-0.4,0.2c-0.2,0.1-0.5,0.2-0.7,0.3c-0.2,0.1-0.5,0.3-0.7,0.3
	c-0.4,0.1-1.6,1.2-2.1,1.9l-0.3,0.4l-0.2-0.3c-0.1-0.2-0.3-0.3-0.4-0.3s-0.3-0.1-0.5-0.3c-0.3-0.3-0.4-0.3-1-0.3
	c-0.4,0-0.8,0.1-0.8,0.1c0,0.1-0.2,0.1-0.3,0.1c-0.1,0-0.7,0.2-1.3,0.5c-0.6,0.3-1.2,0.5-1.3,0.5c-0.1,0-0.2,0.1-0.3,0.2
	c0,0.1-0.3,0.3-0.5,0.5c-0.3,0.1-0.5,0.4-0.6,0.5c-0.1,0.1-0.4,0.5-0.7,0.9c-0.3,0.4-0.6,0.8-0.6,1c0,0.2-0.1,0.4-0.2,0.5
	c-0.1,0.1-0.2,0.3-0.2,0.4c0,0.1-0.1,0.3-0.1,0.3c-0.1,0-0.1,0.2-0.1,0.4c0,0.2-0.1,0.6-0.2,0.9c-0.3,0.8-0.1,3.4,0.2,3.7
	c0.3,0.3,0.6,0.9,0.6,1.3c0,0.2,0.1,0.6,0.2,0.8c0.1,0.2,0.2,0.4,0.2,0.5c0,0.2-0.8,0.5-1.2,0.5c-0.2,0-0.6,0.1-0.8,0.2
	c-0.2,0.1-0.6,0.2-0.8,0.2c-0.2,0-0.5,0.1-0.5,0.1c0,0.1-0.2,0.1-0.3,0.1c-0.1,0-0.2-0.1-0.2-0.1c0-0.1,0.1-0.1,0.2-0.1
	c0.1,0,0.3-0.2,0.5-0.3c0.2-0.2,0.4-0.3,0.5-0.3c0.4,0,0.8-0.6,0.8-1.1c0-0.4-0.1-0.6-0.4-0.8c-0.4-0.3-1.1-0.4-1.4-0.2
	c-0.1,0.1-0.2,0.1-0.2,0c-0.3-0.4-1.5,0-1.9,0.7c-0.1,0.2-0.4,0.4-0.4,0.4c-0.1,0-0.4,0.1-0.5,0.2c-0.2,0.1-0.5,0.3-0.8,0.4
	c-0.7,0.3-1.4,0.6-1.4,0.7c-0.1,0.1-0.7,0.3-1.5,0.7c-0.2,0.1-0.4,0.2-0.5,0.3c-0.1,0.1-0.3,0.2-0.4,0.2c-0.1,0-0.4,0.2-0.6,0.3
	c-0.2,0.1-0.5,0.2-0.7,0.2c-0.4,0-0.5-0.2-0.2-0.3c0.1,0,0.1-0.3,0.1-0.5c0-0.2-0.1-0.4-0.1-0.5c-0.1,0-0.1-0.2-0.1-0.3
	c0-0.3-0.5-0.5-1-0.4c-0.3,0.1-0.8,0.5-1,0.9c-0.1,0.2-0.2,0.2-0.3,0.1c-0.1-0.1-0.4-0.2-0.7-0.2c-0.4,0-0.6,0.1-1.3,0.7
	c-0.7,0.7-1.4,1.2-1.7,1.2c-0.1,0-0.2,0.1-0.4,0.2c-0.5,0.4-1.1-0.1-0.7-0.6c0.2-0.2,0.1-0.6-0.2-0.6c-0.5,0-0.8-0.5-0.9-1.3
	c0-0.8,0.1-1.2,0.6-1.7c0.1-0.1,0.4-0.7,0.7-1.2c0.3-0.5,0.6-1,0.7-1.1c0.1-0.1,0.2-0.3,0.2-0.4c0-0.1,0.2-0.4,0.5-0.6
	c0.3-0.2,0.5-0.6,0.6-0.8c0-0.2,0.2-0.5,0.4-0.7c0.1-0.2,0.3-0.4,0.3-0.5c0-0.1,0.1-0.2,0.3-0.4c0.5-0.4,0.7-1.1,0.7-1.8
	c0-0.7,0-0.7-0.5-0.7c-0.5,0-1.6,0.5-1.7,0.9c-0.1,0.1-0.2,0.3-0.3,0.4c-0.1,0.1-0.2,0.4-0.2,0.6c0,0.2-0.1,0.5-0.3,0.6
	c-0.1,0.1-0.3,0.3-0.3,0.4c0,0.3-0.5,1-0.7,1c-0.1,0-0.2,0.1-0.3,0.3c-0.1,0.2-0.4,0.6-0.7,0.9c-0.3,0.3-0.7,0.8-0.8,1.1
	c-0.3,0.6-0.6,0.8-0.8,0.5c-0.1-0.1-0.2-0.2-0.2-0.2c-0.1,0-0.3-0.1-0.5-0.3c-0.2-0.2-0.6-0.4-0.8-0.6c-0.3-0.1-0.6-0.4-0.8-0.6
	c-0.2-0.2-0.4-0.4-0.6-0.5c-0.3-0.1-0.3-0.1,0-0.4c0.1-0.2,0.4-0.5,0.6-0.8c0.2-0.3,0.4-0.6,0.4-0.6c0.1,0,0.2-0.3,0.3-0.5
	c0.1-0.2,0.3-0.5,0.4-0.5c0.1-0.1,0.2-0.2,0.2-0.3c0-0.1,0.2-0.4,0.4-0.7c0.2-0.3,0.5-0.7,0.6-0.9c0.2-0.4,0.2-0.5,0-0.8
	c-0.4-0.9-1.2-1.1-1.8-0.5c-0.4,0.4-1.3,2-1.3,2.3c0,0.1-0.2,0.4-0.4,0.7c-0.2,0.3-0.6,0.8-0.9,1.3l-0.5,0.8H128
	c-1,0-1.7-0.1-1.8-0.1c-0.1-0.1-0.5-0.1-1-0.1c-0.5,0.1-1.3,0.1-1.8,0.2c-0.5,0-0.9,0.1-0.9,0.2c0,0.1-0.1,0.1-0.3,0.1
	c-0.2,0-0.6,0.1-0.9,0.3c-0.6,0.3-0.7,0.2-0.7-0.1c0-0.2,0-0.3-0.5-1.1c-0.3-0.6-1.2-1.5-1.5-1.5c-0.1,0-0.3-0.1-0.5-0.3
	s-0.5-0.3-0.7-0.4c-0.2,0-0.5-0.1-0.8-0.3C115.7,6,115.5,6,114,6c-0.9,0-1.6,0.1-1.6,0.1c0,0.1-0.3,0.1-0.7,0.1
	c-0.3,0-0.6,0.1-0.7,0.1c-0.1,0.1-0.9,0.1-1.7,0.2c-1,0-1.7,0.1-1.8,0.2c-0.1,0.1-0.4,0.2-0.7,0.2c-0.4,0-0.6,0.1-0.9,0.3
	c-0.2,0.2-0.4,0.3-0.5,0.3c-0.1,0-0.2,0.1-0.3,0.2c-0.1,0.3-1.5,1.3-1.6,1.2c-0.1-0.1-0.3-0.1-0.5-0.1c-0.2,0-0.4-0.1-0.4-0.1
	c0-0.1,0.3-0.4,0.7-0.8c0.6-0.6,0.7-0.8,0.7-1.2c0-1.1-1.3-1.5-2.2-0.8c-0.9,0.8-1.1,1-1.1,1.3c0,0.3-0.8,1.4-1.3,1.6
	c-0.2,0.1-0.5,0.2-0.7,0.4c-0.2,0.1-0.5,0.3-0.7,0.3c-0.2,0-0.3,0.1-0.4,0.1c0,0.1-0.2,0.1-0.4,0.1c-0.3,0-1,0.3-1.4,0.6
	c-0.1,0.1-0.8,0.4-1.5,0.8c-1.5,0.8-2,1.1-2.8,1.9c-0.5,0.5-0.6,0.6-0.6,1.2c0,0.5-0.1,0.7-0.3,0.8c-0.2,0.1-0.4,0.3-0.5,0.4
	c-0.1,0.2-0.3,0.3-0.4,0.3c-0.1,0-0.2,0.1-0.2,0.1c0,0.1-0.1,0.1-0.3,0.1c-0.2,0-0.4,0.1-0.5,0.3c-0.2,0.4-0.8,1.1-1,1.1
	s-1.6,0.9-1.7,1.1c0,0.1-0.2,0.1-0.4,0.1c-0.2,0-0.4,0.1-0.5,0.2C85.1,18.9,85,19,84.9,19c-0.3,0-1.4,0.8-1.4,1c0,0.2-0.7,0.9-1,0.9
	c-0.1,0-0.4,0.1-0.5,0.3c-0.4,0.5-0.7,0.6-1.6,0.7c-0.4,0.1-1,0.2-1.3,0.4c-0.3,0.1-0.6,0.3-0.7,0.3c-0.1,0-0.5,0.1-0.8,0.3
	c-0.4,0.2-0.8,0.3-1,0.3c-0.3,0-0.8,0.2-1.5,0.6c-0.1,0.1-0.4,0.1-0.5,0.1c-0.1,0-0.4,0.1-0.5,0.1c-0.1,0.1-0.7,0.4-1.3,0.7
	c-0.6,0.3-1.3,0.7-1.6,0.8c-0.3,0.1-0.8,0.3-1.2,0.4c-0.4,0-0.8,0.2-1,0.3c-0.2,0.1-0.6,0.3-0.8,0.3c-0.3,0.1-0.6,0.1-0.7,0.2
	c-0.1,0.1-0.4,0.2-0.6,0.3c-0.2,0.1-0.4,0.2-0.4,0.2c0,0.1-1.1,0.7-1.5,0.7c-0.2,0.1-0.5,0.2-0.7,0.4c-0.2,0.2-0.7,0.4-1.1,0.4
	c-0.4,0.1-0.7,0.1-0.8,0.2c0,0.1-0.2,0.1-0.3,0.1c-0.1,0-0.4,0.1-0.5,0.3c-0.3,0.3-1.3,0.8-1.6,0.8c-0.3,0-1,0.4-1.2,0.6
	c-0.1,0.1-0.3,0.2-0.5,0.2c-0.1,0-0.5,0.2-0.8,0.3c-0.3,0.2-0.8,0.4-1,0.6c-0.3,0.1-0.7,0.4-0.9,0.5c-0.6,0.4-1,0.6-1.2,0.6
	c-0.1,0-0.3,0.1-0.4,0.3c-0.1,0.2-0.4,0.4-0.7,0.6c-0.4,0.3-1.4,1-1.7,1.3c-0.1,0.1-0.2,0.2-0.3,0.2c-0.1,0-0.3,0.2-0.6,0.5
	c-0.3,0.3-0.6,0.5-0.7,0.5c-0.1,0-0.3,0.1-0.5,0.3c-0.4,0.4-0.4,0.6,0.1,0.6c0.5,0,1-0.3,1.9-1.1c0.8-0.7,1-0.8,1.8-1.3
	c0.2-0.1,0.7-0.4,0.9-0.7c0.3-0.3,0.6-0.5,0.8-0.5c0.1,0,0.4-0.1,0.5-0.3s0.4-0.3,0.5-0.3c0.1,0,0.2,0,0.2-0.1
	c0-0.1,0.2-0.2,0.4-0.3c1-0.4,1.4-0.6,1.6-0.8c0.1-0.1,0.3-0.2,0.5-0.2c0.2,0,0.4-0.1,0.5-0.2c0.2-0.2,0.9-0.6,1.1-0.6
	c0.2,0,1.6-0.7,2.1-1.1c0.2-0.1,0.5-0.3,0.7-0.3c0.2,0,0.3-0.1,0.3-0.1c0-0.1,0.2-0.1,0.5-0.1c0.2,0,0.5-0.1,0.6-0.2
	c0.1-0.1,0.3-0.2,0.4-0.2c0.1,0,0.2-0.1,0.2-0.1c0-0.1,0.2-0.1,0.5-0.1c0.2,0,0.5-0.1,0.6-0.2c0.1-0.1,0.3-0.2,0.4-0.2
	c0.1,0,0.2-0.1,0.2-0.1c0-0.1,0.1-0.2,0.3-0.2c0.4-0.1,0.6-0.2,1.6-0.7c0.4-0.2,0.9-0.4,1-0.4c0.1,0,0.3-0.1,0.3-0.1
	c0-0.1,0.2-0.1,0.4-0.1c0.2,0,0.3-0.1,0.3-0.1c0-0.1,0.1-0.1,0.3-0.1c0.2,0,0.5-0.1,0.7-0.2c0.2-0.1,0.5-0.2,0.6-0.2
	c0.1,0,0.3-0.1,0.4-0.3c0.1-0.1,0.4-0.3,0.6-0.4c0.2-0.1,0.4-0.1,0.4-0.2c0-0.2,1.1-0.6,1.6-0.6c0.3,0,0.5-0.1,0.6-0.3
	c0.1-0.2,0.4-0.3,0.9-0.4c0.8-0.1,1.2-0.2,1.8-0.6c0.2-0.1,0.6-0.3,0.9-0.3c0.3-0.1,0.6-0.1,0.6-0.2c0-0.1,0.2-0.1,0.4-0.1
	c0.2,0,0.3-0.1,0.3-0.1c0-0.1,0.3-0.1,0.7-0.2c0.5-0.1,0.8-0.2,1.1-0.5c0.2-0.2,0.5-0.4,0.6-0.4c0.2,0,1.2-1,1.2-1.2
	c0-0.1,0.2-0.2,0.4-0.2c0.2-0.1,0.4-0.1,0.5-0.2c0.1-0.1,0.2-0.1,0.3-0.1c0.1,0,0.4-0.1,0.5-0.3c0.1-0.1,0.3-0.3,0.5-0.3
	c0.1,0,0.4-0.1,0.6-0.3c0.2-0.2,0.5-0.4,0.7-0.4c0.4-0.1,1.5-0.9,1.7-1.3c0.1-0.2,0.3-0.3,0.4-0.3c0.1,0,0.4-0.2,0.5-0.3
	c0.1-0.1,0.3-0.3,0.4-0.3c0.1,0,0.4-0.2,0.7-0.4c0.5-0.4,0.5-0.5,0.5-1.1c0-0.6,0.1-0.7,0.5-1.1c0.7-0.6,1.3-1,1.5-1
	c0.1,0,0.3-0.1,0.4-0.2c0.1-0.1,0.4-0.2,0.5-0.2c0.1,0,0.3-0.1,0.4-0.2c0.1-0.1,0.4-0.3,0.8-0.5c0.4-0.2,0.8-0.4,0.9-0.6
	c0.1-0.1,0.5-0.3,0.8-0.3c0.3,0,0.6-0.1,0.6-0.2c0-0.1,0.2-0.1,0.4-0.1c0.3,0,0.8-0.2,1.1-0.5c0.1-0.1,0.4-0.4,0.7-0.6
	c0.9-0.7,1.1-1,1.1-1.3c0-0.2,0.2-0.6,0.6-1c0.5-0.5,0.7-0.6,0.8-0.5c0.4,0.3,0.3,0.6-0.4,1.3c-0.8,0.7-0.9,1-0.6,1.6
	c0.1,0.2,0.4,0.3,1.2,0.3c1,0.1,1,0.1,1.4-0.3C104.7,9.1,105,9,105,9c0.1,0,0.3-0.2,0.6-0.5c0.2-0.3,0.5-0.5,0.5-0.5
	c0.1,0,0.2-0.1,0.3-0.2c0.1-0.1,0.4-0.2,0.7-0.2c0.3,0,0.6-0.1,0.6-0.1c0-0.1,0.7-0.2,1.7-0.2c0.9,0,1.7-0.1,1.8-0.2
	c0.1-0.1,0.4-0.1,0.7-0.1c0.3,0,0.6-0.1,0.7-0.1c0.1-0.2,2.9-0.2,2.9,0c0,0.1,0.3,0.3,1.9,1c0.7,0.3,1,0.5,1.6,1.1
	c0.4,0.4,0.6,0.7,0.6,1c0,0.2,0.1,0.4,0.1,0.5c0.1,0,0.1,0.2,0.1,0.3c0,0.3,0.4,0.7,0.8,0.7c0.2,0,0.5-0.1,0.7-0.3
	c0.2-0.1,0.5-0.3,0.6-0.3c0.2,0,0.3-0.1,0.3-0.1c0-0.1,0.5-0.2,1.1-0.2c0.6,0,1.1-0.1,1.1-0.2c0.1-0.2,1.2-0.1,1.3,0
	c0.1,0.1,0.9,0.1,2,0.1c1.5,0,2,0,2.2-0.2c0.2-0.1,0.3-0.3,0.3-0.4c0-0.1,0.1-0.2,0.3-0.3c0.1-0.1,0.3-0.3,0.3-0.5
	c0.1-0.2,0.3-0.6,0.6-0.9c0.3-0.3,0.5-0.6,0.5-0.7c0-0.1,0.1-0.3,0.1-0.3c0.1,0,0.2-0.2,0.2-0.4c0.1-0.2,0.3-0.7,0.6-1
	c0.4-0.6,0.5-0.6,0.7-0.4c0.1,0.2,0.1,0.3,0,0.7c-0.1,0.2-0.3,0.5-0.5,0.7c-0.1,0.1-0.3,0.4-0.3,0.6c0,0.2-0.1,0.3-0.2,0.3
	c-0.3,0-0.6,0.6-0.6,1c0,0.1-0.1,0.3-0.2,0.4c-0.1,0.1-0.3,0.3-0.4,0.5c-0.1,0.2-0.4,0.5-0.5,0.7c-0.1,0.2-0.2,0.5-0.2,0.8
	c0,0.4,0.1,0.5,0.3,0.6c0.2,0.1,0.4,0.3,0.6,0.5c0.2,0.2,0.4,0.4,0.5,0.4c0.1,0,0.3,0.1,0.4,0.3c0.1,0.1,0.3,0.3,0.5,0.3
	c0.1,0,0.5,0.2,0.7,0.5c0.7,0.7,1.2,0.7,1.8,0.1c0.2-0.2,0.4-0.5,0.5-0.6c0-0.1,0.3-0.4,0.6-0.8c1.6-1.8,1.9-2.2,1.9-2.4
	c0-0.1,0.1-0.3,0.2-0.4c0.1-0.1,0.2-0.4,0.2-0.6c0-0.5,1-1.8,1.4-1.8c0.2,0,0.1,0.5-0.2,0.9c-0.2,0.2-0.4,0.7-0.5,0.9
	c-0.1,0.3-0.3,0.5-0.4,0.6c-0.1,0-0.1,0.2-0.1,0.4s-0.1,0.4-0.3,0.5c-0.1,0.1-0.3,0.2-0.3,0.3c0,0.1-0.2,0.4-0.5,0.7
	c-0.8,0.9-1.1,1.3-1.1,1.6c0,0.1-0.1,0.3-0.2,0.4c-0.1,0.1-0.2,0.2-0.2,0.3c0,0.1-0.1,0.3-0.3,0.6c-0.6,0.9-0.9,1.7-0.5,1.9
	c0.1,0,0.1,0.4,0.1,0.7c0,0.7,0.4,1.4,0.8,1.4c0.1,0,0.2,0.1,0.2,0.5c0,0.6,0.4,1.2,0.9,1.2c0.2,0,0.3-0.1,0.3-0.1
	c0-0.1,0.1-0.1,0.2-0.1c0.1,0,0.3-0.1,0.4-0.2c0.1-0.1,0.3-0.2,0.5-0.2c0.2,0,0.4-0.1,0.5-0.2c0.1-0.1,0.2-0.3,0.3-0.3
	c0.1,0,0.5-0.4,0.8-0.7c0.7-0.6,0.7-0.7,1-0.4c0.4,0.3,1.2,0.3,1.2,0c0-0.2,0.7-0.9,0.8-0.9c0.1,0,0.1,0.2,0.1,0.4
	c0,0.3-0.1,0.5-0.4,0.7c-0.3,0.2-0.3,0.4-0.3,0.7c0,0.4,0.1,0.4,0.6,0.5c0.3,0,0.5,0,0.5-0.1c0-0.1,0.3-0.2,0.7-0.2
	c0.4-0.1,0.8-0.2,0.9-0.3c0.1-0.1,0.3-0.3,0.4-0.3c0.2-0.1,0.4-0.2,0.5-0.2c0.1-0.1,0.6-0.3,1-0.5c0.4-0.2,0.9-0.4,1.1-0.5
	c0.7-0.4,1-0.5,1.2-0.5c0.2,0,0.5-0.1,1-0.4c0.1-0.1,0.4-0.2,0.7-0.4c0.3-0.1,0.5-0.4,0.5-0.5c0-0.1,0.2-0.3,0.4-0.4
	c0.3-0.2,0.4-0.2,0.7-0.1c0.2,0.1,0.5,0.1,0.8,0.1c0.2,0,0.5,0,0.7,0.1c0.1,0.1,0.1,0.2-0.2,0.4c-0.7,0.6-0.9,0.7-1.3,1
	c-0.2,0.1-0.4,0.3-0.4,0.4s-0.1,0.1-0.2,0.1c-0.3,0-0.4,0.5-0.2,0.8c0.1,0.2,0.3,0.3,1.1,0.3c0.5,0,1-0.1,1-0.1
	c0-0.1,0.3-0.1,0.5-0.1c0.2,0,0.5-0.1,0.5-0.1c0-0.1,0.4-0.2,0.9-0.2c1.1-0.1,1.7-0.6,1.7-1.2c0-0.3-0.1-0.6-0.1-0.7
	c-0.1-0.1-0.2-0.4-0.3-0.5c-0.1-0.1-0.1-0.4-0.1-0.7c0-0.2-0.1-0.6-0.3-0.8c-0.4-0.6-0.6-2.6-0.3-3.2c0.1-0.2,0.2-0.6,0.2-0.8
	c0-0.2,0.1-0.5,0.2-0.7c0.1-0.1,0.2-0.4,0.2-0.5c0-0.1,0-0.2,0.1-0.2c0.1,0,0.2-0.2,0.3-0.5c0.4-0.9,1-1.6,1.7-2
	c0.2-0.1,0.4-0.3,0.4-0.3c0-0.1,0.1-0.1,0.2-0.1c0.1,0,0.2-0.1,0.2-0.1c0-0.1,0.2-0.1,0.4-0.2c0.2,0,0.5-0.2,0.7-0.4
	c0.2-0.2,0.6-0.3,0.9-0.4c0.3,0,0.6-0.1,0.6-0.2c0-0.1,0.2-0.1,0.4-0.1c0.3,0,0.6,0.2,1,0.7c0.5,0.5,0.8,0.7,1.1,0.7
	c0.4,0,0.5-0.1,0.6-0.3c0.1-0.2,0.2-0.3,0.3-0.3c0.1,0,0.1-0.1,0.1-0.2c0-0.1,0.3-0.4,0.7-0.7c0.4-0.3,0.7-0.6,0.8-0.7
	c0.1-0.1,0.4-0.3,0.7-0.3c0.3-0.1,0.6-0.2,0.7-0.4c0.1-0.1,0.3-0.3,0.5-0.3c0.2-0.1,0.4-0.1,0.4-0.2c0.1-0.2,0.8-0.1,1.3,0.1
	c1.2,0.7,1.7,1.5,1.7,2.5c0,0.4,0.1,0.7,0.1,0.7c0.1,0,0.1,0.5,0.1,1.4c0,1.6,0.2,2.2,1.1,2.6c0.3,0.2,0.6,0.4,0.6,0.6
	c0.1,0.2,0.1,0.3,0.2,0.3c0.1,0,0.1,0.1,0.2,0.3c0.1,0.3,0.7,0.4,1,0.1c0.2-0.2,0.5,0.1,0.6,0.6c0,0.4,0.1,0.4,0.6,0.5
	c0.5,0,0.7,0,1.5-0.4c0.1-0.1,0.4-0.1,0.6-0.1c0.2,0,0.4-0.1,0.6-0.2c0.2-0.2,0.4-0.2,0.9-0.1c0.4,0,0.7,0.1,0.7,0.2
	c0,0.1,0.2,0.1,0.4,0.1c0.3,0,0.4,0.1,0.6,0.3c0.1,0.2,0.4,0.3,0.6,0.3c0.2,0,0.4,0.1,0.5,0.1c0,0.1,0.2,0.1,0.4,0.1
	c0.2,0,0.5,0.1,0.7,0.3c0.2,0.2,0.6,0.3,1.3,0.4c0.7,0.1,1.3,0.2,1.7,0.4c0.8,0.4,1.8,0.4,2.1,0.1c0.1-0.1,0.4-0.2,0.9-0.2
	c0.7,0,0.7,0,1.2-0.6c0.2-0.3,0.7-0.7,0.9-0.8c0.6-0.3,1.8-0.3,2,0c0.1,0.1,0.3,0.2,0.4,0.2c0.1,0,0.2,0.1,0.2,0.1
	c0,0.1,0.2,0.1,0.6,0.1c0.6,0,1.2-0.4,1.6-1.3c0.2-0.3,0.4-0.7,0.7-0.9c0.2-0.2,0.4-0.4,0.4-0.5c0-0.1,0.3-0.4,0.6-0.6
	c0.4-0.3,0.7-0.4,1.3-0.4c0.6,0,0.8,0.1,1.1,0.4c0.2,0.2,0.4,0.4,0.5,0.4c0.1,0,0.2,0.1,0.3,0.2c0.3,0.3,1.3,1.8,1.3,1.9
	c0,0.1,0.1,0.3,0.3,0.5c0.1,0.2,0.3,0.6,0.3,0.8c0,0.3,0.1,0.5,0.1,0.6c0.1,0,0.1,0.4,0.1,0.7c0,0.4-0.1,0.7-0.1,0.7
	c-0.1,0-0.1,0.4-0.1,0.8c0,0.4-0.1,0.8-0.1,0.8c-0.1,0-0.1,0.2-0.1,0.3c0,0.1-0.1,0.3-0.2,0.4c-0.1,0.1-0.2,0.3-0.2,0.4
	c0,0.3-1.3,2.1-1.6,2.3c-0.1,0.1-0.3,0.4-0.5,0.7c-0.2,0.3-0.4,0.7-0.5,0.8c-0.1,0.1-0.3,0.4-0.3,0.7c-0.1,0.7-0.2,0.8-0.8,1.2
	c-0.2,0.1-0.4,0.3-0.4,0.4c0,0.1-0.2,0.1-0.4,0.2c-0.2,0-0.6,0.3-0.9,0.5c-0.3,0.2-0.7,0.4-0.8,0.5c-0.4,0.1-1.4,1.4-1.5,2
	c-0.1,0.5-0.6,0.9-1.3,1c-0.3,0.1-0.6,0.2-0.7,0.4c-0.1,0.1-0.3,0.3-0.4,0.3c-0.1,0-0.2,0.1-0.2,0.1c0,0.1-0.2,0.1-0.5,0.2
	c-0.3,0-0.9,0.3-1.4,0.6c-0.5,0.3-1.1,0.5-1.3,0.5c-0.4,0-0.8,0.4-1.1,0.8c-0.1,0.2-0.3,0.4-0.4,0.4c-0.2,0.1-0.5,0.4-0.8,0.6
	c-0.4,0.3-0.7,0.4-1,0.4c-0.2,0-0.8,0.2-1.3,0.5c-0.5,0.3-1.1,0.5-1.3,0.5c-0.2,0-0.6,0.1-0.8,0.2c-0.5,0.3-3.2,0.3-3.5,0
	c-0.1-0.1-0.3-0.2-0.5-0.2c-0.4,0-0.9-0.5-1.2-1.1c-0.2-0.3-0.1-0.4,0.2-0.9c0.3-0.4,0.4-0.7,0.3-1c-0.1-0.7-0.6-0.7-1.5,0
	c-0.4,0.3-0.9,0.6-1,0.7c-0.1,0.1-0.4,0.3-0.6,0.4c-0.2,0.2-0.6,0.3-1,0.4c-0.5,0.1-0.8,0.2-1.3,0.7c-0.4,0.3-0.7,0.6-0.9,0.6
	c-0.2,0-0.6,0.2-1.7,0.7c-0.3,0.1-0.8,0.3-1.2,0.3c-0.4,0-0.7,0.1-0.8,0.1c-0.1,0.1-0.4,0.2-0.6,0.2c-0.5,0.1-0.7,0.6-0.4,1
	c0.3,0.3,0.1,0.6-0.5,0.6c-0.2,0-0.6,0.2-1,0.7c-0.4,0.4-0.7,0.7-0.8,0.7c-0.1,0-0.3,0.2-0.6,0.4c-0.3,0.2-0.7,0.5-0.9,0.6
	c-0.6,0.2-0.5,0.5,0.2,0.6c0.5,0,0.7,0,2.3-1.5c0.5-0.4,0.9-0.7,1.3-0.7c0.7-0.1,1.1-0.4,1.3-0.9c0.1-0.3,0.1-0.5,0-0.7
	c-0.2-0.3,0-0.4,1-0.4c0.5,0,0.8-0.1,1.2-0.4c0.3-0.2,0.6-0.4,0.7-0.4c0.1,0,0.3-0.1,0.3-0.1c0-0.1,0.2-0.1,0.3-0.1
	c0.1,0,0.6-0.3,1-0.6c0.5-0.4,1-0.6,1.4-0.7c0.4-0.1,0.7-0.2,0.8-0.3c0.2-0.2,1.3-1,1.4-1c0,0,0.1,0.3,0.1,0.7
	c0,0.4,0.1,0.9,0.2,1.1c0.2,0.5,1.1,1.1,1.6,1.1c0.2,0,0.4,0.1,0.6,0.2c0.1,0.1,0.4,0.2,0.6,0.2c0.2,0,0.4,0.1,0.4,0.1
	c0,0.1,0.3,0.1,0.5,0.1c0.2,0,0.4-0.1,0.5-0.1c0-0.1,0.4-0.1,0.9-0.1c0.4,0,1-0.1,1.2-0.2c0.2-0.1,0.6-0.2,0.8-0.2
	c0.4,0,1.1-0.2,1.8-0.7c0.2-0.1,0.6-0.3,0.9-0.3c0.3,0,0.6-0.1,0.7-0.3c0.1-0.1,0.3-0.3,0.5-0.4c0.6-0.2,1.4-0.8,1.6-1.2
	c0.2-0.4,0.3-0.5,0.6-0.5c0.2,0,0.8-0.2,1.3-0.5c0.5-0.3,1-0.5,1.1-0.5c0.1,0,0.2-0.1,0.2-0.1c0-0.1,0.1-0.1,0.2-0.1
	c0.2,0,0.5-0.1,2.1-0.9c0.3-0.1,0.6-0.3,0.7-0.4c0.2-0.1,0.3-0.1,0.5,0.1c0.4,0.3,0.8,0.2,0.8-0.2c0-0.3-0.1-0.4-0.4-0.4
	c-0.3,0-0.3-0.1-0.3-0.4c0-0.2,0.2-0.4,0.3-0.5c0.1-0.1,0.2-0.3,0.2-0.4c0-0.2,0.8-0.9,1-0.9c0.1,0,2.3-1.3,2.4-1.5
	c0-0.1,0.2-0.1,0.3-0.2c0.1-0.1,0.3-0.3,0.3-0.5c0.1-0.2,0.1-0.4,0.2-0.5c0.1,0,0.1-0.2,0.1-0.3c0-0.1,0.1-0.4,0.3-0.6
	c0.2-0.2,0.5-0.6,0.6-0.9c0.1-0.3,0.4-0.6,0.5-0.7c0.1-0.1,0.2-0.2,0.2-0.3c0-0.1,0.1-0.3,0.3-0.4c0.2-0.1,0.3-0.4,0.4-0.5
	c0.1-0.1,0.2-0.4,0.2-0.5c0.1-0.1,0.3-0.6,0.6-1.1l0.4-0.9l0-2.4c0-2.2,0-2.4-0.3-2.6c-0.1-0.1-0.4-0.4-0.5-0.7
	c-0.5-1-0.6-1.1-1.3-1.9c-1-1-1.3-1.1-2.4-1.1c-1.3,0-1.9,0.3-2.6,1.3c-0.3,0.4-0.7,0.9-0.9,1.1c-0.2,0.2-0.3,0.5-0.4,0.6
	c0,0.1-0.2,0.2-0.3,0.2c-0.1,0-0.2,0.1-0.3,0.2c-0.1,0.2-0.2,0.3-0.5,0c-0.3-0.3-0.8-0.5-1.1-0.5c-0.2,0-0.4-0.1-0.5-0.2
	c-0.1-0.1-0.2-0.1-0.3,0c-0.1,0.1-0.4,0.2-0.7,0.2c-0.3,0-0.6,0.1-0.6,0.1c-0.1,0.1-0.3,0.3-0.6,0.5s-0.6,0.5-0.7,0.7
	c-0.1,0.3-0.2,0.3-0.8,0.3c-0.4,0-0.8,0.1-1,0.3c-0.3,0.2-0.4,0.2-0.7,0.1c-0.2-0.1-0.4-0.2-0.4-0.3c0-0.1-0.1-0.1-0.3-0.1
	s-0.4-0.1-0.5-0.1c-0.1-0.1-0.6-0.2-1.1-0.2c-0.8,0-1-0.1-1.2-0.3c-0.2-0.2-0.5-0.3-1.1-0.4c-0.7-0.1-0.9-0.1-1.1-0.5
	c-0.2-0.3-0.4-0.4-0.7-0.4c-0.2,0-0.6-0.1-0.8-0.2c-0.5-0.3-1.6-0.3-1.9,0c-0.1,0.1-0.5,0.2-0.7,0.2c-0.2,0-0.6,0.1-0.8,0.3
	c-0.5,0.4-0.8,0.4-0.8-0.1c0-0.4-0.2-0.6-0.8-1c-0.2-0.1-0.4-0.1-0.5,0c-0.2,0.2-0.6,0.2-0.6-0.1c0-0.3-0.4-0.7-0.8-0.8
	c-0.2,0-0.5-0.3-0.7-0.6c-0.4-0.5-0.4-0.6-0.4-2.5c0-2.2-0.1-2.6-0.9-3.4c-0.2-0.2-0.5-0.4-0.5-0.4s-0.3-0.1-0.6-0.3
	C171.9,0,170.9-0.1,170.4,0.2z"/>
<path d="M129,8.4c-0.1,0.3,0.2,0.6,0.4,0.4c0.2-0.2,0.1-0.6-0.1-0.6C129.2,8.2,129.1,8.3,129,8.4z"/>
<path d="M190.5,30.3c-0.1,0.1-0.1,0.2-0.1,0.4c0,0.2,0.1,0.3,0.3,0.3c0.2,0,0.3-0.1,0.2-0.4C190.9,30.3,190.7,30.1,190.5,30.3z"/>
<path d="M4.7,74.9c-0.1,0.2,0.3,0.9,0.7,1.3c0.4,0.4,0.5,0.7,0.2,1c-0.1,0.1-0.1,0.2,0,0.3c0.1,0.1,0.2,0.5,0.2,0.9
	c0,0.8,0,0.8-0.6,1.3c-0.3,0.2-0.8,0.6-1.1,0.7c-0.3,0.1-0.7,0.5-1,0.8c-0.3,0.3-0.6,0.6-0.7,0.6c-0.5,0-0.8,1.5-0.4,1.9
	c0.2,0.2,0.7,0.2,1-0.1c0.2-0.2,0.5-0.4,1.5-0.9c0.2-0.1,0.4-0.2,0.4-0.3c0.2-0.3,0.3-0.1,0.3,0.5c0,0.3,0.1,0.7,0.1,0.7
	c0.1,0,0.1,0.5,0.1,0.9c0,0.5,0.1,0.9,0.1,1c0.2,0.2,0.3,1.1,0.1,1.4c-0.4,0.5-0.2,1.1,0.4,1.1c0.1,0,0.4,0.2,0.7,0.4
	c0.2,0.2,0.6,0.6,0.8,0.7l0.4,0.3l-0.3,0.4C7.6,89.8,7.4,90,7.3,90c-0.1,0-0.3,0.1-0.5,0.3c-0.2,0.2-0.4,0.3-0.4,0.3
	c-0.1,0-0.4,0.3-0.8,0.7c-0.4,0.4-0.8,0.7-0.8,0.7c-0.1,0-0.5,0.3-0.9,0.7c-0.4,0.4-0.8,0.7-0.9,0.7c-0.1,0-0.4,0.2-0.6,0.5
	c-0.5,0.6-0.7,0.8-1.6,1.6c-0.6,0.5-0.7,0.7-0.7,1c0,0.4,0.1,0.6,0.7,0.9c0.3,0.1,0.4,0.2,0.5,0c0.1-0.1,0.3-0.2,0.4-0.2
	c0.2,0,1.1-0.8,1.3-1.3C3.1,96.1,3.2,96,3.3,96c0.1,0,0.4-0.2,0.7-0.5c0.3-0.3,0.6-0.5,0.7-0.5c0.1,0,0.4-0.2,0.6-0.5
	c0.3-0.3,0.5-0.5,0.6-0.5c0.1,0,0.3-0.1,0.4-0.2c0.1-0.1,0.3-0.3,0.5-0.5s0.6-0.4,0.9-0.7C8,92.2,8.3,92,8.3,92
	c0.1,0,0.2-0.1,0.3-0.3c0.1-0.2,0.2-0.3,0.3-0.3c0.1,0,0.3-0.2,0.6-0.4c0.4-0.4,0.5-0.4,0.7-0.2c0.1,0.1,0.5,0.3,0.7,0.3
	c0.3,0,0.6,0.1,0.8,0.2c0.2,0.1,0.5,0.2,0.6,0.3c0.1,0.1,0.9,0.1,1.6,0.2c0.7,0.1,1.5,0.2,1.6,0.2c0.2,0.1,0.4,0.1,0.7,0
	c0.7-0.2,1.5-0.2,1.5,0c0,0.1-0.1,0.2-0.2,0.2c-0.2,0-1.3,1-1.3,1.2c0,0.1-0.1,0.2-0.3,0.3c-0.2,0.1-0.3,0.2-0.3,0.3
	c0,0.2-1.5,1.4-1.7,1.4c-0.1,0-0.3,0.2-0.5,0.4c-0.2,0.2-0.4,0.4-0.5,0.4c-0.1,0-0.8,0.7-1.7,1.5c-0.8,0.8-1.9,1.8-2.3,2.2
	c-0.4,0.4-1.1,1-1.5,1.4c-0.4,0.3-0.7,0.6-0.8,0.6c-0.1,0-0.4,0.2-0.7,0.4c-0.7,0.5-0.7,1.2-0.1,1.8c0.4,0.4,0.9,0.5,1.4,0.1
	c0.2-0.1,0.5-0.3,0.6-0.3c0.1-0.1,0.2-0.2,0.2-0.3c0-0.1,0.2-0.4,0.4-0.6c0.2-0.2,0.4-0.5,0.4-0.5c0-0.1,0.1-0.2,0.3-0.3
	c0.4-0.3,1.5-1.2,1.8-1.6c0.1-0.2,0.3-0.3,0.4-0.3c0.1,0,0.3-0.2,0.5-0.4c0.5-0.5,1.6-1.3,1.8-1.3c0.1,0,0.3-0.1,0.3-0.2
	c0.1-0.2,0.4-0.5,1.2-0.9c0.2-0.1,0.6-0.5,1-0.9c0.4-0.4,0.8-0.7,0.8-0.7c0.1,0,0.2-0.1,0.3-0.2c0.1-0.1,0.4-0.3,0.6-0.4
	c0.2-0.1,0.6-0.5,1-0.8c0.3-0.3,0.6-0.6,0.7-0.6c0,0,0.3-0.1,0.6-0.3c0.5-0.3,1.3-0.4,1.4-0.2c0,0.1,0.4,0.2,0.8,0.2
	c0.4,0,0.8,0.1,0.8,0.2c0.2,0.3,0.8,0.1,1.3-0.3c0.4-0.4,0.6-0.5,1.3-0.5l0.8-0.1l1,1c0.6,0.5,1.2,1.1,1.4,1.2
	c0.3,0.2,0.4,0.2,0.4,1.4c0,0.7,0.1,1.3,0.2,1.4c0.1,0.1,0.2,0.5,0.2,0.9c0,0.5,0.1,0.9,0.3,1.2c0.1,0.2,0.3,0.5,0.3,0.6
	c0,0.2,0.8,1.5,1.3,2c0.4,0.4,0.9,1.2,1,1.6c0.1,0.1,0.3,0.3,0.5,0.4c0.5,0.2,0.6,0.6,0.3,0.6c-0.2,0-0.5,0.4-0.9,1
	c-0.2,0.3-0.4,0.6-0.5,0.6c-0.1,0-0.4,0.3-0.8,0.7c-0.3,0.4-0.9,1-1.2,1.4c-0.4,0.4-0.7,0.8-0.7,0.9c0,0.1-0.1,0.3-0.1,0.3
	c-0.1,0-0.1,0.4-0.1,0.7c0,0.3-0.1,0.7-0.2,0.9c-0.1,0.2-0.1,0.3,0.1,0.7c0.2,0.2,0.4,0.4,0.4,0.4c0.1,0,0.1,0.1,0.1,0.2
	c0,0.1,0.2,0.3,0.5,0.4c0.3,0.1,0.8,0.3,1.1,0.5c0.3,0.1,0.8,0.3,1,0.3c0.3,0,0.4,0.1,0.5,0.2c0,0.1,0.2,0.4,0.4,0.6l0.4,0.4h2
	c1.1,0,2-0.1,2.1-0.1c0.1-0.1,0.5-0.2,0.9-0.2c0.8-0.1,1.1-0.2,2-0.6c0.3-0.1,0.8-0.3,1.1-0.3c0.4,0,0.8-0.2,1-0.3
	c0.2-0.1,0.7-0.3,1.3-0.3c0.5,0,1-0.1,1.1-0.2c0.1-0.1,0.2-0.1,0.4-0.1c0.3,0,1.2-0.5,1.5-0.8c0.1-0.1,0.5-0.5,0.9-0.7
	c0.7-0.5,1.1-1.1,1.3-1.7c0-0.3,0.1-0.4,0.4-0.4c0.4-0.1,0.9-0.6,1.2-1.2c0.1-0.2,0.3-0.5,0.3-0.6c0.4-0.7,0.4-0.9,0.4-1.3
	c0-0.3-0.1-0.7-0.3-0.9c-0.1-0.2-0.3-0.4-0.3-0.5c0-0.1-0.1-0.3-0.2-0.4c-0.1-0.1-0.2-0.2-0.2-0.3c0-0.2-0.4-0.6-0.7-0.6
	c-0.1,0-0.3-0.1-0.5-0.1c-0.1-0.1-0.4-0.2-0.6-0.2c-0.5-0.1-0.9-0.5-0.7-0.7c0.1-0.1,0.2-0.3,0.2-0.5c0-0.2,0.1-0.4,0.2-0.5
	c0.1-0.1,0.2-0.6,0.2-1.2c0-0.6,0-1,0.1-1c0.1,0,0.1,0.1,0.1,0.1c0,0.1,0.3,0.1,0.6,0.1c0.3,0,0.6-0.1,0.6-0.1
	c0-0.2,0.4-0.1,0.6,0.1c0.5,0.6,2,0.2,3-0.7c0.1-0.1,0.4-0.3,0.4-0.3c0.1,0,0.2-0.1,0.2-0.1c0-0.1,0.2-0.2,0.4-0.2
	c0.4-0.1,1.1-0.7,1.3-1.1c0.1-0.2,0.2-0.3,0.6-0.3c0.3,0,0.5-0.1,0.7-0.2c0.1-0.1,0.4-0.3,0.6-0.4c0.2-0.1,0.6-0.3,0.8-0.5
	c0.2-0.2,0.6-0.3,0.8-0.4c0.2-0.1,0.7-0.4,1.1-0.8l0.7-0.7V92c0-1.2,0-1.6-0.2-1.7c-0.3-0.3,0-0.4,0.6-0.3c0.4,0.1,0.6,0,0.7-0.1
	c0.1-0.1,0.5-0.3,0.9-0.4c0.4-0.1,0.8-0.2,0.9-0.3c0.1-0.1,0.4-0.1,0.8-0.1s0.8-0.1,0.9-0.2c0.2-0.1,0.6-0.2,1-0.2
	c0.5,0,0.9-0.1,1.1-0.3c0.2-0.2,0.6-0.3,1-0.3c0.4,0,0.7-0.1,0.8-0.1c0.1-0.1,0.5-0.2,0.9-0.2c0.4,0,0.8-0.1,0.8-0.2
	c0-0.1,0.3-0.1,0.6-0.1c0.3,0,0.6-0.1,0.6-0.1c0-0.1,0.4-0.2,0.8-0.2c0.4-0.1,0.8-0.1,0.8-0.2c0-0.1,0.2-0.1,0.4-0.1
	s0.4-0.1,0.5-0.1c0.1-0.1,0.5-0.2,0.9-0.2c0.8-0.1,1.3,0,1.7,0.5c0.1,0.1,0.3,0.2,0.5,0.2s0.4,0.1,0.5,0.2c0.1,0.1,0.3,0.2,0.4,0.2
	c0.1,0,0.5,0.1,0.9,0.3c0.4,0.2,0.9,0.3,1.2,0.3c0.3,0,0.6,0.1,0.6,0.1c0,0.1,0.7,0.1,1.5,0.1c0.8,0,1.5,0.1,1.5,0.1
	c0,0.1,0.3,0.1,0.5,0.1s0.4-0.1,0.5-0.1c0-0.1,0.3-0.1,0.5-0.1c0.2,0,0.7-0.1,1-0.3c0.5-0.3,0.8-0.3,2.4-0.3l1.8,0l0.3-0.4
	c0.2-0.2,0.4-0.4,0.5-0.4c0.1,0,0.3-0.1,0.4-0.2c0.2-0.1,0.3-0.1,0.5,0c0.1,0.1,0.4,0.2,0.5,0.2c0.1,0,0.2,0.1,0.2,0.1
	c0,0.4,2.1,0.8,2.4,0.4c0.1-0.2,0.7-0.2,0.7,0c0,0.4-0.4,0.6-1,0.7c-0.4,0.1-0.7,0.2-0.8,0.4c-0.1,0.1-0.2,0.3-0.3,0.3
	c-0.2,0-1,0.9-1,1.1c0,0.1-0.4,0.6-1,1.1c-0.5,0.5-1,1-1,1c0,0.1-0.1,0.3-0.3,0.6c-0.3,0.4-0.3,0.6-0.3,1.5c0,0.8,0.1,1.1,0.3,1.4
	c0.1,0.2,0.3,0.5,0.4,0.7c0.1,0.2,0.4,0.7,0.7,1c0.5,0.6,0.6,0.7,0.4,0.8c-0.1,0.1-0.2,0.2-0.1,0.4c0.1,0.3,0.4,0.3,0.5,0
	c0.1-0.3,0.5-0.4,1-0.1c0.7,0.4,1.3,0.5,1.7,0.5c0.4,0,0.7,0.1,1,0.3c0.4,0.3,0.6,0.3,2.2,0.3c1.2,0,1.8-0.1,1.9-0.2
	c0.1-0.1,0.4-0.2,0.7-0.2c0.3,0,0.7-0.1,1-0.2c0.2-0.1,0.6-0.2,0.8-0.2s0.6-0.1,0.9-0.3c0.3-0.1,0.5-0.3,0.6-0.3
	c0.1,0,0.7-0.4,1.3-0.8c0.7-0.4,1.3-0.8,1.3-0.8c0.1,0,0.2-0.1,0.3-0.2c0.3-0.3,0.8-0.7,0.9-0.7c0.1,0,0.3-0.2,0.5-0.4
	c0.2-0.2,0.5-0.4,0.5-0.4c0.1,0,0.4-0.2,0.7-0.5c0.3-0.3,0.7-0.5,0.8-0.5c0.3,0,1.8-1,2.1-1.5c0.2-0.3,0.3-0.7,0.3-1.3
	c0-0.7,0.2-1.2,0.5-1.2c0.1,0,1.8-1.6,2.1-2.1c0.2-0.2,0.3-0.5,0.4-0.7c0.1-0.2,0.3-0.6,0.5-1c0.2-0.4,0.4-0.7,0.4-0.7
	c0,0,0.1-0.3,0.2-0.5c0.3-0.6,0.4-1,0.5-1.9c0.3-2.2,0.4-3.4,0.3-4.6c-0.1-1.1-0.1-1.4-0.5-1.9c-0.2-0.3-0.4-0.6-0.4-0.7
	c0-0.2-0.9-1-1.3-1.1c-0.7-0.2-0.6,0.2,0.1,1c0.4,0.4,0.7,0.8,0.7,0.9c0,0.1,0.1,0.4,0.3,0.6c0.3,0.3,0.3,0.4,0.3,2.4
	c0,1.3-0.1,2.1-0.2,2.2c-0.1,0.1-0.1,0.4-0.1,0.8s-0.1,0.7-0.1,0.7c-0.1,0-0.1,0.4-0.2,0.8c-0.1,0.4-0.1,0.7-0.2,0.8
	c-0.1,0.1-0.3,0.4-0.7,1.2c-0.1,0.2-0.2,0.4-0.3,0.5s-0.2,0.2-0.3,0.5c-0.1,0.2-0.4,0.6-0.6,0.9c-0.2,0.2-0.4,0.5-0.4,0.6
	c0,0.1-0.1,0.1-0.2,0.1s-0.4,0.2-0.7,0.5c-0.3,0.3-0.7,0.6-0.8,0.6c-0.2,0.1-0.2,0.3-0.2,1.1v1l-0.6,0.6c-0.3,0.3-0.7,0.6-0.8,0.6
	c-0.3,0-0.7,0.3-1.5,0.9c-0.2,0.2-0.5,0.3-0.6,0.3c-0.1,0-0.1,0-0.1,0.1c0,0.1-0.3,0.3-0.7,0.6c-0.4,0.3-0.9,0.6-1.1,0.8
	c-0.4,0.4-0.9,0.7-1.2,0.8c-0.1,0-0.2,0.1-0.2,0.2c0,0.1-0.1,0.1-0.2,0.2c-0.1,0-0.4,0.2-0.7,0.4c-0.2,0.1-0.5,0.3-0.6,0.4
	c-0.1,0-0.4,0.2-0.7,0.3c-0.3,0.1-0.7,0.3-0.9,0.3c-0.2,0-0.4,0.1-0.4,0.2c0,0.1-0.4,0.2-0.9,0.2c-0.5,0-0.9,0.1-1,0.2
	c-0.1,0.1-0.3,0.1-0.5,0.1c-0.2,0-0.4,0.1-0.5,0.1c-0.1,0.2-1.1,0.2-1.4,0c-0.1-0.1-0.4-0.2-0.6-0.3c-0.2-0.1-0.6-0.2-0.8-0.4
	c-0.2-0.1-0.7-0.2-1-0.2c-0.3,0-0.7,0-0.8-0.1c-0.5-0.3-1-0.4-1.4-0.5c-0.2-0.1-0.4-0.2-0.4-0.2c0-0.1-0.1-0.3-0.3-0.5
	c-0.2-0.2-0.4-0.6-0.5-0.9c-0.1-0.3-0.3-0.6-0.4-0.7c-0.2-0.1-0.3-1.8,0-1.8c0.1,0,0.2-0.2,0.3-0.4c0.1-0.2,0.5-0.7,0.9-1.1
	c0.7-0.7,0.9-1,1.2-1.5c0.3-0.7,1.3-1.4,1.9-1.4c0.1,0,0.4-0.1,0.5-0.3c0.1-0.2,0.4-0.3,0.6-0.4c0.2-0.1,0.3-0.2,0.3-0.6
	c0-1-0.9-1.4-1.8-0.9c-0.2,0.1-0.5,0.2-0.6,0.2c-0.3,0-1.1-0.4-1.1-0.6c0-0.1-0.1-0.1-0.2-0.1c-0.1,0-0.3-0.1-0.5-0.3
	c-0.4-0.3-0.8-0.3-1.2,0c-0.1,0.1-0.4,0.3-0.6,0.3c-0.3,0-0.4,0.1-0.7,0.5c-0.2,0.4-0.4,0.5-0.7,0.5c-0.3,0-0.5-0.1-0.6-0.1
	c-0.1-0.2-2.1-0.2-2.2,0c-0.1,0.1-0.3,0.2-0.7,0.2c-0.3,0.1-0.7,0.2-0.7,0.2c-0.2,0.2-4,0.1-4.2,0c-0.1-0.1-0.5-0.1-1-0.2
	c-0.6,0-0.9-0.1-1.1-0.4c-0.2-0.2-0.4-0.3-0.5-0.3c-0.1,0-0.3-0.1-0.4-0.2c-0.1-0.1-0.2-0.2-0.4-0.2c-0.1,0-0.4-0.1-0.8-0.3
	c-0.5-0.3-0.8-0.3-1.7-0.3c-0.7,0-1.2,0.1-1.5,0.2C74.4,86,74,86,73.8,86c-0.2,0-0.4,0.1-0.5,0.1c0,0.1-0.2,0.1-0.4,0.1
	c-0.2,0-0.3,0.1-0.3,0.1c0,0.1-0.4,0.2-1,0.2c-0.5,0.1-1,0.1-1,0.2c0,0.1-0.3,0.1-0.5,0.1c-0.3,0-0.6,0.1-0.8,0.2
	c-0.2,0.1-0.7,0.2-1.1,0.2c-0.5,0-0.8,0.1-1,0.3c-0.2,0.2-0.5,0.3-1,0.3c-0.4,0-0.8,0.1-0.9,0.1c-0.1,0.1-0.5,0.2-1,0.2
	c-0.5,0-0.9,0.1-0.9,0.2c0,0.1-0.2,0.1-0.5,0.1c-0.2,0-0.4,0.1-0.5,0.1c0,0.1-0.2,0.1-0.4,0.1c-0.2,0-0.4,0.1-0.5,0.2
	c-0.2,0.2-0.3,0.2-0.4,0.1C60.9,89,60.5,89,60,89.3c-0.4,0.2-0.4,0.3-0.4,0.7c0,0.3,0.1,0.6,0.3,0.8c0.2,0.2,0.3,0.4,0.3,1.2
	c0,0.5-0.1,1.1-0.2,1.3c-0.2,0.4-0.8,1-1,1c-0.1,0-0.2,0.1-0.4,0.1c-0.1,0.1-0.4,0.2-0.6,0.3c-0.2,0.1-0.4,0.2-0.4,0.3
	c0,0.1-0.2,0.2-0.4,0.3c-0.2,0-0.5,0.2-0.7,0.4c-0.2,0.1-0.5,0.3-0.7,0.3c-0.4,0-0.8,0.4-0.8,0.7c0,0.1-0.1,0.3-0.3,0.3
	c-0.2,0.1-0.4,0.2-0.5,0.3c-0.1,0.1-0.3,0.2-0.4,0.2c-0.1,0-0.3,0.1-0.4,0.2c-0.1,0.1-0.2,0.2-0.3,0.2c-0.1,0-0.3,0.1-0.5,0.3
	c-0.2,0.2-0.4,0.3-0.6,0.3c-0.1,0-0.3,0.1-0.4,0.1c-0.1,0.2-0.6,0.2-0.7-0.1c-0.1-0.1-0.6-0.2-1.7-0.2l-1.6,0v1.1
	c0,0.6-0.1,1.1-0.1,1.2c-0.1,0-0.1,0.3-0.1,0.5c0,0.2-0.1,0.5-0.2,0.6c-0.1,0.1-0.2,0.4-0.2,0.7c0,0.3,0.1,0.5,0.5,0.7
	c0.3,0.2,0.7,0.3,0.9,0.4c0.2,0,0.4,0.1,0.5,0.2c0,0.1,0.2,0.1,0.4,0.1c0.3,0,1,0.9,1,1.3c0,0.1,0.1,0.3,0.2,0.5
	c0.2,0.3,0.3,0.7,0.1,0.7c-0.1,0-0.2,0.2-0.2,0.4c0,0.2-0.2,0.5-0.4,0.6c-0.1,0.1-0.3,0.3-0.3,0.4c0,0.2-0.4,0.6-0.7,0.6
	c-0.4,0-0.6,0.3-0.6,0.9c0,0.5-0.2,0.7-1.8,2.1c-0.4,0.4-1.2,0.7-1.6,0.7c-0.2,0-0.5,0.1-0.7,0.3c-0.2,0.2-0.5,0.3-1,0.3
	c-0.4,0-0.8,0.1-1,0.2c-0.1,0.1-0.4,0.2-0.6,0.2c-0.2,0-0.3,0.1-0.3,0.1c0,0.1-0.2,0.1-0.5,0.1c-0.4,0-1,0.2-1.7,0.6
	c-0.1,0.1-0.5,0.1-0.8,0.1c-0.3,0-0.6,0.1-0.6,0.1c0,0.1-0.7,0.2-2,0.2c-2.1,0.1-2.1,0.1-2.5-0.7c-0.1-0.2-0.3-0.3-0.7-0.3
	c-0.3,0-0.6-0.2-0.8-0.3c-0.1-0.1-0.5-0.3-0.8-0.3c-0.8-0.1-1.3-0.7-1.3-1.4c0-0.9,0.4-1.8,1-2.5c0.3-0.3,0.6-0.7,0.6-0.7
	c0-0.2,0.7-0.9,0.9-0.9c0.1,0,0.3-0.2,0.5-0.5c0.2-0.3,0.7-0.8,1-1.1c0.3-0.4,0.6-0.8,0.6-0.9c0-0.1-0.3-0.6-0.7-1
	c-0.4-0.4-0.8-0.9-0.9-1c-0.1-0.2-0.4-0.7-0.7-1.1c-0.3-0.4-0.6-0.8-0.6-0.9c0-0.1-0.1-0.1-0.1-0.1c-0.1,0-0.2-0.2-0.2-0.5
	c-0.1-0.3-0.2-0.7-0.3-0.9c-0.2-0.2-0.3-0.6-0.3-1c0-0.4-0.1-0.7-0.2-0.8C30,97.1,30,96.6,30,95.9c0-1.3,0-1.3-1-2
	c-0.3-0.2-0.6-0.4-0.6-0.5c0-0.1-0.2-0.1-0.3-0.2c-0.1-0.1-0.4-0.4-0.7-0.7c-0.4-0.5-0.4-0.6-1.2-0.6c-0.4,0-0.8,0-0.9,0.1
	c0,0.1-0.3,0.1-0.6,0.1c-0.7,0-1,0.1-1.1,0.5c-0.1,0.2-0.2,0.3-0.5,0.2c-0.2,0-0.4-0.1-0.4-0.2c0-0.1-0.2-0.1-0.4-0.1
	S22,92.5,22,92.4c-0.1-0.2-2-0.2-2,0c0,0.1-0.1,0.1-0.2,0.2c-0.1,0-0.4,0.2-0.6,0.3c-0.2,0.1-0.5,0.4-0.7,0.5
	c-0.2,0.1-0.6,0.4-0.8,0.7c-0.8,0.8-1.7,1.5-1.8,1.5c-0.1,0-0.3,0.2-0.6,0.5c-0.3,0.3-0.7,0.6-1,0.8c-0.3,0.2-0.5,0.4-0.5,0.5
	c0,0.1-0.1,0.1-0.2,0.1c-0.1,0-0.2,0.1-0.3,0.2c-0.1,0.1-0.2,0.2-0.3,0.2c-0.1,0-0.4,0.2-0.7,0.5c-0.2,0.3-0.6,0.6-0.8,0.7
	c-0.3,0.2-1.8,1.5-3,2.7c-0.2,0.2-0.6,0.6-0.8,0.9c-0.2,0.3-0.6,0.6-0.8,0.8c-0.4,0.3-0.4,0.3-0.6,0.1c-0.2-0.2-0.2-0.2,0.2-0.6
	c0.2-0.2,0.5-0.4,0.6-0.4c0.2,0,1.1-0.8,1.1-1.1c0-0.1,0.1-0.2,0.2-0.2c0.1,0,0.7-0.5,1.2-1c0.6-0.6,1.1-1,1.1-1
	c0.1,0,0.7-0.6,1.5-1.4c0.7-0.7,1.4-1.4,1.5-1.4c0.1,0,0.3-0.2,0.5-0.4c0.2-0.2,0.6-0.5,0.8-0.7c0.3-0.1,1.1-0.9,1.9-1.6
	c1.4-1.3,1.4-1.4,1.4-2v-0.6h-1.8c-1.1,0-1.8-0.1-1.8-0.1c0-0.1-0.4-0.1-0.9-0.1c-0.5,0-1-0.1-1-0.1c0-0.1-0.3-0.2-0.7-0.2
	c-0.3,0-0.7-0.1-0.7-0.2c-0.4-0.3-1.2-0.7-1.4-0.7c-0.1,0-0.6,0.4-1.1,0.8c-0.5,0.5-1,0.9-1.1,1c-0.2,0.1-0.3,0.3-0.3,0.4
	c0,0.1-0.1,0.2-0.2,0.2c-0.1,0-0.3,0.1-0.4,0.2c-0.1,0.1-0.6,0.5-1,0.8c-0.5,0.3-1,0.7-1.2,0.9c-0.2,0.2-0.5,0.4-0.7,0.5
	c-0.2,0.1-0.4,0.2-0.4,0.3c0,0.1-0.1,0.3-0.2,0.3c-0.2,0-1,0.8-1.1,1.1c-0.1,0.5-1.2,0.9-1.2,0.4c0-0.2,0.7-0.9,1.2-1
	c0.2-0.1,0.4-0.2,0.4-0.3c0.1-0.2,1-1.2,1.3-1.4c0.1-0.1,0.5-0.4,0.8-0.7c0.3-0.3,0.7-0.6,0.7-0.6c0.1,0,0.6-0.4,1-0.9
	c0.5-0.5,1-0.8,1-0.8c0.1,0,0.4-0.3,0.8-0.6c0.6-0.5,0.6-0.6,0.6-1.2c0-0.5-0.1-0.6-0.4-0.7c-0.2-0.1-0.6-0.4-0.8-0.7
	c-0.3-0.3-0.6-0.5-0.9-0.5c-0.4,0-0.4,0-0.2-0.2c0.2-0.3,0.3-1.1,0.1-1.3c-0.1-0.1-0.2-0.6-0.2-1.2c-0.1-0.6-0.1-1.3-0.2-1.5
	c-0.1-0.3-0.1-0.4,0-0.5c0.2-0.2,0.2-0.8-0.1-1.1c-0.3-0.3-0.9-0.3-1.1,0c-0.2,0.3-1.2,0.7-1.2,0.6c0-0.2,0.7-0.8,1.3-1
	c0.3-0.2,0.8-0.4,1-0.6c0.4-0.4,0.4-0.4,0.4-1.7c0-0.7,0.1-1.4,0.1-1.4c0.1,0,0.1-0.3,0.1-0.5c0-0.3-0.2-0.6-0.8-1.1
	C5.2,74.8,4.9,74.6,4.7,74.9z M3.1,82.5c-0.3,0.3-0.6,0.4-0.6,0.1c0-0.1,0.5-0.4,0.8-0.4C3.3,82.2,3.2,82.4,3.1,82.5z"/>
<g class="st0">
	<g class="st1">
		<path d="M48.8,37c0.2-0.2,0.4-0.3,0.6-0.5c0.2-0.2,0.5-0.1,0.7-0.4c0.1-0.2,0.3-0.2,0.5-0.3c0.2-0.1,0.3-0.4,0.6-0.4
			c0.1,0,0.1-0.1,0.2-0.2c0.4-0.4,0.9-0.8,1.5-1.1c0.2-0.3,0.5-0.4,0.7-0.7c0.1-0.2,0.4-0.5,0.8-0.5c0.3,0,0.6-0.2,0.8-0.4
			c0.4-0.4,0.9-0.5,1.2-0.8c0.2,0.1,0.3-0.1,0.5-0.2c0.4-0.3,0.8-0.5,1.3-0.6c0.2,0,0.4-0.1,0.6-0.3c0.2-0.2,0.4-0.2,0.6-0.3
			c0.2-0.2,0.4-0.1,0.6-0.2c0.2-0.1,0.5,0,0.7-0.3c0.2-0.2,0.5-0.1,0.7-0.4c0-0.1,0.2-0.1,0.2-0.2c0-0.1,0.2-0.2,0.4-0.2
			c0.1,0,0.2,0,0.2,0c0.2-0.3,0.5-0.2,0.8-0.3c0.3-0.1,0.6-0.1,0.9-0.1c0.2-0.4,0.7-0.5,1-0.7c0.1,0,0.2-0.1,0.2-0.1
			c0.3,0,0.6-0.2,0.8-0.3c0.4-0.2,0.7-0.5,1.1-0.7c0.1-0.1,0.2-0.1,0.3-0.1c0.1,0,0.2,0,0.2,0c0.2-0.4,0.6-0.1,0.8-0.4
			c0.3,0.1,0.5-0.1,0.7-0.3c0.3-0.2,0.6-0.3,0.9-0.3c0.4,0,0.5-0.1,1.2-0.4c0.3-0.1,0.6-0.3,0.9-0.5c0.1,0,0.1-0.1,0.2-0.1
			c0.3,0.1,0.4-0.2,0.6-0.3c0.3-0.1,0.6-0.4,0.9-0.4c0.1,0,0.3-0.1,0.3-0.1c0.2-0.2,0.5-0.3,0.8-0.3c0.1,0,0.2-0.1,0.3-0.1
			c0.1-0.1,0.2-0.2,0.4-0.1c0.1,0,0.2,0,0.2,0c0.4-0.3,0.7-0.4,1.2-0.4c0.2,0,0.4-0.4,0.7-0.3c0.2-0.3,0.6-0.3,0.9-0.3
			c0.4-0.1,0.6-0.3,0.9-0.4c0.2-0.1,0.3-0.2,0.5-0.2c0.3,0,0.5-0.1,0.8-0.1c0.2-0.1,0.5,0,0.7-0.1c0.3-0.1,0.5-0.2,0.6-0.4
			c0.1-0.3,0.4-0.4,0.7-0.5c0.1,0,0.2,0,0.3-0.1c0.2-0.3,0.7-0.4,0.6-0.9c0.4-0.3,0.8-0.7,1.3-0.9c0.2-0.1,0.4-0.1,0.6-0.3
			c0.2-0.1,0.5-0.1,0.8-0.3c0.2-0.1,0.4-0.4,0.7-0.5c0.3-0.1,0.5-0.4,0.8-0.6c0.2-0.1,0.5-0.2,0.7-0.4c0.2-0.2,0.4-0.4,0.5-0.7
			c0.1-0.2,0.2-0.3,0.4-0.3c0.3,0.1,0.5-0.2,0.7-0.3c0.3,0,0.4-0.2,0.5-0.5c0-0.1,0.2-0.2,0.3-0.2c0.3,0,0.4-0.2,0.4-0.5
			c0-0.3,0-0.6,0-1c0.2-0.1,0.3-0.4,0.6-0.5c0,0,0,0,0,0c0.2-0.4,0.7-0.6,1-0.9c0.2-0.2,0.4-0.4,0.7-0.4c0.1,0,0.2-0.2,0.3-0.2
			c0.5-0.2,1-0.6,1.6-0.8c0.1,0,0.3-0.1,0.4-0.2c0.2-0.2,0.4-0.4,0.7-0.4c0.1,0,0.3-0.2,0.5-0.4c0.3-0.1,0.6,0.1,0.9-0.2
			c0,0,0.1,0,0.2,0c0.3,0,0.5,0,0.7-0.2c0,0,0.2,0,0.3,0c0.1,0,0.3,0,0.3-0.2c0-0.1,0.1-0.2,0.2-0.2c0.7-0.1,1-0.8,1.4-1.3
			c0.1-0.1,0.1-0.4,0.1-0.7c0.2-0.2,0.4-0.4,0.7-0.6c0.3-0.2,0.4-0.5,0.7-0.6c0.3-0.1,0.8-0.2,1.1,0c0.2,0.2,0.5,0.4,0.7,0.5
			c0,0.3,0,0.6,0,1c-0.5,0.5-1,1-1.6,1.6c0.3,0.2,0.9-0.2,1.1,0.3c0.4-0.3,0.7-0.5,1.1-0.8c0.1-0.1,0.2-0.1,0.3-0.2
			c0.2-0.2,0.3-0.5,0.7-0.5c0.2-0.1,0.4-0.4,0.6-0.6c0.2,0,0.5,0,0.7,0c0.2,0,0.4,0,0.5-0.2c0,0,0.1-0.1,0.1-0.1
			c0.5,0.1,1.1-0.4,1.6,0c0,0,0.1,0,0.1,0c0.4-0.3,0.9-0.1,1.3-0.1c0.1,0,0.2,0,0.2,0c0.4-0.5,0.9-0.2,1.4-0.3
			c0.1-0.2,0.3-0.3,0.5-0.3c0.8,0,1.6,0,2.4,0c0.5,0,0.8,0.2,1.1,0.4c0.3,0.2,0.6,0.2,0.8,0.5c0.1,0.1,0.4,0,0.8,0.1
			c0,0.1,0.1,0.2,0.2,0.3c0.1,0.1,0.2,0.2,0.4,0.4c0.3-0.1,0.6,0,0.7,0.4c0,0.1,0.1,0.4,0.3,0.3c0.1,0,0.1,0.1,0.2,0.1
			c0.3,0.1,0.1,0.5,0.3,0.6c0.2,0.1,0.3,0.3,0.3,0.6c0,0,0,0.1,0,0.1c0.3,0.2,0.2,0.5,0.3,0.9c0.3-0.2,0.6-0.2,0.8-0.4
			c0.2-0.1,0.5-0.1,0.8-0.2c0.1,0,0.2,0,0.2-0.1c0.2-0.3,0.5-0.2,0.7-0.2c0.3,0,0.6,0,0.9,0c0.1,0,0.2,0,0.3,0
			c0.5-0.5,1.1-0.2,1.7-0.2c0.1,0,0.3,0.2,0.4,0.3c0.9,0,1.9,0,2.9,0c0.2,0,0.4,0,0.6-0.3c0.5-0.8,1-1.5,1.6-2.3
			c-0.1-0.3,0.1-0.6,0.3-0.8c0.3-0.4,0.5-0.8,0.7-1.2c0.2-0.4,0.6-0.5,0.9-0.8c0.1-0.1,0.2-0.1,0.3,0c0.3,0.2,0.9,0.1,0.9,0.7
			c0,0.1,0.1,0.1,0.2,0.2c0.2,0.1,0.1,0.4,0.1,0.4c-0.3,0.2-0.1,0.7-0.5,0.9c-0.3,0.1-0.6,0.8-0.7,1.2c0,0.1,0,0.2-0.1,0.2
			c-0.5,0.3-0.6,0.8-0.9,1.2c-0.2,0.3-0.4,0.6-0.6,1c-0.2,0.3-0.2,0.3-0.5,0.6c0.1,0.1,0.2,0.3,0.3,0.3c0.4,0,0.6,0.3,0.7,0.6
			c0.1,0.2,0.3,0.4,0.6,0.4c0.2,0,0.5,0.3,0.7,0.4c0.3,0.2,0.4,0.5,0.8,0.5c0,0,0.1,0.1,0.1,0.1c0.1,0.1,0.1,0.4,0.3,0.3
			c0.2-0.1,0.4-0.2,0.4-0.5c0.1-0.3,0.2-0.6,0.4-0.8c0.3-0.2,0.4-0.5,0.7-0.7c0.1-0.1,0.2-0.2,0.3-0.3c0.1-0.1,0.2-0.2,0.2-0.4
			c0-0.1,0.1-0.3,0.2-0.3c0.3,0,0.4-0.2,0.5-0.5c0.1-0.2,0.3-0.3,0.3-0.6c0-0.2,0.3-0.4,0.5-0.7c0-0.2,0-0.4,0-0.6
			c0.2-0.2,0.4-0.4,0.5-0.7c0-0.2,0.3-0.5,0.4-0.5c0.4,0,0.5-0.3,0.7-0.4c0.3,0,0.5,0,0.8,0c0.2,0,0.3,0.1,0.3,0.3
			c0,0.4,0.1,0.7,0,1.1c-0.1,0.3-0.2,0.7-0.5,0.9c-0.3,0.3-0.4,0.6-0.7,1c-0.2,0.3-0.4,0.6-0.5,1c0,0,0,0.1,0,0.1
			c-0.3,0.3-0.5,0.6-0.9,0.8c0,0.2,0,0.5-0.4,0.6c-0.2,0-0.5,0.8-0.6,1c0,0.1,0,0.2,0,0.2c-0.4,0.2-0.3,0.7-0.7,1
			c-0.3,0.2-0.3,0.7-0.7,1c0,0,0,0.1,0,0.2c0.3,0.5,0.1,1,0.1,1.5c0.3,0.1,0.5,0.5,0.9,0.5c0.2,0,0.3,0.3,0.2,0.5
			c-0.3,0.6-0.3,0.6,0.1,1c0.2-0.1,0.4-0.3,0.6-0.4c0.1,0,0.1-0.1,0.2-0.1c0.1,0,0.3,0,0.4-0.1c0.4-0.2,0.8-0.4,1.1-0.7
			c0.1-0.1,0.2-0.2,0.2-0.3c0.1-0.4,0.6-0.5,0.8-0.8c0,0,0.2,0,0.2,0c0.2,0,0.5,0,0.7,0c0.1,0.1,0.2,0.2,0.3,0.3
			c0.3-0.3,0.5-0.6,0.8-0.8c0.3-0.2,0.6-0.3,1-0.3c0.1,0,0.1,0.1,0.2,0.1c0.3,0.2,0.1,0.6,0.5,0.8c0,0.2,0,0.4,0,0.6
			c0,0.2-0.2,0.3-0.3,0.5c0.4,0,0.8,0.1,1.1-0.2c0.3-0.3,0.8-0.3,1-0.6c0,0,0,0,0,0c0.4,0.2,0.6-0.3,0.9-0.3c0.2,0,0.4-0.2,0.6-0.3
			c0.2-0.1,0.4-0.1,0.6-0.3c0.2-0.2,0.5-0.2,0.7-0.4c0,0,0.1-0.1,0.2-0.1c0.2,0,0.4,0,0.5-0.2c0,0,0.1-0.1,0.1-0.1
			c0.5,0.1,0.8-0.4,1.3-0.4c0.1,0,0.2-0.1,0.3-0.2c0.1-0.1,0.2-0.3,0.3-0.5c0.1-0.1,0.1-0.3,0.2-0.3c0.3,0.1,0.5-0.3,0.8-0.3
			c0.3,0,0.7-0.1,0.9,0.3c0.3-0.5,0.7-0.2,1-0.3c0.3,0.3,0.5,0.5,0.8,0.8c0,0.2,0,0.5,0,0.7c-0.2,0.3-0.4,0.5-0.6,0.8
			c-0.4-0.1-0.5,0.3-0.8,0.4c0,0.5-0.5,0.2-0.7,0.6c0.2,0.1,0.4,0.1,0.5,0c0.2-0.3,0.5-0.2,0.7-0.2c0.2,0,0.4,0,0.6-0.1
			c0.3-0.3,0.7-0.3,1.1-0.3c0.1,0,0.1,0,0.2,0c0.1-0.3,0.4-0.3,0.7-0.3c0.1-0.3,0.1-0.5-0.1-0.7c-0.2-0.2-0.3-0.5-0.2-0.8
			c0.1-0.6-0.2-1-0.6-1.4c-0.1-0.1-0.1-0.1-0.2-0.2c0-0.4,0.1-0.9,0-1.3c-0.1-0.5-0.1-1-0.1-1.4c0-0.2,0.2-0.9,0.3-1
			c0,0,0.1-0.1,0.1-0.1c0-0.2,0-0.5,0-0.7c0-0.2,0.4-0.3,0.3-0.6c0-0.1,0-0.2,0.1-0.3c0.2-0.2,0.3-0.4,0.3-0.7
			c0-0.2,0.2-0.5,0.4-0.7c0.1-0.2,0.3-0.3,0.5-0.5c0.2-0.2,0.3-0.3,0.4-0.6c0-0.2,0.3-0.4,0.6-0.5c0.1,0,0.2-0.1,0.3-0.1
			c0.1-0.2,0.2-0.4,0.4-0.5c0.1-0.1,0.4,0.1,0.6-0.1c0.1-0.1,0.3-0.2,0.4-0.3c0.2,0,0.3-0.1,0.5-0.2c0.4-0.1,0.8-0.5,1.3-0.5
			c0,0,0.1,0,0.1,0c0.3-0.2,0.5-0.3,0.8-0.3c0.3,0,0.6,0,0.9,0c0.3,0.3,0.4,0.7,0.9,0.7c0.1,0,0.1,0.2,0.2,0.3
			c0.1,0.1,0.2,0.2,0.3,0.3c0.4-0.5,0.8-1,1.3-1.4c0.2-0.1,0.3-0.3,0.4-0.4c0.2-0.2,0.4-0.4,0.8-0.5c0.2-0.1,0.4-0.2,0.6-0.3
			c0.2-0.1,0.4-0.3,0.7-0.4c0.2,0,0.4-0.1,0.6-0.3c0.1-0.1,0.3-0.3,0.5-0.3c0.4,0,0.8,0,1.2,0c0.2,0,0.4,0.2,0.5,0.3
			c0.1,0.1,0.2,0.2,0.4,0.2c0.1,0.1,0.3,0.1,0.4,0.2c0.1,0.1,0.2,0.3,0.3,0.4c0.1,0.1,0.2,0.2,0.3,0.2c0.2,0.1,0.3,0.2,0.3,0.4
			c0,0.2,0.4,0.3,0.3,0.6c0.2,0.3,0.2,0.6,0,0.9c0,0.1-0.1,0.2,0,0.3c0.3,0.7,0.2,1.3,0.1,2c-0.1,0.7,0.3,1.2,0.6,1.7
			c0.2,0.3,0.5,0.3,0.8,0.3c0.2,0.3,0.6,0.5,0.5,0.9c0.4,0.2,0.6,0,0.8-0.2c0.3,0.3,0.9,0.3,1.1,0.9c0,0.2,0,0.4,0,0.6
			c0.4,0.2,0.7-0.1,0.9-0.3c0.2-0.2,0.4-0.2,0.7-0.2c0.3,0,0.6-0.1,0.8-0.3c0.1-0.1,0.2-0.1,0.3-0.1c0.3,0,0.7,0,1,0
			c0.1,0,0.2,0,0.2,0.1c0.3,0.3,0.7,0.4,1.2,0.3c0.2,0,0.4,0,0.5,0.3c0.1,0.2,0.3,0.3,0.4,0.5c0.5,0,1,0.2,1.6,0.2
			c0.1,0,0.2,0.1,0.3,0.2c0.1,0.3,0.2,0.3,0.4,0.3c0.4,0.1,0.8,0.2,1.2,0c0.1-0.1,0.3,0.1,0.3,0.1c0.3-0.1,0.4,0.3,0.7,0.3
			c0.3-0.1,0.4,0.2,0.6,0.3c0.2,0.1,0.4,0.1,0.6,0.2c0.2-0.1,0.4-0.3,0.7-0.5c0.1-0.1,0.2-0.1,0.3-0.1c0.3,0,0.5,0,0.8,0
			c0.2,0,0.3-0.1,0.4-0.3c0.1-0.4,0.3-0.6,0.6-0.7c0.1,0,0.2-0.1,0.3-0.2c0.2-0.2,0.3-0.3,0.5-0.5c0.7,0,1.4,0,2.1,0
			c0.3,0,0.5,0.3,0.7,0.4c0.1,0,0.2,0.2,0.3,0.3c0.1,0.1,0.3,0.1,0.4-0.1c0.1-0.2,0.2-0.3,0.4-0.3c0.1,0,0.3-0.2,0.3-0.2
			c0-0.3,0.2-0.4,0.4-0.6c0.1-0.1,0.2-0.1,0.2-0.2c0.2-0.7,0.8-1.1,1.2-1.7c0.1-0.2,0.5-0.3,0.8-0.4c0.2-0.1,0.5-0.2,0.8-0.1
			c0.3,0,0.5,0,0.8,0c0.6-0.1,1.1,0.3,1.5,0.6c0.2,0.1,0.2,0.4,0.5,0.5c0.2,0.1,0.4,0.3,0.4,0.5c0.5,0.1,0.3,0.6,0.7,0.8
			c0,0.4,0.4,0.5,0.4,0.9c0,0.1,0.2,0.2,0.3,0.3c0.1,0.1,0.2,0.1,0.3,0.2c-0.1,0.8,0.2,1.6,0.1,2.5c0,0.8-0.2,1.5-0.2,2.3
			c0,0.3-0.3,0.5-0.3,0.8c-0.2,0.1-0.3,0.3-0.3,0.6c0,0.1-0.2,0.1-0.2,0.2c0,0.4-0.2,0.7-0.5,0.9c0.1,0.3-0.2,0.4-0.4,0.6
			c-0.1,0.2-0.4,0.3-0.3,0.5c0,0.1-0.2,0.2-0.3,0.2c-0.2,0.1-0.4,0.3-0.4,0.6c0,0.3-0.3,0.6-0.5,0.8c-0.1,0.1-0.4,0.3-0.4,0.4
			c0,0.5-0.4,0.8-0.4,1.3c0,0.1-0.1,0.3-0.2,0.3c-0.4,0-0.5,0.4-0.8,0.5c-0.6,0.3-1,0.8-1.6,1c-0.5,0.2-0.9,0.5-1.3,0.7
			c0,0.2,0,0.4-0.1,0.5c-0.1,0.1-0.3,0.2-0.4,0.3c0,0.8-0.3,1-1,1.5c-0.2,0.1-0.5,0.4-0.7,0.4c-0.4,0-0.5,0.2-0.8,0.3
			c-0.4,0.1-0.7,0.4-1.2,0.4c-0.1,0.3-0.5,0.2-0.8,0.5c-0.2,0.2-0.5,0.2-0.8,0.4c-0.2,0.1-0.4,0.3-0.7,0.3c-0.2,0.1-0.5,0-0.7,0
			c-0.1,0.3-0.3,0.5-0.4,0.8c-0.1,0.2-0.4,0.4-0.7,0.6c-0.2,0.1-0.4,0.3-0.7,0.4c-0.4,0-0.5,0.4-0.8,0.6c-0.2,0-0.4,0-0.6,0
			c-0.2,0-0.4,0-0.5,0.2c-0.2,0.2-0.5,0.2-0.7,0.4c0,0-0.1,0-0.2,0.1c0,0,0,0-0.1,0c-0.3-0.1-0.5,0.4-0.8,0.3
			c-0.3-0.1-0.5,0-0.8,0.1c-0.3,0.1-0.5,0.4-0.8,0.3c-0.3-0.1-0.6,0-0.9,0c-0.3,0-0.4,0.1-0.6,0.3c-0.3,0-0.7,0.1-0.9-0.2
			c0,0-0.2,0-0.3,0c-0.2,0-0.4-0.1-0.5-0.2c-0.1-0.1-0.4-0.2-0.6-0.2c-0.3,0-0.5-0.1-0.7-0.3c-0.2-0.2-0.6-0.3-0.7-0.5
			c-0.2-0.3-0.4-0.5-0.4-0.9c0-0.4,0-0.8,0-1.2c-0.7,0.4-1.2,0.7-1.7,1.2c-0.5,0.1-0.9,0.1-1.2,0.2c-0.5,0.4-1,0.8-1.5,1.1
			c-0.1,0-0.2,0.1-0.2,0.1c-0.2,0-0.3,0-0.4,0.2c0,0-0.1,0.1-0.2,0.1c-0.4,0-0.6,0.2-0.9,0.4c-0.2,0.1-0.4,0.4-0.7,0.3
			c-0.2-0.1-0.4,0.2-0.6,0c-0.2-0.1-0.5,0-0.7,0c-0.1,0-0.2,0.1-0.3,0.2c0.3,0.2,0.3,0.5,0.2,0.9c-0.1,0.4-0.5,0.5-0.7,0.8
			c-0.1,0.1-0.2,0.1-0.3,0.1c-0.5-0.1-0.9,0.2-1.2,0.5c-0.2,0.2-0.4,0.3-0.5,0.5c-0.1,0.2-0.3,0.4-0.5,0.3c-0.1,0-0.2,0.1-0.3,0.2
			c-0.2,0.2-0.5,0.5-0.8,0.8c-0.4-0.1-0.8,0.2-1.2-0.2c0.1-0.1,0.2-0.3,0.2-0.3c0.5,0.1,0.7-0.4,1.1-0.6c0.7-0.4,1.4-1,1.9-1.6
			c0.3-0.3,0.6-0.3,1-0.3c0.1-0.1,0.2-0.2,0.3-0.3c-0.2-0.2-0.5-0.4-0.4-0.8c0-0.2,0.1-0.4,0.4-0.4c0.3,0,0.6-0.1,0.8-0.3
			c0.1-0.1,0.2-0.1,0.3-0.1c0.2,0,0.3,0,0.5,0c0.3,0,0.6,0.1,0.8-0.1c0.2-0.2,0.5-0.1,0.6-0.3c0-0.1,0.1-0.1,0.2-0.1
			c0.3-0.1,0.6-0.1,0.8-0.4c0,0,0.1-0.1,0.2-0.1c0.5,0,0.9-0.3,1.2-0.7c0.2-0.3,0.5-0.5,1-0.5c0.3,0,0.6-0.1,0.8-0.1
			c0,0,0.1,0,0.1-0.1c0.3-0.3,0.6-0.5,0.9-0.7c0.3-0.1,0.4-0.5,0.8-0.5c0.2,0,0.5-0.3,0.7-0.5c0.3-0.3,0.6-0.1,0.8-0.1
			c0.1,0,0.2,0.1,0.2,0.2c0,0.2,0.1,0.5,0,0.6c-0.2,0.2-0.2,0.6-0.5,0.8c-0.2,0.2-0.3,0.4,0,0.7c0.2,0.2,0.1,0.4,0.1,0.5
			c0.3,0.2,0.5,0.4,0.8,0.7c0.2,0,0.4,0,0.7,0c0.2,0.2,0.3,0.3,0.4,0.4c0.9,0,1.8,0,2.8,0c0.1,0,0.2,0,0.3,0
			c0.2-0.3,0.5-0.2,0.6-0.3c0.2-0.2,0.5-0.1,0.7-0.1c0.1,0,0.7-0.2,0.9-0.4c0.3-0.2,0.8-0.2,1-0.6c0.3,0,0.6,0,0.9,0
			c0.3-0.2,0.4-0.6,0.9-0.5c0-0.4,0.5-0.3,0.7-0.6c0.1-0.1,0.4-0.2,0.3-0.5c0-0.1,0.1-0.3,0.2-0.3c0.2,0,0.3-0.2,0.4-0.3
			c0.1-0.1,0.1-0.1,0.2-0.2c0.3,0,0.6,0.1,0.9-0.2c0.2-0.2,0.5-0.3,0.7-0.3c0.3,0,0.4-0.3,0.7-0.4c0.8,0,1.5-0.3,2-1
			c0.6,0.1,1.1-0.2,1.5-0.6c0.3-0.2,0.4-0.6,0.3-0.9c0.2-0.3,0.4-0.6,0.6-0.8c0.1-0.2,0.3-0.4,0.4-0.6c0.2-0.1,0.4-0.1,0.6-0.2
			c0.2-0.1,0.3-0.2,0.4-0.3c0.3-0.3,0.6-0.6,1.1-0.6c0.1,0,0.2-0.1,0.3-0.1c0.3-0.5,1-0.5,1.3-1c0.1-0.4,0.1-0.7,0.2-1.2
			c0.1-0.1,0.3-0.3,0.5-0.5c0.2-0.3,0.3-0.6,0.4-0.8c0-0.1,0-0.2,0.1-0.2c0.7-0.4,1-1.2,1.5-1.8c0.2-0.2,0.4-0.4,0.4-0.8
			c0-0.1,0.1-0.3,0.2-0.4c0.1-0.1,0.2-0.2,0.2-0.3c0-0.1,0-0.2,0-0.2c0.4-0.3,0.2-0.8,0.3-1.3c0-0.2,0-0.4,0.2-0.6
			c0.1,0,0.1-0.2,0.1-0.3c0-0.2,0-0.5,0-0.7c0-0.1,0-0.2,0-0.3c-0.4-0.2-0.3-0.6-0.2-0.9c0.1-0.3-0.2-0.4-0.3-0.6
			c0-0.1-0.2-0.2-0.2-0.3c0.1-0.5-0.4-0.7-0.6-1.1c-0.2-0.3-0.4-0.6-0.7-0.9c-0.1-0.1-0.3-0.2-0.4-0.3c-0.2-0.2-0.5-0.2-0.5-0.5
			c-0.1-0.2-0.3-0.4-0.6-0.3c-0.4,0-0.9,0-1.3,0c-0.4,0.3-0.7,0.5-1.1,0.8c0,0.1,0,0.2,0,0.4c-0.2,0.2-0.5,0.3-0.7,0.5
			c-0.3,0.2-0.2,0.7-0.6,0.9c0.1,0.3-0.2,0.5-0.4,0.6c-0.2,0.1-0.3,0.4-0.5,0.5c-0.3,0-0.7,0.1-0.9,0c-0.3-0.1-0.6-0.3-0.8-0.5
			c-0.2-0.2-0.4-0.2-0.6-0.2c-0.2,0-0.5,0-0.7,0c-0.2,0-0.5,0-0.7,0.2c0,0.1-0.2,0.1-0.2,0.1c-0.5,0.2-0.5,0.2-0.8,0.6
			c-0.2,0.2-0.3,0.5-0.5,0.7c-0.3,0-0.5,0-0.8,0c-0.4,0-0.7,0-1,0.3c-0.3,0.2-1,0.2-1.4,0.1c-0.3-0.1-0.6-0.3-0.9-0.4
			c-0.2-0.1-0.4-0.2-0.6-0.2c-0.3,0-0.6,0-0.9,0c-0.3-0.1-0.5-0.2-0.8-0.1c-0.2-0.2-0.4-0.4-0.5-0.6c-0.1,0-0.3,0-0.5,0
			c-0.1,0-0.2,0-0.3,0c-0.2-0.4-0.6-0.2-1-0.2c-0.1-0.2-0.2-0.4-0.4-0.7c-0.1,0-0.2,0-0.3,0c-0.2,0-0.3,0-0.5-0.2
			c-0.2-0.2-0.5-0.3-0.8-0.3c-0.3,0-0.5,0-0.8,0c-0.1,0.1-0.3,0.3-0.4,0.4c-0.3,0.1-0.7-0.1-1,0.3c-0.3-0.1-0.5,0.2-0.8,0.3
			c-0.3,0.1-0.5,0-0.8,0c-0.1,0-0.3-0.1-0.4-0.1c0-0.7,0-0.7-0.4-1.1c-0.1,0.1-0.3,0.2-0.4,0.3c-0.2,0-0.4,0-0.6,0
			c-0.2-0.1-0.2-0.3-0.2-0.5c-0.3-0.1-0.2-0.5-0.4-0.7c-0.2-0.3-0.6-0.4-0.9-0.5c-0.2-0.1-0.4-0.1-0.4-0.4c0-0.1-0.1-0.2-0.1-0.2
			c-0.2-0.3-0.3-0.6-0.3-0.9c0-0.5,0-1.1,0-1.6c0-0.3,0.1-0.6-0.2-0.9c0-0.2,0-0.5,0-0.7c0.3-0.2,0-0.4,0-0.5
			c-0.1-0.2-0.4-0.3-0.3-0.6c0,0,0-0.1-0.1-0.2c-0.4-0.2-0.6-0.6-1-0.8c-0.1,0-0.2-0.1-0.3-0.2c-0.4-0.4-0.9-0.4-1.3,0
			c-0.1,0.1-0.3,0.2-0.5,0.2c-0.3,0-0.4,0.1-0.5,0.4c0,0.1-0.2,0.2-0.2,0.2c-0.3,0.1-0.6,0.1-0.9,0.2c-0.4,0.3-0.7,0.8-1.2,1
			c-0.2,0.1-0.4,0.3-0.6,0.6c-0.1,0.2-0.4,0.3-0.4,0.7c0,0.1-0.2,0.2-0.3,0.2c-0.2,0-0.4,0-0.5,0c-0.1,0-0.2-0.1-0.3-0.1
			c-0.1-0.3-0.4-0.3-0.6-0.6c-0.2-0.2-0.4-0.4-0.6-0.7c-0.3,0-0.7-0.1-1,0.2c0,0.1-0.3,0-0.4,0c-0.4,0-0.7,0.1-1,0.4
			c-0.1,0.1-0.3,0.2-0.5,0.3c-0.4,0.1-0.8,0.3-1.1,0.7c-0.1,0.1-0.2,0.3-0.4,0.3c-0.1,0-0.2,0.1-0.3,0.2c-0.1,0.2-0.3,0.4-0.5,0.5
			c-0.1,0-0.1,0.2-0.1,0.3c0,0.1,0,0.1-0.1,0.2c-0.4,0.2-0.4,0.7-0.6,1c-0.2,0.2-0.3,0.6-0.4,0.9c0,0.1,0,0.2-0.1,0.2
			c-0.2,0.1-0.2,0.3-0.2,0.5c0,0.4,0,0.7-0.3,1c-0.3,0.4-0.1,0.8-0.1,1.2c0.2,0.2,0.2,0.5,0.1,0.8c0,0.4,0.1,0.8,0.3,1.1
			c0.3,0.3,0.4,0.6,0.4,1c0,0.2,0,0.3,0.2,0.5c0.1,0.1,0.1,0.2,0.1,0.3c0,0.1,0,0.2,0,0.2c0.5,0.3,0.2,0.8,0.3,1.2
			c-0.1,0.1-0.2,0.2-0.3,0.3c-0.3,0.3-0.7,0.5-1.2,0.5c-0.5-0.1-0.9,0-1.3,0.3c0,0-0.1,0-0.2,0c-0.3,0-0.6-0.1-0.8,0.2
			c0,0-0.1,0-0.1,0c-0.5,0-1,0-1.6,0c-0.3,0-0.5-0.5-0.3-0.7c0.1-0.1,0.1-0.3,0.2-0.4c0.1-0.1,0.3-0.2,0.4-0.3
			c0.1-0.1,0.2-0.3,0.4-0.3c0.1,0,0.2-0.1,0.2-0.1c0.3-0.3,0.7-0.6,1.1-0.8c0.1,0,0.1-0.2,0.1-0.3c-0.2-0.1-0.4-0.4-0.7-0.1
			c-0.3-0.1-0.7,0.1-1-0.2c0-0.1-0.2-0.1-0.2,0c-0.2,0.2-0.7,0.2-0.7,0.7c0,0.1-0.2,0.3-0.2,0.3c-0.3,0-0.3,0.3-0.5,0.3
			c-0.3,0-0.3,0.1-0.4,0.3c0,0.1-0.1,0.1-0.2,0.1c-0.2,0-0.4,0.1-0.5,0.2c-0.1,0.1-0.3,0.1-0.4,0.1c-0.3,0-0.5,0.1-0.7,0.2
			c-0.3,0.2-0.5,0.5-1,0.5c-0.1,0-0.3,0.1-0.4,0.2c-0.1,0.2-0.4,0.1-0.5,0.2c-0.2,0.2-0.3,0.2-0.5,0.2c0,0-0.1,0-0.1,0
			c-0.3,0.4-0.9,0.4-1.2,0.9c-0.5,0.1-0.9,0.1-1.3,0.2c-0.1,0-0.1,0.1-0.2,0.1c-0.1,0-0.2,0.1-0.3,0.1c-0.6,0.1-0.7,0-0.7-0.7
			c0-0.1,0-0.1,0-0.2c0.2-0.2,0.4-0.4,0.7-0.6c0-0.2,0-0.5,0-0.9c-0.6,0.2-0.8,0.6-1.1,1.1c-0.8,0-0.8,0-1.4-0.4
			c-0.1,0.2-0.4,0.2-0.5,0.5c-0.1,0.2-0.4,0.4-0.6,0.6c-0.2,0.1-0.3,0.3-0.5,0.3c-0.2,0-0.3,0.3-0.4,0.5c-0.2,0-0.4,0-0.5,0
			c-0.2,0.2-0.4,0.4-0.6,0.4c-0.3,0-0.5,0.5-0.8,0.3c-0.6-0.4-0.7-0.9-0.6-1.5c-0.2-0.1-0.3-0.1-0.5-0.2c-0.1-0.1-0.3-0.3-0.3-0.5
			c-0.1-0.1-0.1-0.3-0.1-0.5c0-0.2,0-0.5,0-0.7c0-0.1,0-0.2,0-0.2c-0.3-0.2-0.2-0.5-0.2-0.8c0-0.2,0.1-0.3,0.1-0.4
			c0.2-0.5,0.7-0.9,0.8-1.4c0-0.1,0.1-0.2,0.2-0.3c0.2-0.2,0.2-0.2,0.2-0.6c0.2-0.2,0.5-0.3,0.6-0.6c0.2-0.5,0.6-0.8,1-1.2
			c0,0,0.1-0.1,0.1-0.1c-0.1-0.4,0.4-0.4,0.6-0.7c-0.1-0.3,0-0.7,0.4-0.9c0-0.3,0.2-0.5,0.3-0.7c0.1-0.3,0.3-0.6,0.5-0.8
			c0.2-0.2,0.2-0.4,0.1-0.7c-0.6,0.3-0.6,0.3-1.1,0.9c-0.2,0.3-0.5,0.6-0.4,1.1c0,0.1-0.1,0.3-0.2,0.5c-0.1,0.2-0.2,0.3-0.2,0.5
			c0,0.1-0.1,0.2-0.2,0.3c-0.2,0.3-0.5,0.5-0.8,0.8c-0.1,0.2-0.3,0.3-0.4,0.5c-0.1,0.3-0.3,0.5-0.5,0.6c-0.3,0.1-0.4,0.4-0.6,0.6
			c-0.3,0.4-0.7,0.8-1,1.2c-0.7,0.1-1.2-0.1-1.5-0.7c-0.2-0.3-0.5-0.5-0.9-0.4c-0.3-0.3-0.5-0.5-0.9-0.7c-0.2-0.1-0.3-0.2-0.4-0.3
			c-0.2-0.2-0.4-0.3-0.5-0.3c-0.2,0-0.3-0.2-0.3-0.4c0-0.2,0-0.5,0-0.9c0.1-0.1,0.2-0.2,0.4-0.3c0.2-0.2,0.3-0.3,0.4-0.5
			c0.1-0.3,0.4-0.5,0.6-0.7c0-0.2,0-0.4,0.1-0.6s0.2-0.4,0.4-0.5c0.1-0.1,0.2,0,0.3-0.1c0-0.2,0-0.4,0-0.6c0.4-0.4,0.8-0.8,1-1.3
			c-0.1-0.2-0.2-0.4-0.3-0.6c-0.1,0.2-0.3,0.4-0.4,0.6c-0.1,0.2-0.3,0.3-0.4,0.5c-0.2,0.3-0.4,0.5-0.4,0.9c0,0.2-0.3,0.4-0.3,0.7
			c0,0.2-0.3,0.4-0.5,0.6c-0.3,0.3-0.6,0.5-0.5,1c0,0.3-0.3,0.2-0.4,0.4c-0.1,0.2-0.2,0.4-0.3,0.5c-0.1,0.1-0.3,0.2-0.5,0.3
			c-0.1,0-0.2,0-0.3,0c-1.1,0-2.1,0-3.2,0c-0.1,0-0.3,0-0.3,0c-0.3-0.4-0.7-0.2-1.1-0.2c-0.1,0-0.2,0-0.3,0
			c-0.2,0.4-0.6,0.2-0.9,0.2c-0.2,0-0.5,0-0.7,0c-0.2,0-0.4,0.1-0.6,0.1c-0.1,0-0.2,0.1-0.3,0.1c-0.2,0.1-0.4,0.1-0.6,0.2
			c-0.2,0.1-0.4,0.3-0.6,0.4c-0.2,0.1-0.4,0-0.7,0c-0.1-0.2-0.4-0.4-0.4-0.6c0-0.3-0.2-0.4-0.3-0.6c-0.1-0.2,0-0.5,0-0.8
			c-0.5-0.4-0.9-1-1.5-1.3c-0.2-0.1-0.4-0.2-0.6-0.3c-0.2-0.1-0.3-0.2-0.6-0.3c-0.3-0.1-0.6-0.2-0.8-0.4c-0.5-0.4-1-0.5-1.6-0.5
			c-0.5,0-1,0-1.5,0c-0.2,0-0.3,0-0.5,0.2c-0.1,0.1-0.2,0.1-0.3,0.1c-0.2,0-0.4,0-0.6,0c-0.1,0-0.2,0-0.3,0
			c-0.3,0.5-0.8,0.2-1.3,0.3c-0.2,0-0.5-0.1-0.7,0.1c-0.1,0.1-0.3,0.1-0.4,0c-0.4-0.3-0.7,0-1.1,0c-0.3,0-0.3,0.4-0.6,0.3
			c-0.2-0.1-0.5-0.1-0.7,0c-0.3,0.3-0.8,0.2-1,0.7c-0.1,0.2-0.3,0.4-0.4,0.5c-0.5,0.2-0.8,0.5-1.1,0.9c-0.6-0.1-1.3-0.1-2-0.2
			c-0.3-0.3-0.3-0.7-0.3-1.2c0.2-0.2,0.5-0.3,0.7-0.5c0.2-0.2,0.4-0.2,0.5-0.5c0.1-0.2,0.3-0.4,0.4-0.6c0,0,0-0.1,0-0.1
			c-0.7-0.4-0.7-0.4-1.2,0.2c-0.2,0.2-0.4,0.4-0.6,0.6c0,0.2,0,0.5,0,0.6c-0.3,0.5-0.8,0.8-1.1,1.1c-0.4,0.4-0.8,0.6-1.3,0.9
			c-0.1,0.1-0.2,0.1-0.3,0.1c-0.3,0-0.6,0-0.8,0.2c-0.1,0.1-0.3,0-0.5,0c-0.3,0-0.6,0.1-0.8,0.3c-0.2,0.2-0.3,0.4-0.6,0.4
			c-0.2,0-0.3,0.2-0.6,0.3c-0.3,0.1-0.6,0.4-0.9,0.6c-0.3,0-0.6,0-0.8,0.3c0,0-0.1,0.1-0.1,0.1c-1,0.5-1.4,0.7-2.1,1.4
			c0,0.4,0,0.9,0,1.4c-0.6,0.5-1.3,0.9-1.9,1.4c-0.1,0-0.2,0-0.4,0c-0.2,0-0.3,0.1-0.4,0.2c-0.2,0.5-0.5,0.9-1,1.1
			c-0.2,0.1-0.4,0.3-0.7,0.3c-0.2,0-0.4,0.2-0.6,0.4c-0.2,0.1-0.3,0.3-0.5,0.4c-0.3,0.1-0.6,0.2-0.7,0.5c0,0.1-0.2,0.1-0.2,0.1
			c-0.2,0-0.3,0.1-0.5,0.2c-0.1,0.1-0.3,0.1-0.5,0.1c-0.1,0-0.3,0.1-0.3,0.2c0,0.3-0.2,0.4-0.4,0.5c-0.2,0.1-0.3,0.5-0.4,0.5
			c-0.5,0.2-0.8,0.6-1.2,1c-0.2,0.2-0.5,0.2-0.9,0.2c-0.3,0-0.6-0.1-0.8,0.2c-0.4-0.1-0.7,0.3-1.1,0.3c-0.3,0-0.7,0.1-1,0.4
			c-0.2,0.2-0.6,0.3-0.9,0.5c-0.1,0.1-0.2,0.1-0.3,0.1c-0.4,0-0.7,0-1.1,0.1c-0.3,0.1-0.5,0.1-0.5,0.4c0,0.1-0.1,0.1-0.2,0.2
			c-0.1,0-0.3,0-0.4,0c-0.4,0-0.8,0-1.1,0.4c-0.3,0-0.5,0.3-0.8,0.3c-0.2,0-0.3,0.2-0.5,0.3c-0.2,0.2-0.4,0.5-0.7,0.4
			c-0.4,0.3-0.8,0.4-1.3,0.4c-0.3,0.4-0.7,0.2-1,0.5c0,0,0,0,0,0c-0.5-0.1-0.9,0.2-1.3,0.5c-0.3,0.2-0.7,0.1-1,0.4
			c0,0-0.1,0.1-0.1,0.1c-0.5-0.1-0.8,0.4-1.2,0.6c-0.2,0.1-0.4,0.3-0.6,0.2c-0.4,0-0.7,0.2-1,0.4c-0.2,0.2-0.4,0.3-0.7,0.3
			c-0.2,0-0.4,0-0.6,0.2c0,0,0,0,0,0c-0.7,0-1.1,0.6-1.7,0.9c-0.4,0.2-0.7,0.3-1.1,0.5c-0.1,0.1-0.3,0-0.4,0.1
			c-0.3,0.2-0.7,0.2-0.9,0.6c0,0-0.1,0.1-0.1,0.1c-0.5-0.2-0.9,0.3-1.3,0.5c-0.1,0.1-0.2,0.2-0.4,0.2c-0.1,0-0.2,0.1-0.4,0.1
			c-0.2,0-0.3,0.4-0.6,0.3c-0.2,0.2-0.3,0.3-0.6,0.3c-0.1,0-0.2,0.1-0.2,0.2c-0.1,0.4-0.3,0.4-0.7,0.5c-0.3,0.1-0.5,0.4-0.8,0.5
			c-0.2,0.1-0.3,0.3-0.5,0.4c-0.2,0-0.3,0.3-0.5,0.3c0,0-0.1,0-0.1,0c-0.2,0.4-0.7,0.3-0.9,0.6c-0.2,0.3-0.5,0.4-0.7,0.7
			c0,0.1-0.2,0.1-0.3,0.2c-0.1,0.1-0.4,0.1-0.4,0.4c0,0.1-0.2,0.1-0.3,0.2c-0.1,0.1-0.3,0.2-0.5,0.3C49.4,37.3,49,37.6,48.8,37z"/>
		<path d="M93.2,98.3c-0.4-0.5-0.9-0.8-1.3-1.4c0-0.1-0.1-0.1-0.1-0.2c-0.1-0.5-0.3-0.9-0.6-1.3c-0.1-0.1,0-0.2,0-0.3
			c0-0.5,0-0.9,0-1.4c0-0.3,0.1-0.6,0.3-0.9c0.1-0.2,0.5-0.3,0.4-0.7c0.2-0.2,0.4-0.5,0.6-0.6c0.5-0.2,0.6-0.8,1-0.9
			c0.1,0,0.2-0.3,0.2-0.4c0-0.4,0.2-0.5,0.4-0.7c0.2-0.2,0.3-0.5,0.7-0.5c0.1,0,0.2-0.2,0.3-0.3c0.1-0.2,0.2-0.3,0.4-0.2
			c0.2,0.1,0.4-0.2,0.6,0c0.2-0.1,0.5-0.1,0.6-0.4c0.1-0.1,0.2-0.3,0.2-0.4c-0.3-0.2-0.6-0.3-0.8-0.1c-0.1,0.1-0.3,0.2-0.4,0.1
			c-0.2,0-0.5,0-0.7,0c-0.4,0.1-0.7-0.3-1.1-0.3c-0.1-0.5-0.7-0.2-0.9-0.6c-0.2,0-0.4-0.1-0.5,0.1C92.3,87,92.1,87,91.9,87
			c-0.1,0.4-0.5,0.5-0.7,0.8c-0.5,0-1,0.1-1.5,0c-0.5-0.1-1-0.1-1.5-0.1c-0.2,0-0.5,0-0.6,0.1c-0.3,0.2-0.7,0.2-1,0.5
			c-0.1,0.1-0.4,0.1-0.6,0.1c-0.2,0-0.4,0-0.6,0.2c-0.2,0.2-0.6,0.2-0.8,0c-0.2-0.2-0.4-0.2-0.6-0.2c-0.6,0-1.2,0-1.8,0
			c-0.3,0-0.6,0.1-0.8-0.2c-0.1-0.1-0.2,0-0.4,0c-0.2,0-0.5,0-0.7,0c-0.2-0.4-0.7-0.2-0.9-0.5c0-0.1-0.1-0.1-0.1-0.1
			c-0.4,0.1-0.7-0.1-0.9-0.4c-0.1-0.1-0.3,0-0.6-0.1c-0.1-0.1-0.1-0.2-0.3-0.3c-0.3-0.2-0.6-0.5-1.1-0.3c-0.2,0.1-0.4,0-0.7,0
			c-0.1,0-0.3,0-0.4,0.1c-0.3,0.2-0.7,0.4-1.1,0.3c-0.1,0-0.1,0.1-0.2,0.1c-0.1,0-0.2,0.1-0.3,0.1c-0.4-0.1-0.7,0.1-1,0.1
			c-0.3,0-0.3,0.4-0.6,0.3c-0.2-0.1-0.5,0-0.7,0c0,0-0.1,0-0.1,0c-0.3,0.4-0.7,0.2-1.1,0.3c-0.3,0.1-0.7,0.1-1,0.3
			c-0.1,0.1-0.2,0.1-0.3,0.1c-0.1,0-0.3,0-0.4,0c-0.6,0-0.6,0-1.1,0.3c-0.2,0.2-0.4,0.2-0.6,0.2c-0.2,0-0.4,0-0.5,0
			c-0.4,0-0.7,0-1,0.3C65.1,89,65,89,64.9,89c-0.2,0-0.5,0-0.7,0c-0.2,0-0.4,0-0.6,0.2c0,0.1-0.2,0.1-0.3,0.1c-0.3,0-0.7,0-1,0.2
			c-0.3,0.1-0.5,0.3-0.8,0.5c-0.2,0-0.5,0.1-0.8-0.1c-0.1,0-0.3,0.1-0.4,0.2c0.1,0.1,0.3,0.2,0.4,0.3c0,1.1,0,2.1,0,3.1
			c-0.2,0.3-0.4,0.4-0.6,0.7c-0.1,0.2-0.4,0.3-0.6,0.5c-0.2,0.2-0.4,0.2-0.6,0.3c-0.3,0.1-0.5,0.3-0.8,0.5c-0.3,0.2-0.7,0.5-1.1,0.6
			c-0.1,0-0.2,0.2-0.3,0.3c-0.1,0.1-0.1,0.2-0.2,0.3c-0.1,0-0.3,0-0.4,0c-0.3,0-0.7-0.1-0.6,0.4c-0.4,0.3-0.6,0.8-1.2,0.9
			c-0.4,0.1-0.8,0.4-1.1,0.7c-0.3,0.3-0.7,0.5-1,0.6c-0.3,0.1-0.4,0.4-0.8,0.3c-0.3-0.1-0.6,0-0.9,0c-0.2-0.2-0.3-0.3-0.4-0.4
			c-0.1-0.1-0.3-0.2-0.4-0.1c-0.5,0.4-0.9,0.3-1.4,0c0,0,0,0-0.1,0c-0.1,0.2-0.1,0.4,0,0.7c0.1,0.3,0.1,0.6,0,0.8
			c-0.1,0.2-0.1,0.3-0.1,0.5c0,0.1-0.1,0.2-0.1,0.3c-0.1,0.1-0.1,0.2-0.2,0.3c0,0.5,0,0.5-0.3,0.9c0.1,0.1,0.2,0.1,0.3,0.2
			c0.1,0.1,0.2,0.2,0.3,0.3c0.1,0,0.3,0,0.4,0c0.1,0,0.3,0,0.4,0.1c0.2,0.2,0.5,0.1,0.6,0.1c0.6,0.2,0.5,0.9,0.9,1.1
			c0,0,0,0.1,0,0.1c-0.1,0.4,0.2,0.6,0.4,0.8c0.1,0.2,0.2,0.3,0.2,0.5c0,0.3,0.1,0.6-0.1,0.8c-0.3,0.3-0.1,0.9-0.6,1.1
			c-0.1,0.6-0.5,0.9-0.9,1.3c-0.1,0.1-0.2,0.1-0.3,0.2c-0.4,0.1-0.4,0.1-0.4,0.5c0,0.1,0,0.2,0,0.3c-0.2,0.3-0.4,0.5-0.6,0.8
			c-0.4,0.5-0.9,0.8-1.4,1.1c-0.1,0.1-0.2,0.2-0.3,0.3c0,0-0.1,0.1-0.1,0.2c-0.1,0.2-0.4,0-0.5,0.1c-0.2,0.1-0.3,0.4-0.5,0.4
			c-0.4-0.1-0.7,0.4-1.1,0.3c-0.3,0.2-0.6,0.2-0.9,0.1c-0.4,0-0.8,0.1-1.1,0.4c-0.1,0.1-0.2,0.2-0.4,0.2c-0.7,0.1-1.4,0.1-1.9,0.6
			c-0.5,0-0.8,0.5-1.3,0.3c-0.4-0.1-0.7,0.1-1.1,0.1c-0.1,0-0.1,0-0.2,0.1c-0.2,0.2-0.4,0.2-0.6,0.2c-1.2,0-2.4,0-3.6,0
			c-0.2-0.4-0.8-0.6-0.7-1.2c-0.3-0.2-0.7,0.1-1-0.2c-0.2-0.1-0.4-0.1-0.6-0.3c-0.1-0.1-0.4-0.2-0.6-0.3c-0.1-0.1-0.3-0.2-0.4-0.2
			c-0.3,0-0.4-0.1-0.4-0.4c0-0.1-0.1-0.2-0.2-0.3c-0.3,0-0.3-0.3-0.4-0.4c-0.2-0.4-0.2-0.3,0-0.7c0.1-0.1,0.1-0.2,0.1-0.3
			c0-0.2,0-0.5,0-0.7c0-0.2,0-0.3,0.1-0.4c0.1,0,0.1-0.1,0.1-0.1c-0.1-0.5,0.3-0.7,0.6-0.9c0.3-0.3,0.6-0.6,0.8-1.1
			c0.2-0.4,0.7-0.8,1.1-1.1c0.1,0,0.2,0,0.2-0.1c0.1,0,0.3-0.1,0.3-0.2c0-0.4,0.3-0.5,0.4-0.8c0.1-0.4,0.4-0.6,0.8-0.7
			c0.1,0,0.1-0.1,0.2-0.2c-0.3-0.2-0.5-0.4-0.9-0.5c-0.1,0-0.2-0.1-0.2-0.2c0-0.5-0.5-0.8-0.6-1.3c0-0.2-0.3-0.4-0.5-0.5
			c-0.3-0.2-0.3-0.6-0.6-0.9c-0.2-0.2-0.3-0.6-0.5-0.8c-0.2-0.2,0-0.5-0.3-0.7c-0.2-0.1-0.1-0.5-0.3-0.6c0,0,0-0.2,0-0.3
			c0-0.3,0-0.6,0-1c0-0.2-0.1-0.3-0.2-0.5c-0.2-0.3-0.3-0.6-0.3-0.9c0-0.5,0-1.1,0-1.6c-0.3-0.1-0.5-0.3-0.8-0.4
			c-0.3,0-0.3-0.4-0.6-0.6c-0.2-0.2-0.4-0.4-0.6-0.6c-0.2-0.2-0.4-0.4-0.7-0.8c-0.4,0-1,0.1-1.6,0.2c-0.2,0-0.4,0.2-0.6,0.4
			c-0.2,0.2-0.3,0.4-0.4,0.6c-0.4,0-0.7,0.1-1-0.2c-0.2-0.2-0.5-0.1-0.8-0.2c-0.3,0-0.6,0.1-0.8-0.2c-0.3,0-0.7-0.1-1,0.1
			c-0.3,0.2-0.6,0.5-1,0.5c-0.1,0-0.2,0.1-0.3,0.2c-0.2,0.2-0.4,0.4-0.6,0.6c-0.2,0.2-0.3,0.4-0.6,0.4c-0.1,0-0.2,0.2-0.3,0.3
			c-0.3,0.2-0.4,0.6-0.8,0.6c0,0-0.1,0.2-0.2,0.3c-0.2,0.2-0.4,0.4-0.6,0.5c-0.2,0.2-0.3,0.4-0.5,0.6c-0.2,0.1-0.5,0.3-0.7,0.4
			c-0.2,0.2-0.3,0.4-0.7,0.4c-0.1,0-0.2,0.2-0.2,0.3c0,0.2-0.1,0.4-0.3,0.3c-0.4,0-0.5,0.3-0.8,0.4c-0.3,0.1-0.5,0.4-0.7,0.6
			c-0.1,0.1-0.2,0.1-0.2,0.2c-0.2,0.2-0.3,0.5-0.7,0.5c-0.1,0-0.2,0.1-0.2,0.2c-0.4,0.4-0.7,0.7-1.1,1.1c-0.2,0.2-0.3,0.4-0.6,0.4
			c-0.2,0-0.5,0.3-0.5,0.5c0,0.3-0.3,0.4-0.4,0.6c-0.2,0.2-0.5,0.3-0.4,0.7c0,0.1-0.2,0.2-0.2,0.2c-0.3,0-0.3,0.2-0.5,0.3
			c-0.3,0.2-0.7,0.4-1.2,0.2c-0.2-0.2-0.4-0.4-0.7-0.7c0-0.3,0-0.6,0-1c0.3-0.3,0.6-0.7,1-0.8c0.8-0.3,1.2-0.9,1.8-1.4
			c0.3-0.3,0.7-0.6,1-1c0.1-0.1,0.2-0.3,0.4-0.2c0.1,0,0.1,0,0.2-0.1c0.2-0.2,0.3-0.4,0.4-0.6c0.2-0.1,0.4-0.2,0.5-0.5
			c0-0.1,0.1-0.2,0.2-0.3c0.5-0.3,0.7-0.8,1.2-1.1c0.1-0.1,0.2-0.1,0.2-0.2c0.1-0.3,0.4-0.4,0.6-0.5c0.2,0,0.3-0.1,0.4-0.2
			c0.2-0.3,0.3-0.6,0.7-0.6c0.2,0,0.3-0.4,0.6-0.4c0.3-0.3,0.9-0.5,1.1-1c0-0.1,0.2-0.1,0.3-0.2c0.2-0.1,0.5-0.1,0.4-0.5
			c0,0,0.1-0.1,0.1-0.1c0.4-0.2,0.7-0.6,1-0.9c0.1-0.1,0.2-0.1,0.4-0.1c0-0.1,0-0.2,0-0.3c0,0-0.1,0-0.1,0c-0.2,0-0.4,0-0.6,0
			c-0.3,0-0.5,0.1-0.7,0.1c-0.4,0.2-0.5,0.2-0.8,0c-0.1-0.1-0.2-0.1-0.3-0.1c-0.8,0-1.6-0.2-2.4-0.1c-0.2,0-0.3,0-0.4-0.1
			c-0.1-0.1-0.2-0.1-0.4-0.1c-0.1,0-0.2,0-0.3-0.1c-0.1-0.2-0.3-0.1-0.5-0.2c-0.4-0.1-0.9-0.1-1.2-0.6c-0.3,0.3-0.6,0.4-0.7,0.7
			c0,0.1-0.1,0.1-0.1,0.1c-0.4,0-0.5,0.3-0.6,0.6c0,0.1-0.1,0.1-0.1,0.1c-0.3,0-0.5,0.1-0.6,0.4c-0.5,0.1-0.6,0.8-1.2,0.8
			c-0.1,0-0.2,0.2-0.3,0.3c-0.1,0.3-0.3,0.4-0.6,0.4c0,0-0.1,0.1-0.2,0.1c-0.3,0.3-0.5,0.8-1,0.8c-0.2,0.4-0.8,0.4-0.9,0.9
			c0,0.1-0.1,0.2-0.2,0.2c-0.4-0.1-0.5,0.3-0.6,0.5C2.5,96.8,2.3,97,2,97.3c-0.2,0.2-0.3,0.4-0.6,0.3c0,0-0.1,0-0.1,0
			c-0.5,0.6-0.8,0-1.2-0.2C0,97.3,0,97.2-0.1,97.1c0-0.2,0-0.4,0-0.7c0.3-0.3,0.6-0.6,1-1c0.1-0.1,0.2-0.1,0.3-0.2
			c0.4-0.2,0.6-0.4,0.8-0.8c0.2-0.3,0.5-0.6,0.8-0.9c0.2,0.1,0.3-0.1,0.4-0.2c0.3-0.3,0.5-0.6,0.8-0.8c0.2-0.1,0.3-0.3,0.5-0.4
			C4.7,92.1,4.9,92,5,91.8c0.2-0.2,0.2-0.6,0.6-0.5c0.1,0,0.1-0.2,0.2-0.4c0.1-0.1,0.2-0.3,0.2-0.3c0.4,0.1,0.5-0.3,0.7-0.5
			C6.9,90.1,7,90,7.2,90c0.3-0.1,0.5-0.4,0.8-0.6c-0.3-0.2-0.5-0.5-0.8-0.6c-0.4-0.2-0.6-0.5-0.8-0.9c-0.2,0-0.5,0-0.6,0
			c-0.3-0.1-0.4-0.6-0.2-1c0.2-0.3,0.4-0.5,0.2-0.9c-0.1-0.2,0-0.5-0.3-0.7c-0.1,0,0-0.2,0-0.3c0-0.4,0-0.7,0-1.1c0-0.1,0-0.2,0-0.3
			c-0.4-0.3-0.2-0.7-0.2-1c0-0.1,0-0.3,0-0.5c-0.4,0.2-0.7,0.4-1,0.5c-0.4,0.2-0.6,0.6-1.1,0.6c-0.1,0-0.1,0.1-0.1,0.1
			c-0.1,0.5-0.5,0.4-0.9,0.4c-0.4-0.5-0.4-1.1-0.2-1.6c0-0.1,0.2-0.2,0.3-0.2c0.3-0.1,0.6-0.3,0.8-0.6c0.2-0.3,0.5-0.3,0.7-0.7
			c0.1-0.2,0.5-0.1,0.6-0.4c0.5,0,0.7-0.4,1.1-0.7c0.1-0.1,0.2-0.2,0.4-0.3c0-0.3,0-0.7,0-1c0-0.5,0-0.5-0.3-0.9
			c0.2-0.2,0.4-0.4,0.2-0.8c-0.2-0.2-0.4-0.4-0.7-0.7c-0.3-0.2-0.2-0.6-0.6-0.8c0.2-0.1,0.3-0.3,0.3-0.3c0.2,0.1,0.5,0,0.6,0.3
			c0.1,0.3,0.4,0.4,0.6,0.6c0.2,0.2,0.3,0.4,0.5,0.7c0,0.3,0.1,0.6-0.2,0.9c-0.1,0,0,0.2,0,0.3c0,0.6,0,1.2,0,1.8
			c0,0.4-0.1,0.7-0.4,0.9c-0.3,0.2-0.5,0.5-0.9,0.6c-0.5,0.1-0.8,0.5-1.2,0.7c-0.2,0.1-0.3,0.4-0.4,0.6c0.5-0.3,1.2-0.4,1.5-0.9
			c0.2,0,0.5,0,0.7,0c0.1,0.1,0.3,0.3,0.5,0.5c0,0.3,0.1,0.6-0.3,0.9c-0.1,0,0,0.2,0.1,0.4c0.2,0.2,0.2,0.5,0.2,0.8
			c-0.1,0.6,0.2,1.1,0.1,1.7c0,0,0,0.1,0,0.1c0.4,0.3,0.2,0.8,0.3,1.3c-0.1,0.1-0.3,0.2-0.5,0.4c0.9,0.1,1.3,0.4,1.7,1.1
			c0.2,0.1,0.4,0.1,0.5,0.2c0.2,0.2,0.3,0.4,0.3,0.7c0,0.2,0,0.4,0,0.6c-0.2,0.1-0.3,0.4-0.5,0.3c0,0-0.1,0.1-0.1,0.1
			c0,0.3-0.2,0.3-0.3,0.5c-0.3,0.2-0.7,0.2-0.8,0.6C6.4,91.4,6.2,91.7,6,92c-0.3,0.3-0.6,0.6-1,0.8c-0.3,0.1-0.4,0.4-0.7,0.6
			C4,93.6,3.9,94,3.5,93.9c-0.1,0-0.2,0.2-0.2,0.2c-0.3,0.2-0.4,0.7-0.8,0.8c0,0-0.1,0.1-0.1,0.2c0,0.3-0.2,0.4-0.4,0.5
			c-0.5,0.1-0.9,0.5-1.2,0.9c-0.1,0.1-0.1,0.2-0.1,0.3c0.1,0,0.3,0,0.4,0c0.5,0,0.8-0.2,0.9-0.6c0.1-0.3,0.2-0.4,0.4-0.6
			c0.2-0.2,0.3-0.4,0.6-0.4c0.2,0,0.3-0.1,0.3-0.3c0-0.2,0.1-0.3,0.4-0.4c0.4-0.1,0.6-0.2,0.9-0.6c0.2-0.3,0.5-0.6,0.9-0.8
			C5.9,93,6.3,92.4,7,92.2c0,0,0.1,0,0.1-0.1c0-0.2,0-0.4,0.3-0.5c0.2-0.1,0.3-0.2,0.5-0.3c0,0,0.1-0.1,0.1-0.1
			c0.3-0.6,1.1-0.8,1.3-1.5c0.4,0.1,0.7-0.1,1,0.2c0.3,0,0.5,0.3,0.8,0.4c0.2,0.1,0.3,0.2,0.5,0.2c0.3,0,0.6,0.1,1,0.3
			c0.1,0.1,0.2,0.1,0.3,0.1c0.3,0,0.6,0,1,0c0.2,0,0.5-0.1,0.7,0.2c0.1,0.1,0.2,0.1,0.4,0.1c0.9,0,1.9,0,2.8,0c0.2,0,0.3,0,0.5,0
			c0,0.4,0,0.8,0,1.2c-0.7,0.7-1.4,1.4-2.1,2.1c-0.2,0.2-0.5,0.5-0.7,0.7c-0.2,0.2-0.6,0.3-0.9,0.5c-0.2,0.1-0.3,0.1-0.4,0.3
			c-0.2,0.3-0.4,0.6-0.8,0.5c0,0-0.1,0.1-0.2,0.1c-0.2,0.2-0.3,0.4-0.5,0.5c0,0-0.2,0-0.2,0.1c-0.1,0.4-0.5,0.5-0.7,0.8
			c-0.2,0.3-0.4,0.6-0.8,0.8c-0.2,0.1-0.2,0.4-0.4,0.4c-0.5,0-0.7,0.4-1,0.7c-0.4,0.4-0.9,0.7-1.2,1.2c-0.1,0.1-0.2,0.2-0.3,0.2
			c0,0-0.1,0.1-0.1,0.1c0,0.6-0.7,0.7-0.8,1.1c-0.6,0-0.7,0.1-1.2,0.9c0.1,0.1,0.3,0.2,0.5,0.3c0,0,0.1,0,0.1,0
			c0.3-0.3,0.8-0.5,1-0.9c0.2-0.4,0.6-0.6,0.9-1c0.1-0.2,0.4-0.2,0.5-0.4c0.1-0.2,0.4-0.2,0.5-0.4c0.1-0.2,0.4-0.2,0.5-0.3
			c0.2-0.1,0.1-0.4,0.4-0.4c0.1,0,0.3-0.2,0.4-0.4c0.1-0.2,0.3-0.4,0.6-0.5c0.3-0.1,0.8-0.6,1-0.8c0.2-0.2,0.4-0.5,0.8-0.5
			c0,0,0.1-0.1,0.2-0.1c0,0,0.1-0.1,0.1-0.2c0.1-0.1,0.3-0.1,0.5-0.2c0.1-0.1,0.2-0.4,0.3-0.4c0.5-0.1,0.7-0.6,1.1-0.7c0,0,0,0,0,0
			c0.2-0.2,0.3-0.5,0.6-0.6c0.3-0.1,0.5-0.3,0.7-0.5c0.3-0.2,0.5-0.5,0.8-0.6c0.2-0.1,0.4-0.3,0.5-0.4c0.1-0.3,0.3-0.3,0.5-0.5
			c0.1,0,0.2,0,0.2-0.1c0.3-0.4,0.8-0.4,1.1-0.8c0.4-0.1,0.7-0.5,1.2-0.4c0.2,0.1,0.5,0,0.7,0c0.2,0,0.4,0,0.5,0.2
			c0,0,0.1,0.1,0.1,0.1c0.2,0,0.5-0.1,0.7,0.1c0.2,0.1,0.4,0.2,0.7,0.3c0-0.1,0.1-0.1,0.1-0.2c0-0.6,0.5-0.5,0.9-0.6
			c0.1,0,0.3,0,0.5,0c0.1,0,0.2,0,0.2,0c0.5-0.5,1.1-0.2,1.7-0.3c0.2,0.2,0.3,0.5,0.5,0.7c0.4,0.4,0.7,0.8,1.2,1
			c0.6,0.3,1,0.7,1.4,1.2c0,0.3,0,0.5-0.1,0.8c-0.1,0.3-0.1,0.7,0,0.9c0.1,0.3,0,0.7,0.3,0.8c0,0,0,0.2,0,0.3c0,0.2,0,0.3,0,0.5
			c-0.1,0.4,0.1,0.8,0.4,1.1c0.1,0.1,0.2,0.3,0.2,0.5c0,0.3,0.1,0.6,0.3,0.9c0.4,0.6,0.8,1.2,1.3,1.6c0.2,0.1,0.1,0.3,0.2,0.5
			c0.2,0.3,0.5,0.4,0.6,0.7c0.5,0.1,0.6,0.6,1,0.8c0.1,0.5,0,0.8-0.4,1c-0.3,0.1-0.5,0.5-0.6,0.8c-0.2,0.5-0.6,0.8-1,1.1
			c-0.4,0.3-0.9,0.5-0.9,1.1c0,0.2-0.4,0.1-0.4,0.4c0,0.1-0.2,0.3-0.4,0.4c-0.3,0.3-0.6,0.6-0.6,1.1c0,0.1-0.1,0.2-0.1,0.2
			c-0.1,0.1-0.1,0.2-0.1,0.4c0,0.4,0,0.9,0,1.3c0.3,0.3,0.5,0.6,0.7,0.7c0.3,0.2,0.7,0.1,1.1,0.2c0.1,0.1,0.3,0.3,0.5,0.5
			c0.3,0,0.6,0,0.9,0c0.4,0.2,0.4,0.9,0.9,1.1c0.9,0,1.8,0,2.8,0c0.3,0,0.7-0.2,1-0.1c0,0,0.1,0,0.1,0c0.3-0.4,0.7-0.2,1-0.3
			c0.1,0,0.2-0.1,0.3-0.1c0.1,0,0.1-0.1,0.1-0.1c0.4,0.1,0.6-0.2,0.9-0.3c0.3-0.1,0.6-0.1,1-0.1c0.2,0,0.3,0,0.3-0.2
			c0,0,0.1-0.1,0.1-0.1c0.4,0.1,0.6-0.2,1-0.3c0.4-0.1,0.7-0.1,1-0.1c0.4,0,0.5-0.3,0.8-0.4c0.2-0.1,0.3-0.2,0.5-0.2
			c0.4,0,0.7,0,1-0.3c0.2-0.2,0.6,0,0.6-0.4c0.2-0.1,0.5-0.3,0.7-0.4c0.2-0.1,0.3-0.4,0.6-0.5c0.1-0.3,0.4-0.5,0.6-0.7
			c0-0.2,0-0.5,0-0.8c0.1-0.1,0.2-0.2,0.3-0.3c0.1,0,0.1-0.1,0.1-0.1c0.4,0.1,0.6-0.2,0.9-0.3c0-0.3,0.1-0.5,0.3-0.8
			c0.2-0.1,0.3-0.3,0.3-0.5c0-0.2,0.1-0.3,0.2-0.4c0.2-0.2,0.2-0.4,0-0.6c-0.2-0.2-0.3-0.5-0.3-0.8c0-0.1-0.1-0.1-0.1-0.2
			c-0.1-0.2-0.3-0.5-0.4-0.7c-0.1-0.1-0.2-0.2-0.3-0.2c-0.5,0.1-0.8-0.3-1.2-0.4c-0.4-0.1-0.8-0.4-1.2-0.8c0-0.2,0-0.5,0-0.7
			c0.1-0.1,0.3-0.2,0.4-0.4c0-0.1,0-0.2,0-0.3c0-0.3-0.1-0.5,0.2-0.7c0.1,0,0.1-0.2,0.1-0.3c0-0.5,0-0.9,0-1.4
			c0-0.4,0.1-0.5,0.5-0.5c0.3,0,0.7-0.1,1,0.1c0.1,0.1,0.3,0.1,0.3,0c0.2-0.2,0.5-0.1,0.8-0.1c0.3,0,0.5,0.1,0.7,0.2
			c0.3,0.2,0.4,0.2,0.7,0c0.1-0.1,0.2-0.1,0.3-0.1c0.4,0,0.6-0.1,0.7-0.5c0-0.1,0.2-0.2,0.3-0.2c0.3,0,0.5-0.4,0.7-0.4
			c0.3,0,0.5-0.2,0.7-0.4c0.1-0.1,0.1-0.2,0.2-0.2c0.4,0,0.4-0.2,0.5-0.5c0-0.2,0.3-0.4,0.4-0.6c0.5,0.1,0.9-0.1,1.3-0.4
			c0.1-0.1,0.2-0.1,0.4-0.1c0.3,0,0.6-0.1,0.5-0.5c0-0.1,0.2-0.2,0.3-0.2c0.3,0,0.5-0.1,0.8-0.3c0,0,0.1-0.1,0.2-0.1
			c0.3,0.1,0.5-0.2,0.7-0.4c0.2-0.2,0.4-0.3,0.4-0.6c0-0.1,0.2-0.2,0.3-0.3c0-0.6,0-1.3,0-1.9c-0.2-0.2-0.4-0.4-0.5-0.5
			c0-0.1,0-0.2,0-0.3c0-0.3-0.1-0.6,0.1-0.8c0.2-0.1,0.4-0.1,0.6-0.3c0.1-0.1,0.4-0.1,0.6,0c0.2,0,0.3,0.2,0.5,0.3
			c0.2-0.3,0.5-0.5,0.9-0.5c0.1,0,0.2-0.1,0.2-0.1c0.1-0.1,0.2-0.2,0.4-0.1c0.3,0,0.5,0.1,0.7-0.2c0.1-0.1,0.3,0,0.4,0
			c0.3,0,0.7,0,1-0.1c0.3-0.1,0.5-0.4,0.9-0.3c0.3,0.1,0.7,0,1,0c0.2-0.2,0.3-0.4,0.5-0.5c0.4,0,0.8,0,1.2,0c0.2,0,0.4,0,0.5-0.1
			c0.2-0.3,0.5-0.3,0.9-0.3c0.3,0,0.6,0.1,0.8-0.2c0,0,0.1,0,0.1,0c0.2,0,0.5,0,0.7,0c0.2,0,0.4-0.1,0.6-0.1c0.2,0,0.5,0,0.7-0.2
			c0.4,0,0.7-0.5,1.2-0.3c0.2,0.1,0.4-0.1,0.5-0.2c0.2-0.1,0.6-0.2,0.9-0.2c0.5,0,1,0,1.4,0c0.1,0,0.7,0.2,0.8,0.3
			c0.3,0.1,0.6,0.4,1,0.4c0.1,0,0.3,0.2,0.4,0.4c0.1,0,0.3,0,0.5,0c0,0,0.1,0.1,0.1,0.1c0.3,0.4,0.8,0.5,1.2,0.5c0.2,0,0.5,0,0.7,0
			c0.1,0,0.2,0,0.2,0c0.2,0.3,0.5,0.2,0.8,0.2c0.6,0,1.3,0,1.9,0c0.2,0,0.4-0.1,0.5,0.1c0,0,0.2,0,0.2,0c0.4-0.1,0.8,0,1.1-0.3
			c0.3,0.1,0.5-0.1,0.8-0.1c0.1,0,0.2,0,0.2-0.1c0.2-0.3,0.5-0.2,0.7-0.2c0.3,0,0.6,0,1,0c0.2,0,0.5-0.1,0.7,0.2
			c0,0.1,0.2,0.1,0.2,0.1c0.2,0,0.4,0,0.6,0c0.1-0.2,0.5-0.3,0.5-0.7c0-0.1,0.2-0.2,0.3-0.2c0.2,0,0.4,0,0.6,0
			c0.2-0.2,0.3-0.4,0.4-0.5c0.5-0.2,0.7,0,1,0.2c0.2,0.2,0.5,0.4,0.8,0.6c0.4,0.2,0.7,0.5,1.2,0.4c0.1,0,0.2,0,0.2,0
			c0.2-0.4,0.6-0.2,0.8-0.3c0.3-0.1,0.6,0,0.9,0.2c0.1,0.1,0.2,0.2,0.4,0.4c0,0.2,0,0.5,0,0.8c0,0.1-0.1,0.3-0.2,0.3
			c-0.5,0-0.7,0.5-1,0.7c-0.5-0.2-0.8,0.2-1.2,0.3c-0.2,0-0.6,0-0.5,0.4c-0.4,0.2-0.4,0.7-0.7,1c-0.2,0.2-0.2,0.5-0.4,0.6
			c-0.3,0.2-0.6,0.4-0.8,0.8c-0.1,0.1-0.3,0.2-0.4,0.3c0,0-0.1,0.1-0.1,0.1c0.1,0.4-0.4,0.5-0.5,0.9c0,0.4,0,1,0,1.5
			c0.3,0.4,0.7,0.7,0.7,1.3c0,0.1,0,0.1,0.1,0.2c0.2,0.3,0.6,0.4,0.6,0.9c0,0.1,0.3,0.2,0.4,0.2c0.3,0,0.6-0.1,0.8,0.3
			c0.4,0,0.7,0.3,1.1,0.4c0.1,0,0.2,0.1,0.2,0c0.2-0.3,0.5-0.1,0.8-0.2c0.2,0.3,0.5,0.5,0.9,0.4c0.1,0,0.2,0.1,0.3,0.2
			c0.2,0.1,0.5,0,0.7,0.2c0.1,0.1,0.5,0.1,0.7,0.1c0.2,0,0.5,0.1,0.7-0.2c0.1-0.1,0.2-0.1,0.4-0.1c0.2,0,0.4,0,0.5-0.2
			c0-0.1,0.2-0.1,0.3-0.1c0.3,0,0.5,0,0.8,0c0.2,0,0.3-0.1,0.5-0.1c0.4-0.1,0.7-0.4,1.2-0.3c0.1,0,0.2-0.3,0.5-0.3
			c0.3-0.3,0.9-0.2,1.1-0.6c0.4,0,0.6-0.4,0.9-0.5c0.3-0.1,0.6-0.4,0.9-0.5c0.3-0.1,0.5-0.3,0.7-0.5c0.3-0.4,0.8-0.5,1.2-0.8
			c0.4-0.4,0.9-0.7,1.4-1c0.4-0.3,0.9-0.5,1.3-0.9c0.6,0.1,0.9-0.5,1.4-0.7c0.1-0.3,0.4-0.4,0.4-0.8c-0.1-0.4,0-0.9,0-1.4
			c0-0.2,0.1-0.4,0.3-0.4c0.2,0,0.4-0.1,0.5-0.3c0.2-0.3,0.6-0.4,0.7-0.7c0-0.1,0.1-0.1,0.2-0.1c0.2,0,0.3-0.1,0.4-0.3
			c0-0.1,0.1-0.2,0.1-0.3c0.5-0.4,0.6-1,1.1-1.5c0.1-0.6,0.6-1.1,0.9-1.6c0.2-0.3,0.3-0.6,0.2-0.9c0-0.3-0.1-0.5,0.2-0.7
			c0.1,0,0.1-0.2,0.1-0.3c0-0.2,0-0.5,0-0.7c0-0.1,0-0.2,0-0.3c0.5-0.4,0.2-0.9,0.3-1.3c0.1-0.6,0.2-1.2,0.1-1.7
			c-0.1-0.5-0.1-1-0.1-1.4c-0.2-0.2-0.4-0.3-0.5-0.5c0-0.2,0-0.4,0-0.7c-0.4-0.4-0.9-0.9-1.4-1.4c0.1-0.1,0.2-0.4,0.5-0.1
			c0.4-0.1,0.6,0.1,0.8,0.4c0.2,0.2,0.5,0.3,0.5,0.7c0,0.2,0.2,0.4,0.4,0.6c0.3,0.4,0.4,0.8,0.4,1.3c0,0.6,0.2,1.3,0.1,1.9
			c0,0.3-0.1,0.6-0.1,1c0,0.3,0,0.6,0,1c0,0.1-0.1,0.2-0.1,0.3c-0.2,0.4-0.1,0.9-0.1,1.3c0,0.2,0,0.4-0.1,0.4
			c-0.2,0.2-0.2,0.4-0.2,0.7c0,0.1,0,0.3-0.1,0.4c-0.2,0.3-0.2,0.6-0.3,0.9c-0.1,0.3-0.3,0.5-0.5,0.8c-0.1,0.1-0.1,0.2-0.2,0.3
			c-0.1,0.1-0.2,0.3-0.2,0.4c0,0.3-0.1,0.5-0.4,0.6c-0.1,0-0.1,0.2-0.2,0.3c-0.1,0.2-0.1,0.5-0.4,0.6c-0.1,0-0.2,0.1-0.2,0.2
			c-0.2,0.4-0.6,0.6-0.9,0.9c-0.1,0.1-0.3,0.3-0.5,0.3c-0.1,0-0.3,0.2-0.4,0.3c0,0.4,0,0.8,0,1.3c0,0.5-0.2,0.8-0.4,1.1
			c-0.4,0.5-0.9,0.7-1.4,1c-0.3,0.2-0.5,0.3-0.8,0.3c-0.4,0.3-0.7,0.5-1,0.8c-0.2,0.2-0.5,0.2-0.7,0.4c-0.2,0.2-0.4,0.4-0.7,0.5
			c-0.3,0.1-0.4,0.5-0.7,0.5c-0.3,0.1-0.2,0.5-0.4,0.4c-0.3-0.1-0.4,0.2-0.6,0.3c-0.2,0.1-0.3,0.3-0.6,0.3c-0.2,0-0.4,0.3-0.6,0.4
			c-0.2,0.2-0.6,0.2-0.7,0.5c0,0-0.1,0.1-0.1,0.1c-0.2,0-0.4,0-0.6,0.2c-0.1,0.2-0.4,0.1-0.6,0.3c-0.1,0.1-0.3,0.1-0.5,0.1
			c-0.3,0-0.7,0-0.9,0.3c-0.1,0.1-0.2,0.1-0.4,0.1c-0.2,0-0.5,0-0.7,0c-0.1,0-0.3,0-0.3,0.1c-0.2,0.3-0.4,0.2-0.7,0.2
			c-0.3,0-0.6,0.1-1,0.1c-0.3,0-0.6,0-1,0c-0.4,0-0.8-0.1-1.2-0.1c-0.2,0-0.4-0.2-0.5-0.3c-0.3-0.2-0.6-0.5-1-0.2
			c-0.2,0.1-0.4-0.2-0.6-0.1c-0.3,0.1-0.4-0.2-0.6-0.3c-0.2,0-0.4,0-0.5-0.2C93.8,98.1,93.5,98.3,93.2,98.3z"/>
	</g>
</g>
</svg>
