<svg width="1.2em" height="1.2em" viewBox="0 0 24 24" fill="none" xmlns="http://www.w3.org/2000/svg">
<path d="M11.2509 2.02797C12.8356 1.90916 14.4487 2.16964 15.9109 2.79389C17.2264 3.35258 18.418 4.19914 19.3819 5.25421C20.5902 6.57192 21.4359 8.21954 21.7941 9.97174C22.1393 11.647 22.05 13.4106 21.5293 15.0401C21.0907 16.4193 20.3453 17.6988 19.3655 18.7636C18.3201 19.903 17.008 20.7965 15.5624 21.3466C14.023 21.9357 12.3366 22.1285 10.7028 21.9163C8.98789 21.697 7.33596 21.0171 5.96046 19.9705C4.88555 19.1552 3.97732 18.1212 3.30909 16.9491C2.55137 15.624 2.10588 14.1226 2.01811 12.599C1.91742 10.9345 2.23762 9.24529 2.95179 7.73783C3.46843 6.64157 4.18756 5.6417 5.06021 4.80075C5.94623 3.94599 6.99073 3.25533 8.12602 2.77858C9.1177 2.3609 10.1777 2.10689 11.2509 2.02797ZM11.2725 2.56661C9.99682 2.66171 8.74207 3.02202 7.61002 3.61759C6.53705 4.17715 5.57793 4.95039 4.79283 5.8707C3.60644 7.25784 2.8375 8.99688 2.61347 10.8086C2.40819 12.4437 2.62964 14.133 3.27049 15.6527C3.77937 16.8734 4.55154 17.9819 5.51475 18.8878C6.42212 19.7456 7.50221 20.42 8.67156 20.858C10.2914 21.4719 12.0815 21.6164 13.782 21.2938C15.2431 21.0158 16.6354 20.3847 17.8078 19.4696C18.9547 18.5756 19.8966 17.4174 20.5262 16.1057C21.2326 14.6487 21.5466 13.0076 21.442 11.3925C21.3247 9.44927 20.581 7.55152 19.3512 6.0432C18.449 4.93206 17.2952 4.02513 15.9965 3.42201C14.5306 2.73459 12.8858 2.44198 11.2725 2.56661Z" fill="currentColor"/>
<path d="M11.5968 3.79635C12.0466 3.76918 12.4996 3.78556 12.9449 3.85435C13.2638 3.90761 13.5534 4.10534 13.7201 4.38199C13.8298 4.55859 13.8939 4.76107 13.9202 4.96678C14.0239 5.75533 14.1117 6.54605 14.1811 7.33827C14.2003 7.55346 14.1438 7.79238 13.9698 7.93427C13.7574 8.1072 13.468 8.13415 13.2041 8.12769C12.2918 8.07637 11.376 8.08197 10.4647 8.15097C10.2293 8.16564 9.98172 8.16175 9.76437 8.0589C9.61688 7.99098 9.50001 7.85815 9.45904 7.70031C9.4116 7.53859 9.43791 7.36932 9.45623 7.20544C9.52308 6.59715 9.60179 5.99016 9.69213 5.38488C9.7331 5.12958 9.75402 4.865 9.86938 4.62932C10.0296 4.27095 10.3599 3.99343 10.7444 3.90847C11.0252 3.85025 11.3106 3.81532 11.5968 3.79635ZM11.7742 4.96743C11.7697 5.26198 11.7645 5.55653 11.7628 5.85107C11.8055 5.75124 11.8905 5.66197 11.8821 5.54725C11.8795 5.35297 11.8851 5.15869 11.8842 4.96441C11.8473 4.96506 11.8107 4.96592 11.7742 4.96743ZM11.7592 6.19177C11.752 6.43241 11.7531 6.67305 11.7492 6.91369C11.7904 6.91369 11.8318 6.91369 11.8734 6.91369C11.8737 6.59068 11.8745 6.26745 11.8793 5.94444C11.8409 6.02746 11.7805 6.10228 11.7592 6.19177Z" fill="currentColor"/>
<path d="M9.35726 4.33326C9.42411 4.30501 9.49074 4.27396 9.56362 4.26448C9.52071 4.54889 9.453 4.82921 9.4047 5.11298C9.32966 5.51944 9.26088 5.92719 9.19834 6.33581C9.27403 6.31964 9.34842 6.29419 9.42583 6.28686C9.4778 6.29311 9.45171 6.35284 9.45322 6.38756C9.41074 6.69677 9.37322 7.00685 9.33807 7.31692C9.33548 7.35315 9.31974 7.39325 9.28201 7.40554C9.20438 7.42905 9.12287 7.43573 9.04374 7.45233C9.00988 7.71626 8.98185 7.98084 8.95253 8.2452C8.95339 8.30299 8.89538 8.33253 8.84471 8.3349C8.1092 8.44811 7.3793 8.60013 6.65931 8.78816C6.62891 8.797 6.59743 8.79268 6.56681 8.78988C6.61231 8.5432 6.67354 8.29954 6.73327 8.05588C6.1045 8.26784 5.48586 8.51021 4.8821 8.78535C4.84846 8.80088 4.81202 8.80886 4.77601 8.8164C5.07142 8.11065 5.45546 7.44414 5.88262 6.81041C5.95981 6.70173 6.02623 6.58292 6.12628 6.49257C6.49393 6.15339 6.87796 5.83145 7.28011 5.53345C7.37261 5.46898 7.45822 5.39308 7.55999 5.34305C7.47008 5.58499 7.36054 5.81959 7.27041 6.06196C7.13326 6.4143 7.00561 6.7703 6.89025 7.1304C6.91958 7.11703 6.94933 7.10409 6.97887 7.09094C7.17337 6.49537 7.39763 5.90994 7.64236 5.33356C7.66242 5.28074 7.69864 5.23524 7.74651 5.20505C8.25475 4.86543 8.79253 4.56787 9.35726 4.33326Z" fill="currentColor"/>
<path d="M14.2887 4.30652C14.448 4.2703 14.6117 4.31989 14.7588 4.38027C15.4591 4.68323 16.1151 5.08214 16.7272 5.53626C17.0565 5.77625 17.3588 6.05247 17.6376 6.34939C17.8431 6.57128 18.0381 6.8048 18.2 7.06097C18.5258 7.60414 18.8145 8.1706 19.0511 8.75862C19.0847 8.84789 19.1119 8.96109 19.0485 9.04368C18.9799 9.12454 18.8639 9.13165 18.7656 9.13252C18.4777 9.12475 18.2032 9.02923 17.9294 8.95052C17.1136 8.71441 16.2848 8.52401 15.4475 8.38299C15.1337 8.32671 14.8155 8.21113 14.5891 7.97847C14.4211 7.80812 14.3251 7.57589 14.3042 7.33935C14.2292 6.5495 14.1369 5.76137 14.0265 4.97584C14.0073 4.82037 14.0002 4.65563 14.0603 4.50792C14.0989 4.40938 14.1845 4.32981 14.2887 4.30652ZM16.1233 5.93452C16.1987 6.1894 16.2727 6.4447 16.3406 6.70173C16.3613 6.65321 16.382 6.60491 16.4027 6.5564C16.3482 6.36578 16.2912 6.17603 16.2324 5.98671C16.1959 5.96924 16.1593 5.95177 16.1233 5.93452ZM16.4786 6.83132C16.4564 6.87941 16.4344 6.92771 16.4124 6.97601C16.4644 7.19056 16.5183 7.40447 16.5636 7.62053C16.6046 7.63411 16.6455 7.6477 16.6869 7.66128C16.6233 7.38333 16.5543 7.10625 16.4786 6.83132Z" fill="currentColor"/>
<path d="M11.6106 9.84215C12.2206 9.83741 12.8308 9.84301 13.4404 9.86781C13.7492 9.88528 14.0729 9.96376 14.3072 10.1766C14.4851 10.3346 14.582 10.5703 14.5906 10.806C14.6141 11.5825 14.618 12.3596 14.6048 13.1365C14.6065 13.3263 14.5636 13.521 14.4549 13.6791C14.3118 13.8927 14.07 14.0185 13.8251 14.0771C13.586 14.1377 13.3378 14.131 13.093 14.1381C12.2814 14.156 11.4693 14.1534 10.6579 14.1321C10.4322 14.1286 10.2032 14.1021 9.99186 14.0187C9.78917 13.9404 9.60416 13.7996 9.50238 13.6044C9.42562 13.4617 9.39737 13.2983 9.3978 13.1376C9.38594 12.3974 9.38853 11.6571 9.40815 10.9171C9.40901 10.7836 9.42001 10.6484 9.46615 10.522C9.53386 10.3243 9.68092 10.1593 9.86119 10.0565C10.0893 9.92474 10.355 9.876 10.6152 9.86522C10.9469 9.85293 11.2787 9.84582 11.6106 9.84215ZM11.9329 11.0216C11.9325 11.3171 11.9332 11.6125 11.9327 11.9079C11.9759 11.8287 12.0339 11.7572 12.0679 11.6737C12.074 11.4563 12.0684 11.2388 12.0701 11.0216C12.0242 11.0214 11.9787 11.0214 11.9329 11.0216ZM11.9321 12.3191C11.9338 12.536 11.9323 12.7531 11.9329 12.9703C11.9784 12.9701 12.0239 12.9701 12.0699 12.9705C12.0705 12.6473 12.0703 12.3243 12.0701 12.0012C12.0188 12.1043 11.9144 12.1938 11.9321 12.3191Z" fill="currentColor"/>
<path d="M8.11761 10.036C8.35955 10.0101 8.61356 10.0093 8.84277 10.1018C8.99306 10.1608 9.12395 10.2728 9.19489 10.419C9.25807 10.5462 9.27834 10.6904 9.27511 10.8315C9.25398 11.5208 9.24837 12.2106 9.25742 12.9004C9.25678 13.1081 9.28567 13.3243 9.20783 13.5229C9.144 13.7004 8.99889 13.8419 8.82574 13.9139C8.56741 14.0245 8.27847 14.0174 8.00419 13.9911C7.09574 13.9186 6.18902 13.8227 5.28576 13.7013C4.97072 13.653 4.65073 13.5725 4.38249 13.3936C4.21559 13.2825 4.07241 13.11 4.0571 12.903C4.01398 12.3579 4.02562 11.8083 4.09376 11.2657C4.12093 11.0413 4.28459 10.8621 4.46615 10.7415C4.75207 10.5535 5.08889 10.4606 5.4229 10.4026C6.31668 10.2497 7.21542 10.1274 8.11761 10.036ZM6.60346 11.2092C6.5901 11.4592 6.57931 11.7091 6.57694 11.9594C6.62158 11.8919 6.68044 11.8326 6.71451 11.7589C6.72702 11.573 6.72723 11.3863 6.73996 11.2004C6.69424 11.2032 6.64896 11.2062 6.60346 11.2092ZM6.57435 12.2322C6.57284 12.4422 6.57694 12.6522 6.58341 12.862C6.62891 12.864 6.67462 12.8657 6.72034 12.8681C6.71042 12.5919 6.71149 12.3154 6.71193 12.0392C6.66621 12.1035 6.62028 12.1679 6.57435 12.2322Z" fill="currentColor"/>
<path d="M15.3481 10.0476C15.5145 10.0157 15.6855 10.0162 15.8537 10.0332C16.6332 10.111 17.4104 10.2128 18.184 10.337C18.5103 10.392 18.8426 10.4321 19.1539 10.5501C19.4151 10.649 19.6816 10.7922 19.8304 11.0385C19.9048 11.1566 19.9149 11.2987 19.928 11.4341C19.9785 11.9286 19.9856 12.428 19.9431 12.9231C19.9186 13.1426 19.7532 13.3153 19.5716 13.4248C19.2449 13.6221 18.8607 13.6881 18.4872 13.7317C17.6441 13.8406 16.7984 13.9281 15.9512 13.9949C15.6446 14.023 15.3086 14.0174 15.0436 13.841C14.8336 13.7039 14.7342 13.446 14.7411 13.2019C14.7529 12.4834 14.7527 11.7647 14.7335 11.0462C14.7266 10.8336 14.7074 10.6072 14.8112 10.4127C14.9123 10.2074 15.1294 10.0867 15.3481 10.0476ZM17.2624 11.2002C17.2762 11.4529 17.2851 11.7058 17.2892 11.9588C17.3329 11.8964 17.3767 11.8341 17.4211 11.7722C17.4179 11.5844 17.4097 11.3964 17.3981 11.209C17.3528 11.206 17.3075 11.203 17.2624 11.2002ZM17.2948 12.2343C17.287 12.4452 17.2907 12.657 17.2825 12.8681C17.328 12.8657 17.3737 12.8638 17.4194 12.8618C17.4274 12.588 17.4304 12.3139 17.4283 12.0401C17.3843 12.1052 17.3319 12.1647 17.2948 12.2343Z" fill="currentColor"/>
<path d="M4.79822 14.9558C5.08889 14.9144 5.37804 14.9978 5.65772 15.0683C6.44584 15.2745 7.24367 15.444 8.04775 15.5751C8.38801 15.6227 8.74293 15.6831 9.02778 15.8895C9.27144 16.0561 9.42777 16.3354 9.45386 16.6284C9.52631 17.4062 9.61559 18.1827 9.72556 18.9561C9.74992 19.1282 9.76221 19.3143 9.68459 19.4752C9.63779 19.5743 9.54012 19.6453 9.43187 19.6617C9.25268 19.6895 9.07522 19.63 8.91242 19.5612C8.29464 19.3022 7.70511 18.9788 7.14577 18.6109C6.57824 18.2474 6.05318 17.8092 5.6299 17.2824C5.44597 17.0603 5.31163 16.8039 5.17471 16.5517C4.96468 16.1584 4.77752 15.7528 4.61838 15.3364C4.58863 15.2559 4.56534 15.1624 4.60221 15.0806C4.63671 15.0047 4.72081 14.97 4.79822 14.9558ZM7.01941 16.349C7.07483 16.6002 7.13391 16.8505 7.19838 17.0994C7.22297 17.05 7.24776 17.0008 7.27213 16.9514C7.2262 16.763 7.18523 16.5732 7.1434 16.3837C7.102 16.372 7.0606 16.3604 7.01941 16.349ZM7.2704 17.3687C7.32755 17.5804 7.38878 17.7911 7.45304 18.0009C7.49056 18.0173 7.52808 18.0337 7.56582 18.0507C7.48539 17.7762 7.40884 17.5006 7.33919 17.2233C7.31633 17.2716 7.29326 17.3202 7.2704 17.3687Z" fill="currentColor"/>
<path d="M18.8984 14.9519C19.0478 14.9403 19.2178 14.9228 19.3476 15.0136C19.4396 15.0841 19.4278 15.2167 19.392 15.3142C19.1917 15.8455 18.9433 16.358 18.6623 16.8514C18.4797 17.1852 18.2254 17.4737 17.9565 17.7406C17.5054 18.1948 16.9698 18.5521 16.4245 18.8824C16.0305 19.1181 15.6226 19.3311 15.201 19.5138C15.0249 19.5897 14.8426 19.6729 14.6466 19.6686C14.5304 19.6694 14.4097 19.6201 14.3445 19.5207C14.2561 19.3878 14.2514 19.2196 14.2639 19.0659C14.3713 18.2771 14.4703 17.4871 14.5421 16.694C14.5539 16.5312 14.5917 16.3682 14.6717 16.2248C14.8092 15.9725 15.0613 15.8034 15.3274 15.7107C15.573 15.6201 15.8352 15.5986 16.0909 15.5527C16.7898 15.4347 17.4837 15.2879 18.1704 15.1134C18.4115 15.053 18.6504 14.9793 18.8984 14.9519ZM16.8579 16.385C16.8047 16.6375 16.7466 16.8889 16.6845 17.1395C16.74 17.0562 16.8096 16.9821 16.8549 16.8928C16.903 16.713 16.942 16.5303 16.9828 16.3485C16.9409 16.3606 16.8993 16.3727 16.8579 16.385ZM16.5912 17.4976C16.5433 17.6831 16.4901 17.867 16.4364 18.0509C16.4739 18.0335 16.5123 18.0169 16.55 17.9998C16.6317 17.7294 16.7104 17.4579 16.7816 17.1845C16.7156 17.2872 16.6166 17.3741 16.5912 17.4976Z" fill="currentColor"/>
<path d="M10.2599 15.8716C10.4777 15.8405 10.6974 15.8638 10.916 15.8726C11.7316 15.9093 12.5488 15.9043 13.3639 15.8586C13.5849 15.8472 13.8134 15.8582 14.0211 15.9421C14.1604 15.9977 14.2855 16.0986 14.3523 16.2349C14.42 16.3692 14.4319 16.5243 14.4194 16.6722C14.3624 17.3217 14.2934 17.9699 14.2119 18.6165C14.1809 18.8246 14.1705 19.037 14.1119 19.2399C14.0181 19.5694 13.7882 19.8622 13.4764 20.0097C13.2645 20.1173 13.0245 20.1374 12.7922 20.1643C12.2417 20.2234 11.6848 20.2206 11.1349 20.1559C10.9674 20.135 10.7968 20.1184 10.6379 20.0576C10.3886 19.967 10.1721 19.7902 10.0341 19.5638C9.92911 19.3939 9.86615 19.2 9.8407 19.0025C9.73741 18.2286 9.65116 17.4526 9.58346 16.6748C9.56685 16.4939 9.58992 16.2981 9.70356 16.1499C9.83337 15.9759 10.0522 15.8998 10.2599 15.8716ZM11.9383 17.078C11.936 17.3728 11.9427 17.6678 11.9407 17.9625C11.9836 17.8648 12.0707 17.7786 12.063 17.6658C12.0597 17.4698 12.0651 17.2738 12.0649 17.078C12.0224 17.0778 11.9804 17.0778 11.9383 17.078ZM11.9401 18.3763C11.9452 18.593 11.9431 18.8097 11.9437 19.0266C11.9821 19.0264 12.0207 19.0264 12.0595 19.0266C12.0591 18.7039 12.0595 18.3808 12.0621 18.0578C12.0155 18.1611 11.9252 18.2551 11.9401 18.3763Z" fill="currentColor"/>
</svg>
