<svg width="1.2em" height="1.2em" viewBox="0 0 24 24" fill="none" xmlns="http://www.w3.org/2000/svg">
<path d="M2.63915 10.6743C3.00411 10.6748 3.36906 10.6739 3.73402 10.6748C3.94203 10.6806 4.15678 10.6938 4.34971 10.779C4.47299 10.8329 4.57699 10.9341 4.62273 11.062C4.69307 11.2487 4.66545 11.4518 4.67125 11.6466C4.66522 11.8634 4.69447 12.0886 4.61809 12.2967C4.56957 12.4355 4.4637 12.5511 4.33183 12.6154C4.1396 12.7106 3.92068 12.7299 3.70941 12.7347C3.35258 12.7352 2.99575 12.7347 2.63892 12.735C2.63892 12.048 2.63892 11.3613 2.63915 10.6743ZM3.13319 10.9938C3.13319 11.4871 3.13295 11.9802 3.13319 12.4738C3.31636 12.4708 3.5 12.4803 3.68271 12.4654C3.81736 12.451 3.96107 12.4202 4.06253 12.3238C4.14564 12.2458 4.17698 12.1283 4.17675 12.0176C4.17721 11.817 4.17745 11.6162 4.17675 11.4154C4.17628 11.3109 4.14634 11.1995 4.06531 11.1284C3.96246 11.0374 3.82015 11.0135 3.68805 11.001C3.50325 10.9877 3.31799 10.9961 3.13319 10.9938Z" fill="currentColor"/>
<path d="M8.26881 10.7033C8.43365 10.7033 8.59825 10.7036 8.76309 10.7033C8.76285 11.0516 8.76285 11.3998 8.76309 11.7481C9.09206 11.7485 9.42103 11.7476 9.75 11.7488C9.74954 11.8063 9.74954 11.8644 9.74954 11.9224C9.4208 11.9224 9.09183 11.9222 8.76309 11.9224C8.76285 12.1931 8.76285 12.464 8.76309 12.7347C8.59825 12.735 8.43365 12.735 8.26881 12.7347C8.26905 12.0578 8.26905 11.3805 8.26881 10.7033Z" fill="currentColor"/>
<path d="M12.0707 10.7033C12.235 10.7036 12.3994 10.7033 12.564 10.7036C12.5638 11.3805 12.564 12.0578 12.564 12.735C12.3994 12.7347 12.235 12.735 12.0704 12.735C12.0704 12.0578 12.0704 11.3805 12.0707 10.7033Z" fill="currentColor"/>
<path d="M14.3043 10.7033C14.4594 10.7036 14.6145 10.7033 14.7695 10.7036C14.7772 10.8364 14.7373 10.9973 14.8417 11.1029C14.9446 11.1974 15.0967 11.1672 15.2213 11.1437C15.6216 11.0546 16.0044 10.8965 16.3654 10.7033C16.3654 10.7711 16.3654 10.8391 16.3657 10.9074C16.0225 11.1196 15.6652 11.3121 15.2887 11.4581C15.1187 11.5191 14.942 11.5811 14.7589 11.573C14.6003 11.5658 14.4531 11.466 14.3846 11.3234C14.2853 11.1324 14.3064 10.9111 14.3043 10.7033Z" fill="currentColor"/>
<path d="M4.81542 10.9935C4.98026 10.9935 5.14486 10.9935 5.30969 10.9935C5.30969 11.0516 5.30969 11.1096 5.30946 11.1679C5.14486 11.1677 4.98026 11.1679 4.81542 11.1679C4.81542 11.1096 4.81542 11.0516 4.81542 10.9935Z" fill="currentColor"/>
<path d="M7.63037 10.9935C7.79521 10.9935 7.95981 10.9935 8.12464 10.9935C8.12441 11.0516 8.12441 11.1096 8.12464 11.1679C7.95981 11.1679 7.79521 11.1679 7.63037 11.1679C7.63037 11.1096 7.63037 11.0516 7.63037 10.9935Z" fill="currentColor"/>
<path d="M16.5098 10.9938C16.6742 10.9933 16.8388 10.994 17.0034 10.9933C17.0039 11.0513 17.0039 11.1096 17.0039 11.1679C16.8393 11.1677 16.6747 11.1677 16.5101 11.1679C16.5098 11.1096 16.5098 11.0516 16.5098 10.9938Z" fill="currentColor"/>
<path d="M5.51678 11.4084C5.59827 11.2603 5.78237 11.2183 5.93931 11.2257C6.3175 11.2403 6.66273 11.417 6.99193 11.5876C6.99193 11.4767 6.99193 11.3657 6.99193 11.2549C7.15676 11.2547 7.32137 11.2547 7.4862 11.2549C7.48504 11.8723 7.48806 12.4898 7.48481 13.1071C7.48667 13.2246 7.38034 13.3214 7.26426 13.3149C6.78322 13.3156 6.30195 13.3156 5.82091 13.3147C5.71946 13.3154 5.6252 13.2494 5.58248 13.1589C5.5328 13.0642 5.54093 12.9541 5.54093 12.8508C5.7053 12.8513 5.86943 12.8501 6.0338 12.8501C6.03659 12.9209 6.02846 13.0022 6.07954 13.0593C6.15755 13.1399 6.27711 13.1512 6.38274 13.1631C6.54061 13.1724 6.70243 13.1789 6.85705 13.1399C6.92553 13.1236 6.98868 13.0684 6.98914 12.9934C6.99611 12.7965 6.98984 12.5992 6.99193 12.4021C6.66946 12.5692 6.33259 12.741 5.96323 12.7633C5.80443 12.7728 5.61545 12.741 5.52468 12.5945C5.41556 12.4137 5.46524 12.1938 5.45387 11.9941C5.46478 11.7991 5.41858 11.5879 5.51678 11.4084ZM5.95533 11.6134C5.89799 11.707 5.92515 11.821 5.91912 11.9245C5.92469 12.0557 5.90681 12.1889 5.92956 12.3187C5.95974 12.4441 6.10577 12.4787 6.21767 12.4733C6.49255 12.4615 6.74816 12.3447 6.99216 12.227C6.99193 12.0722 6.99193 11.9173 6.99216 11.7627C6.76163 11.6506 6.52134 11.5426 6.26341 11.5185C6.15592 11.5115 6.02382 11.5173 5.95533 11.6134Z" fill="currentColor"/>
<path d="M10.0523 11.3035C10.1797 11.2159 10.3441 11.218 10.492 11.2341C10.8275 11.2784 11.1351 11.4309 11.432 11.5848C11.432 11.4748 11.432 11.3648 11.432 11.2547C11.5966 11.2547 11.761 11.2547 11.9256 11.2547C11.9256 11.7481 11.9256 12.2414 11.9256 12.735C11.761 12.7347 11.5966 12.7347 11.432 12.735C11.432 12.6247 11.432 12.5149 11.432 12.4048C11.1353 12.5585 10.8277 12.7111 10.4925 12.7556C10.345 12.7714 10.1809 12.774 10.0534 12.6869C9.93596 12.6064 9.89487 12.4566 9.89441 12.321C9.89371 12.1037 9.89394 11.8864 9.89417 11.6691C9.89487 11.5338 9.9355 11.3843 10.0523 11.3035ZM10.3622 11.7093C10.3559 11.8999 10.3557 12.0914 10.3622 12.282C10.3692 12.4155 10.512 12.4789 10.6299 12.4731C10.9148 12.4708 11.1803 12.3482 11.4322 12.2268C11.432 12.0722 11.432 11.9175 11.4322 11.7629C11.1738 11.6389 10.9004 11.511 10.6076 11.5175C10.4948 11.5157 10.3673 11.5848 10.3622 11.7093Z" fill="currentColor"/>
<path d="M17.8134 11.2454C18.0493 11.218 18.2891 11.2173 18.5245 11.2478C18.7105 11.2747 18.9078 11.3341 19.0325 11.4839C19.1548 11.6313 19.1834 11.8321 19.1797 12.0178C19.1739 12.2245 19.1137 12.4457 18.9501 12.5838C18.7555 12.7484 18.489 12.7833 18.2431 12.7921C17.9664 12.7956 17.6685 12.784 17.4278 12.6307C17.2525 12.52 17.1645 12.3127 17.1527 12.1116C17.1404 11.9017 17.1418 11.6684 17.2762 11.4941C17.4036 11.3306 17.6165 11.2717 17.8134 11.2454ZM17.9766 11.5477C17.8782 11.5712 17.7788 11.6204 17.7261 11.7107C17.6627 11.817 17.6692 11.9459 17.673 12.065C17.6776 12.2005 17.7296 12.3438 17.8461 12.4223C17.9952 12.5237 18.1837 12.5318 18.3583 12.5318C18.5257 12.5295 18.7084 12.516 18.8456 12.4093C18.9566 12.3227 18.9981 12.1776 19.0042 12.0424C19.0109 11.9096 19.0014 11.759 18.9046 11.6577C18.7987 11.551 18.6401 11.5298 18.4974 11.5198C18.3237 11.5138 18.147 11.5085 17.9766 11.5477Z" fill="currentColor"/>
<path d="M19.819 11.5846C20.113 11.4326 20.4169 11.2819 20.7482 11.2352C20.8919 11.2187 21.0495 11.2146 21.1786 11.2905C21.3009 11.3622 21.3543 11.5103 21.3541 11.6466C21.3541 12.0092 21.3541 12.3721 21.3541 12.735C21.1999 12.7347 21.0458 12.735 20.8919 12.735C20.89 12.3949 20.8956 12.0547 20.8893 11.7149C20.8868 11.5842 20.7509 11.5126 20.6337 11.5171C20.3444 11.514 20.0744 11.6403 19.819 11.7627C19.8188 12.0868 19.819 12.4109 19.819 12.735C19.6542 12.735 19.4894 12.7347 19.3248 12.735C19.3248 12.2414 19.3248 11.7481 19.3248 11.2547C19.4894 11.2547 19.6542 11.2547 19.819 11.2547C19.8188 11.3648 19.8188 11.4746 19.819 11.5846Z" fill="currentColor"/>
<path d="M4.81542 11.254C4.98026 11.254 5.14486 11.254 5.30969 11.254C5.30969 11.7476 5.30969 12.2412 5.30969 12.735C5.14486 12.7347 4.98026 12.7347 4.81542 12.735C4.81542 12.2414 4.81542 11.7476 4.81542 11.254Z" fill="currentColor"/>
<path d="M7.63037 11.254C7.79521 11.254 7.95981 11.254 8.12464 11.254C8.12464 11.7476 8.12464 12.2412 8.12464 12.735C7.95981 12.7347 7.79521 12.7347 7.63037 12.735C7.63037 12.2412 7.63037 11.7476 7.63037 11.254Z" fill="currentColor"/>
<path d="M16.5098 11.254C16.6744 11.254 16.8393 11.254 17.0041 11.2543C17.0039 11.7476 17.0039 12.2412 17.0041 12.7347C16.8393 12.735 16.6744 12.735 16.5098 12.7347C16.5098 12.2412 16.5101 11.7476 16.5098 11.254Z" fill="currentColor"/>
<path d="M15.3379 11.9974C15.5173 11.9298 15.7033 11.8611 15.8979 11.8646C16.0615 11.8669 16.2159 11.9684 16.2865 12.1158C16.3854 12.3066 16.3636 12.5274 16.3654 12.735C16.2103 12.7347 16.0553 12.735 15.9004 12.7347C15.892 12.6031 15.9329 12.445 15.8321 12.3389C15.7319 12.2412 15.5782 12.2702 15.4542 12.2934C15.0519 12.3823 14.6669 12.5414 14.3043 12.7354C14.3043 12.6674 14.3043 12.5994 14.3043 12.5316C14.6337 12.3266 14.9773 12.142 15.3379 11.9974Z" fill="currentColor"/>
<path d="M19.1966 5.87814C19.1807 5.8883 19.1647 5.89991 19.1603 5.90427C19.156 5.91008 19.1371 5.91879 19.1168 5.92459C19.0965 5.9304 19.0645 5.94637 19.0442 5.96088C19.0239 5.97395 18.9919 5.98992 18.9716 5.99427C18.9339 6.00443 18.8003 6.12347 18.7423 6.19896L18.7089 6.24251L18.6871 6.21057C18.6755 6.19315 18.6566 6.17863 18.6465 6.17863C18.6363 6.17863 18.6131 6.16267 18.5942 6.14234C18.5666 6.11186 18.5463 6.10605 18.4839 6.10605C18.4418 6.10605 18.4026 6.11186 18.3982 6.12057C18.3939 6.12783 18.3793 6.13508 18.3677 6.13508C18.3547 6.13508 18.2922 6.16121 18.2284 6.19315C18.163 6.22509 18.1021 6.25122 18.0905 6.25122C18.0803 6.25122 18.0672 6.26138 18.0629 6.27299C18.0585 6.28461 18.0324 6.30638 18.0048 6.32235C17.9772 6.33832 17.9511 6.36445 17.9453 6.37751C17.9395 6.39203 17.9076 6.43558 17.8727 6.47477C17.8379 6.51397 17.8103 6.55897 17.8103 6.57784C17.8103 6.59526 17.8001 6.61849 17.7885 6.62865C17.7769 6.63881 17.7667 6.65913 17.7667 6.67365C17.7667 6.68817 17.7609 6.70414 17.7522 6.70849C17.745 6.71285 17.7377 6.73172 17.7377 6.74914C17.7377 6.76656 17.7275 6.81011 17.7145 6.8464C17.6854 6.92914 17.6985 7.21222 17.7334 7.2398C17.7653 7.26738 17.7958 7.33416 17.7958 7.37916C17.7958 7.40093 17.8059 7.43868 17.8175 7.4619C17.8292 7.48368 17.8393 7.50836 17.8393 7.51416C17.8393 7.53304 17.7508 7.57223 17.7087 7.57223C17.6869 7.57223 17.6492 7.58239 17.6274 7.59401C17.6042 7.60562 17.565 7.61578 17.5388 7.61578C17.5142 7.61578 17.488 7.62159 17.4837 7.6303C17.4793 7.63756 17.4648 7.64481 17.4532 7.64481C17.4416 7.64481 17.4329 7.63756 17.4329 7.6303C17.4329 7.62159 17.4416 7.61578 17.4517 7.61578C17.4604 7.61578 17.4851 7.59836 17.504 7.57949C17.5229 7.55917 17.5461 7.5432 17.5548 7.5432C17.5925 7.5432 17.6361 7.47642 17.6361 7.42126C17.6361 7.37771 17.6274 7.35738 17.5969 7.33125C17.5533 7.29496 17.4793 7.2848 17.4517 7.31238C17.4401 7.324 17.4329 7.324 17.4271 7.31238C17.398 7.26738 17.2688 7.31238 17.2224 7.38351C17.2064 7.40674 17.1846 7.42706 17.1745 7.42706C17.1628 7.42706 17.1367 7.43577 17.1164 7.44739C17.0946 7.45755 17.0583 7.47497 17.0336 7.48513C16.9553 7.51852 16.8885 7.55046 16.8812 7.55917C16.874 7.56642 16.8115 7.59546 16.7215 7.6332C16.7012 7.64191 16.6751 7.65352 16.6635 7.66078C16.6519 7.66804 16.6315 7.6782 16.6199 7.68401C16.6083 7.68836 16.5807 7.70578 16.559 7.7203C16.5386 7.73482 16.5038 7.74643 16.4835 7.74643C16.4457 7.74643 16.4327 7.72756 16.4602 7.71014C16.469 7.70578 16.4748 7.68256 16.4748 7.65933C16.4748 7.6361 16.469 7.61288 16.4602 7.60852C16.453 7.60417 16.4457 7.58675 16.4457 7.57223C16.4457 7.54029 16.392 7.52142 16.3398 7.53449C16.3035 7.5432 16.2527 7.58675 16.2294 7.62594C16.2178 7.64627 16.212 7.64917 16.1975 7.6332C16.1873 7.62449 16.1539 7.61578 16.1235 7.61578C16.077 7.61578 16.0581 7.62739 15.9884 7.69417C15.913 7.76821 15.8375 7.81901 15.8026 7.81901C15.7939 7.81901 15.7765 7.82918 15.762 7.84224C15.7112 7.88724 15.6444 7.82772 15.6923 7.77982C15.7155 7.75659 15.6981 7.7174 15.6662 7.7174C15.6096 7.71595 15.5776 7.66804 15.5733 7.57804C15.5689 7.49239 15.582 7.45465 15.6342 7.39513C15.6473 7.38061 15.6792 7.324 15.7054 7.27028C15.733 7.21657 15.7663 7.16431 15.7809 7.15415C15.7954 7.14399 15.807 7.12657 15.807 7.11641C15.807 7.1077 15.8288 7.07721 15.8563 7.05108C15.8839 7.02495 15.9101 6.98576 15.9159 6.96544C15.9202 6.94511 15.9376 6.91027 15.9536 6.8885C15.9681 6.86672 15.9812 6.8435 15.9812 6.83624C15.9812 6.82753 15.9943 6.81011 16.0102 6.79559C16.0596 6.75059 16.0843 6.68091 16.0799 6.60542C16.0755 6.53429 16.0755 6.53429 16.0218 6.52994C15.9638 6.52558 15.8563 6.58074 15.8404 6.62575C15.8346 6.63881 15.8215 6.65913 15.8113 6.6693C15.8012 6.67946 15.7925 6.70704 15.7925 6.72881C15.7925 6.75059 15.7794 6.78107 15.7634 6.79559C15.7475 6.81011 15.7344 6.83043 15.7344 6.84059C15.7344 6.87108 15.685 6.94802 15.6647 6.94802C15.6546 6.94802 15.6415 6.96253 15.6342 6.97995C15.627 6.99882 15.5936 7.03947 15.5602 7.07141C15.5283 7.10334 15.4876 7.15705 15.4702 7.19044C15.4368 7.25867 15.402 7.28045 15.3831 7.24561C15.3758 7.23399 15.3642 7.22383 15.357 7.22383C15.3497 7.22383 15.3265 7.20786 15.3062 7.18899C15.2858 7.17012 15.2452 7.14254 15.2162 7.12947C15.1871 7.11496 15.1479 7.08592 15.1291 7.0627C15.1102 7.04092 15.0812 7.0177 15.0652 7.01334C15.0362 7.00318 15.0362 7.00318 15.0637 6.97269C15.0783 6.95527 15.1058 6.91463 15.1247 6.88269C15.1436 6.85075 15.1624 6.82172 15.1668 6.81737C15.1726 6.81301 15.1857 6.78978 15.1973 6.76656C15.2089 6.74188 15.2278 6.7172 15.2365 6.71139C15.2466 6.70559 15.2554 6.68817 15.2554 6.6751C15.2554 6.66204 15.2757 6.6272 15.2989 6.59962C15.3236 6.57203 15.3541 6.52703 15.3671 6.5009C15.3875 6.46026 15.3875 6.44719 15.37 6.4138C15.3236 6.31944 15.2423 6.29767 15.1799 6.36299C15.1334 6.4109 15.0376 6.57929 15.0376 6.60978C15.0376 6.62139 15.0187 6.65623 14.9955 6.68526C14.9737 6.7143 14.9302 6.77527 14.8997 6.82027L14.8445 6.90447H14.6689C14.56 6.90447 14.486 6.89866 14.4758 6.8885C14.4656 6.87834 14.4265 6.87543 14.3684 6.88124C14.3176 6.88705 14.2319 6.8943 14.1782 6.89866C14.1231 6.90301 14.0795 6.91318 14.0795 6.92043C14.0795 6.92769 14.065 6.9335 14.0476 6.9335C14.0287 6.93495 13.9881 6.94656 13.9561 6.96253C13.8951 6.99011 13.8763 6.98866 13.8763 6.95382C13.8763 6.93205 13.8719 6.92189 13.8255 6.83188C13.7935 6.77236 13.6963 6.6722 13.6687 6.6722C13.6571 6.6722 13.6338 6.65623 13.615 6.63591C13.5961 6.61558 13.5642 6.59962 13.5438 6.59816C13.5235 6.59816 13.4872 6.5851 13.4625 6.57058C13.3522 6.5009 13.3377 6.498 13.1708 6.498C13.0779 6.498 13.0038 6.50381 12.998 6.51252C12.9937 6.51977 12.9617 6.52703 12.9269 6.52703C12.8935 6.52703 12.8601 6.53284 12.8528 6.5401C12.8441 6.54736 12.7614 6.55607 12.667 6.56042C12.5654 6.56332 12.4885 6.57349 12.4798 6.5822C12.4696 6.59236 12.4348 6.59962 12.4028 6.59962C12.3578 6.59962 12.3346 6.60833 12.3085 6.63591C12.2896 6.65623 12.2649 6.6722 12.2548 6.6722C12.2431 6.6722 12.2315 6.68091 12.2272 6.69252C12.2156 6.72446 12.0631 6.83188 12.0544 6.81591C12.0486 6.80866 12.0268 6.80285 12.0022 6.80285C11.9789 6.80285 11.9601 6.79704 11.9601 6.79124C11.9601 6.78398 11.9964 6.74478 12.0399 6.70268C12.1038 6.64026 12.1198 6.61704 12.1198 6.57929C12.1183 6.46316 11.9804 6.41525 11.886 6.498C11.7859 6.58655 11.7714 6.60397 11.7714 6.63446C11.7714 6.67075 11.6814 6.78398 11.6349 6.8043C11.6175 6.81156 11.5855 6.83043 11.5609 6.84495C11.5376 6.86092 11.5028 6.87398 11.4854 6.87398C11.468 6.87543 11.4491 6.88124 11.4447 6.88995C11.4404 6.89721 11.4186 6.90447 11.3983 6.90447C11.3634 6.90447 11.2967 6.93495 11.2488 6.97269C11.2371 6.9814 11.1646 7.0206 11.0891 7.05979C10.9294 7.14109 10.8728 7.17738 10.7886 7.25867C10.732 7.31238 10.7262 7.324 10.7262 7.38787C10.7262 7.44594 10.7203 7.459 10.6942 7.46916C10.6753 7.47642 10.6492 7.49674 10.6362 7.51271C10.6216 7.53013 10.5999 7.5432 10.5882 7.5432C10.5766 7.5432 10.5665 7.549 10.5665 7.55771C10.5665 7.56497 10.5505 7.57223 10.5302 7.57223C10.5084 7.57223 10.4881 7.58384 10.4779 7.60417C10.4576 7.64481 10.3908 7.7174 10.3749 7.7174C10.3589 7.7174 10.2079 7.81611 10.1963 7.83353C10.1919 7.84079 10.1716 7.84805 10.1542 7.84805C10.1353 7.84805 10.1121 7.85821 10.1019 7.86982C10.0918 7.88144 10.0744 7.8916 10.0627 7.8916C10.0323 7.8916 9.91322 7.97724 9.91322 7.99902C9.91322 8.02515 9.83628 8.09483 9.8058 8.09483C9.79273 8.09483 9.7666 8.1108 9.74918 8.12822C9.70418 8.17757 9.67079 8.19209 9.57643 8.20225C9.53143 8.20806 9.46756 8.22548 9.43562 8.24145C9.40369 8.25596 9.36885 8.26903 9.35868 8.26903C9.34852 8.26903 9.30788 8.285 9.26868 8.30532C9.22949 8.32564 9.18303 8.34161 9.16561 8.34161C9.13658 8.34161 9.07706 8.36339 9.01028 8.40113C8.99577 8.40839 8.97109 8.4142 8.95512 8.4142C8.93915 8.4142 8.91447 8.42 8.89996 8.42726C8.88689 8.43452 8.82302 8.46646 8.75915 8.49839C8.69527 8.52888 8.61979 8.56807 8.59075 8.58549C8.56172 8.60146 8.5051 8.62033 8.46736 8.62614C8.42817 8.63049 8.38026 8.64791 8.35994 8.66098C8.33961 8.6755 8.30042 8.69146 8.27284 8.69727C8.24526 8.70308 8.21332 8.71324 8.20025 8.7205C8.18864 8.7263 8.1567 8.74082 8.13202 8.75098C8.10589 8.76114 8.08412 8.77276 8.08412 8.77711C8.08412 8.78873 7.96508 8.84679 7.92153 8.8555C7.90121 8.86131 7.86492 8.88018 7.84169 8.89905C7.81701 8.91937 7.77201 8.93679 7.72556 8.94405C7.68346 8.94986 7.64572 8.96002 7.63991 8.96728C7.63555 8.97454 7.62104 8.98034 7.60652 8.98034C7.592 8.98034 7.56878 8.99341 7.55281 9.01083C7.52378 9.04277 7.4178 9.09648 7.38296 9.09648C7.35538 9.09648 7.27844 9.13567 7.25667 9.1618C7.24651 9.17342 7.22473 9.18358 7.20731 9.18358C7.19134 9.18503 7.1507 9.201 7.11876 9.21987C7.08682 9.23874 7.03747 9.26632 7.00989 9.27939C6.9823 9.2939 6.94021 9.31858 6.91553 9.33455C6.85601 9.37665 6.80665 9.40133 6.78488 9.40133C6.77326 9.40133 6.75294 9.41584 6.73842 9.43472C6.72391 9.45359 6.69342 9.48117 6.66874 9.49569C6.62084 9.52617 6.52067 9.60166 6.49019 9.62924C6.48003 9.6394 6.46696 9.64811 6.46116 9.64811C6.45535 9.64811 6.42486 9.67134 6.39438 9.69892C6.36244 9.7265 6.33051 9.74973 6.3218 9.74973C6.31309 9.74973 6.28696 9.76569 6.26373 9.78311C6.21728 9.82086 6.22308 9.85134 6.27534 9.85134C6.3247 9.85134 6.37841 9.81941 6.47712 9.73376C6.56132 9.65827 6.58019 9.64521 6.66874 9.59875C6.69342 9.58569 6.73842 9.5523 6.76891 9.52472C6.80085 9.49714 6.83714 9.47391 6.8502 9.47391C6.86327 9.47391 6.88795 9.45794 6.90537 9.43762C6.92279 9.4173 6.94746 9.40133 6.95908 9.40133C6.97069 9.40133 6.98085 9.39697 6.98085 9.38971C6.98085 9.38391 7.00263 9.37084 7.02731 9.35923C7.13618 9.31423 7.17828 9.29245 7.1957 9.27503C7.20586 9.26487 7.23054 9.25616 7.24796 9.25616C7.26683 9.25616 7.29006 9.246 7.30022 9.23439C7.32054 9.21116 7.39748 9.16906 7.42216 9.16906C7.44248 9.16906 7.59636 9.08922 7.65007 9.05148C7.67185 9.03696 7.70378 9.02389 7.71975 9.02389C7.73717 9.02389 7.75024 9.01664 7.75024 9.00938C7.75024 9.00067 7.77201 8.99486 7.79959 8.99486C7.82572 8.99486 7.85621 8.9847 7.86637 8.97309C7.87653 8.96147 7.89395 8.95131 7.90411 8.95131C7.91573 8.95131 7.92444 8.94405 7.92444 8.93679C7.92444 8.92808 7.94621 8.92228 7.97379 8.92228C7.99992 8.92228 8.03041 8.91212 8.04057 8.9005C8.05073 8.88889 8.06815 8.87873 8.07831 8.87873C8.08993 8.87873 8.09864 8.87292 8.09864 8.86566C8.09864 8.8584 8.11315 8.84824 8.13202 8.84244C8.17122 8.83082 8.20025 8.81921 8.30332 8.7713C8.34832 8.75098 8.39478 8.73356 8.40784 8.73356C8.42091 8.73356 8.43542 8.7263 8.43978 8.71905C8.44413 8.71034 8.46446 8.70453 8.48478 8.70453C8.50365 8.70453 8.51962 8.69727 8.51962 8.69001C8.51962 8.6813 8.53414 8.6755 8.55301 8.6755C8.57043 8.6755 8.60382 8.66533 8.62704 8.65372C8.64882 8.64211 8.6764 8.63195 8.68656 8.63195C8.69527 8.63195 8.7156 8.61888 8.72866 8.60436C8.74318 8.5884 8.77366 8.57098 8.79689 8.56662C8.82012 8.56081 8.83899 8.5521 8.83899 8.54775C8.83899 8.52888 8.95512 8.48678 9.00593 8.48678C9.03787 8.48678 9.06109 8.47662 9.07416 8.4592C9.08867 8.43887 9.11916 8.42726 9.17432 8.42145C9.25562 8.41129 9.29917 8.39532 9.36304 8.35323C9.38336 8.34016 9.42836 8.32419 9.46175 8.31839C9.49514 8.31258 9.52563 8.30242 9.52998 8.29661C9.53434 8.28935 9.55321 8.28355 9.57353 8.28355C9.5924 8.28355 9.60837 8.27774 9.60837 8.27048C9.60837 8.26322 9.64176 8.25451 9.68241 8.25161C9.73902 8.2458 9.76515 8.23419 9.80289 8.1979C9.82757 8.17322 9.85515 8.1529 9.86241 8.1529C9.88128 8.1529 9.9858 8.04402 9.9858 8.02515C9.9858 8.01644 10.0047 8.00628 10.0294 8.00047C10.0526 7.99466 10.0758 7.9845 10.0802 7.97724C10.086 7.96999 10.1005 7.96418 10.115 7.96418C10.1295 7.96418 10.1527 7.95111 10.1673 7.93515C10.1818 7.91918 10.2036 7.90611 10.2166 7.90611C10.2297 7.90611 10.2573 7.89015 10.279 7.86982C10.2994 7.85095 10.3328 7.83063 10.3516 7.82627C10.3966 7.81466 10.5084 7.72611 10.5287 7.68401C10.5389 7.66659 10.5592 7.65062 10.5766 7.64772C10.5926 7.64481 10.6187 7.6303 10.6332 7.61433C10.6463 7.59981 10.6637 7.58675 10.671 7.58675C10.6782 7.58675 10.7102 7.56497 10.7407 7.53884C10.7929 7.49674 10.7987 7.48658 10.7987 7.42126C10.7987 7.35884 10.8045 7.34432 10.8481 7.30512C10.9236 7.2369 10.9831 7.1948 11.0049 7.1948C11.015 7.1948 11.0368 7.18464 11.0513 7.17302C11.0673 7.16141 11.0905 7.15125 11.105 7.15125C11.1181 7.15125 11.137 7.14109 11.1471 7.13092C11.1558 7.11931 11.195 7.09463 11.2313 7.07721C11.2691 7.05979 11.3141 7.03221 11.3315 7.0177C11.3475 7.00173 11.3896 6.98576 11.4215 6.9814C11.4549 6.97705 11.4854 6.96689 11.4897 6.96108C11.4941 6.95382 11.513 6.94802 11.5333 6.94802C11.5667 6.94802 11.6146 6.92769 11.6494 6.89721C11.6581 6.8885 11.6944 6.85946 11.7278 6.83188C11.8222 6.75494 11.8439 6.72881 11.8439 6.68817C11.8439 6.66204 11.8657 6.62865 11.9107 6.5851C11.9644 6.53284 11.9804 6.52413 12.0007 6.53574C12.0486 6.56623 12.037 6.60107 11.9543 6.67946C11.8715 6.75494 11.8585 6.79124 11.8875 6.8464C11.8991 6.86672 11.9267 6.87543 12.0123 6.88269C12.1169 6.89285 12.1227 6.8914 12.1619 6.85511C12.1836 6.83479 12.2083 6.81737 12.217 6.81737C12.2257 6.81737 12.2533 6.79414 12.278 6.76656C12.3027 6.73898 12.3273 6.71575 12.3346 6.71575C12.3419 6.71575 12.3564 6.70559 12.3665 6.69397C12.3782 6.68091 12.4086 6.6722 12.4464 6.6722C12.4812 6.6722 12.5117 6.66494 12.5146 6.65768C12.5175 6.64897 12.593 6.63881 12.6932 6.63446C12.789 6.6301 12.8732 6.61994 12.8819 6.61268C12.8891 6.60542 12.9225 6.59962 12.9559 6.59962C12.9908 6.59962 13.0227 6.59236 13.027 6.5851C13.0372 6.56768 13.3392 6.56478 13.3392 6.5822C13.3392 6.59381 13.3754 6.61413 13.5467 6.69397C13.6222 6.73027 13.6484 6.74914 13.7137 6.81446C13.7572 6.85801 13.7747 6.8885 13.7747 6.91898C13.7747 6.94221 13.7819 6.96544 13.7892 6.96979C13.7979 6.97415 13.8037 6.99011 13.8037 7.00463C13.8037 7.04092 13.8501 7.07867 13.8922 7.07867C13.9111 7.07867 13.943 7.0656 13.9634 7.04963C13.9837 7.03366 14.0142 7.0206 14.0316 7.0206C14.049 7.0206 14.065 7.01334 14.0679 7.00463C14.0708 6.99447 14.1216 6.98431 14.1855 6.97995C14.2479 6.97705 14.3016 6.96689 14.306 6.96108C14.3161 6.94366 14.4381 6.94511 14.4497 6.96253C14.4555 6.97124 14.5426 6.97705 14.6616 6.97705C14.8242 6.97705 14.8721 6.97269 14.8997 6.95382C14.92 6.94076 14.936 6.92334 14.936 6.91318C14.936 6.90447 14.9476 6.88995 14.9636 6.87979C14.9781 6.87108 14.9955 6.84495 14.9999 6.82462C15.0057 6.80285 15.0318 6.76075 15.0594 6.73172C15.087 6.70268 15.1102 6.66784 15.1102 6.65478C15.1102 6.64171 15.116 6.6272 15.1233 6.62284C15.1305 6.61849 15.1407 6.59671 15.1465 6.57494C15.1523 6.55171 15.1799 6.50381 15.2089 6.46606C15.2568 6.40219 15.2626 6.39929 15.28 6.42396C15.2946 6.44719 15.2946 6.4588 15.2771 6.49364C15.2655 6.51687 15.2423 6.54881 15.2263 6.56332C15.2104 6.57784 15.1973 6.60542 15.1973 6.62429C15.1973 6.64607 15.1886 6.65768 15.1726 6.65768C15.145 6.65768 15.1102 6.7172 15.1102 6.76075C15.1102 6.77527 15.1015 6.79269 15.0913 6.79849C15.0797 6.8043 15.0594 6.82898 15.0434 6.85366C15.0289 6.87688 15.0042 6.91027 14.9912 6.92479C14.9752 6.94221 14.965 6.97705 14.965 7.00899C14.965 7.05399 14.9723 7.06705 14.9984 7.07721C15.0158 7.08447 15.0463 7.1077 15.0652 7.12802C15.0855 7.14834 15.1087 7.16576 15.1174 7.16576C15.1276 7.16576 15.1465 7.17883 15.161 7.1948C15.1755 7.21077 15.1973 7.22383 15.2118 7.22383C15.2249 7.22383 15.2612 7.24996 15.2916 7.2819C15.3642 7.35593 15.4208 7.36029 15.4847 7.29641C15.5094 7.27319 15.5312 7.24561 15.5341 7.2369C15.537 7.22819 15.5675 7.19044 15.6009 7.15415C15.7765 6.95818 15.807 6.92189 15.807 6.90301C15.807 6.8914 15.8172 6.86963 15.8288 6.85511C15.8404 6.83914 15.8505 6.81011 15.8505 6.79124C15.8505 6.74188 15.9594 6.60252 16.0001 6.59962C16.0218 6.59962 16.0088 6.64897 15.9768 6.69252C15.958 6.7172 15.9318 6.7622 15.9188 6.79124C15.9043 6.82027 15.8868 6.8493 15.8796 6.85366C15.8709 6.85801 15.8651 6.87688 15.8651 6.8943C15.8651 6.91172 15.852 6.93495 15.836 6.94511C15.8201 6.95527 15.807 6.96979 15.807 6.9785C15.807 6.98866 15.7823 7.0235 15.7533 7.05689C15.6647 7.15705 15.6328 7.2006 15.6328 7.22528C15.6328 7.23835 15.6226 7.25722 15.611 7.26738C15.5994 7.27754 15.5892 7.29206 15.5892 7.29932C15.5892 7.30803 15.5747 7.33416 15.5573 7.35884C15.4891 7.45319 15.4658 7.54175 15.5021 7.56497C15.5108 7.56933 15.5167 7.60562 15.5167 7.64336C15.5167 7.7174 15.5573 7.78998 15.598 7.78998C15.611 7.78998 15.6183 7.80595 15.6183 7.83934C15.6183 7.90031 15.6662 7.96418 15.7141 7.96418C15.733 7.96418 15.7489 7.95692 15.7489 7.94966C15.7489 7.94095 15.7576 7.93515 15.7692 7.93515C15.7794 7.93515 15.7968 7.92499 15.807 7.91337C15.8172 7.90176 15.8404 7.8916 15.8593 7.8916C15.8767 7.8916 15.9013 7.87998 15.9115 7.86547C15.9217 7.8495 15.9376 7.83498 15.9478 7.83208C15.9565 7.82918 15.9972 7.79434 16.0378 7.75659C16.1089 7.68982 16.1133 7.68691 16.1438 7.70869C16.1844 7.73772 16.2715 7.73917 16.2715 7.71159C16.2715 7.68982 16.3412 7.61578 16.3601 7.61578C16.3673 7.61578 16.3731 7.6361 16.3731 7.66078C16.3731 7.69127 16.3615 7.71449 16.3354 7.73482C16.3078 7.75804 16.3006 7.77546 16.3035 7.8103C16.3078 7.85095 16.3136 7.85531 16.363 7.85966C16.392 7.86256 16.4167 7.85821 16.4167 7.8495C16.4167 7.84224 16.453 7.83063 16.4965 7.82627C16.5401 7.82047 16.5836 7.80595 16.5938 7.79434C16.604 7.78272 16.6243 7.76675 16.6417 7.7595C16.6577 7.75224 16.6809 7.74062 16.6925 7.73337C16.7041 7.72611 16.7535 7.70288 16.8014 7.68111C16.8493 7.66078 16.9015 7.6361 16.9175 7.62739C16.9959 7.58384 17.0206 7.57223 17.0453 7.57223C17.0685 7.57223 17.0946 7.56207 17.157 7.52723C17.1687 7.51997 17.2035 7.5011 17.234 7.48513C17.263 7.46916 17.2877 7.44594 17.2877 7.43577C17.2877 7.42416 17.3051 7.40529 17.3254 7.39077C17.3574 7.37045 17.369 7.369 17.398 7.38351C17.4169 7.39368 17.4532 7.39803 17.4808 7.39368C17.5069 7.38932 17.5388 7.39222 17.5504 7.39948C17.5664 7.4111 17.5635 7.41981 17.533 7.44594C17.4604 7.50691 17.4372 7.52433 17.3922 7.55191C17.3661 7.56642 17.3458 7.58384 17.3458 7.58965C17.3458 7.59546 17.337 7.60126 17.3254 7.60126C17.2964 7.60126 17.2833 7.65207 17.3022 7.68836C17.3153 7.71304 17.3327 7.7174 17.4183 7.7174C17.4735 7.7174 17.5229 7.71014 17.5272 7.70288C17.5316 7.69417 17.5577 7.68836 17.5853 7.68836C17.6114 7.68836 17.6361 7.68256 17.639 7.67385C17.6419 7.66659 17.6825 7.65643 17.7304 7.65062C17.8466 7.63756 17.9119 7.5911 17.9119 7.51997C17.9119 7.49239 17.9061 7.45755 17.8974 7.44158C17.8901 7.42561 17.8771 7.39948 17.8684 7.38351C17.8611 7.36755 17.8538 7.33706 17.8538 7.31383C17.8538 7.29206 17.8379 7.25141 17.819 7.22383C17.774 7.1556 17.7537 6.94802 17.7885 6.88414C17.8001 6.86237 17.8103 6.82317 17.8103 6.79704C17.8103 6.77236 17.8205 6.73898 17.8321 6.72446C17.8437 6.70849 17.8538 6.68381 17.8538 6.6693C17.8538 6.65478 17.8582 6.64317 17.8655 6.64317C17.8713 6.64317 17.8872 6.61849 17.9017 6.588C17.9467 6.49074 18.0092 6.41816 18.0861 6.3717C18.1108 6.35864 18.1297 6.34122 18.1297 6.33541C18.1297 6.32961 18.1398 6.3238 18.1514 6.3238C18.163 6.3238 18.1732 6.31799 18.1732 6.31073C18.1732 6.30348 18.1906 6.29477 18.2139 6.29041C18.2356 6.28606 18.2676 6.26864 18.2864 6.25122C18.3053 6.2338 18.346 6.21638 18.3779 6.21202C18.4098 6.20767 18.4389 6.19751 18.4432 6.1917C18.4476 6.18444 18.4679 6.17863 18.4897 6.17863C18.5187 6.17863 18.5506 6.19896 18.6014 6.25122C18.6581 6.30928 18.6827 6.3238 18.7205 6.3238C18.7582 6.3238 18.7727 6.31509 18.7858 6.28751C18.7945 6.26719 18.8076 6.25122 18.8148 6.25122C18.8207 6.25122 18.8265 6.24251 18.8265 6.23089C18.8265 6.21928 18.8569 6.18444 18.8961 6.15396C18.9339 6.12347 18.9745 6.08863 18.9861 6.07557C18.9978 6.0625 19.0326 6.04798 19.0616 6.04218C19.0921 6.03637 19.124 6.0204 19.1357 6.00443C19.1458 5.98992 19.172 5.9725 19.1937 5.96814C19.2155 5.96234 19.2373 5.95217 19.2416 5.94492C19.2547 5.92314 19.3316 5.9304 19.3752 5.95653C19.5 6.03347 19.5523 6.11331 19.5523 6.22509C19.5523 6.26283 19.5595 6.29477 19.5668 6.29477C19.5755 6.29477 19.5813 6.35283 19.5813 6.43993C19.5813 6.61558 19.6075 6.67946 19.6975 6.72156C19.7337 6.73898 19.7599 6.7622 19.7642 6.78398C19.77 6.80285 19.7788 6.81737 19.7846 6.81737C19.7904 6.81737 19.7991 6.83043 19.8034 6.8464C19.8121 6.87979 19.8833 6.88705 19.9123 6.85801C19.937 6.83333 19.9704 6.86817 19.9762 6.92334C19.9805 6.96544 19.9849 6.96979 20.0371 6.97415C20.0894 6.9785 20.117 6.97124 20.1939 6.93205C20.2084 6.92479 20.236 6.91898 20.2578 6.91898C20.2781 6.91898 20.3057 6.90882 20.3188 6.89576C20.3362 6.87688 20.358 6.87398 20.4146 6.88124C20.4552 6.88559 20.4901 6.89576 20.493 6.90447C20.4959 6.91172 20.5162 6.91898 20.5394 6.91898C20.567 6.91898 20.5873 6.9306 20.6033 6.95527C20.6193 6.97995 20.641 6.99157 20.6701 6.99157C20.6933 6.99157 20.7165 6.99737 20.7209 7.00608C20.7252 7.01334 20.747 7.0206 20.7673 7.0206C20.7891 7.0206 20.821 7.03366 20.837 7.04963C20.8617 7.07286 20.8965 7.08157 20.9764 7.08738C21.0461 7.09318 21.1099 7.1077 21.1578 7.13092C21.2435 7.17157 21.3538 7.17738 21.3814 7.14399C21.393 7.12947 21.4264 7.12222 21.4772 7.12222C21.5512 7.12222 21.557 7.11931 21.6006 7.05979C21.6267 7.02641 21.6717 6.98721 21.7008 6.97269C21.7675 6.94221 21.8938 6.93931 21.9185 6.96979C21.9287 6.9814 21.9461 6.99157 21.9563 6.99157C21.9679 6.99157 21.9766 6.99737 21.9766 7.00608C21.9766 7.01334 22.0027 7.0206 22.0361 7.0206C22.1043 7.0206 22.1624 6.9756 22.2103 6.88559C22.2263 6.85366 22.2582 6.81301 22.2814 6.79269C22.3061 6.77236 22.325 6.74769 22.325 6.73607C22.325 6.72446 22.3526 6.69688 22.3859 6.6722C22.4338 6.63736 22.46 6.62865 22.5224 6.62865C22.5877 6.62865 22.6037 6.63446 22.64 6.6722C22.6618 6.69543 22.6864 6.71575 22.6922 6.71575C22.6995 6.71575 22.7126 6.72446 22.7227 6.73317C22.7561 6.76946 22.8621 6.92334 22.8621 6.93931C22.8621 6.94802 22.8752 6.97124 22.8911 6.99157C22.9071 7.01189 22.9202 7.05108 22.9202 7.08157C22.9202 7.1106 22.9274 7.13963 22.9347 7.14399C22.9434 7.14834 22.9492 7.18464 22.9492 7.22383C22.9492 7.26303 22.9434 7.29932 22.9347 7.30367C22.9274 7.30803 22.9202 7.34722 22.9202 7.39077C22.9202 7.43432 22.9144 7.47352 22.9056 7.47787C22.8984 7.48223 22.8911 7.4982 22.8911 7.51271C22.8911 7.52723 22.881 7.54755 22.8694 7.55771C22.8577 7.56788 22.8476 7.58965 22.8476 7.60562C22.8476 7.6361 22.714 7.83208 22.6792 7.8524C22.669 7.85821 22.6458 7.89305 22.6269 7.92934C22.6095 7.96563 22.5834 8.00337 22.5703 8.01354C22.5572 8.02225 22.5413 8.05854 22.5355 8.09338C22.5239 8.16451 22.5137 8.17757 22.4455 8.21822C22.4193 8.23419 22.3976 8.25016 22.3976 8.25596C22.3976 8.26177 22.3801 8.27048 22.3584 8.27629C22.3351 8.28064 22.2945 8.30387 22.2655 8.3271C22.2364 8.35032 22.1958 8.37355 22.1755 8.3779C22.1305 8.38952 22.0274 8.52307 22.0129 8.58694C22.0013 8.6392 21.9461 8.68421 21.8721 8.69727C21.843 8.70308 21.8082 8.7205 21.7937 8.73501C21.7806 8.74953 21.7603 8.76259 21.7487 8.76259C21.7385 8.76259 21.7298 8.7684 21.7298 8.77566C21.7298 8.78292 21.7051 8.79163 21.6761 8.79743C21.6456 8.80179 21.5759 8.82937 21.5222 8.85695C21.467 8.88453 21.4075 8.90776 21.3872 8.90776C21.348 8.90776 21.3001 8.9455 21.274 8.99631C21.2653 9.01373 21.2449 9.03551 21.229 9.04422C21.213 9.05293 21.1724 9.08196 21.139 9.10664C21.1012 9.13712 21.062 9.15454 21.0359 9.15454C21.0112 9.15454 20.9473 9.17777 20.8936 9.20535C20.8399 9.23293 20.776 9.25616 20.7514 9.25616C20.7267 9.25616 20.6875 9.26632 20.6643 9.27794C20.6062 9.30842 20.3188 9.30842 20.2926 9.27794C20.2825 9.26632 20.2563 9.25616 20.236 9.25616C20.1939 9.25616 20.1388 9.2068 20.1039 9.13712C20.0865 9.10083 20.088 9.09212 20.1242 9.03841C20.1518 8.99776 20.162 8.96438 20.1591 8.93244C20.1518 8.86276 20.0996 8.86276 19.995 8.93244C19.9486 8.96292 19.8992 8.99486 19.8833 9.00357C19.8688 9.01228 19.8412 9.03406 19.8238 9.05148C19.8049 9.0689 19.7613 9.08632 19.7221 9.09067C19.6699 9.09793 19.6394 9.1139 19.5857 9.16325C19.5479 9.19809 19.5058 9.22713 19.4928 9.22713C19.4695 9.22713 19.4245 9.246 19.3157 9.30116C19.2837 9.31713 19.23 9.32874 19.1908 9.32874C19.1531 9.32874 19.1168 9.33455 19.1095 9.34181C19.1008 9.34907 19.0718 9.36068 19.0442 9.36794C18.9861 9.38246 18.9687 9.43036 19.0065 9.47246C19.0355 9.5044 19.0123 9.53198 18.9571 9.53198C18.931 9.53198 18.8976 9.5552 18.8482 9.60456C18.809 9.64375 18.7713 9.67714 18.764 9.67714C18.7568 9.67714 18.7277 9.69747 18.6987 9.72214C18.6697 9.74682 18.6247 9.77731 18.5985 9.78892C18.5361 9.81505 18.5434 9.84263 18.6145 9.84844C18.6726 9.85279 18.6871 9.84408 18.8613 9.6873C18.915 9.6394 18.9571 9.61472 18.9949 9.60891C19.0689 9.5973 19.1095 9.56972 19.1328 9.51456C19.1458 9.48117 19.1473 9.46375 19.1342 9.44343C19.1139 9.41149 19.1328 9.40423 19.2431 9.40423C19.2997 9.40278 19.3331 9.39407 19.3737 9.36649C19.4042 9.34616 19.4391 9.32874 19.4536 9.32874C19.4666 9.32874 19.4826 9.32149 19.487 9.31423C19.4913 9.30552 19.5058 9.29971 19.5189 9.29971C19.5305 9.29971 19.5784 9.27068 19.6234 9.23584C19.6815 9.19229 19.7279 9.17051 19.7729 9.16325C19.8107 9.15745 19.8484 9.14293 19.8586 9.13132C19.8789 9.10664 19.995 9.02389 20.0081 9.02389C20.0125 9.02389 20.0168 9.05583 20.0168 9.09357C20.0168 9.13277 20.027 9.18503 20.0386 9.20826C20.0647 9.25906 20.1605 9.32874 20.2084 9.32874C20.2273 9.32874 20.2549 9.33891 20.2694 9.35052C20.2854 9.36213 20.313 9.37229 20.3304 9.37229C20.3493 9.37229 20.3681 9.3781 20.3725 9.38681C20.3768 9.39407 20.4001 9.40133 20.4233 9.40133C20.4465 9.40133 20.4697 9.39407 20.4741 9.38681C20.4785 9.3781 20.5206 9.37229 20.567 9.37229C20.6149 9.37229 20.6715 9.36213 20.6933 9.35052C20.7165 9.33891 20.7557 9.32874 20.7804 9.32874C20.8283 9.32874 20.8936 9.30407 20.9677 9.25616C20.9923 9.24164 21.0359 9.22858 21.0649 9.22858C21.0998 9.22713 21.1244 9.21842 21.1375 9.19955C21.1477 9.18503 21.1724 9.16761 21.1927 9.1618C21.258 9.14148 21.3378 9.07761 21.3611 9.0297C21.3799 8.99196 21.393 8.98034 21.4249 8.98034C21.4467 8.98034 21.5077 8.95712 21.5614 8.92954C21.6151 8.90195 21.6688 8.87873 21.6804 8.87873C21.692 8.87873 21.7008 8.87147 21.7008 8.86421C21.7008 8.8555 21.7109 8.84969 21.7254 8.84969C21.7458 8.84969 21.7777 8.83663 21.9475 8.75679C21.9751 8.74372 22.01 8.72485 22.023 8.71614C22.0419 8.70163 22.0535 8.70308 22.0767 8.72485C22.1159 8.75969 22.158 8.74953 22.158 8.70453C22.158 8.67695 22.1493 8.66679 22.1203 8.66388C22.0884 8.65953 22.084 8.65372 22.0898 8.62033C22.0942 8.59856 22.1087 8.57243 22.1246 8.56227C22.1392 8.5521 22.1508 8.53468 22.1508 8.52307C22.1508 8.50275 22.2364 8.42871 22.2597 8.42871C22.2727 8.42871 22.5021 8.285 22.5137 8.26903C22.518 8.26322 22.5326 8.25596 22.5471 8.25016C22.5601 8.24435 22.5761 8.22112 22.5805 8.19645C22.5863 8.17177 22.5964 8.14854 22.6022 8.14419C22.6095 8.13983 22.6153 8.12531 22.6153 8.1108C22.6153 8.09628 22.6313 8.07015 22.6501 8.05128C22.6705 8.03386 22.6995 7.99031 22.7155 7.95692C22.7314 7.92353 22.7547 7.8916 22.7663 7.88724C22.7793 7.88144 22.7895 7.86837 22.7895 7.85821C22.7895 7.8466 22.804 7.82627 22.82 7.8103C22.8374 7.79579 22.8563 7.76966 22.8635 7.75369C22.8708 7.73772 22.8824 7.71449 22.8897 7.70288C22.8969 7.69127 22.9245 7.6361 22.9506 7.58094L22.9985 7.48078L23 7.22673C23 6.99011 22.9985 6.97269 22.971 6.95092C22.955 6.9364 22.9289 6.90301 22.9144 6.87543C22.8635 6.77382 22.849 6.75494 22.7721 6.67655C22.6705 6.57203 22.6356 6.55607 22.521 6.55607C22.3874 6.55607 22.3192 6.59091 22.2451 6.69397C22.2132 6.73898 22.1726 6.79269 22.1537 6.81446C22.1363 6.83624 22.1174 6.86527 22.113 6.87834C22.1087 6.89285 22.0956 6.90447 22.084 6.90447C22.0724 6.90447 22.0593 6.91463 22.055 6.92624C22.0448 6.95237 22.0288 6.95382 22.0027 6.92914C21.9679 6.89721 21.92 6.87543 21.8851 6.87543C21.8662 6.87543 21.8445 6.86817 21.8343 6.85801C21.8212 6.84495 21.8125 6.84495 21.7995 6.85801C21.7893 6.86817 21.7574 6.87543 21.7283 6.87543C21.6979 6.87543 21.6688 6.88269 21.6645 6.88995C21.6587 6.89866 21.6296 6.92189 21.5977 6.94221C21.5658 6.96253 21.5338 6.99447 21.5266 7.01334C21.5149 7.04528 21.5033 7.04963 21.4453 7.04963C21.4017 7.04963 21.364 7.05979 21.3378 7.07867C21.303 7.10334 21.2914 7.1048 21.2595 7.09173C21.2391 7.08157 21.2217 7.0685 21.2217 7.06125C21.2217 7.05544 21.2072 7.04963 21.1883 7.04963C21.1694 7.04963 21.1477 7.04237 21.139 7.03366C21.1288 7.0235 21.0736 7.01479 21.017 7.01189C20.9314 7.00899 20.9067 7.00318 20.8893 6.97995C20.8719 6.95963 20.8399 6.94802 20.7746 6.94076C20.6962 6.93205 20.6788 6.92479 20.6527 6.8885C20.6294 6.85801 20.6091 6.8464 20.5772 6.8464C20.5525 6.8464 20.5133 6.83624 20.4901 6.82462C20.4378 6.79704 20.3231 6.79704 20.2868 6.82462C20.2709 6.83624 20.2375 6.8464 20.2143 6.8464C20.1896 6.8464 20.1533 6.85946 20.133 6.87543C20.0792 6.91753 20.0459 6.91318 20.0459 6.86382C20.0459 6.82172 20.0255 6.79849 19.9602 6.7622C19.9355 6.74769 19.9225 6.74623 19.9109 6.75785C19.8847 6.78398 19.8426 6.77672 19.8426 6.74769C19.8426 6.7143 19.8034 6.67801 19.7555 6.66494C19.7352 6.66059 19.7018 6.63155 19.68 6.60107C19.6408 6.5459 19.6394 6.53865 19.6379 6.33686C19.6365 6.1046 19.6249 6.06105 19.5421 5.9783C19.516 5.95363 19.4913 5.93185 19.487 5.93185C19.4826 5.93185 19.4536 5.91588 19.4216 5.89556C19.3578 5.85491 19.2489 5.84765 19.1966 5.87814Z" fill="currentColor"/>
<path d="M14.7807 6.75351C14.7691 6.784 14.7996 6.81448 14.8213 6.79271C14.8402 6.77383 14.8286 6.73029 14.8054 6.73029C14.7967 6.73029 14.7865 6.74045 14.7807 6.75351Z" fill="currentColor"/>
<path d="M21.348 9.09073C21.3422 9.09653 21.3379 9.11686 21.3379 9.13573C21.3379 9.16041 21.3466 9.16912 21.3683 9.16912C21.3916 9.16912 21.3974 9.16186 21.393 9.12992C21.3887 9.09218 21.3669 9.07331 21.348 9.09073Z" fill="currentColor"/>
<path d="M1.50228 13.8565C1.49066 13.8754 1.53131 13.948 1.58067 13.9959C1.62712 14.0409 1.63583 14.0728 1.6068 14.1019C1.59373 14.1149 1.59373 14.1236 1.6068 14.1367C1.61696 14.1469 1.62422 14.1919 1.62422 14.2369C1.62422 14.3182 1.62277 14.3225 1.56325 14.3704C1.52841 14.3966 1.4776 14.4299 1.45002 14.443C1.42244 14.4561 1.37308 14.4924 1.34114 14.5243C1.31066 14.5577 1.27582 14.5838 1.26711 14.5838C1.21485 14.5838 1.17856 14.742 1.22065 14.7841C1.24678 14.8103 1.3005 14.8059 1.32227 14.7754C1.33969 14.7522 1.37598 14.7304 1.48195 14.6753C1.50373 14.6637 1.5255 14.6491 1.52986 14.6404C1.55018 14.6085 1.56615 14.6317 1.56615 14.6912C1.56615 14.7275 1.57341 14.7609 1.58067 14.7653C1.58938 14.7696 1.59518 14.8146 1.59518 14.8654C1.59518 14.9148 1.60099 14.9612 1.60825 14.97C1.63148 14.9961 1.63728 15.089 1.61696 15.1166C1.57631 15.1688 1.59954 15.2371 1.65761 15.2371C1.67212 15.2371 1.70551 15.2588 1.73019 15.285C1.75632 15.3111 1.79551 15.3459 1.82019 15.3634L1.86374 15.3938L1.8289 15.4316C1.80858 15.4519 1.78535 15.4693 1.77664 15.4693C1.76793 15.4693 1.74471 15.4853 1.72583 15.5056C1.70696 15.5259 1.68519 15.5419 1.67793 15.5419C1.67067 15.5419 1.63148 15.5782 1.58938 15.6218C1.54873 15.6653 1.50808 15.7016 1.50083 15.7016C1.49212 15.7016 1.45002 15.7379 1.40647 15.7814C1.36292 15.825 1.31937 15.8613 1.31066 15.8613C1.3005 15.8613 1.27291 15.886 1.24824 15.915C1.19598 15.9803 1.1771 15.9992 1.07694 16.0877C1.01742 16.14 1 16.1647 1 16.1981C1 16.2445 1.01597 16.2648 1.07694 16.2953C1.10742 16.3113 1.12049 16.3127 1.13355 16.2997C1.14372 16.2895 1.16259 16.2823 1.17565 16.2823C1.20033 16.2823 1.28888 16.1923 1.31937 16.1385C1.32808 16.1211 1.34114 16.1081 1.3484 16.1081C1.35711 16.1081 1.3905 16.0819 1.42244 16.05C1.45582 16.0181 1.49066 15.9919 1.49937 15.9919C1.50954 15.9919 1.53857 15.9687 1.56615 15.9411C1.59373 15.9135 1.62422 15.8903 1.63293 15.8903C1.64309 15.8903 1.66051 15.8787 1.67067 15.8642C1.68083 15.8511 1.70551 15.8279 1.72583 15.8148C1.74616 15.8018 1.7868 15.7684 1.81874 15.7393C1.84923 15.7103 1.88116 15.6871 1.88697 15.6871C1.89423 15.6871 1.90874 15.6711 1.91745 15.6508C1.92616 15.6305 1.94068 15.6145 1.94939 15.6145C1.95665 15.6145 1.98568 15.5942 2.01181 15.568C2.05681 15.5245 2.06117 15.523 2.08585 15.5463C2.10036 15.5593 2.1352 15.5738 2.16279 15.5797C2.19037 15.584 2.22811 15.5942 2.24843 15.6029C2.26876 15.6116 2.29779 15.6232 2.31376 15.6305C2.32973 15.6363 2.40667 15.645 2.48651 15.6508C2.5649 15.6566 2.64184 15.6682 2.65635 15.6769C2.67668 15.69 2.6941 15.6885 2.73184 15.6755C2.80152 15.6508 2.88717 15.6522 2.88717 15.6798C2.88717 15.6914 2.87846 15.7016 2.86975 15.7016C2.84652 15.703 2.72748 15.809 2.72748 15.8279C2.72748 15.8351 2.71152 15.8497 2.69119 15.8584C2.67087 15.8671 2.6549 15.8816 2.6549 15.8889C2.6549 15.9063 2.48941 16.0355 2.46909 16.0355C2.46038 16.0355 2.43715 16.0544 2.41828 16.079C2.39796 16.1023 2.37328 16.1226 2.36602 16.1226C2.35731 16.1226 2.27602 16.1937 2.18601 16.2808C2.09746 16.3679 1.98423 16.4753 1.93633 16.5189C1.88842 16.5639 1.81729 16.6292 1.77809 16.6655C1.74035 16.7018 1.70116 16.7323 1.69099 16.7323C1.68228 16.7323 1.65035 16.7526 1.61986 16.7773C1.55018 16.8353 1.54438 16.9094 1.6068 16.9689C1.6547 17.0154 1.6997 17.0183 1.75196 16.982C1.77374 16.9674 1.80277 16.95 1.81729 16.9457C1.83035 16.9399 1.84197 16.9283 1.84197 16.9166C1.84197 16.9065 1.86229 16.8789 1.88552 16.8557C1.9102 16.8324 1.92907 16.8063 1.92907 16.7976C1.92907 16.7889 1.94358 16.7729 1.961 16.7613C2.00746 16.7294 2.12069 16.6292 2.15117 16.59C2.16569 16.5726 2.18601 16.5581 2.19617 16.5581C2.20634 16.5581 2.22956 16.5407 2.24989 16.5203C2.3036 16.4637 2.41683 16.3839 2.44441 16.3839C2.45747 16.3839 2.47199 16.3723 2.47489 16.3577C2.48215 16.3345 2.51699 16.3084 2.60409 16.2576C2.62151 16.2474 2.66942 16.2039 2.71152 16.1589C2.75361 16.1153 2.79281 16.079 2.79862 16.079C2.80587 16.079 2.82039 16.0689 2.83055 16.0544C2.84217 16.0413 2.8683 16.0195 2.89152 16.0064C2.9133 15.9934 2.95975 15.9542 2.99459 15.9222C3.03088 15.8889 3.06282 15.8613 3.06863 15.8613C3.07298 15.8613 3.10201 15.8453 3.13395 15.825C3.19057 15.7887 3.27041 15.7771 3.28492 15.8018C3.28928 15.809 3.32847 15.8192 3.37348 15.825C3.41703 15.8293 3.45622 15.841 3.46058 15.8482C3.4809 15.8787 3.54913 15.8598 3.59413 15.8119C3.63332 15.7713 3.65365 15.7626 3.73204 15.7539L3.82204 15.7451L3.93237 15.8511C3.99189 15.9092 4.05866 15.9658 4.07899 15.976C4.11528 15.9934 4.11818 16.0021 4.12399 16.124C4.12689 16.1966 4.13705 16.2605 4.14721 16.2706C4.15738 16.2808 4.16463 16.3244 4.16463 16.3679C4.16463 16.4231 4.17334 16.4637 4.19367 16.4971C4.20964 16.5232 4.2227 16.5523 4.2227 16.561C4.2227 16.5842 4.3069 16.7178 4.35625 16.77C4.3998 16.8165 4.44916 16.8949 4.46368 16.9399C4.46948 16.9529 4.49561 16.9747 4.52174 16.9878C4.5711 17.011 4.58997 17.0516 4.55223 17.0516C4.5261 17.0516 4.49416 17.0894 4.45497 17.1634C4.43755 17.1983 4.41432 17.2258 4.40416 17.2258C4.394 17.2258 4.35771 17.2592 4.32287 17.2984C4.28803 17.3391 4.22851 17.4058 4.19077 17.4494C4.15157 17.4915 4.12108 17.5365 4.12108 17.5496C4.12108 17.5626 4.11528 17.5771 4.10657 17.5815C4.09931 17.5859 4.09205 17.6192 4.09205 17.6555C4.09205 17.6904 4.08479 17.7325 4.07463 17.747C4.06157 17.7688 4.06447 17.7818 4.0906 17.8196C4.10802 17.8443 4.12979 17.8646 4.13705 17.8646C4.14431 17.8646 4.15012 17.8747 4.15012 17.8878C4.15012 17.8994 4.1748 17.9197 4.20528 17.9328C4.23431 17.9444 4.28657 17.9676 4.31996 17.9822C4.35335 17.9967 4.40126 18.0097 4.42593 18.0097C4.45497 18.0097 4.47384 18.0185 4.47965 18.0344C4.484 18.0489 4.50433 18.078 4.52465 18.0997L4.56239 18.1404H4.77434C4.89047 18.1404 4.99209 18.1346 5.0008 18.1259C5.00805 18.1186 5.05306 18.1085 5.10096 18.1041C5.18806 18.0939 5.21709 18.0852 5.31145 18.0388C5.33903 18.0243 5.3942 18.0097 5.43194 18.0039C5.47114 17.9996 5.52049 17.9836 5.54082 17.9676C5.56549 17.9517 5.6163 17.9386 5.67872 17.9328C5.73389 17.9299 5.78615 17.9183 5.79486 17.9096C5.80357 17.9009 5.82099 17.8936 5.83405 17.8936C5.86454 17.8936 5.9618 17.8428 5.99374 17.8109C6.00825 17.7963 6.0518 17.7615 6.09245 17.7339C6.17084 17.6788 6.21439 17.6192 6.226 17.5525C6.23036 17.522 6.24197 17.5075 6.2652 17.5046C6.30294 17.4988 6.36101 17.4436 6.39149 17.3812C6.40456 17.355 6.42053 17.3246 6.42778 17.3129C6.46553 17.2418 6.47279 17.2215 6.47279 17.1692C6.47279 17.1358 6.46117 17.0995 6.44375 17.0763C6.42778 17.056 6.41472 17.0299 6.41472 17.0183C6.41472 17.0066 6.40456 16.9892 6.39294 16.9791C6.38133 16.9689 6.37117 16.9529 6.37117 16.9428C6.37117 16.9181 6.32326 16.8774 6.29423 16.8774C6.27971 16.8774 6.25794 16.8716 6.24342 16.8644C6.23036 16.8557 6.20278 16.847 6.18245 16.8426C6.12439 16.8281 6.08664 16.7932 6.10697 16.7729C6.11713 16.7628 6.12439 16.7381 6.12439 16.7178C6.12439 16.6974 6.1331 16.6713 6.14181 16.6626C6.15342 16.651 6.15923 16.6031 6.15923 16.5363C6.15923 16.4768 6.16358 16.4274 6.17084 16.4274C6.17665 16.4274 6.18245 16.4332 6.18245 16.4419C6.18245 16.4492 6.21149 16.4565 6.24778 16.4565C6.28407 16.4565 6.3131 16.4492 6.3131 16.4419C6.3131 16.4173 6.35085 16.426 6.37843 16.4565C6.43214 16.516 6.59327 16.4782 6.69925 16.3824C6.71521 16.3665 6.73699 16.3548 6.7457 16.3548C6.75586 16.3548 6.76312 16.349 6.76312 16.3418C6.76312 16.3345 6.78054 16.3244 6.80377 16.3186C6.85022 16.3069 6.9199 16.2445 6.93877 16.1981C6.94748 16.1734 6.962 16.1661 7.00119 16.1661C7.03313 16.1661 7.05926 16.156 7.07087 16.14C7.08103 16.1269 7.11007 16.1052 7.13329 16.0935C7.15797 16.0819 7.19717 16.0587 7.22039 16.0398C7.24507 16.0224 7.28136 16.005 7.30314 15.9992C7.32491 15.9934 7.37572 15.9556 7.41637 15.9164L7.48895 15.8424V15.6798C7.48895 15.5506 7.4846 15.5129 7.46718 15.4984C7.43524 15.4708 7.46427 15.4563 7.53105 15.465C7.56879 15.4708 7.59057 15.465 7.60364 15.4505C7.6138 15.4374 7.6588 15.42 7.7038 15.4098C7.7488 15.3997 7.79235 15.3866 7.80106 15.3793C7.80832 15.3735 7.84751 15.3677 7.88816 15.3677C7.92881 15.3677 7.97236 15.3576 7.98833 15.3459C8.00575 15.3329 8.0493 15.3242 8.0972 15.3242C8.15527 15.3242 8.18866 15.3155 8.21479 15.2951C8.23801 15.2763 8.27431 15.2661 8.3164 15.2661C8.35415 15.2661 8.39044 15.2588 8.39915 15.2501C8.40641 15.2429 8.45141 15.2313 8.49641 15.2269C8.54141 15.2225 8.58206 15.2124 8.58641 15.2066C8.59077 15.1993 8.6198 15.1935 8.65029 15.1935C8.68077 15.1935 8.70981 15.1877 8.71561 15.1804C8.71997 15.1732 8.75916 15.1616 8.80271 15.1572C8.84771 15.1514 8.88691 15.1413 8.89126 15.134C8.89562 15.1267 8.91739 15.1209 8.93917 15.1209C8.96094 15.1209 8.98562 15.1137 8.99433 15.105C9.00304 15.0963 9.04659 15.0846 9.09305 15.0788C9.18015 15.0672 9.23676 15.0817 9.2745 15.1282C9.28467 15.1398 9.30789 15.15 9.32531 15.15C9.34273 15.15 9.36596 15.1601 9.37612 15.1717C9.38628 15.1834 9.40515 15.1935 9.41967 15.1935C9.43274 15.1935 9.47483 15.2095 9.51258 15.2298C9.55177 15.2501 9.60548 15.2661 9.63742 15.2661C9.66791 15.2661 9.69839 15.2719 9.70275 15.2806C9.7071 15.2893 9.77823 15.2951 9.86243 15.2951C9.94663 15.2951 10.0178 15.3009 10.0221 15.3096C10.0265 15.3169 10.0497 15.3242 10.0729 15.3242C10.0961 15.3242 10.1194 15.3169 10.1237 15.3096C10.1281 15.3009 10.1542 15.2951 10.1803 15.2951C10.2065 15.2951 10.2558 15.2806 10.2921 15.2617C10.3502 15.2327 10.3734 15.2298 10.5462 15.2342L10.7378 15.2385L10.7741 15.1935C10.7944 15.1703 10.8191 15.15 10.8263 15.15C10.835 15.15 10.8554 15.1413 10.8713 15.1325C10.8946 15.118 10.9062 15.118 10.9294 15.1325C10.9454 15.1413 10.9686 15.15 10.9802 15.15C10.9918 15.15 11.002 15.1558 11.002 15.163C11.002 15.2066 11.2314 15.2472 11.256 15.208C11.2691 15.1877 11.3359 15.1906 11.3359 15.2109C11.3344 15.2501 11.2967 15.2763 11.2299 15.2864C11.1849 15.2937 11.1544 15.3067 11.1428 15.3256C11.1341 15.3401 11.1181 15.3532 11.1109 15.3532C11.0862 15.3532 11.002 15.4461 11.002 15.4722C11.002 15.4853 10.957 15.5405 10.9004 15.5942C10.8452 15.6493 10.7988 15.6987 10.7988 15.706C10.7988 15.7118 10.7828 15.7393 10.7625 15.7655C10.7305 15.8076 10.7262 15.8279 10.7262 15.9252C10.7262 16.0137 10.732 16.0471 10.7538 16.0776C10.7697 16.0994 10.7871 16.1342 10.7915 16.156C10.7973 16.1777 10.8307 16.2271 10.8641 16.2648C10.9178 16.3244 10.9236 16.3374 10.9033 16.349C10.8902 16.3577 10.8844 16.3737 10.8902 16.3882C10.9033 16.4216 10.9309 16.4187 10.9396 16.3839C10.9483 16.3519 10.9976 16.3447 11.0426 16.3679C11.1181 16.4086 11.1762 16.426 11.2284 16.4231C11.2691 16.4216 11.301 16.4318 11.3373 16.4565C11.3838 16.4898 11.3983 16.4928 11.571 16.4928C11.6988 16.4928 11.7612 16.4869 11.7743 16.4739C11.783 16.4652 11.8193 16.4565 11.8527 16.4565C11.8861 16.4565 11.9325 16.4463 11.9543 16.4347C11.9775 16.4231 12.0138 16.4129 12.0356 16.4129C12.0573 16.4129 12.098 16.3998 12.127 16.3839C12.1561 16.3679 12.1836 16.3548 12.1909 16.3548C12.1967 16.3548 12.2606 16.3157 12.3346 16.2677C12.4072 16.2198 12.4711 16.1806 12.4783 16.1806C12.4856 16.1806 12.5016 16.169 12.5132 16.1545C12.5466 16.1182 12.5974 16.079 12.6104 16.079C12.6177 16.079 12.6409 16.0587 12.6641 16.0355C12.6874 16.0108 12.7135 15.9919 12.7208 15.9919C12.7295 15.9919 12.7658 15.9687 12.8006 15.9411C12.8354 15.9135 12.8732 15.8903 12.8833 15.8903C12.9196 15.8903 13.0735 15.7829 13.104 15.735C13.1272 15.7001 13.1359 15.6653 13.1359 15.6014C13.1359 15.5216 13.1577 15.4693 13.1926 15.4693C13.2056 15.4693 13.3827 15.2937 13.4205 15.2429C13.4379 15.2196 13.4568 15.1848 13.4626 15.1659C13.4684 15.1471 13.4916 15.0992 13.5148 15.06C13.5381 15.0208 13.5569 14.9859 13.5569 14.9816C13.5569 14.9772 13.5656 14.9525 13.5772 14.9279C13.6063 14.8625 13.6164 14.8219 13.631 14.7217C13.6643 14.4822 13.6731 14.3617 13.6643 14.2354C13.6571 14.1164 13.6498 14.0902 13.6135 14.0365C13.5903 14.0031 13.5714 13.9698 13.5714 13.964C13.5714 13.9393 13.4771 13.8594 13.4379 13.8507C13.3668 13.8333 13.374 13.8769 13.4539 13.9567C13.4945 13.9973 13.5279 14.0423 13.5279 14.0554C13.5279 14.0699 13.5424 14.0961 13.5598 14.1149C13.5903 14.1483 13.5918 14.1614 13.5903 14.369C13.5889 14.5025 13.5816 14.594 13.5729 14.6027C13.5642 14.6114 13.5569 14.6491 13.5569 14.6869C13.5569 14.7246 13.5511 14.7595 13.5439 14.7638C13.5381 14.7682 13.5279 14.8059 13.5235 14.8466C13.5177 14.8887 13.509 14.9264 13.5032 14.9308C13.4916 14.9395 13.4669 14.9787 13.4277 15.0556C13.4147 15.0788 13.4016 15.1021 13.3972 15.1064C13.3929 15.1108 13.3798 15.1325 13.3682 15.1572C13.3566 15.1804 13.329 15.2225 13.3072 15.2487C13.284 15.2748 13.2666 15.3024 13.2666 15.3096C13.2666 15.3184 13.2579 15.3242 13.2477 15.3242C13.2376 15.3242 13.2042 15.3488 13.1722 15.3793C13.1403 15.4098 13.1026 15.4388 13.0895 15.4447C13.0677 15.4519 13.0634 15.4722 13.0634 15.5608V15.6682L12.998 15.7292C12.9632 15.7611 12.924 15.7887 12.9109 15.7887C12.879 15.7887 12.8325 15.8163 12.7498 15.8831C12.7237 15.9034 12.6961 15.9193 12.6874 15.9193C12.6787 15.9193 12.6714 15.9237 12.6714 15.9295C12.6714 15.9368 12.6366 15.9643 12.5945 15.9919C12.5538 16.0195 12.5016 16.0573 12.4798 16.0761C12.4377 16.1139 12.3883 16.1458 12.3477 16.1603C12.3346 16.1647 12.323 16.1748 12.323 16.1806C12.323 16.1865 12.3114 16.1952 12.2983 16.201C12.2838 16.2053 12.2533 16.2227 12.2286 16.2387C12.2054 16.2547 12.1749 16.2706 12.1633 16.2765C12.1517 16.2808 12.1169 16.2968 12.0864 16.3127C12.0544 16.3273 12.0109 16.3403 11.9891 16.3403C11.9659 16.3403 11.9456 16.3476 11.9427 16.3577C11.9398 16.3665 11.8962 16.3766 11.8425 16.381C11.7917 16.3839 11.7438 16.3926 11.7365 16.3998C11.7278 16.4071 11.7046 16.4129 11.6828 16.4129C11.661 16.4129 11.6378 16.4187 11.6335 16.4274C11.6218 16.4448 11.5188 16.4463 11.4839 16.4289C11.4709 16.4216 11.4404 16.4086 11.4157 16.3984C11.3925 16.3882 11.3533 16.3723 11.3286 16.3607C11.3054 16.349 11.2589 16.3418 11.227 16.3418C11.1951 16.3432 11.1559 16.3374 11.1399 16.3302C11.0862 16.3011 11.0383 16.2837 10.9918 16.275C10.9657 16.2692 10.9439 16.2576 10.9439 16.2489C10.9439 16.2387 10.9294 16.2155 10.9105 16.1952C10.8931 16.1748 10.8684 16.1298 10.8568 16.095C10.8452 16.0602 10.8278 16.0297 10.8176 16.0253C10.7959 16.0166 10.79 15.8322 10.8133 15.8322C10.8205 15.8322 10.8365 15.8148 10.8481 15.7916C10.8597 15.7698 10.9033 15.7176 10.9454 15.6755C11.0151 15.6058 11.0426 15.5709 11.0688 15.5129C11.1036 15.4388 11.2038 15.3677 11.272 15.3677C11.288 15.3677 11.3141 15.3532 11.3301 15.3372C11.3446 15.3198 11.3722 15.3009 11.391 15.2937C11.4157 15.2835 11.423 15.2705 11.423 15.2255C11.423 15.1209 11.3315 15.0745 11.2284 15.1282C11.2067 15.1398 11.1762 15.15 11.1617 15.15C11.1312 15.15 11.0455 15.105 11.0455 15.0875C11.0455 15.0817 11.0368 15.0774 11.0281 15.0774C11.018 15.0774 10.9933 15.0643 10.973 15.0483C10.9265 15.0121 10.883 15.0121 10.8496 15.0483C10.835 15.0643 10.806 15.0774 10.7828 15.0774C10.7538 15.0774 10.7363 15.0904 10.7131 15.1282C10.6884 15.1703 10.6754 15.179 10.6333 15.179C10.6057 15.179 10.5781 15.1717 10.5737 15.1645C10.5621 15.1456 10.3531 15.1456 10.3429 15.163C10.3371 15.1703 10.3066 15.1804 10.2718 15.1863C10.2384 15.1921 10.2021 15.2037 10.1934 15.2109C10.1716 15.2284 9.76952 15.2269 9.74775 15.2095C9.73904 15.2022 9.69113 15.1935 9.64178 15.1892C9.5779 15.1848 9.54306 15.1732 9.51984 15.1514C9.50096 15.134 9.47629 15.1209 9.46177 15.1209C9.4487 15.1209 9.42983 15.1108 9.41967 15.0992C9.40951 15.0875 9.39354 15.0774 9.38193 15.0774C9.37177 15.0774 9.33402 15.0614 9.29773 15.0411C9.24402 15.0106 9.21353 15.0048 9.11918 15.0048C9.04659 15.0048 8.99143 15.0135 8.96385 15.0266C8.94207 15.0382 8.90433 15.0483 8.8811 15.0483C8.85933 15.0483 8.8361 15.0542 8.83175 15.0629C8.82739 15.0701 8.80707 15.0774 8.78674 15.0774C8.76787 15.0774 8.7519 15.0832 8.7519 15.0904C8.7519 15.0977 8.70545 15.1079 8.65029 15.1137C8.59367 15.1195 8.54432 15.1296 8.53996 15.1369C8.53561 15.1442 8.51093 15.15 8.4848 15.15C8.45722 15.15 8.41657 15.1601 8.39479 15.1717C8.37157 15.1834 8.31931 15.1935 8.27866 15.1935C8.2264 15.1935 8.19737 15.2008 8.17414 15.2225C8.15091 15.2443 8.12333 15.2516 8.06527 15.2516C8.02317 15.2516 7.98107 15.2588 7.97236 15.2675C7.96365 15.2763 7.9172 15.2864 7.86784 15.2908C7.81848 15.2951 7.77493 15.3053 7.77058 15.3111C7.76622 15.3184 7.74445 15.3242 7.72122 15.3242C7.69799 15.3242 7.67477 15.33 7.67041 15.3387C7.66606 15.3459 7.64718 15.3532 7.63122 15.3532C7.6138 15.3532 7.58767 15.3648 7.57315 15.3779C7.55283 15.3967 7.54267 15.3982 7.5296 15.3851C7.50637 15.3619 7.45847 15.3634 7.40476 15.3909C7.36556 15.4098 7.3583 15.4214 7.3583 15.4679C7.3583 15.5042 7.36846 15.5318 7.38734 15.5492C7.41056 15.5709 7.41637 15.5942 7.41637 15.6726C7.41637 15.7292 7.40766 15.7872 7.39459 15.8119C7.37282 15.8584 7.30895 15.9193 7.28572 15.9193C7.27701 15.9193 7.25959 15.9252 7.24507 15.9339C7.23201 15.9411 7.20297 15.9542 7.1812 15.9629C7.15797 15.9702 7.14055 15.9861 7.14055 15.9977C7.14055 16.0079 7.12313 16.0224 7.10136 16.0282C7.07958 16.0326 7.04474 16.05 7.02297 16.066C7.00119 16.0805 6.9678 16.0935 6.94893 16.0935C6.90829 16.0935 6.86474 16.1342 6.86474 16.1719C6.86474 16.185 6.85022 16.201 6.83135 16.2082C6.81248 16.2155 6.78925 16.2315 6.77909 16.2445C6.76893 16.2576 6.7486 16.2677 6.73409 16.2677C6.71957 16.2677 6.7007 16.2779 6.69054 16.2895C6.68037 16.3011 6.66441 16.3113 6.6557 16.3113C6.64553 16.3113 6.62376 16.3273 6.60634 16.3476C6.58892 16.3679 6.56134 16.3839 6.54682 16.3839C6.53085 16.3839 6.51343 16.3897 6.50908 16.3984C6.49601 16.4202 6.44956 16.4158 6.43069 16.3926C6.41762 16.3766 6.37117 16.3723 6.24778 16.3723L6.08084 16.3708V16.4855C6.08084 16.5479 6.07503 16.6045 6.06632 16.6089C6.05906 16.6132 6.0518 16.6365 6.0518 16.6582C6.0518 16.68 6.04164 16.7105 6.03003 16.7265C6.01841 16.741 6.0097 16.7729 6.00825 16.7976C6.00825 16.831 6.01987 16.8484 6.05906 16.8745C6.08809 16.892 6.13019 16.9108 6.15487 16.9166C6.1781 16.921 6.20132 16.9312 6.20568 16.937C6.21003 16.9442 6.22745 16.95 6.24487 16.95C6.27826 16.95 6.35665 17.0444 6.35665 17.0836C6.35665 17.0952 6.36681 17.117 6.37843 17.1329C6.40165 17.1634 6.40746 17.2113 6.38714 17.2113C6.37988 17.2113 6.36972 17.2302 6.36391 17.2534C6.35956 17.2767 6.34214 17.3071 6.32617 17.3217C6.31165 17.3347 6.29859 17.3565 6.29859 17.3681C6.29859 17.3942 6.25649 17.4276 6.22165 17.4291C6.181 17.4291 6.15342 17.4654 6.15342 17.5205C6.15342 17.5699 6.13455 17.5917 5.95599 17.7455C5.91099 17.7847 5.82825 17.821 5.7847 17.821C5.76292 17.821 5.73244 17.8341 5.71502 17.8501C5.69179 17.8718 5.66276 17.8791 5.60904 17.8791C5.56549 17.8791 5.5234 17.8878 5.50598 17.9009C5.49146 17.9125 5.46388 17.9226 5.44646 17.9226C5.42759 17.9226 5.41307 17.9284 5.41307 17.9372C5.41307 17.9444 5.38984 17.9517 5.36081 17.9517C5.31436 17.9517 5.25193 17.972 5.1779 18.0112C5.16338 18.0185 5.12709 18.0243 5.09515 18.0243C5.06322 18.0243 5.03564 18.0315 5.03273 18.0402C5.02838 18.0518 4.95579 18.0591 4.81643 18.0649C4.58997 18.0722 4.58997 18.0722 4.54933 17.9894C4.53917 17.9676 4.51739 17.9575 4.4782 17.9546C4.44771 17.9517 4.40997 17.9372 4.394 17.9241C4.37948 17.9096 4.34029 17.8936 4.30835 17.8878C4.2227 17.8747 4.16463 17.8123 4.16463 17.7354C4.16463 17.6352 4.20383 17.5409 4.27496 17.4712C4.3098 17.4363 4.33884 17.4015 4.33884 17.3928C4.33884 17.3725 4.41432 17.2984 4.43465 17.2984C4.4419 17.2984 4.46803 17.2752 4.49126 17.2462C4.51594 17.2171 4.56239 17.162 4.59723 17.1242C4.63062 17.0865 4.6582 17.0429 4.6582 17.0284C4.6582 17.0124 4.62191 16.9645 4.57836 16.9224C4.53481 16.8789 4.48981 16.8295 4.47965 16.8121C4.47094 16.7932 4.43464 16.7424 4.40126 16.6989C4.36642 16.6539 4.33884 16.6103 4.33884 16.6016C4.33884 16.5944 4.33303 16.5871 4.32432 16.5871C4.31706 16.5871 4.3069 16.5624 4.30109 16.5319C4.29528 16.5029 4.27932 16.4608 4.2648 16.439C4.24738 16.4144 4.23722 16.3766 4.23722 16.3302C4.23722 16.291 4.22851 16.2503 4.2198 16.2402C4.20673 16.2286 4.20093 16.1792 4.20238 16.0979C4.20383 15.9614 4.20383 15.9614 4.09931 15.8845C4.06737 15.8598 4.03834 15.8381 4.03398 15.8337C4.02963 15.8279 4.01366 15.8177 3.99769 15.809C3.98172 15.8003 3.94979 15.7669 3.92511 15.7335C3.88301 15.6769 3.87866 15.674 3.79881 15.674C3.75381 15.6726 3.71171 15.6784 3.70736 15.6871C3.703 15.6943 3.67252 15.7016 3.64203 15.7016C3.568 15.7016 3.54042 15.7132 3.5259 15.7524C3.51574 15.7785 3.50558 15.7829 3.47654 15.7785C3.45477 15.7742 3.43445 15.7655 3.43009 15.7582C3.42574 15.751 3.40686 15.7451 3.38799 15.7451C3.36912 15.7451 3.3488 15.7379 3.34444 15.7306C3.33283 15.7132 3.13395 15.7118 3.13395 15.7292C3.13395 15.7364 3.12234 15.7451 3.10927 15.751C3.09476 15.7553 3.06572 15.7713 3.0454 15.7843C3.02508 15.7989 2.98878 15.8235 2.96556 15.8381C2.94233 15.854 2.90459 15.8845 2.87991 15.9077C2.78991 15.9905 2.70281 16.0645 2.69264 16.0645C2.68684 16.0645 2.6578 16.0877 2.62877 16.1168C2.59974 16.1458 2.55038 16.185 2.52135 16.2039C2.49086 16.2242 2.46618 16.246 2.46618 16.2532C2.46618 16.2619 2.45602 16.2677 2.44441 16.2677C2.43134 16.2677 2.41828 16.2779 2.41392 16.2895C2.40812 16.3011 2.3936 16.3113 2.38054 16.3113C2.36747 16.3113 2.33263 16.3345 2.30505 16.3636C2.27892 16.3926 2.23827 16.4274 2.21795 16.4405C2.18456 16.4608 2.02633 16.6002 1.89423 16.725C1.86955 16.7482 1.83035 16.7932 1.80713 16.8237C1.7839 16.8542 1.74616 16.892 1.72293 16.9094C1.68374 16.937 1.67793 16.937 1.65615 16.9152C1.63438 16.8949 1.63583 16.8891 1.67503 16.8484C1.69825 16.8252 1.72729 16.8049 1.74035 16.8049C1.76648 16.8049 1.85648 16.7178 1.85648 16.6916C1.85648 16.6815 1.86519 16.6742 1.87536 16.6742C1.88697 16.6742 1.94504 16.6249 2.00455 16.5653C2.06552 16.5058 2.11924 16.4565 2.12649 16.4565C2.13375 16.4565 2.20488 16.3911 2.28473 16.3113C2.36312 16.2315 2.43715 16.1661 2.44586 16.1661C2.45602 16.1661 2.47925 16.1473 2.49957 16.124C2.51844 16.1008 2.55909 16.0674 2.58958 16.0529C2.61861 16.0369 2.71006 15.9571 2.79426 15.8772C2.94233 15.735 2.94523 15.7306 2.94523 15.6653V15.6H2.74926C2.62877 15.6 2.55328 15.5942 2.55328 15.5855C2.55328 15.5768 2.50973 15.5709 2.45312 15.5709C2.39505 15.5709 2.35005 15.5651 2.34715 15.555C2.34424 15.5477 2.31231 15.5361 2.27747 15.5318C2.24118 15.5274 2.20634 15.5187 2.19763 15.5129C2.15553 15.4809 2.06988 15.4403 2.04375 15.4403C2.02778 15.4403 1.97552 15.4795 1.92471 15.5288C1.87536 15.5782 1.82019 15.6276 1.80277 15.6406C1.7839 15.6522 1.76938 15.6711 1.76938 15.6813C1.76938 15.6929 1.76067 15.7016 1.74906 15.7016C1.7389 15.7016 1.72003 15.7118 1.70987 15.7248C1.69825 15.7379 1.6489 15.7742 1.59954 15.8061C1.55018 15.8381 1.49357 15.8816 1.47324 15.9048C1.45437 15.9281 1.42098 15.9513 1.39921 15.9571C1.37743 15.9629 1.35566 15.9789 1.35276 15.9934C1.3484 16.0093 1.33969 16.021 1.33243 16.021C1.30775 16.021 1.22065 16.1095 1.21194 16.1415C1.19888 16.1937 1.0871 16.2358 1.0871 16.1894C1.0871 16.1647 1.16549 16.0964 1.2134 16.0776C1.23227 16.0703 1.25114 16.0558 1.25549 16.0427C1.26566 16.0181 1.36437 15.9135 1.39631 15.8961C1.40792 15.8889 1.44711 15.8569 1.48195 15.8235C1.51679 15.7916 1.55309 15.7611 1.5618 15.7582C1.57051 15.7553 1.62131 15.7118 1.67357 15.6609C1.72583 15.6116 1.77519 15.5709 1.781 15.5709C1.78826 15.5709 1.82455 15.5419 1.86229 15.5071C1.92616 15.449 1.93052 15.4403 1.92616 15.3808C1.92326 15.3314 1.91455 15.314 1.88842 15.3009C1.86955 15.2908 1.8289 15.2603 1.79987 15.2313C1.76358 15.1964 1.73309 15.179 1.70551 15.179C1.66486 15.179 1.66486 15.1775 1.68664 15.1529C1.71277 15.1238 1.72003 15.0338 1.69825 15.0106C1.68954 15.0033 1.67938 14.9453 1.67503 14.8814C1.66922 14.8175 1.65906 14.7464 1.6518 14.7232C1.64309 14.6956 1.64309 14.6753 1.65325 14.6651C1.67648 14.6419 1.67067 14.5751 1.64164 14.5504C1.60825 14.5199 1.54583 14.5185 1.5226 14.549C1.49647 14.578 1.39195 14.6288 1.39195 14.6114C1.39195 14.5882 1.46163 14.5301 1.52841 14.4996C1.56325 14.4822 1.61115 14.4517 1.63583 14.4314C1.68228 14.3922 1.68228 14.3922 1.68228 14.2499C1.68228 14.1701 1.68809 14.1019 1.6968 14.0975C1.70551 14.0932 1.71132 14.0685 1.71132 14.0438C1.71132 14.009 1.6939 13.9828 1.63002 13.9219C1.55309 13.8464 1.51825 13.829 1.50228 13.8565ZM1.32663 14.6709C1.29904 14.7014 1.2613 14.7101 1.2613 14.6869C1.2613 14.6767 1.31356 14.6491 1.34695 14.6433C1.34985 14.6419 1.34114 14.6549 1.32663 14.6709Z" fill="currentColor"/>
</svg>
