<svg width="1.2em" height="1.2em" viewBox="0 0 24 24" fill="none" xmlns="http://www.w3.org/2000/svg">
<path d="M18.6173 11.675C18.6743 11.7627 18.7264 11.842 18.7969 11.9089C18.8658 11.9742 18.947 12.0176 19.0368 12.0414C19.0994 12.058 19.1655 12.0673 19.2303 12.0687C19.5573 12.0759 19.8844 12.0799 20.2114 12.084C20.5346 12.0881 20.8578 12.0911 21.181 12.0945C21.2932 12.0957 21.4047 12.0879 21.5108 12.0485C21.6089 12.012 21.6992 11.9624 21.7638 11.8683C21.7094 11.7324 21.6436 11.603 21.5443 11.4934C21.4779 11.4202 21.394 11.3749 21.2977 11.3521C21.2028 11.3298 21.1073 11.3303 21.0108 11.3382C20.8536 11.3511 20.6963 11.3622 20.539 11.3729C20.3664 11.3848 20.1935 11.394 20.021 11.4071C19.8946 11.4166 19.7687 11.4324 19.6423 11.4423C19.4659 11.456 19.2893 11.4673 19.1127 11.4787C19.0198 11.4848 18.93 11.5054 18.8426 11.5359C18.7623 11.564 18.688 11.6031 18.6173 11.675ZM21.8318 11.7799C21.8506 11.7622 21.8661 11.7516 21.8765 11.7372C21.9286 11.6657 21.9786 11.5926 22.0309 11.5211C22.0696 11.4684 22.1084 11.4154 22.1512 11.3659C22.2716 11.2268 22.4109 11.1144 22.5926 11.0641C22.7305 11.0259 22.865 11.0314 23 11.0862C22.9939 11.1339 22.9674 11.1679 22.945 11.2027C22.8658 11.3257 22.7863 11.4486 22.704 11.5695C22.6238 11.6873 22.5403 11.8028 22.4579 11.919C22.3307 12.0983 22.1903 12.2671 22.0385 12.4259C21.983 12.4839 21.9203 12.5363 21.8551 12.5833C21.7104 12.6878 21.5459 12.7387 21.3678 12.7386C21.2679 12.7386 21.1679 12.7312 21.0682 12.7243C20.8877 12.7117 20.7073 12.697 20.527 12.683C20.2775 12.6638 20.0279 12.6453 19.7785 12.6248C19.6367 12.6132 19.4952 12.5975 19.3534 12.5849C19.1585 12.5678 19.0014 12.4801 18.878 12.3306C18.8166 12.2561 18.7665 12.1738 18.7252 12.0863C18.6891 12.0097 18.6534 11.9329 18.6167 11.8565C18.5986 11.8187 18.5788 11.7817 18.5624 11.7495C18.5208 11.7371 18.5053 11.7644 18.4873 11.7816C18.4004 11.8643 18.307 11.9385 18.2029 11.998C17.9477 12.144 17.6766 12.1866 17.3895 12.1179C17.3825 12.1162 17.3763 12.111 17.3698 12.1074C17.3644 12.0837 17.3816 12.0737 17.3969 12.0621C17.5838 11.92 17.7731 11.7808 17.9567 11.6344C18.0618 11.5506 18.1611 11.4586 18.2567 11.364C18.4554 11.1674 18.6937 11.0507 18.9664 11.0041C19.1825 10.9672 19.4 10.9384 19.617 10.9065C19.9027 10.8644 20.1883 10.8224 20.4741 10.7809C20.6225 10.7594 20.7706 10.7351 20.9196 10.7193C21.0816 10.7021 21.223 10.7562 21.3432 10.865C21.4123 10.9275 21.4655 11.0032 21.5145 11.0818C21.584 11.1933 21.6377 11.3127 21.688 11.4336C21.7263 11.526 21.7609 11.62 21.798 11.7129C21.8062 11.7335 21.818 11.7527 21.8318 11.7799Z" fill="currentColor"/>
<path d="M11.6757 5.38018C11.7477 5.33942 11.8076 5.29834 11.8627 5.25056C11.962 5.16454 12.0279 5.05777 12.0501 4.9278C12.0624 4.85609 12.0717 4.78305 12.0732 4.71045C12.0789 4.42578 12.081 4.14105 12.0845 3.85635C12.0888 3.49857 12.0926 3.14078 12.0979 2.78302C12.0995 2.67761 12.0782 2.57656 12.046 2.4775C12.0193 2.39543 11.969 2.32753 11.9093 2.26617C11.8846 2.24078 11.8569 2.2362 11.8256 2.25221C11.7332 2.29959 11.6391 2.34407 11.5552 2.40614C11.4491 2.4845 11.3777 2.58466 11.351 2.71656C11.3332 2.80457 11.3324 2.8922 11.3392 2.98066C11.3581 3.22597 11.3776 3.47124 11.3959 3.71657C11.4074 3.86978 11.4169 4.02315 11.4277 4.1764C11.4421 4.37971 11.457 4.58296 11.4714 4.78625C11.4788 4.88993 11.4889 4.99336 11.5165 5.09379C11.5453 5.1982 11.5873 5.29624 11.6757 5.38018ZM11.7794 2.16498C11.7609 2.14629 11.7495 2.13115 11.7348 2.12059C11.6629 2.06887 11.59 2.01866 11.5178 1.96734C11.4171 1.89571 11.3227 1.81678 11.2407 1.72376C11.158 1.62989 11.0958 1.52456 11.0642 1.40289C11.0296 1.26908 11.0337 1.13726 11.0848 1.01268C11.1116 0.997944 11.1277 1.01074 11.1434 1.02088C11.2922 1.11685 11.4424 1.21084 11.5891 1.30988C11.819 1.465 12.0467 1.62344 12.2548 1.8075C12.3413 1.88391 12.4275 1.96134 12.5064 2.04524C12.6855 2.23561 12.7555 2.46873 12.7414 2.72476C12.7264 2.99368 12.7075 3.26249 12.6781 3.53051C12.6597 3.69876 12.6529 3.86827 12.6394 4.03709C12.6295 4.15978 12.6171 4.28226 12.6062 4.40486C12.6041 4.42784 12.6023 4.45101 12.603 4.47403C12.6057 4.56332 12.5862 4.65011 12.5708 4.73688C12.542 4.89984 12.4533 5.02889 12.3241 5.12844C12.2604 5.17752 12.1907 5.2202 12.1196 5.25794C12.0211 5.31024 11.9186 5.35483 11.8181 5.40348C11.7913 5.41645 11.766 5.43228 11.7365 5.44872C11.7599 5.49687 11.7941 5.5279 11.825 5.56133C11.9442 5.69024 12.0354 5.83631 12.0928 6.00248C12.1639 6.20836 12.1673 6.41647 12.1166 6.62308C12.0862 6.6372 12.0758 6.61947 12.0647 6.6047C11.9488 6.45102 11.8329 6.29734 11.7174 6.1434C11.6201 6.0138 11.5121 5.89372 11.3983 5.77858C11.3631 5.74301 11.3289 5.70632 11.2963 5.66833C11.1556 5.50405 11.0626 5.31519 11.0204 5.10364C10.9888 4.94516 10.9649 4.78507 10.9407 4.62522C10.9124 4.43889 10.8869 4.25212 10.8611 4.06542C10.823 3.79088 10.7885 3.51582 10.7463 3.24194C10.7333 3.15774 10.7252 3.07449 10.7251 2.98971C10.7249 2.90207 10.7525 2.82323 10.7974 2.74985C10.8422 2.67676 10.9018 2.61708 10.9696 2.5649C11.1084 2.45817 11.2654 2.38526 11.4252 2.31792C11.5174 2.27909 11.6114 2.24448 11.704 2.20657C11.7278 2.19678 11.7495 2.18166 11.7794 2.16498Z" fill="currentColor"/>
<path d="M12.3243 18.6187C12.2509 18.66 12.1868 18.7076 12.1271 18.762C12.0295 18.8509 11.9694 18.9603 11.9487 19.0901C11.9383 19.1544 11.9301 19.2197 11.9289 19.2848C11.9248 19.5041 11.9285 19.7236 11.9214 19.9429C11.9079 20.3623 11.9068 20.7817 11.9042 21.2012C11.9037 21.2869 11.9158 21.3698 11.9346 21.4523C11.9537 21.5359 11.9907 21.6121 12.0443 21.6791C12.0702 21.7114 12.0953 21.7466 12.1406 21.7595C12.2578 21.7083 12.3724 21.6541 12.4719 21.5734C12.5643 21.4984 12.627 21.4052 12.6511 21.2858C12.6666 21.2094 12.6709 21.1332 12.6664 21.0563C12.6589 20.9296 12.6505 20.8029 12.6404 20.6764C12.6231 20.458 12.6024 20.2398 12.5864 20.0214C12.5661 19.7451 12.5495 19.4686 12.5301 19.1923C12.5261 19.1348 12.521 19.0768 12.5095 19.0205C12.495 18.9491 12.4784 18.8773 12.4536 18.8091C12.4276 18.7375 12.3883 18.6717 12.3243 18.6187ZM11.9004 17.3496C11.9365 17.3964 11.9597 17.4265 11.9829 17.4567C12.1117 17.6248 12.2383 17.7947 12.3703 17.9602C12.4398 18.0473 12.5186 18.127 12.5935 18.2098C12.6348 18.2555 12.6781 18.2995 12.7181 18.3463C12.8885 18.5463 12.9726 18.7837 13.0119 19.0389C13.0406 19.2253 13.0632 19.4126 13.0905 19.5992C13.1249 19.8352 13.1623 20.0707 13.1967 20.3067C13.2172 20.4476 13.2353 20.5889 13.2529 20.7303C13.2629 20.8103 13.2728 20.8906 13.2773 20.971C13.2856 21.118 13.2297 21.2414 13.1295 21.3466C13.0572 21.4227 12.9747 21.4868 12.8822 21.5348C12.7662 21.595 12.647 21.6493 12.5273 21.7022C12.4465 21.7379 12.3625 21.7666 12.2801 21.799C12.2629 21.8057 12.2467 21.8147 12.2228 21.8261C12.2348 21.8436 12.2405 21.8578 12.2509 21.8658C12.2906 21.8963 12.3321 21.9243 12.3723 21.9541C12.4621 22.0205 12.5547 22.0834 12.6402 22.1549C12.7976 22.2868 12.9131 22.4476 12.9516 22.6544C12.9732 22.7702 12.9644 22.8834 12.9161 22.9885C12.8799 23.0039 12.8596 22.9808 12.8386 22.967C12.6393 22.8355 12.4402 22.7037 12.242 22.5705C12.0404 22.435 11.8498 22.285 11.6679 22.1241C11.6275 22.0884 11.5876 22.052 11.5491 22.0143C11.3282 21.7979 11.239 21.5327 11.2617 21.2277C11.2846 20.9206 11.3091 20.6135 11.3342 20.3065C11.3542 20.061 11.3772 19.8157 11.3969 19.5701C11.4036 19.4858 11.4094 19.4019 11.421 19.3178C11.446 19.1359 11.5326 18.9926 11.6705 18.8765C11.7447 18.8141 11.8279 18.7658 11.9148 18.7239C11.9911 18.6871 12.068 18.6514 12.1444 18.6148C12.1822 18.5967 12.2196 18.5776 12.253 18.561C12.2622 18.5155 12.2316 18.4979 12.2118 18.477C12.1347 18.3955 12.0649 18.3083 12.009 18.2111C11.9136 18.0451 11.8514 17.8691 11.8561 17.6738C11.8583 17.5853 11.853 17.4964 11.8775 17.4098C11.8814 17.3961 11.8876 17.3829 11.9004 17.3496Z" fill="currentColor"/>
<path d="M5.38509 12.3204C5.34461 12.2627 5.3134 12.2141 5.27807 12.1687C5.16507 12.0236 5.01318 11.947 4.8322 11.9336C4.67119 11.9216 4.50952 11.9149 4.34807 11.9136C3.90541 11.91 3.46273 11.9105 3.02007 11.9093C2.91617 11.9091 2.81227 11.9096 2.70838 11.9085C2.61392 11.9075 2.52634 11.9347 2.44091 11.971C2.37638 11.9985 2.32081 12.0397 2.27065 12.0881C2.24002 12.1177 2.23561 12.1351 2.25258 12.1699C2.28298 12.2321 2.31202 12.2954 2.34763 12.3546C2.39519 12.4336 2.44596 12.5104 2.52424 12.5652C2.64725 12.6514 2.78512 12.6728 2.93037 12.6654C2.96487 12.6636 2.99905 12.6563 3.03357 12.6539C3.34819 12.6317 3.66287 12.6099 3.97753 12.5881C4.06963 12.5817 4.16179 12.5761 4.25387 12.5693C4.39198 12.5591 4.53023 12.55 4.66808 12.5371C4.79824 12.5248 4.92833 12.5108 5.05773 12.4925C5.16261 12.4776 5.25493 12.4292 5.33973 12.367C5.35446 12.3562 5.36568 12.3406 5.38509 12.3204ZM1 12.9082C1.01347 12.8596 1.03925 12.8257 1.06148 12.7907C1.24315 12.5048 1.43165 12.2232 1.63828 11.9547C1.74607 11.8146 1.86466 11.6825 1.98356 11.5515C2.05881 11.4687 2.15041 11.4039 2.25091 11.3526C2.36263 11.2954 2.48161 11.2669 2.60592 11.2629C2.72894 11.259 2.85152 11.2641 2.97447 11.278C3.12727 11.2953 3.28156 11.299 3.43498 11.3113C3.65739 11.3291 3.87959 11.3499 4.10196 11.3684C4.26683 11.382 4.43187 11.3938 4.59682 11.4066C4.8279 11.4246 5.02033 11.5149 5.15412 11.7102C5.19747 11.7735 5.23764 11.8394 5.27355 11.9071C5.31498 11.9853 5.34988 12.0668 5.38804 12.1467C5.40603 12.1843 5.42009 12.2244 5.45008 12.2573C5.49438 12.2522 5.51754 12.2187 5.54448 12.1933C5.61754 12.1242 5.69631 12.063 5.78223 12.011C6.03089 11.8604 6.29914 11.8219 6.58252 11.8726C6.59974 11.8757 6.61573 11.8857 6.63061 11.8918C6.62717 11.9308 6.59856 11.9399 6.57815 11.9556C6.40412 12.0892 6.22787 12.2199 6.05619 12.3564C5.96606 12.428 5.88208 12.5078 5.7983 12.587C5.7002 12.6799 5.59957 12.7686 5.48248 12.8375C5.35833 12.9105 5.22402 12.9584 5.08426 12.9861C4.92222 13.0183 4.75805 13.0399 4.5945 13.0642C4.40818 13.0918 4.2215 13.1172 4.03501 13.1439C3.84461 13.1712 3.6543 13.1994 3.46385 13.2264C3.34583 13.2432 3.22741 13.2574 3.10951 13.275C2.94248 13.3 2.79717 13.2546 2.67186 13.1435C2.5964 13.0766 2.53554 12.9974 2.48397 12.9109C2.38302 12.7416 2.31035 12.5593 2.23966 12.3761C2.22442 12.3367 2.21007 12.2968 2.1932 12.258C2.18773 12.2454 2.17554 12.2357 2.16258 12.2201C2.11927 12.2665 2.08582 12.3125 2.05385 12.3602C1.98743 12.4593 1.91981 12.5575 1.83992 12.6467C1.76232 12.7333 1.67625 12.8096 1.57552 12.8683C1.43395 12.9508 1.19537 12.9985 1 12.9082Z" fill="currentColor"/>
<path d="M3.49344 7.03866C3.46998 7.04668 3.44495 7.05376 3.4211 7.06363C3.30014 7.11369 3.17949 7.16442 3.05878 7.21501C2.91019 7.2773 2.75507 7.29862 2.59508 7.28861C2.40742 7.27687 2.25736 7.19254 2.13808 7.04989C2.1338 7.04479 2.13435 7.03563 2.13138 7.02291C2.17015 6.98866 2.22004 6.96809 2.26736 6.94516C2.56191 6.80251 2.85848 6.66371 3.16413 6.54651C3.32558 6.48459 3.49161 6.43376 3.65764 6.385C3.7346 6.36241 3.81618 6.35372 3.89634 6.34424C3.9737 6.33508 4.04967 6.35397 4.12482 6.37033C4.26651 6.40118 4.39154 6.46896 4.50856 6.55187C4.61853 6.62974 4.72655 6.71041 4.83531 6.78997C5.15854 7.02647 5.48161 7.26322 5.80504 7.49943C5.8644 7.54279 5.92589 7.58193 6.00287 7.58644C6.05474 7.58948 6.10267 7.58341 6.14115 7.54343C6.14843 7.53586 6.16021 7.53258 6.17267 7.52582C6.17973 7.53573 6.19027 7.54387 6.19145 7.55319C6.21721 7.75721 6.27303 7.95257 6.35768 8.13986C6.36055 8.14619 6.3587 8.15466 6.35909 8.16296C6.35231 8.18414 6.33267 8.18982 6.31436 8.19293C6.269 8.20069 6.22334 8.20832 6.17751 8.21125C6.12761 8.21446 6.07739 8.21212 6.02731 8.21257C5.9764 8.21302 5.92831 8.22582 5.88228 8.24704C5.81348 8.27877 5.77763 8.33591 5.76235 8.40703C5.75101 8.45977 5.76701 8.50709 5.80418 8.54504C5.83691 8.57843 5.87608 8.6021 5.93141 8.60543C5.93971 8.5847 5.94675 8.5639 5.95625 8.54432C5.9669 8.52243 5.99386 8.51561 6.01541 8.5275C6.06614 8.55548 6.07927 8.60993 6.04573 8.65358C6.02339 8.68266 5.99423 8.69841 5.95729 8.70142C5.8286 8.7119 5.69346 8.59864 5.68817 8.46869C5.68384 8.36283 5.721 8.27203 5.81129 8.20921C5.83292 8.19415 5.85666 8.18215 5.87889 8.16906C5.87618 8.15985 5.8761 8.14912 5.87205 8.14731C5.73078 8.08439 5.60199 7.9997 5.47162 7.91797C5.01807 7.63369 4.56542 7.34799 4.11147 7.0644C3.97904 6.98166 3.83423 6.95144 3.67937 6.98252C3.65737 6.98693 3.63664 6.9976 3.61116 7.00692C3.60137 7.1305 3.57795 7.25048 3.5996 7.37489C3.62473 7.51917 3.69008 7.63662 3.80806 7.72154C3.87025 7.76631 3.9375 7.80502 4.00557 7.8405C4.44595 8.07023 4.88698 8.29875 5.32823 8.5268C5.61901 8.67706 5.91063 8.82565 6.20163 8.97542C6.30775 9.03004 6.41295 9.08639 6.51901 9.14109C6.62572 9.19611 6.7231 9.26477 6.81453 9.34208C6.9191 9.4305 6.9992 9.53768 7.0567 9.66191C7.09353 9.74145 7.10294 9.82421 7.08546 9.90982C7.08332 9.92026 7.07473 9.92938 7.06806 9.94102C7.05707 9.93475 7.04415 9.93162 7.03835 9.92342C6.9785 9.83868 6.8946 9.78392 6.8035 9.74121C6.62925 9.65947 6.45361 9.58057 6.27737 9.50316C6.04117 9.3994 5.80384 9.29823 5.56703 9.19583C5.33737 9.0965 5.10779 8.99693 4.87809 8.89767C4.58125 8.76939 4.2843 8.64137 3.98748 8.51305C3.90269 8.47638 3.8183 8.43883 3.73358 8.402C3.55701 8.32522 3.45539 8.19165 3.4209 8.00216C3.39857 7.87943 3.40008 7.75799 3.4129 7.63471C3.43044 7.46581 3.46404 7.29993 3.49556 7.13349C3.50099 7.10474 3.51603 7.07423 3.49344 7.03866Z" fill="currentColor"/>
<path d="M15.8485 5.88261C15.9657 5.6337 16.1214 5.41319 16.264 5.1849C16.472 4.85182 16.6818 4.51982 16.8904 4.18715C16.915 4.14802 16.9391 4.10844 16.9605 4.06756C17.0292 3.93606 17.044 3.7971 17.0133 3.65278C17.008 3.62795 16.9912 3.61306 16.9659 3.6087C16.8399 3.58695 16.7132 3.57997 16.5873 3.60597C16.4619 3.63188 16.3577 3.69533 16.2831 3.80021C16.2408 3.85963 16.202 3.92222 16.1683 3.98689C16.0173 4.27707 15.8694 4.56886 15.719 4.85941C15.528 5.22861 15.3354 5.59701 15.144 5.96606C15.0519 6.14377 14.962 6.3226 14.8696 6.50021C14.8 6.63413 14.7155 6.75777 14.6089 6.86556C14.524 6.95148 14.4277 7.02103 14.3148 7.06525C14.2304 7.09834 14.1444 7.10829 14.0542 7.07188C14.0613 7.05939 14.0643 7.04641 14.0724 7.04097C14.1657 6.97814 14.2201 6.88463 14.2674 6.78765C14.3299 6.65969 14.3882 6.52966 14.4449 6.39908C14.5923 6.06026 14.7373 5.72047 14.8842 5.38143C15.0983 4.887 15.3132 4.39292 15.5275 3.89864C15.5505 3.84567 15.5721 3.79211 15.5948 3.73904C15.6823 3.53459 15.8434 3.43107 16.0591 3.40899C16.1856 3.39603 16.3131 3.39839 16.4391 3.41972C16.5946 3.44601 16.7496 3.47466 16.9048 3.50254C16.9237 3.50592 16.9425 3.5119 16.9612 3.48506C16.9394 3.42957 16.9168 3.36897 16.8921 3.30922C16.8671 3.24874 16.8409 3.18873 16.8137 3.12919C16.7539 2.99812 16.7188 2.86025 16.7091 2.71724C16.6935 2.48815 16.7699 2.29395 16.9433 2.14062C16.951 2.13383 16.964 2.13313 16.9803 2.12766C17.0081 2.17843 17.0385 2.22699 17.0622 2.27857C17.1588 2.48829 17.2514 2.69982 17.3492 2.90897C17.4375 3.09785 17.5034 3.29494 17.5691 3.49206C17.5958 3.57217 17.6177 3.65439 17.635 3.73706C17.6914 4.00551 17.6249 4.24863 17.4732 4.47143C17.4105 4.56371 17.3433 4.65301 17.2773 4.74311C17.0295 5.08177 16.781 5.41997 16.5337 5.75899C16.4998 5.80549 16.4662 5.85335 16.4409 5.90473C16.399 5.98973 16.3929 6.07503 16.4647 6.15114C16.4687 6.15537 16.468 6.16404 16.4709 6.17723C16.3651 6.20962 16.2526 6.21583 16.1475 6.25071C16.0423 6.28559 15.9382 6.32411 15.8335 6.36112C15.8031 6.32629 15.7987 6.28795 15.7966 6.25012C15.7934 6.19249 15.793 6.1347 15.7917 6.07695C15.7904 6.01504 15.7842 5.95416 15.7606 5.89592C15.7323 5.82628 15.6808 5.78408 15.6095 5.76499C15.5435 5.74729 15.4871 5.76487 15.4438 5.81741C15.4268 5.8379 15.4139 5.86206 15.4014 5.88577C15.3895 5.90846 15.3979 5.92754 15.4231 5.9416C15.4263 5.94344 15.4308 5.94321 15.434 5.94502C15.4682 5.96385 15.4779 5.97972 15.4717 6.00609C15.463 6.04351 15.4326 6.06694 15.3969 6.06394C15.3535 6.06034 15.325 6.03478 15.3115 5.99655C15.3028 5.97209 15.2999 5.94356 15.3022 5.91753C15.3136 5.78709 15.4502 5.64001 15.6272 5.69615C15.7074 5.72159 15.7744 5.76233 15.8108 5.84238C15.8155 5.85266 15.8218 5.86228 15.8281 5.87166C15.8299 5.87439 15.8345 5.87527 15.8485 5.88261Z" fill="currentColor"/>
<path d="M20.4903 16.9707C20.5756 16.9364 20.6397 16.9115 20.7032 16.885C20.7778 16.8539 20.8514 16.8203 20.9262 16.7897C21.0376 16.7441 21.1541 16.7178 21.2736 16.708C21.5078 16.6889 21.7051 16.7652 21.8608 16.9433C21.8656 16.9488 21.8673 16.9571 21.873 16.9699C21.8645 16.9784 21.8562 16.9921 21.8441 16.998C21.6567 17.0881 21.4694 17.1783 21.2809 17.2659C21.1797 17.3129 21.0766 17.356 20.9736 17.3989C20.7602 17.4879 20.5421 17.5634 20.3179 17.6206C20.0355 17.6926 19.7763 17.6386 19.5377 17.4765C19.4485 17.4159 19.3617 17.3518 19.2747 17.2882C18.9296 17.0359 18.5849 16.783 18.2397 16.5308C18.1994 16.5013 18.1587 16.4711 18.1147 16.4479C18.0236 16.3999 17.9321 16.3863 17.8472 16.4641C17.8426 16.4683 17.8335 16.4676 17.8195 16.4707C17.799 16.4302 17.8042 16.383 17.7939 16.3397C17.7841 16.2985 17.7791 16.2563 17.7693 16.2151C17.7586 16.1702 17.7462 16.1256 17.732 16.0817C17.719 16.0414 17.7028 16.0022 17.6876 15.9627C17.6713 15.9202 17.6546 15.8778 17.6377 15.8342C17.6843 15.7977 17.7344 15.7946 17.7836 15.7917C17.8297 15.789 17.8763 15.7938 17.9222 15.7898C17.9756 15.7852 18.0294 15.7786 18.0813 15.7657C18.139 15.7514 18.1849 15.7177 18.2141 15.6628C18.2758 15.547 18.2327 15.4387 18.1067 15.3972C18.0831 15.3894 18.0663 15.398 18.0534 15.4247C18.0518 15.4282 18.0513 15.4321 18.0505 15.4359C18.046 15.4564 18.0349 15.4709 18.0131 15.4736C17.9866 15.477 17.9581 15.4602 17.9474 15.4362C17.9309 15.3996 17.9384 15.3547 17.9694 15.3315C17.9872 15.3181 18.0092 15.3072 18.0308 15.3028C18.1552 15.2774 18.313 15.3976 18.3131 15.5284C18.3131 15.6547 18.2699 15.7534 18.1527 15.8118C18.1459 15.8152 18.1386 15.8177 18.1319 15.8213C18.1286 15.8231 18.1261 15.8264 18.1212 15.8309C18.127 15.84 18.1306 15.8538 18.1387 15.8572C18.2778 15.9163 18.4024 16.0007 18.5296 16.0804C18.9571 16.3482 19.3835 16.6178 19.8106 16.8864C19.8497 16.9111 19.8898 16.9341 19.93 16.9568C20.057 17.0283 20.1933 17.0375 20.3337 17.0148C20.3787 17.0074 20.3946 16.9917 20.398 16.947C20.4057 16.8473 20.4179 16.7477 20.4055 16.6472C20.3867 16.4943 20.3217 16.3675 20.1949 16.2775C20.1386 16.2375 20.0794 16.2006 20.0181 16.1688C19.5809 15.9413 19.143 15.7152 18.7051 15.4892C18.4176 15.3409 18.1293 15.1945 17.8422 15.0454C17.6851 14.9638 17.5281 14.8817 17.3746 14.7937C17.2502 14.7223 17.1408 14.6297 17.0544 14.5143C17.0131 14.4591 16.9772 14.3989 16.9464 14.3373C16.9016 14.2478 16.9003 14.1573 16.9329 14.0564C16.9429 14.0615 16.9564 14.0639 16.9615 14.0717C17.0256 14.1701 17.1246 14.2236 17.2256 14.2711C17.4066 14.3563 17.5898 14.4374 17.7732 14.5177C18.087 14.655 18.4017 14.7904 18.7162 14.9264C18.9354 15.0211 19.1548 15.1151 19.374 15.2098C19.6072 15.3106 19.8402 15.412 20.0735 15.5128C20.1265 15.5357 20.1804 15.5565 20.2332 15.5798C20.3004 15.6093 20.365 15.643 20.42 15.6932C20.5026 15.7684 20.555 15.86 20.5766 15.9695C20.6029 16.1028 20.6032 16.2357 20.5889 16.3713C20.5702 16.548 20.5332 16.7208 20.5017 16.895C20.4985 16.9128 20.4963 16.9309 20.4903 16.9707Z" fill="currentColor"/>
<path d="M8.16298 18.1043C7.98436 18.4559 7.76574 18.7635 7.5684 19.0841C7.40082 19.3563 7.23147 19.6274 7.06064 19.8975C7.00305 19.9886 6.98122 20.0896 6.97061 20.1929C6.96443 20.2534 6.98203 20.3143 6.99731 20.3712C7.14153 20.423 7.34465 20.4234 7.4756 20.3771C7.60958 20.3296 7.706 20.2392 7.7748 20.1184C7.83003 20.0214 7.88076 19.9219 7.9323 19.8228C8.07098 19.5565 8.20946 19.29 8.3472 19.0232C8.50086 18.7255 8.65336 18.4273 8.80683 18.1296C8.91798 17.914 9.02911 17.6984 9.14176 17.4835C9.21005 17.3533 9.29359 17.2334 9.39753 17.1286C9.46591 17.0597 9.54464 17.005 9.62972 16.9586C9.69229 16.9245 9.76069 16.9139 9.82957 16.9065C9.86723 16.9024 9.90496 16.9084 9.93931 16.9335C9.93192 16.946 9.92857 16.9588 9.9203 16.9646C9.83551 17.0249 9.78484 17.1116 9.7405 17.2015C9.68258 17.3188 9.62833 17.4381 9.57583 17.558C9.4399 17.8683 9.30521 18.1792 9.17115 18.4904C8.9853 18.9217 8.80093 19.3536 8.615 19.7849C8.54337 19.951 8.46979 20.1163 8.39592 20.2815C8.31479 20.4628 8.17041 20.5611 7.97676 20.5839C7.88544 20.5947 7.79218 20.5931 7.69993 20.5909C7.58826 20.5883 7.47747 20.5734 7.36779 20.5511C7.27364 20.532 7.17928 20.5139 7.08486 20.4961C7.07452 20.4942 7.06316 20.4976 7.04501 20.4991C7.04713 20.5158 7.04597 20.5307 7.05101 20.543C7.10075 20.664 7.14875 20.7859 7.20272 20.9051C7.26265 21.0375 7.29087 21.1772 7.29449 21.3198C7.30019 21.5437 7.22073 21.733 7.03276 21.8767C7.02151 21.8639 7.00964 21.8547 7.00332 21.8426C6.87648 21.6003 6.76708 21.3499 6.65673 21.0998C6.57419 20.9127 6.50451 20.7212 6.43954 20.5279C6.39784 20.4039 6.36309 20.2779 6.352 20.146C6.3373 19.9715 6.3741 19.8085 6.4547 19.6555C6.49045 19.5876 6.53227 19.5222 6.57745 19.46C6.88092 19.0426 7.1864 18.6267 7.49005 18.2094C7.52153 18.1661 7.55053 18.1195 7.57133 18.0705C7.60319 17.9954 7.6036 17.9202 7.54312 17.8548C7.53594 17.847 7.53262 17.8357 7.52511 17.8215C7.55157 17.7986 7.58392 17.8058 7.61196 17.8C7.64587 17.7929 7.68044 17.7891 7.71446 17.7825C7.74468 17.7767 7.77459 17.7692 7.80451 17.7619C7.83442 17.7546 7.8645 17.7477 7.89392 17.7388C7.92337 17.7298 7.95226 17.719 7.98108 17.7081C8.01354 17.6959 8.04567 17.683 8.07786 17.6701C8.10584 17.659 8.13372 17.6475 8.16111 17.6364C8.19582 17.663 8.2026 17.697 8.20472 17.7311C8.2083 17.7887 8.2096 17.8465 8.20997 17.9043C8.21037 17.9663 8.21587 18.0273 8.23569 18.0865C8.26241 18.1662 8.31709 18.214 8.3983 18.2353C8.44753 18.2481 8.49193 18.2377 8.52953 18.2093C8.57308 18.1763 8.60365 18.1323 8.60487 18.07C8.59026 18.0632 8.57721 18.0561 8.56337 18.0512C8.53794 18.0421 8.5264 18.0241 8.52925 17.9983C8.53248 17.969 8.55261 17.947 8.57849 17.9408C8.63014 17.9286 8.68376 17.9575 8.69343 18.0105C8.70012 18.0474 8.70291 18.0894 8.69186 18.1242C8.65387 18.2436 8.54539 18.3501 8.37765 18.3037C8.296 18.2812 8.2317 18.2358 8.1919 18.1592C8.18494 18.1458 8.17782 18.1324 8.16298 18.1043Z" fill="currentColor"/>
<path d="M6.52844 15.7433C6.31546 15.6211 6.10407 15.5877 5.8844 15.6992C5.79527 15.7444 5.70814 15.7939 5.62245 15.8454C5.35516 16.006 5.08887 16.1681 4.82247 16.3302C4.58237 16.4762 4.34272 16.623 4.10274 16.7692C3.83981 16.9295 3.57708 17.0901 3.31339 17.2491C3.25098 17.2867 3.18794 17.3235 3.11649 17.3443C2.81315 17.4328 2.546 17.3648 2.31145 17.159C2.22153 17.0801 2.14455 16.9895 2.08674 16.8768C2.09984 16.8744 2.11142 16.8683 2.11787 16.8717C2.23643 16.9351 2.35433 16.922 2.47468 16.8754C2.63674 16.8126 2.78842 16.7286 2.94271 16.6503C3.25497 16.4916 3.56521 16.329 3.87623 16.1679C4.30349 15.9465 4.73058 15.7249 5.15797 15.5039C5.26053 15.4508 5.36362 15.3988 5.46724 15.3478C5.66721 15.2494 5.86719 15.2541 6.06795 15.3478C6.16268 15.3921 6.24963 15.4485 6.33585 15.5066C6.39332 15.5454 6.44997 15.5853 6.50764 15.6238C6.5227 15.6338 6.54018 15.6402 6.56309 15.6514C6.57455 15.6209 6.58482 15.597 6.5926 15.5722C6.63299 15.4437 6.67495 15.3164 6.74306 15.1984C6.87138 14.9762 7.0566 14.8216 7.29105 14.7228C7.30875 14.7153 7.32721 14.7095 7.3456 14.7039C7.35647 14.7006 7.36793 14.6993 7.37808 14.6972C7.39558 14.7098 7.38984 14.724 7.38408 14.7384C7.32428 14.8886 7.26528 15.0391 7.2046 15.1889C7.12642 15.382 7.06267 15.5801 7.01387 15.782C6.94615 16.0623 6.79754 16.29 6.58434 16.4781C6.45736 16.59 6.32635 16.6975 6.19587 16.8054C5.99419 16.9722 5.79151 17.1379 5.58905 17.3037C5.4938 17.3818 5.3971 17.4581 5.30296 17.5375C5.262 17.572 5.22106 17.6086 5.18848 17.6507C5.12645 17.7309 5.11445 17.8182 5.17315 17.9077C5.17739 17.9141 5.18221 17.9203 5.18577 17.927C5.18736 17.93 5.18648 17.9343 5.18671 17.9377C5.17987 17.9579 5.16455 17.9539 5.14947 17.9513C5.08124 17.9393 5.01276 17.9286 4.94477 17.9153C4.80062 17.8871 4.65482 17.8774 4.50836 17.8742C4.49682 17.8739 4.48525 17.8737 4.47377 17.8727C4.4407 17.8696 4.42163 17.8541 4.42039 17.8238C4.41775 17.7585 4.41317 17.6933 4.429 17.6284C4.44268 17.5724 4.4558 17.5157 4.46191 17.4585C4.46801 17.4015 4.47218 17.3426 4.46459 17.2863C4.44913 17.1714 4.3799 17.0911 4.28049 17.0354C4.24484 17.0155 4.20683 17.0142 4.16859 17.0262C4.1223 17.0406 4.10119 17.0622 4.07338 17.122C4.09057 17.1395 4.10976 17.1576 4.12728 17.1772C4.14582 17.1979 4.1482 17.2206 4.13634 17.2406C4.12185 17.2651 4.09281 17.2789 4.06796 17.272C4.057 17.2689 4.04542 17.2654 4.03622 17.259C3.94536 17.1962 3.93079 17.0844 3.99243 17.0072C4.06149 16.9206 4.18349 16.8895 4.28393 16.9458C4.42477 17.0246 4.52303 17.1381 4.54013 17.3069C4.5409 17.3145 4.54159 17.3222 4.54294 17.3297C4.54361 17.3334 4.54568 17.3369 4.54855 17.344C4.5574 17.344 4.57204 17.3485 4.57731 17.3433C4.7494 17.1757 4.95289 17.0492 5.14631 16.9098C5.49929 16.6555 5.85439 16.404 6.20846 16.1512C6.29987 16.0859 6.38294 16.0117 6.44773 15.919C6.48298 15.8686 6.51511 15.8165 6.52844 15.7433Z" fill="currentColor"/>
<path d="M8.3487 6.54934C8.39051 6.59083 8.43498 6.59277 8.47486 6.60483C8.63444 6.6531 8.78539 6.71791 8.91988 6.81901C9.09798 6.95285 9.21773 7.12816 9.29514 7.33462C9.30019 7.34809 9.30055 7.36333 9.30263 7.37511C9.2801 7.39687 9.26242 7.38207 9.24604 7.37572C9.06308 7.30477 8.87981 7.2345 8.69785 7.16108C8.54022 7.09749 8.37721 7.05132 8.21284 7.011C7.93323 6.94243 7.70409 6.79422 7.51871 6.57832C7.34067 6.37092 7.16823 6.15868 6.99411 5.94794C6.81011 5.72526 6.62749 5.50141 6.44303 5.27914C6.41378 5.24389 6.38068 5.21054 6.3445 5.18266C6.26658 5.12261 6.18266 5.11651 6.09682 5.16811C6.09025 5.17206 6.08453 5.17753 6.07778 5.1811C6.07114 5.18462 6.0637 5.18661 6.05655 5.18928C6.03704 5.18063 6.04563 5.16608 6.04782 5.15189C6.06793 5.02268 6.08991 4.8937 6.10653 4.76404C6.12019 4.65753 6.12729 4.55019 6.13789 4.43698C6.15553 4.43127 6.17629 4.42072 6.19798 4.41818C6.27543 4.40906 6.35156 4.41924 6.4266 4.43947C6.50902 4.46169 6.59294 4.46875 6.67829 4.46692C6.80787 4.46413 6.89207 4.3901 6.95923 4.29055C6.98383 4.25404 6.98639 4.21029 6.97229 4.16799C6.95731 4.12308 6.93513 4.0835 6.88039 4.07059C6.85797 4.09094 6.83679 4.11298 6.81263 4.13103C6.7967 4.14296 6.77663 4.14231 6.75822 4.13146C6.74015 4.12082 6.72875 4.10448 6.73009 4.08453C6.73132 4.06606 6.73538 4.0454 6.74521 4.03024C6.80065 3.94484 6.92024 3.92892 6.99824 3.99485C7.08806 4.0708 7.11097 4.19652 7.04752 4.29755C6.96407 4.43045 6.85048 4.52261 6.6886 4.54227C6.68109 4.54319 6.6736 4.54524 6.66644 4.54772C6.66329 4.54882 6.66101 4.55232 6.65539 4.55739C6.65812 4.56588 6.65836 4.57892 6.665 4.58545C6.75897 4.67774 6.83518 4.78428 6.9111 4.89091C7.17239 5.25795 7.43239 5.62591 7.69432 5.99248C7.77263 6.10206 7.85327 6.21022 7.93738 6.31536C8.00555 6.40059 8.0927 6.46434 8.19239 6.50988C8.20283 6.51464 8.2138 6.51867 8.22491 6.52136C8.23208 6.52307 8.23999 6.52167 8.25566 6.52167C8.26358 6.51027 8.27605 6.49629 8.28405 6.48011C8.33752 6.37194 8.37289 6.26022 8.36868 6.13651C8.3643 6.00862 8.31858 5.89544 8.25564 5.78885C8.11663 5.55347 7.97403 5.3202 7.83205 5.08659C7.64408 4.77728 7.45522 4.46855 7.26695 4.15944C7.1047 3.89307 6.94388 3.62582 6.78009 3.3604C6.70661 3.24134 6.6467 3.11853 6.62416 2.97857C6.61233 2.90519 6.61311 2.83431 6.62556 2.76108C6.67627 2.46245 6.84816 2.25182 7.09958 2.09743C7.10538 2.09387 7.11402 2.095 7.12135 2.09397C7.13395 2.11364 7.12214 2.13084 7.11514 2.14801C7.07691 2.24187 7.07931 2.33753 7.11213 2.4305C7.14152 2.51375 7.17593 2.59594 7.21606 2.67455C7.41568 3.0654 7.61801 3.45485 7.81923 3.84488C8.06279 4.317 8.30623 4.78917 8.54958 5.26139C8.58837 5.33669 8.62836 5.41143 8.66431 5.48804C8.74565 5.66138 8.74559 5.83728 8.67711 6.01501C8.63377 6.12756 8.56588 6.22581 8.5001 6.32532C8.45148 6.39884 8.40144 6.47142 8.3487 6.54934Z" fill="currentColor"/>
<path d="M16.8734 21.9123C16.8758 21.8917 16.8742 21.8796 16.8788 21.8705C16.9345 21.7585 16.9235 21.6457 16.8799 21.5344C16.8505 21.4592 16.8176 21.385 16.7809 21.3132C16.5826 20.926 16.3826 20.5396 16.1831 20.153C15.9678 19.7356 15.7524 19.3183 15.5369 18.901C15.4963 18.8223 15.4546 18.7442 15.4141 18.6656C15.3894 18.6177 15.3651 18.5695 15.3421 18.5208C15.2528 18.3313 15.2565 18.1415 15.34 17.9509C15.382 17.855 15.4389 17.7681 15.4964 17.6815C15.5326 17.627 15.571 17.5739 15.6076 17.5196C15.6225 17.4977 15.6354 17.4744 15.6527 17.4459C15.633 17.4342 15.6187 17.4219 15.6022 17.4166C15.4814 17.3776 15.3592 17.3439 15.2457 17.2839C14.9965 17.1523 14.8227 16.9545 14.7179 16.6946C14.7083 16.6707 14.7048 16.6444 14.6995 16.6237C14.7174 16.6003 14.7318 16.6114 14.745 16.6167C14.9057 16.6813 15.0666 16.7456 15.227 16.811C15.4236 16.8911 15.6281 16.9458 15.8323 17.0011C16.0496 17.0599 16.2361 17.1704 16.3956 17.3272C16.4532 17.3839 16.5086 17.4432 16.56 17.5054C16.8322 17.835 17.1027 18.1659 17.3738 18.4962C17.4398 18.5765 17.5046 18.658 17.5731 18.7362C17.6031 18.7705 17.6385 18.8016 17.676 18.8276C17.7406 18.8725 17.8109 18.8811 17.8829 18.842C17.9029 18.8313 17.9229 18.8208 17.9494 18.8067C17.9572 18.8632 17.9388 18.9104 17.9328 18.9584C17.9266 19.0081 17.9169 19.0573 17.9099 19.1069C17.9029 19.1564 17.8972 19.2061 17.8915 19.2557C17.8858 19.3054 17.879 19.355 17.8759 19.4048C17.8729 19.4544 17.8738 19.5042 17.8728 19.5582C17.8468 19.566 17.8261 19.5764 17.8048 19.5779C17.704 19.5854 17.6053 19.5714 17.5073 19.5475C17.4283 19.5282 17.3481 19.5185 17.2674 19.5391C17.165 19.5653 17.0869 19.6233 17.0389 19.7185C17.0213 19.7534 17.0111 19.7899 17.0284 19.8294C17.0471 19.8722 17.0646 19.9149 17.121 19.9293C17.1363 19.9137 17.1514 19.8972 17.1677 19.8818C17.1957 19.8556 17.228 19.8513 17.2504 19.8699C17.2729 19.8887 17.2794 19.9252 17.2655 19.9546C17.2287 20.0325 17.1274 20.0681 17.049 20.0309C16.9321 19.9754 16.8846 19.8348 16.9466 19.7164C17.0103 19.595 17.1104 19.5142 17.2404 19.4713C17.2764 19.4595 17.3139 19.4522 17.3508 19.4427C17.3472 19.4317 17.3469 19.4224 17.3421 19.4178C17.2378 19.3191 17.158 19.2008 17.0753 19.0849C16.7641 18.6495 16.4531 18.2138 16.1421 17.7782C16.0791 17.6899 16.0078 17.6099 15.9165 17.549C15.8549 17.5079 15.8262 17.4945 15.7437 17.4773C15.6339 17.66 15.5967 17.8516 15.6746 18.0585C15.7142 18.1637 15.7737 18.2584 15.8314 18.3539C15.9986 18.6307 16.1669 18.9069 16.335 19.1831C16.5352 19.512 16.7356 19.8408 16.936 20.1695C17.0401 20.3405 17.1445 20.5114 17.2484 20.6825C17.2986 20.7651 17.34 20.8511 17.3633 20.9461C17.4193 21.1735 17.3708 21.3819 17.2484 21.5749C17.1648 21.7068 17.0522 21.8117 16.9183 21.8928C16.9067 21.8998 16.8932 21.9039 16.8734 21.9123Z" fill="currentColor"/>
<path d="M19.453 6.64369C19.4356 6.65027 19.4311 6.65067 19.4286 6.65314C19.285 6.79412 19.1169 6.90337 18.9542 7.01959C18.5595 7.30149 18.1649 7.58371 17.7701 7.86542C17.6846 7.92637 17.6086 7.99643 17.5509 8.08473C17.5176 8.13579 17.4872 8.18855 17.4752 8.24374C17.4806 8.25404 17.4814 8.25902 17.4842 8.26061C17.6777 8.37119 17.8778 8.41335 18.0891 8.31343C18.162 8.27892 18.2344 8.24225 18.3034 8.20048C18.8401 7.87531 19.3758 7.54857 19.9119 7.22253C20.1816 7.05854 20.4513 6.89446 20.7217 6.7316C20.8389 6.66099 20.9663 6.62046 21.1036 6.61376C21.2378 6.60723 21.3647 6.64133 21.4828 6.69921C21.6707 6.79125 21.8134 6.93298 21.9186 7.12911C21.8935 7.12483 21.8783 7.1253 21.8659 7.11969C21.7612 7.07235 21.6554 7.07862 21.5511 7.1171C21.4754 7.145 21.3999 7.17524 21.3282 7.21205C20.866 7.44955 20.405 7.68924 19.9434 7.92796C19.6597 8.07474 19.3757 8.22111 19.0918 8.36765C18.9379 8.44709 18.7842 8.52704 18.6299 8.60573C18.5545 8.64413 18.4798 8.68387 18.3964 8.70426C18.2529 8.73935 18.114 8.72626 17.9779 8.67116C17.8773 8.63044 17.7861 8.57299 17.6965 8.51304C17.6389 8.47454 17.5826 8.43396 17.5248 8.39571C17.4998 8.37912 17.4724 8.36602 17.4404 8.34811C17.4285 8.3788 17.4177 8.40281 17.4097 8.42772C17.3731 8.5412 17.3396 8.65557 17.2827 8.76159C17.1455 9.01748 16.9385 9.19187 16.6681 9.29333C16.6541 9.2986 16.6383 9.29946 16.6231 9.30145C16.6203 9.30184 16.6168 9.29791 16.6136 9.29598C16.6123 9.28912 16.6082 9.28108 16.6104 9.27555C16.6329 9.21827 16.6572 9.16167 16.6797 9.10437C16.7498 8.9252 16.8234 8.7472 16.8878 8.56597C16.9302 8.44658 16.9627 8.32326 16.9936 8.20019C17.0616 7.92959 17.2056 7.70674 17.4129 7.5238C17.5255 7.4245 17.6419 7.32949 17.7576 7.23386C18.0308 7.00827 18.3045 6.78339 18.5781 6.55843C18.6317 6.51442 18.6873 6.47284 18.7393 6.42708C18.7707 6.39932 18.8008 6.36831 18.8248 6.33408C18.8754 6.26196 18.8808 6.18435 18.8385 6.10548C18.8295 6.08885 18.8188 6.0732 18.8065 6.05318C18.8198 6.04891 18.8304 6.04144 18.8385 6.04351C19.0487 6.09644 19.264 6.10981 19.4789 6.1254C19.4942 6.12652 19.5098 6.1253 19.5251 6.12658C19.5639 6.12984 19.5816 6.14471 19.5817 6.18525C19.5819 6.24654 19.5796 6.30818 19.5726 6.369C19.5664 6.42238 19.5493 6.47443 19.5425 6.52777C19.5358 6.58092 19.5306 6.63533 19.5343 6.6885C19.5429 6.80942 19.6109 6.89444 19.7104 6.95773C19.7845 7.00489 19.8692 6.97069 19.917 6.91454C19.93 6.89924 19.9308 6.8782 19.916 6.86158C19.9007 6.84448 19.8824 6.83001 19.8677 6.81251C19.8539 6.79611 19.8558 6.77609 19.8657 6.75838C19.8802 6.73254 19.9114 6.71821 19.9333 6.72521C20.0311 6.75641 20.0791 6.88618 20.0245 6.97189C19.9605 7.07252 19.8372 7.11252 19.7317 7.05904C19.5825 6.98339 19.4847 6.86617 19.4619 6.69504C19.4599 6.68063 19.4569 6.66634 19.453 6.64369Z" fill="currentColor"/>
<path d="M14.1599 4.94864C14.1125 4.91624 14.1029 4.87672 14.1083 4.83248C14.1202 4.73371 14.203 4.65717 14.3018 4.64906C14.4711 4.63516 14.5539 4.75288 14.5672 4.87703C14.5726 4.92733 14.5658 4.97702 14.5494 5.02513C14.5098 5.14112 14.4439 5.23837 14.3454 5.31263C14.2489 5.38539 14.1412 5.43545 14.026 5.46995C13.9191 5.50196 13.8111 5.5304 13.7049 5.56459C13.6246 5.59041 13.5465 5.62279 13.4608 5.65472C13.4446 5.64078 13.4233 5.62497 13.4048 5.60633C13.3016 5.50189 13.2082 5.38997 13.1367 5.26061C13.0305 5.06825 12.9954 4.86374 13.0267 4.64686C13.0557 4.44497 13.0839 4.24297 13.1125 4.041C13.14 3.84674 13.1665 3.65237 13.1951 3.45826C13.2153 3.32153 13.213 3.29497 13.1579 3.1686C13.1615 3.16205 13.1634 3.15222 13.1689 3.14946C13.6502 2.90844 14.1215 2.64624 14.6293 2.4505C14.6483 2.46598 14.6671 2.47866 14.6826 2.49449C14.7772 2.5906 14.8725 2.686 14.9645 2.78447C15.0383 2.86343 15.1018 2.94948 15.1451 3.0507C15.1961 3.16991 15.2024 3.29009 15.1658 3.41188C15.1358 3.51133 15.0987 3.60862 15.0642 3.70666C15.0263 3.8148 14.9498 3.88683 14.8484 3.93557C14.7437 3.98595 14.6332 4.01912 14.5206 4.04572C14.4231 4.06873 14.326 4.09348 14.228 4.1136C14.1364 4.13241 14.0517 4.16873 13.9687 4.2091C13.931 4.22744 13.8948 4.25135 13.8629 4.27864C13.8062 4.32729 13.8043 4.38346 13.8524 4.44025C13.8694 4.46023 13.8878 4.47896 13.9031 4.49554C13.8944 4.53701 13.8696 4.5528 13.8377 4.56037C13.8054 4.56809 13.7769 4.55925 13.7518 4.53811C13.6777 4.47564 13.6612 4.37082 13.7117 4.28737C13.7573 4.21189 13.8263 4.1634 13.9021 4.1238C13.9909 4.07732 14.0824 4.03557 14.1798 4.01109C14.2965 3.98172 14.3648 3.90588 14.3993 3.79557C14.4268 3.70739 14.4492 3.61757 14.4771 3.52954C14.5213 3.39031 14.5094 3.25582 14.4487 3.12467C14.3876 2.99264 14.297 2.88546 14.1748 2.79933C14.1035 2.81986 14.0502 2.86391 14.0066 2.91731C13.9729 2.95854 13.9446 3.00561 13.9215 3.05373C13.8848 3.13016 13.8602 3.2113 13.8427 3.29471C13.7774 3.60729 13.7108 3.91962 13.6449 4.23208C13.618 4.36001 13.5919 4.48811 13.5653 4.61611C13.537 4.75168 13.5509 4.88444 13.5934 5.01475C13.624 5.10852 13.6784 5.18731 13.7551 5.24932C13.7787 5.26841 13.8057 5.28479 13.8336 5.29671C13.9218 5.3344 14.0152 5.33629 14.106 5.31507C14.2149 5.28957 14.2842 5.21236 14.3271 5.11172C14.3391 5.08366 14.3489 5.05299 14.3511 5.02289C14.3533 4.99326 14.3493 4.96113 14.3394 4.93313C14.3207 4.88002 14.2643 4.86415 14.2166 4.89638C14.1979 4.90906 14.1828 4.92719 14.1599 4.94864Z" fill="currentColor"/>
<path d="M21.1998 14.1623C21.1577 14.0631 21.0863 13.9903 20.9915 13.9406C20.9163 13.9011 20.8374 13.87 20.7541 13.852C20.5961 13.8177 20.4379 13.7842 20.2798 13.7505C20.0616 13.7039 19.8434 13.6572 19.6251 13.6111C19.5385 13.5929 19.4517 13.5749 19.3646 13.5595C19.2204 13.5339 19.0804 13.5536 18.9454 13.6073C18.8691 13.6377 18.8071 13.689 18.752 13.7501C18.6781 13.8319 18.6336 14.0479 18.7212 14.1864C18.7851 14.2873 18.8818 14.3392 18.9996 14.3493C19.0252 14.3514 19.0536 14.344 19.0777 14.3337C19.1236 14.3142 19.1367 14.2573 19.1064 14.2168C19.091 14.1962 19.0716 14.1786 19.0528 14.1584C19.0788 14.1173 19.1145 14.1054 19.1543 14.1076C19.2284 14.1117 19.2868 14.1447 19.3236 14.211C19.4025 14.3534 19.3203 14.5306 19.1601 14.5599C19.091 14.5725 19.0224 14.5668 18.9555 14.5416C18.8039 14.4843 18.6941 14.3801 18.6205 14.2388C18.5852 14.1709 18.5576 14.0983 18.5333 14.0256C18.4979 13.9197 18.4706 13.8113 18.4362 13.7051C18.4101 13.6249 18.3783 13.5465 18.3457 13.4582C18.3546 13.4476 18.3671 13.4285 18.3834 13.4139C18.4493 13.3548 18.5143 13.2944 18.5834 13.2392C18.8261 13.045 19.1014 12.9814 19.4076 13.0312C19.6545 13.0713 19.9027 13.1033 20.1504 13.1383C20.28 13.1566 20.4099 13.1718 20.5392 13.1918C20.6831 13.2141 20.6966 13.2141 20.83 13.1569C20.8653 13.1653 20.8713 13.1995 20.8846 13.2252C20.9498 13.3518 21.0132 13.4793 21.077 13.6066C21.1546 13.7614 21.2353 13.9149 21.3086 14.0717C21.3885 14.2425 21.4616 14.4164 21.5372 14.5891C21.5418 14.5994 21.5427 14.6114 21.5467 14.6282C21.5381 14.6408 21.5298 14.6584 21.5169 14.6714C21.4297 14.7585 21.3435 14.8468 21.2531 14.9304C21.1939 14.9852 21.1311 15.0372 21.0644 15.0824C20.957 15.1554 20.8374 15.1967 20.7052 15.1847C20.6595 15.1806 20.6134 15.1717 20.5698 15.1578C20.4781 15.1287 20.3885 15.0935 20.2971 15.0633C20.1873 15.0269 20.1166 14.95 20.067 14.8495C20.0243 14.7628 19.9926 14.6722 19.9711 14.578C19.9471 14.473 19.9216 14.3683 19.8988 14.2631C19.8775 14.1645 19.842 14.0708 19.8002 13.9801C19.778 13.9321 19.7453 13.8867 19.7088 13.8482C19.6624 13.7992 19.6177 13.8021 19.5663 13.8459C19.5546 13.8559 19.5457 13.8689 19.5343 13.8792C19.5005 13.9098 19.458 13.8971 19.4464 13.8529C19.4349 13.809 19.4406 13.7696 19.4755 13.7365C19.5415 13.6737 19.6422 13.6636 19.7203 13.7146C19.8006 13.767 19.853 13.8434 19.891 13.9285C19.9301 14.0162 19.9648 14.1061 19.9961 14.1969C20.0225 14.2736 20.0653 14.3337 20.1381 14.3707C20.1517 14.3776 20.1664 14.3828 20.1811 14.3872C20.2954 14.4213 20.4087 14.4601 20.5246 14.4876C20.6523 14.5179 20.7782 14.4984 20.8953 14.4395C21.0104 14.3815 21.1064 14.2988 21.184 14.1956C21.1907 14.1866 21.1939 14.175 21.1998 14.1623Z" fill="currentColor"/>
<path d="M4.94997 9.8396C4.90958 9.89501 4.8611 9.90062 4.81021 9.88839C4.71213 9.86483 4.64097 9.76384 4.64774 9.663C4.65547 9.54819 4.73223 9.46033 4.84586 9.438C4.90752 9.42589 4.9678 9.43192 5.02789 9.4517C5.19084 9.50538 5.30366 9.61638 5.38439 9.76284C5.41963 9.82676 5.44802 9.89399 5.46757 9.96529C5.49907 10.0803 5.53373 10.1945 5.57058 10.3079C5.59541 10.3843 5.62628 10.4588 5.65595 10.5381C5.64921 10.5482 5.64254 10.5625 5.63212 10.5731C5.52632 10.6804 5.41216 10.7778 5.28152 10.8539C5.09935 10.9599 4.90331 11.0037 4.69343 10.9758C4.43027 10.9407 4.16734 10.9042 3.90434 10.8679C3.75186 10.8468 3.59953 10.8248 3.44707 10.8037C3.4204 10.8 3.39343 10.7984 3.36661 10.7956C3.31149 10.79 3.25929 10.7979 3.21104 10.827C3.1983 10.8347 3.18392 10.8396 3.16477 10.8483C3.14914 10.8241 3.13323 10.8034 3.12153 10.7806C2.6679 9.89773 2.49758 9.53277 2.4569 9.35435C2.60048 9.22623 2.72583 9.07371 2.8838 8.95579C2.92367 8.92601 2.96714 8.90066 3.0106 8.87624C3.14668 8.79985 3.29063 8.7981 3.43602 8.84057C3.52454 8.86643 3.6106 8.90072 3.69774 8.93126C3.81348 8.97186 3.89238 9.05006 3.94142 9.16231C3.97849 9.24721 4.01113 9.33324 4.03258 9.42337C4.05307 9.50947 4.07589 9.59514 4.09251 9.68199C4.11292 9.7886 4.14636 9.89086 4.18944 9.98967C4.21072 10.0386 4.23899 10.0857 4.27132 10.1282C4.32376 10.197 4.38334 10.199 4.44773 10.1408C4.45339 10.1357 4.45737 10.1287 4.46301 10.1235C4.50188 10.088 4.54583 10.1012 4.55678 10.1515C4.56755 10.2011 4.55611 10.2423 4.51423 10.2742C4.43943 10.3311 4.35917 10.334 4.2785 10.2816C4.20134 10.2315 4.15157 10.158 4.11461 10.077C4.07475 9.98967 4.03649 9.90062 4.00857 9.80895C3.9762 9.70273 3.90845 9.63718 3.80711 9.60466C3.70093 9.57058 3.59426 9.53609 3.48547 9.51252C3.38733 9.49126 3.28682 9.49297 3.18921 9.52729C3.02753 9.58415 2.90249 9.68714 2.7999 9.82649C2.84754 9.95144 2.93722 10.0324 3.05458 10.0804C3.13964 10.1153 3.22889 10.1419 3.31842 10.1632C3.47939 10.2013 3.642 10.2324 3.80386 10.2668C4.00717 10.3101 4.21021 10.3546 4.41375 10.3968C4.50414 10.4155 4.59483 10.4352 4.68641 10.4453C4.84322 10.4626 4.99421 10.4377 5.13014 10.3532C5.20257 10.3081 5.2674 10.2526 5.29845 10.1688C5.33284 10.076 5.33711 9.98055 5.31416 9.88479C5.3023 9.8353 5.27354 9.79381 5.23746 9.75777C5.1812 9.70155 5.11219 9.66966 5.03601 9.65088C5.00076 9.64221 4.96721 9.64752 4.93442 9.66101C4.88074 9.68307 4.86389 9.73638 4.89739 9.78307C4.91055 9.80144 4.92826 9.81656 4.94997 9.8396Z" fill="currentColor"/>
<path d="M9.36362 21.5528C9.24334 21.428 9.1293 21.3135 9.01984 21.1948C8.95466 21.124 8.9007 21.0451 8.86085 20.9554C8.80813 20.8368 8.79822 20.7165 8.83485 20.5948C8.86917 20.4807 8.9125 20.3692 8.95438 20.2576C8.98258 20.1824 9.0363 20.1264 9.10667 20.0902C9.17146 20.0569 9.23794 20.0238 9.30744 20.0035C9.43659 19.9657 9.56834 19.9366 9.69932 19.9053C9.83833 19.8721 9.97483 19.8327 10.0959 19.7534C10.1181 19.7388 10.1402 19.722 10.1573 19.7019C10.1941 19.6585 10.1923 19.61 10.1555 19.5656C10.1457 19.5538 10.1325 19.5449 10.1221 19.5336C10.0913 19.5002 10.0958 19.471 10.1341 19.4505C10.1798 19.426 10.2129 19.4292 10.2508 19.4619C10.3263 19.527 10.3425 19.6279 10.2899 19.7122C10.2611 19.7585 10.2232 19.7961 10.1787 19.828C10.0866 19.894 9.98161 19.9321 9.87736 19.972C9.84865 19.983 9.8192 19.9924 9.78953 20.0005C9.7133 20.0212 9.6632 20.0719 9.62932 20.1401C9.61571 20.1675 9.60545 20.1969 9.59662 20.2263C9.57224 20.3074 9.55149 20.3896 9.52554 20.4702C9.47796 20.618 9.49632 20.7593 9.56347 20.8958C9.62411 21.0191 9.71463 21.1169 9.82759 21.1992C9.90062 21.1809 9.95184 21.1336 9.99622 21.0817C10.0307 21.0413 10.0589 20.9939 10.0822 20.9459C10.1242 20.8589 10.1484 20.7655 10.1683 20.6711C10.2454 20.3059 10.3229 19.9408 10.3998 19.5756C10.4157 19.5003 10.4335 19.4251 10.4435 19.3489C10.4668 19.1718 10.4401 19.0041 10.3424 18.8504C10.2315 18.6759 10.0238 18.647 9.8858 18.6874C9.74507 18.7286 9.65926 18.8762 9.64802 19C9.64768 19.0038 9.64778 19.0077 9.64827 19.0115C9.65384 19.0548 9.66329 19.0977 9.70995 19.1141C9.75103 19.1286 9.78475 19.1115 9.81137 19.0782C9.81827 19.0695 9.82856 19.0636 9.83798 19.0558C9.87887 19.067 9.89051 19.0987 9.89425 19.134C9.90239 19.2105 9.84952 19.2967 9.77645 19.3291C9.62045 19.3985 9.45603 19.3046 9.43708 19.1316C9.43218 19.0869 9.43775 19.0388 9.44915 18.995C9.49123 18.8334 9.59351 18.7167 9.73569 18.6342C9.80895 18.5916 9.88538 18.5556 9.96806 18.5331C10.0646 18.5069 10.1607 18.4786 10.2557 18.4475C10.3504 18.4165 10.4435 18.3809 10.544 18.3449C10.5932 18.3803 10.6342 18.4316 10.6776 18.4795C10.7792 18.5912 10.8666 18.7127 10.9213 18.8552C10.9835 19.0171 11.0001 19.1836 10.9755 19.3548C10.9537 19.5072 10.9328 19.6597 10.9114 19.8121C10.8777 20.052 10.8462 20.2923 10.8091 20.5317C10.7935 20.6329 10.7849 20.7302 10.8417 20.8219C10.8433 20.8245 10.8413 20.8294 10.8403 20.8418C10.8158 20.8567 10.7882 20.8765 10.758 20.8913C10.2986 21.1155 9.85233 21.3677 9.36362 21.5528Z" fill="currentColor"/>
<path d="M2.52414 14.8111C2.55748 14.64 2.58362 14.4686 2.65285 14.3086C2.6833 14.2383 2.71697 14.1682 2.75865 14.1041C2.84747 13.9675 2.96959 13.8682 3.1274 13.823C3.24555 13.7891 3.36654 13.7647 3.48701 13.7397C3.80344 13.6742 4.12036 13.6111 4.4369 13.5461C4.5209 13.5289 4.60075 13.5014 4.65756 13.427C4.74561 13.4676 4.81309 13.5318 4.89127 13.579C4.97037 13.6267 5.04745 13.6778 5.12761 13.7236C5.2111 13.7713 5.29712 13.8146 5.38226 13.8594C5.464 13.9025 5.54548 13.946 5.62812 13.9873C5.71005 14.0282 5.7959 14.0618 5.87331 14.119C5.82168 14.2715 5.78664 14.4255 5.72437 14.5704C5.65278 14.737 5.52562 14.8526 5.3669 14.9331C5.27093 14.9818 5.16986 15.0204 5.07159 15.0646C4.99385 15.0996 4.91614 15.0992 4.83527 15.0751C4.71505 15.0392 4.61003 14.975 4.51121 14.9014C4.40639 14.8232 4.30743 14.7373 4.20418 14.6569C4.1436 14.6098 4.08088 14.5651 4.01662 14.5231C3.98817 14.5045 3.95435 14.4925 3.92147 14.4825C3.8628 14.4648 3.81429 14.4911 3.7939 14.5491C3.78376 14.578 3.77782 14.6085 3.76618 14.6366C3.76024 14.651 3.74347 14.6576 3.72703 14.6516C3.68369 14.6357 3.65676 14.6055 3.65172 14.5585C3.6402 14.4515 3.71682 14.362 3.82511 14.3567C3.89611 14.3533 3.96396 14.3681 4.02403 14.4058C4.10538 14.4569 4.18467 14.5113 4.26399 14.5656C4.29252 14.5851 4.31909 14.6076 4.34561 14.6298C4.42438 14.6959 4.51593 14.7026 4.60726 14.6734C4.72435 14.636 4.83983 14.5921 4.95275 14.5434C5.1653 14.4517 5.2902 14.2827 5.35599 14.0656C5.36749 14.0277 5.3567 14.0074 5.32278 13.9907C5.24743 13.9534 5.16623 13.9543 5.08559 13.9552C4.98486 13.9562 4.88729 13.9787 4.79075 14.0055C4.51284 14.0827 4.23501 14.1602 3.95712 14.2375C3.80881 14.2788 3.66031 14.3193 3.51214 14.3611C3.39851 14.3931 3.29951 14.4497 3.22039 14.5388C3.00017 14.7869 3.00239 15.1226 3.24919 15.3688C3.2909 15.4103 3.34019 15.4403 3.39637 15.457C3.49704 15.4867 3.58737 15.462 3.66549 15.3954C3.718 15.3506 3.72681 15.277 3.68987 15.2292C3.67298 15.2074 3.65135 15.1917 3.62282 15.1879C3.60441 15.1854 3.58605 15.1828 3.56538 15.1799C3.55429 15.1138 3.58113 15.0705 3.63208 15.0433C3.70363 15.0052 3.77534 15.0155 3.83907 15.0617C3.92133 15.1215 3.96935 15.2067 3.9759 15.3062C3.98227 15.4026 3.94257 15.487 3.86534 15.549C3.72827 15.6591 3.57685 15.6683 3.41988 15.6023C3.31638 15.5588 3.22658 15.492 3.14166 15.4184C3.02795 15.3199 2.92663 15.2092 2.82153 15.102C2.73539 15.0141 2.64372 14.9318 2.55479 14.8466C2.54394 14.8362 2.53503 14.8238 2.52414 14.8111Z" fill="currentColor"/>
<path d="M10.5698 4.66652C10.4872 4.79486 10.4005 4.9219 10.3221 5.05383C10.2434 5.18605 10.1725 5.32292 10.0991 5.45821C10.0259 5.593 9.96816 5.73601 9.88441 5.87187C9.85993 5.86424 9.8388 5.85785 9.8178 5.85111C9.71152 5.81707 9.60497 5.78379 9.49907 5.74861C9.30193 5.68309 9.16209 5.55088 9.07009 5.3679C9.02001 5.26825 8.97616 5.16534 8.93277 5.06249C8.89653 4.97658 8.90579 4.88944 8.9358 4.80302C8.9729 4.69625 9.03116 4.60079 9.09817 4.51146C9.17668 4.40682 9.26192 4.30727 9.34307 4.20461C9.38361 4.15333 9.42319 4.10109 9.45998 4.04711C9.47931 4.01878 9.49183 3.98579 9.50723 3.9548C9.55243 3.86378 9.50703 3.79972 9.42223 3.78191C9.41473 3.78033 9.40695 3.78006 9.39932 3.77904C9.3759 3.77589 9.34788 3.77119 9.34814 3.74364C9.34833 3.72333 9.3611 3.69911 9.37574 3.68379C9.41017 3.64775 9.45249 3.63815 9.50247 3.65382C9.6033 3.68542 9.64829 3.74447 9.64663 3.84892C9.64579 3.90008 9.63193 3.94735 9.60979 3.99312C9.56085 4.0943 9.49775 4.18609 9.42744 4.27329C9.40811 4.29726 9.38817 4.32074 9.36933 4.34512C9.31082 4.42084 9.29342 4.50665 9.32443 4.59593C9.36987 4.72671 9.4147 4.85868 9.47384 4.9835C9.56875 5.18384 9.73716 5.29954 9.94812 5.35683C9.97478 5.36405 9.99712 5.3563 10.0047 5.33214C10.022 5.27734 10.0423 5.22234 10.0496 5.16589C10.0569 5.10938 10.0551 5.05122 10.0403 4.9939C10.0164 4.90084 10.0005 4.80567 9.97502 4.71306C9.86495 4.31218 9.75332 3.91174 9.64095 3.51151C9.58259 3.30371 9.44926 3.16155 9.24658 3.09124C8.98247 2.99965 8.74332 3.11358 8.60956 3.27337C8.52153 3.37851 8.51032 3.51943 8.57766 3.62854C8.60523 3.67323 8.64135 3.70512 8.69723 3.70794C8.75305 3.71077 8.79383 3.68355 8.81015 3.62966C8.8134 3.61888 8.81116 3.60652 8.81363 3.59539C8.81599 3.58479 8.8212 3.57486 8.82457 3.56611C8.86961 3.5505 8.90215 3.57091 8.93247 3.5958C8.96096 3.6192 8.97105 3.6516 8.97477 3.68753C8.98291 3.76606 8.95843 3.82935 8.89922 3.88338C8.75553 4.01442 8.5302 4.00867 8.41608 3.8125C8.38255 3.75483 8.36318 3.69313 8.36053 3.62626C8.35725 3.54375 8.37449 3.46605 8.41063 3.39166C8.4565 3.29723 8.5171 3.21281 8.58696 3.13568C8.65928 3.05587 8.73483 2.97877 8.81202 2.9036C8.93338 2.78541 9.0604 2.67286 9.16573 2.53908C9.17017 2.53347 9.17843 2.53084 9.1919 2.52248C9.23093 2.5298 9.27604 2.53745 9.32079 2.54688C9.45268 2.57461 9.58385 2.60436 9.70926 2.65597C9.78463 2.68698 9.85549 2.72573 9.92087 2.7733C10.0562 2.87173 10.1498 3.00136 10.1917 3.16417C10.2185 3.2684 10.2395 3.37418 10.2613 3.47965C10.3125 3.72833 10.3627 3.97727 10.4132 4.2261C10.4247 4.28267 10.4353 4.33944 10.4477 4.39579C10.4814 4.54815 10.4817 4.54808 10.5698 4.66652Z" fill="currentColor"/>
<path d="M21.48 9.17947C21.4375 9.40976 21.3982 9.63297 21.2819 9.834C21.1723 10.0236 21.0169 10.1516 20.8005 10.1994C20.7141 10.2185 20.6274 10.2361 20.5407 10.2538C20.2427 10.3146 19.9446 10.3751 19.6465 10.4358C19.6239 10.4404 19.6014 10.4458 19.5789 10.4508C19.4545 10.4786 19.4391 10.4861 19.3395 10.5705C19.2397 10.519 19.1537 10.4414 19.0552 10.3838C18.9522 10.3235 18.8505 10.2607 18.746 10.2032C18.6448 10.1475 18.5407 10.0973 18.4379 10.0445C18.3357 9.99203 18.2289 9.94788 18.1282 9.88225C18.1343 9.86178 18.1393 9.84399 18.145 9.82639C18.1779 9.72381 18.2089 9.6205 18.2449 9.519C18.2654 9.46124 18.2903 9.40422 18.3202 9.35079C18.3944 9.21837 18.5091 9.12904 18.6435 9.06398C18.7267 9.02373 18.8127 8.98943 18.8956 8.94865C19.0077 8.89352 19.1181 8.89918 19.2303 8.94651C19.3268 8.98723 19.4163 9.0403 19.4992 9.1032C19.6003 9.17998 19.6968 9.26292 19.7968 9.34135C19.8542 9.38642 19.913 9.43029 19.9742 9.46987C20.0059 9.49038 20.0436 9.50316 20.0801 9.51446C20.1402 9.53306 20.1879 9.50862 20.2084 9.45082C20.2174 9.42559 20.2207 9.3984 20.2286 9.37276C20.2372 9.34499 20.2686 9.3378 20.2946 9.35478C20.3332 9.38005 20.353 9.41489 20.352 9.46118C20.3493 9.57209 20.2543 9.65043 20.1685 9.64618C20.1093 9.64323 20.0548 9.63055 20.002 9.6054C19.9074 9.56043 19.8228 9.50027 19.7408 9.43609C19.7134 9.41475 19.6864 9.39299 19.6597 9.37091C19.5887 9.31214 19.5049 9.29489 19.4205 9.32089C19.2626 9.36957 19.1019 9.41511 18.9598 9.50257C18.7943 9.60438 18.6949 9.75659 18.6461 9.94299C18.6379 9.97433 18.6491 9.99883 18.678 10.008C18.7181 10.0206 18.759 10.0334 18.8005 10.0383C18.9204 10.0523 19.039 10.0394 19.1554 10.0091C19.3118 9.96843 19.4678 9.92604 19.6235 9.88266C19.7645 9.84338 19.9045 9.80095 20.0453 9.76144C20.1899 9.72086 20.3351 9.6825 20.4799 9.64249C20.6695 9.59007 20.8075 9.47388 20.8904 9.29674C20.9647 9.13781 20.9635 8.97644 20.886 8.81713C20.8486 8.74009 20.8017 8.67035 20.7365 8.61376C20.6393 8.52933 20.5031 8.50959 20.3912 8.56449C20.352 8.5837 20.3207 8.61132 20.3024 8.65181C20.2725 8.71799 20.3019 8.78599 20.3713 8.80972C20.3819 8.81336 20.3944 8.81131 20.4055 8.81412C20.416 8.81678 20.4259 8.82238 20.4351 8.82624C20.4482 8.87103 20.4278 8.90341 20.4023 8.93326C20.3815 8.95766 20.3534 8.96985 20.3219 8.97457C20.2575 8.98424 20.2005 8.97062 20.1496 8.92773C20.078 8.86739 20.038 8.7888 20.0263 8.6992C20.0159 8.61937 20.0474 8.54612 20.1004 8.48704C20.1886 8.38886 20.3028 8.35038 20.433 8.36033C20.5107 8.36629 20.583 8.39191 20.6511 8.43033C20.7286 8.4741 20.8007 8.52575 20.8658 8.5859C20.9477 8.6617 21.0273 8.74021 21.1054 8.81994C21.2239 8.94085 21.3379 9.06628 21.48 9.17947Z" fill="currentColor"/>
<path d="M14.118 18.1331C14.1331 18.1331 14.1413 18.1312 14.1481 18.1334C14.2759 18.1756 14.4043 18.2162 14.531 18.2613C14.7189 18.3282 14.8487 18.46 14.9346 18.6368C14.9783 18.7268 15.016 18.8197 15.0593 18.9099C15.1059 19.0068 15.1013 19.1029 15.0653 19.2011C15.0237 19.3145 14.96 19.4155 14.8877 19.5105C14.8085 19.6146 14.7242 19.7148 14.6414 19.816C14.5875 19.8817 14.5366 19.9492 14.5025 20.0277C14.4934 20.0488 14.4847 20.0705 14.4798 20.0929C14.4698 20.1381 14.4892 20.1784 14.5323 20.1969C14.5639 20.2105 14.5981 20.2178 14.6308 20.2289C14.6496 20.2352 14.6589 20.2582 14.6517 20.2759C14.6345 20.3187 14.6045 20.3448 14.5576 20.3502C14.4583 20.3615 14.3524 20.2733 14.3552 20.1741C14.357 20.1111 14.3683 20.0522 14.397 19.9962C14.4429 19.9068 14.4971 19.823 14.5602 19.7448C14.5892 19.7088 14.6181 19.6727 14.645 19.6352C14.6929 19.5684 14.7079 19.494 14.6814 19.4159C14.6343 19.2775 14.5941 19.1358 14.5256 19.0062C14.4186 18.8036 14.2475 18.6845 14.0212 18.6369C13.974 18.6925 13.9623 18.7574 13.9557 18.8214C13.9486 18.89 13.952 18.9588 13.9658 19.028C14.0109 19.2549 14.0816 19.4749 14.1424 19.6975C14.2133 19.9572 14.2883 20.2159 14.3583 20.4759C14.4098 20.6671 14.5256 20.804 14.7021 20.8869C14.9509 21.0038 15.2289 20.926 15.3992 20.7182C15.4973 20.5985 15.4763 20.4419 15.4202 20.3622C15.3997 20.333 15.3753 20.3097 15.3415 20.2973C15.2721 20.2719 15.2106 20.3037 15.1901 20.3766C15.1851 20.3942 15.1836 20.4128 15.1813 20.4264C15.1426 20.4463 15.1125 20.4362 15.0882 20.4174C15.0679 20.4016 15.0468 20.3797 15.0389 20.3563C15.0143 20.2832 15.0195 20.2125 15.0725 20.1502C15.1269 20.0862 15.1955 20.0442 15.2766 20.0273C15.3757 20.0067 15.4603 20.046 15.5283 20.1137C15.6278 20.2127 15.6633 20.3358 15.6372 20.4741C15.625 20.5386 15.6021 20.6 15.5676 20.6567C15.5174 20.7391 15.4623 20.8179 15.3945 20.8869C15.2893 20.9939 15.1816 21.0985 15.0765 21.2056C15.001 21.2824 14.9271 21.3609 14.8542 21.4402C14.8314 21.465 14.8085 21.4795 14.774 21.4722C14.6309 21.4418 14.487 21.4157 14.3491 21.3647C14.2474 21.327 14.152 21.2783 14.0653 21.2127C13.9379 21.1165 13.8543 20.9904 13.8106 20.8375C13.8011 20.8042 13.7922 20.7707 13.7853 20.7368C13.7373 20.4992 13.69 20.2614 13.642 20.0237C13.6101 19.8654 13.5776 19.7072 13.5449 19.5491C13.5281 19.468 13.4909 19.3975 13.4273 19.3373C13.4402 19.316 13.4504 19.2959 13.4636 19.2779C13.6055 19.0853 13.7272 18.8802 13.8365 18.6677C13.9175 18.5103 13.9969 18.3521 14.0778 18.1947C14.0896 18.1716 14.1062 18.151 14.118 18.1331Z" fill="currentColor"/>
<path d="M6.59027 18.1651C6.50908 18.1814 6.42475 18.1927 6.3439 18.2161C6.2646 18.239 6.18886 18.2742 6.0991 18.3088C6.11638 18.2663 6.12997 18.236 6.14104 18.2048C6.15258 18.1722 6.16304 18.1391 6.17142 18.1056C6.17887 18.0758 6.18341 18.0453 6.18815 18.0149C6.19346 17.9808 6.19837 17.9465 6.20191 17.9122C6.20543 17.878 6.20701 17.8437 6.20976 17.8054C6.22889 17.7992 6.24627 17.7893 6.26411 17.7884C6.40465 17.7811 6.53671 17.7441 6.66147 17.6796C6.66815 17.6762 6.67558 17.6738 6.6829 17.672C6.68569 17.6714 6.68921 17.6738 6.699 17.6769C6.70048 17.7105 6.67611 17.7382 6.66852 17.77C6.66048 17.8037 6.64947 17.8366 6.64178 17.8703C6.63496 17.9003 6.6306 17.9308 6.62568 17.9611C6.62017 17.9952 6.61483 18.0293 6.61015 18.0635C6.60555 18.097 6.6161 18.1333 6.59027 18.1651Z" fill="currentColor"/>
<path d="M6.33015 6.69773C6.23931 6.67315 6.16251 6.64798 6.08382 6.63229C6.00562 6.61672 5.9255 6.6107 5.84138 6.59985C5.81096 6.51619 5.81543 6.42552 5.78617 6.34325C5.75847 6.26537 5.72716 6.18879 5.69399 6.10266C5.74563 6.10888 5.77803 6.13996 5.81798 6.14913C5.8591 6.1586 5.89954 6.17129 5.94093 6.17919C5.98232 6.18706 6.02444 6.19128 6.06634 6.19614C6.10805 6.20098 6.14991 6.20465 6.18931 6.20857C6.22435 6.24604 6.21291 6.29091 6.22004 6.33146C6.22801 6.37674 6.23526 6.42234 6.24692 6.46675C6.2576 6.50734 6.2741 6.54639 6.28741 6.58636C6.29958 6.62287 6.32571 6.65591 6.33015 6.69773Z" fill="currentColor"/>
<path d="M17.4045 5.83632C17.4873 5.81943 17.5706 5.80773 17.6506 5.78465C17.7311 5.76141 17.8082 5.72684 17.8915 5.6955C17.9038 5.73225 17.8681 5.75565 17.8619 5.78693C17.8553 5.82065 17.8419 5.85299 17.8335 5.88644C17.8252 5.91983 17.8183 5.95371 17.8127 5.98772C17.8071 6.02168 17.8034 6.05597 17.8 6.09024C17.7966 6.12404 17.7945 6.15796 17.7915 6.19727C17.7045 6.21309 17.6208 6.22291 17.5402 6.24448C17.4631 6.26512 17.3893 6.29794 17.3106 6.32668C17.3088 6.31929 17.3015 6.30749 17.3047 6.3003C17.3612 6.17222 17.3838 6.0367 17.3955 5.89857C17.397 5.87981 17.4008 5.86123 17.4045 5.83632Z" fill="currentColor"/>
<path d="M18.1631 17.3944C18.1806 17.4809 18.1921 17.5643 18.215 17.6445C18.238 17.7251 18.2724 17.8024 18.3019 17.8816C18.2977 17.8839 18.2897 17.8919 18.2858 17.8902C18.1576 17.8353 18.0235 17.8057 17.885 17.7941C17.8587 17.7919 17.8325 17.7882 17.807 17.7853C17.7998 17.7711 17.7909 17.7613 17.7904 17.7513C17.7836 17.5955 17.7423 17.4491 17.6659 17.3078C17.6824 17.3058 17.6945 17.3004 17.7028 17.3039C17.8317 17.3582 17.9652 17.3883 18.1055 17.3874C18.1238 17.3873 18.1422 17.3918 18.1631 17.3944Z" fill="currentColor"/>
</svg>
