<svg width="24" height="24" viewBox="0 0 24 24" fill="none" xmlns="http://www.w3.org/2000/svg">
<path fill-rule="evenodd" clip-rule="evenodd" d="M18.3778 11.9738C18.3778 13.2331 18.0122 14.4409 17.3847 15.4384L19.9459 18.0103C21.2003 16.3306 21.9844 14.2309 21.9844 11.9734C21.9844 9.71594 21.2 7.61656 19.9459 5.93656L17.3847 8.50844C18.0119 9.50594 18.3778 10.6613 18.3778 11.9738Z" fill="currentColor"/>
<path fill-rule="evenodd" clip-rule="evenodd" d="M12.0034 18.3781C8.50126 18.3781 5.62657 15.4906 5.62657 11.9741C5.62657 8.4575 8.50157 5.57 12.0034 5.57C13.3103 5.57 14.4597 5.9375 15.4534 6.62L18.0147 4.04813C16.3419 2.7875 14.2513 2 12.0034 2C6.51469 2 2.02 6.46187 2.02 12.0262C2.02 17.5906 6.51469 22 12.0034 22C14.3034 22 16.3941 21.2125 18.0669 19.9531L15.5056 17.3813C14.5125 18.0113 13.3103 18.3781 12.0034 18.3781Z" fill="currentColor"/>
</svg>
